<svg xmlns="http://www.w3.org/2000/svg" width="1024" height="1024" viewBox="0 0 1024 1024">
  <title>big-ideas</title>
  <g>
    <rect width="1024" height="1024" fill="none"/>
    <path d="M10.2,802.3c0,52.2,224.7,94.6,501.8,94.6s501.8-42.4,501.8-94.6S789.1,707.6,512,707.6,10.2,750,10.2,802.3Z" fill="#fff799" opacity="0.25" style="isolation: isolate"/>
    <path d="M311.1,783.3l172.2-2a11.05,11.05,0,1,0,2.2-22,7.39,7.39,0,0,0-2.1,0l-172.3,2a11,11,0,0,0-10.9,11.1v.1a10.93,10.93,0,0,0,10.9,10.9h.3Z" fill="#282d33"/>
    <path d="M177.3,344.3c6.2-118.6,107.4-209.7,226-203.5A215.05,215.05,0,0,1,606.5,339.1c0,7-3.8,106.2-83.5,211.4-23.2,31.7-18.5,94.7-18.4,94.7l-93.8,1.2H380l-94.2,1.1s3.7-63.2-20.5-94.3C183.6,450.6,177.4,351.2,177.3,344.3Z" fill="#eac715"/>
    <path d="M326.3,619.3c-1.7-27-9-77.7-26-99.8-78.1-98.1-82.7-191.8-82.7-192.6.9-103.1,85.1-186,188.2-185.1,100.2.8,181.8,80.6,185,180.7,0,.8-2.4,94.5-77.7,194.6-16.8,22.7-22.9,73.8-24.3,100.9Z" fill="#ffd917"/>
    <path d="M561,356.2a16.73,16.73,0,0,1-17-16.4v-.1A152.35,152.35,0,0,0,389.9,189.4a16.8,16.8,0,1,1,0-33.6h0c102.4-.9,186.3,81.1,187.7,183.5A16.69,16.69,0,0,1,561,356.2Z" fill="#fff"/>
    <polygon points="340.8 663.8 310.3 442.9 321.4 439.4 351.9 660.3 340.8 663.8" fill="#484f59"/>
    <polygon points="450 662.4 475.2 440.9 464 437.7 438.8 659.3 450 662.4" fill="#484f59"/>
    <path d="M466.4,468.7c-7.7,0-11.2-7.4-13.6-12.8-1.1-2.3-3.3-7-4.5-7s-3.2,4.7-4.2,7.1c-2.4,5.5-5.6,13-13.3,13.1s-11.2-7.4-13.6-12.8a42.1,42.1,0,0,0-2.4-4.7c-3.9,7.3-10.9,17.9-19.7,18s-11.2-7.4-13.6-12.9c-1-2.3-3.2-7-4.4-7s-3.3,4.8-4.3,7.1c-2.4,5.5-5.5,13.1-13.3,13.2s-11.2-7.4-13.6-12.8c-1-2.4-3.2-7.1-4.4-7.1s-3.3,4.8-4.3,7.2c-2.4,5.4-5.6,13-13.3,13.1v-9.6c1.1,0,3.3-4.7,4.2-7.1,2.5-5.5,5.6-13,13.4-13.1s11.1,7.3,13.6,12.8c1,2.3,3.2,7,4.4,7s3.3-4.8,4.3-7.1c2.4-5.5,5.5-13.1,13.3-13.2s11.1,7.4,13.6,12.9c1,2.3,3.2,7,4.4,7,3,0,9.2-8.3,13-17.2a5,5,0,0,1,4.6-3.1c7.7,0,11.1,7.4,13.6,12.8,1,2.4,3.2,7.1,4.4,7.1s3.3-4.8,4.2-7.2c2.4-5.5,5.6-13,13.3-13.1s11.2,7.4,13.7,12.8c1,2.3,3.2,7,4.4,7Z" fill="#484f59"/>
    <path d="M504.8,645.1l1.3,112.6a13.87,13.87,0,0,1-13.7,14.1h0L302,774.2a14,14,0,0,1-14.1-13.8l-1.1-112.3Z" fill="#282d33"/>
    <path d="M509.4,667.1l-227.3,2.8A11,11,0,0,1,282,648h0l227.1-2.9a11,11,0,0,1,.1,21.9h0Z" fill="#282d33"/>
    <path d="M408.9,662.8l-126.1,1.5a6.19,6.19,0,0,1-6.2-6,6,6,0,0,1,5.9-6.1h.1l126.2-1.5a6,6,0,0,1,6.1,5.9v.1A6.17,6.17,0,0,1,408.9,662.8Z" fill="#484f59"/>
    <path d="M510,703.9l-227.3,2.7a11,11,0,0,1-.1-21.9h0l227.3-2.8a11,11,0,0,1,9.9,12.1A10.89,10.89,0,0,1,510,703.9Z" fill="#282d33"/>
    <path d="M510.4,740.6,283,743.3a11,11,0,0,1-11.1-10.9h0a10.91,10.91,0,0,1,10.5-11.2h.2l227.3-2.8a11.05,11.05,0,0,1,0,22Z" fill="#282d33"/>
    <path d="M409.6,697.9l-126.1,1.5a6.26,6.26,0,0,1-6.2-6,6.19,6.19,0,0,1,6-6.2l126.3-1a6,6,0,0,1,6.1,5.9v.1A6.12,6.12,0,0,1,409.6,697.9Z" fill="#484f59"/>
    <path d="M409.6,734.8l-126.2,1.5a5.92,5.92,0,0,1-6.1-5.7v-.2a6,6,0,0,1,6-6.2h0l126.3-1.4a6,6,0,1,1,0,12Z" fill="#484f59"/>
    <rect x="316.59" y="668.98" width="107.7" height="11.2" transform="translate(-8.21 4.58) rotate(-0.7)" fill="#30363d"/>
    <rect x="317.09" y="704.58" width="107.7" height="11.2" transform="translate(-8.65 4.58) rotate(-0.7)" fill="#30363d"/>
    <rect x="317.39" y="740.38" width="107.7" height="11.2" transform="translate(-9.09 4.59) rotate(-0.7)" fill="#30363d"/>
    <path d="M175.5,621.4A48.44,48.44,0,1,0,232.9,584l-1.4-.3A47.94,47.94,0,0,0,175.5,621.4Z" fill="#194866"/>
    <path d="M218.7,580.5a44.83,44.83,0,1,0,52.8-35.1c-.3-.1-.7-.1-1-.2a44.24,44.24,0,0,0-51.8,35.1C218.8,580.4,218.7,580.4,218.7,580.5Z" fill="#194866"/>
    <path d="M239.8,544.7a39.35,39.35,0,1,0,46-34.3A40.93,40.93,0,0,0,239.8,544.7Z" fill="#194866"/>
    <path d="M239.2,600.4a54.46,54.46,0,1,0,64.1-42.7c-.3-.1-.7-.1-1-.2A54,54,0,0,0,239.2,600.4Z" fill="#163f59"/>
    <path d="M194.6,617.4a36.42,36.42,0,1,0,42.9-28.5,2.2,2.2,0,0,0-.8-.1,35.88,35.88,0,0,0-42.1,28.6Z" fill="#163f59"/>
    <path d="M225.9,586.2a36.42,36.42,0,1,0,42.9-28.5,2.2,2.2,0,0,0-.8-.1,35.88,35.88,0,0,0-42.1,28.6Z" fill="#163f59"/>
    <path d="M268.4,524.5h1.9A42.32,42.32,0,0,0,282.8,551a46.83,46.83,0,0,0,6.1,5.7l-1.3,7.1a20.46,20.46,0,0,1-39.8-7l2.9-16.1A43.18,43.18,0,0,0,268.4,524.5Z" fill="#fff"/>
    <path d="M233.8,606.6a7.54,7.54,0,0,0-8.4-6.6,7.32,7.32,0,0,0-2.5.8c-7.8,2.8-13,10.2-14,29.5a196.6,196.6,0,0,1-8.1,45.6c-3.1,10.9,10.9,31.7,18.5,18.9a171.52,171.52,0,0,0,12.9-53.7C232.8,632.6,234.1,608.7,233.8,606.6Z" fill="#fff"/>
    <path d="M302.6,575.3s-17.2,66.5-9.4,107.9c5.4,29.4,16.1,9.5,24.8,6.7a168.52,168.52,0,0,1-.5-17.4,436.65,436.65,0,0,1,2.7-56c3.1-19.9,3.1-32.4-.9-37.1A12.31,12.31,0,0,0,302.6,575.3Z" fill="#fff"/>
    <path d="M314.4,681.9s.7-5.4,8.2,25.3,12.1,83.7,19.9,93.8,10.2,4.1,9.1,5.4c-4.8,4.8-6.8,9.4-11.8,8.4s-16.3-21.2-27.8-56.3-18.5-59.1-16.5-69.8S313.4,679.2,314.4,681.9Z" fill="#fff"/>
    <path d="M249.4,601.3s26.5-9,30.1-11.1-10.2,0,1.4-22.1c-7.2-4.5-14.6-8.7-22.2-12.5-1.8,0-3.6,4.5-3.6,4.5A68.78,68.78,0,0,1,249.4,601.3Z" fill="#fff"/>
    <path d="M328.9,800.4s5.1,12.4,8.1,13.4a37.13,37.13,0,0,0,16.2-1.6,94,94,0,0,1,11.5-4.4c2.8,0,17.9,4.5,22.3,4.7a19.86,19.86,0,0,0,8.4-.6c2.5-.9,1.6-2.8,1.6-2.8s-2.2,0-8.8-1.5a118.71,118.71,0,0,1-25.7-10.2c-5.8-3.2-6.2-3.6-9.6-2.3a94.89,94.89,0,0,1-13.9,3.7A68.51,68.51,0,0,1,328.9,800.4Z" fill="#fff"/>
    <path d="M333.7,809.8a17.63,17.63,0,0,0,11.1,9.2,20.08,20.08,0,0,0,11.1,1.7,33.79,33.79,0,0,0,4.5,0s.5-2.9-3.7-3.4c-2.3,0-6.8-3.2-4.7-4.5S333.7,809.8,333.7,809.8Z" fill="#fff"/>
    <path d="M229.1,749.7a237.24,237.24,0,0,1-7.1-40.1c0-14.4,1.3-40.1,1-41s-10.2-7.4-9.1-14.1a228.6,228.6,0,0,1,11.4-29.8,132.93,132.93,0,0,0,1.7-24.4,64,64,0,0,0,34.1-3,275.54,275.54,0,0,0,41.8-21.6s12.5,1.3,3.1,57.7-12.4,59.7-12.8,76.3c-.7,24.3,14.1,51.2,15.5,71.7S233.8,757.1,229.1,749.7Z" fill="#e45471"/>
    <path d="M241.6,746.7c-26.6-10.2-43.9-10.2-107.3-3.1-14.5,1.5-44,3.6-58.7,11.8s-16.9,26.9,48.9,39.8c60.2,11.9,137.8,17.5,157.8,1.3S267.5,757.1,241.6,746.7Z" fill="#aec4db"/>
    <path d="M227.7,821.2s2.7,1.6,4,.6a9,9,0,0,1,11.2-1.9c6,3.4,7.8,7.4,13.5,7.7s19.9-1.9,24,1.4a32.69,32.69,0,0,1,8.7,24.6c-1.6,8.8-4.4,10.2-7.1,5.7a23.88,23.88,0,0,0-6.3-7.1c-1.4-.7-16.6-6.5-21.6-9.1s-12.2-5.7-14.2-6.5-13.1-2.7-14.1-2.7A55.76,55.76,0,0,1,227.7,821.2Z" fill="#e4eef3"/>
    <path d="M280.4,829.4c-4.1-3.4-18.2-1-24-1.4s-7.5-4.3-13.5-7.7a8.41,8.41,0,0,0-11.2,1.8h1.8a150.39,150.39,0,0,1,15.9,8.4,152.08,152.08,0,0,1,20.5,7.4,22.24,22.24,0,0,1,4.6,14.7h.8a22.58,22.58,0,0,1,6.3,7.1c2.7,4.1,5.4,3.1,7.1-5.7A32.65,32.65,0,0,0,280.4,829.4Z" fill="#e45471"/>
    <path d="M229.1,835.8s-97-19.6-118.8-28.1-56-14.1-47.2-37.9c8.1-21.5,32.3-24.1,64-10.8a267.37,267.37,0,0,1,55.7,28.8,342.82,342.82,0,0,1,47.6,34.4Z" fill="#c4d1e1"/>
    <polygon points="278.2 668.7 281 671.4 269.5 690.1 251.9 690.6 249.1 687 259.5 672.7 278.2 668.7" fill="#163f59"/>
    <path d="M221.3,684.5l24.5-6.5,8.7.8-3.8,6.2,7.8,4.8,9.1-.9,5.1-4.2v6a11.29,11.29,0,0,1-4,4.4c-2.8,1.7-13.5,12.4-13.5,12.4l-5.8-2.6-13.8-6.7-10.2,4.2Z" fill="#fff"/>
    <path d="M107.2,811.8a4.08,4.08,0,0,0-.6,5c1.6,2.7,5,4.7,4.4,8.1s-1.4,4.1-5.1,6.8a35,35,0,0,0-13.7,13.8,25.22,25.22,0,0,1-17.8,16.6,38.68,38.68,0,0,1-20.5-1.4c-4.4-1.9-2-4.3.9-5.7a31.8,31.8,0,0,0,13.9-11.5c4.3-6.8,9-12.5,12.1-17.8s6.8-11.2,10.2-16.6S107.2,808,107.2,811.8Z" fill="#fff"/>
    <path d="M94.9,831.2c-6,6.1-9.2,13-17.8,16.6a17.14,17.14,0,0,1-12.6,0,34.69,34.69,0,0,1-10.2,6.7c-3,1.4-5.3,3.8-.9,5.7a38.68,38.68,0,0,0,20.5,1.4,24.88,24.88,0,0,0,18.3-16.1A35.22,35.22,0,0,1,106,831.7c3.7-2.7,4.4-3.4,5.1-6.8s-1.6-4.6-3.4-6.8A121.71,121.71,0,0,1,94.9,831.2Z" fill="#e45471"/>
    <path d="M305.7,764.5s-35.7-52.6-64.8-69.4S138.5,616.8,191,723.4c27.1,55,45.9,88.5,70.8,94.5S332,817.9,305.7,764.5Z" fill="#e4eef3"/>
    <path d="M81.9,814.5s45.6-88.4,58.4-107.9,35.1-58.8,44.5-37.8,16.9,36.4-2.7,64.7a258.94,258.94,0,0,1-44.5,53.4,222.29,222.29,0,0,1-33.1,29.7Z" fill="#e4eef3"/>
    <polygon points="756.8 769.3 760 781.6 745.1 784.6 743.8 770.5 756.8 769.3" fill="#d1dbea"/>
    <path d="M705.4,605.6l5.4-21.2s10.2-1.2,11.2.7a55.69,55.69,0,0,0,12.1,6.9l2.5,13.2-6.6,5.9s-3.4-1.3-2.4-4-3,.5-4.5,1.3S710.1,616.9,705.4,605.6Z" fill="#fff"/>
    <path d="M658,723.1l72.5-141.4,3.1,45.8s13.9,139.8-37.3,138.8S658,723.1,658,723.1Z" fill="#163f59"/>
    <path d="M709.4,773.6a63.62,63.62,0,0,0,20.5-21.1c6.9-22.3-25.5-31.6-42.5-47.9-.9-.8-49.8-1-49.8-1l-59.4,43.9s37,42.1,91.2,41.6C680.2,789.4,683.4,787.8,709.4,773.6Z" fill="#194866"/>
    <path d="M758.8,773.1s-14.6,5.9-15.3,2.7c-4.4-24.5-22-84.7-20.5-112.6,1.2-37.8,1.8-50.3,1.8-50.3s.7-23.9,6.6-31.5c12.2-16,41,7.3,41,7.3Z" fill="#163f59"/>
    <path d="M743.3,780.2l1.4,11.3,9.3.6.9-3.3a48.71,48.71,0,0,0,10.2,3.9l29,1.7v-4.1s-30.7-8.5-34.7-15a7.62,7.62,0,0,1-3.7,2.8A84.48,84.48,0,0,1,743.3,780.2Z" fill="#282723"/>
    <path d="M925.6,789.8a16.46,16.46,0,0,1-7.2-12.1c-2.3-10.2,0-11,0-11l22,17.8Z" fill="#d1dbea"/>
    <path d="M931.1,774l-11.6,12.5s-77.7-30.1-99.7-48a276.49,276.49,0,0,1-45.3-45.8L790,654.3Z" fill="#194866"/>
    <path d="M669.1,704.6l121.2-50.3,8.4,38.8S700.4,809.8,671.1,768A52.23,52.23,0,0,1,669.1,704.6Z" fill="#194866"/>
    <path d="M649.8,652.6l62.6-52.9,7.5-4.6a25.76,25.76,0,0,0-4.6,6.7,250.48,250.48,0,0,1-32.5,59.4,187.31,187.31,0,0,1-28.9,23.6Z" fill="#fff"/>
    <path d="M568.6,637.1l81.9,5.6,3.8,5,4.1-4.4L672.7,674l-20.5,20.5L540.6,684.3a51.86,51.86,0,0,1-37.9-39.2C499.6,628.4,561.9,637,568.6,637.1Z" fill="#b0bfde"/>
    <path d="M655.4,680.6s-1.8-22.9-3.2-34.9l1.6,2.2,4.1-4.4,4.9,10.2,4.7,16.1-5.3,4.1-2.5-4.4Z" fill="#d1dbea"/>
    <path d="M923.3,788.5l1.6,10.2h9.5l.8-3.4a54.55,54.55,0,0,0,10.2,3.8,26.2,26.2,0,0,0,5.6,0,139.29,139.29,0,0,0,21.6-8.7v-4.1a28.41,28.41,0,0,1-21.7,2.8,30.42,30.42,0,0,1-11.8-6.8s-1.6,2.4-3.6,2.9C930.4,786.7,926.2,786.8,923.3,788.5Z" fill="#282723"/>
    <polygon points="495.2 653.3 490.3 623.3 511.8 604.3 523.6 627.9 528.8 649.7 495.2 653.3" fill="#fff"/>
    <path d="M575.8,651c36,34.8,96.7,48.7,96.7,48.7L641.1,790S492.6,735.4,490.2,666.2C489.5,648,522.2,599.6,575.8,651Z" fill="#bcd0e2"/>
    <path d="M549.8,634.9s81.1,29.2,40.3,101.1a19.33,19.33,0,0,1-9.5,6.1l-10.2-7.2S609,671.6,549.8,634.9Z" fill="#e45471"/>
    <polygon points="487.8 641.1 491.6 651.5 532.9 627.7 522.5 622.7 487.8 641.1" fill="#b0bfde"/>
    <path d="M519.5,560.4a11,11,0,0,1-3.3,15.1l-34.9,22.2a11,11,0,0,1-15.1-3.3h0a10.83,10.83,0,0,1,3.2-15h.1L504,557.2a11.08,11.08,0,0,1,15.1,3.3h.4Z" fill="#163f59"/>
    <path d="M523.3,580.4a20.55,20.55,0,0,1-6,27.8l-18,11.6a20.64,20.64,0,0,1-28.2-6h0a20.55,20.55,0,0,1,6-27.8l18-11.6a20.55,20.55,0,0,1,27.8,6Z" fill="#163f59"/>
    <path d="M554.3,598.7l-34-52.8c-5.4-8.4-6.9,4.4-15.3,10.2l-8.1,5.2a18,18,0,0,0-5.4,24.6l24.2,37.6Z" fill="#fff"/>
    <path d="M505.8,593.9a7.86,7.86,0,0,1-2.4,10.2h0a7.82,7.82,0,0,1-10.9-2.3v-.1h0a7.82,7.82,0,0,1,2.3-10.9h.1a7.82,7.82,0,0,1,10.9,2.3v.8Z" fill="#fff"/>
    <path d="M539.2,585a4.33,4.33,0,0,0,6,1.5.1.1,0,0,0,.1-.1l3.2-1.9a4.53,4.53,0,0,0,1.2-6.3s-19.7-15.7-21.8-14.3a7.86,7.86,0,0,0,.8,5Z" fill="#fff"/>
    <path d="M531,609.5c-15.3,10.2-19.8,6.2-23.7,1.1a135.08,135.08,0,0,0,7.3,20.5l3.1,4.8a23.23,23.23,0,0,0,32.2,3.1l21.3-14.3L556,601.4l-3.7-5.5Z" fill="#163f59"/>
    <path d="M546.1,586l-12.2,7.9a12.12,12.12,0,0,0-3.7,16.7h0a23.13,23.13,0,0,0,2,2.4l22-14.1Z" fill="#163f59"/>
    <path d="M537.2,606.8l2.2,3.4a2.05,2.05,0,0,0,2.8.6l10.2-6.3a2.05,2.05,0,0,0,.6-2.8l-2.2-3.5Z" fill="#fff"/>
    <path d="M509,539.9l-31.2,20.5a7.16,7.16,0,0,0-2.5,9.8c.1.1.2.3.3.4l7.9,12.2,37.3-24Z" fill="#163f59"/>
    <path d="M534.2,536.6a11,11,0,0,1-3.3,15.1l-21.2,13.6a10.83,10.83,0,0,1-15-3.2V562h0a10.86,10.86,0,0,1,3.3-15.1h0l21.1-13.5a10.79,10.79,0,0,1,15.1,3.2Z" fill="#163f59"/>
    <rect x="490.67" y="570.67" width="10" height="26.4" transform="translate(-237.11 361.09) rotate(-32.76)" fill="#163f59"/>
    <rect x="486.86" y="553.76" width="29.6" height="31.1" transform="translate(-228.28 362.02) rotate(-32.76)" fill="#163f59"/>
    <path d="M503.6,587a14.94,14.94,0,0,1,4.4-20.5l6.6-4.1a13.18,13.18,0,0,1,18.1,4.5c.2.4.4.7.6,1.1h0a15.06,15.06,0,0,1-4.5,20.5l-4.6,3a14.86,14.86,0,0,1-20.5-4.5Z" fill="#fff"/>
    <path d="M553,752.3S577.6,783,613.9,783c6.2,0,11.8,5,9.5,7.9a29.38,29.38,0,0,1-16,8.2,89.31,89.31,0,0,1-64.3-4c-31.1-16.9-42.1-24.9-43.2-37.4S553,752.3,553,752.3Z" fill="#fff"/>
    <path d="M502.7,656.5s-19.4-19.5-22.1,44.6a126.88,126.88,0,0,0,15.6,64.4L516.7,786l41.9-27.6-12.4-19.6h-3.8a8.55,8.55,0,0,1-3.1-7.3,380.21,380.21,0,0,1,2-59.4C542.7,656.1,507,656.2,502.7,656.5Z" fill="#d1dbea"/>
    <path d="M522.2,738.3l12.2-3.6,4.9-1.1a9.14,9.14,0,0,0,3.2,5.7l-9.5.9-10.8,3.3-13,8.7Z" fill="#b0bfde"/>
    <path d="M609.8,785.1l16.5-14.5s8.9,4.6,8.8,7a57.53,57.53,0,0,0,6,12.5l-5.4,12.3-8.7,1.1s-2-3,0-4.5-2.8-1.3-4.5-1.5S607.2,797,609.8,785.1Z" fill="#fff"/>
    <rect x="689.47" y="592.25" width="56.3" height="5.7" transform="translate(-37.66 1141.63) rotate(-75.56)" fill="#163f59"/>
  </g>
</svg>
