<svg xmlns="http://www.w3.org/2000/svg" width="1024" height="1024" viewBox="0 0 1024 1024">
  <title>icon-primary</title>
  <path d="M801.8,595.37,933.27,335.61a36.4,36.4,0,0,0-65-32.88L761,514.75,544.42,86.84v0a36.12,36.12,0,0,0-8.56-10.94c-.16-.14-.3-.31-.47-.45a36.47,36.47,0,0,0-4.3-3c-.59-.36-1.14-.79-1.75-1.12-.3-.16-.53-.38-.84-.53-1-.53-2.15-.82-3.22-1.24-.88-.35-1.73-.74-2.63-1a37.17,37.17,0,0,0-4-.89c-1-.19-2-.41-3.08-.52s-2.36-.1-3.54-.1a32.31,32.31,0,0,0-3.68.11c-1,.1-2,.31-2.95.49a36.75,36.75,0,0,0-4.1.93c-.85.26-1.66.63-2.49,1a35.62,35.62,0,0,0-3.33,1.28c-.31.16-.55.38-.85.55-.57.31-1.09.7-1.64,1a37.46,37.46,0,0,0-4.41,3c-.14.12-.25.26-.39.38a36,36,0,0,0-8.62,11l0,0L65.93,904.12a36.4,36.4,0,1,0,65,32.88L286,630.57H474.35a36.41,36.41,0,0,0,0-72.81H322.84L512,184,720.2,595.37,564,903.9a36.41,36.41,0,1,0,65,32.89L761,676,893.11,937a36.4,36.4,0,0,0,65-32.88Z" fill="#fa0096"/>
</svg>
