<svg xmlns="http://www.w3.org/2000/svg" width="1024" height="1024" viewBox="0 0 1024 1024">
  <title>logo-white</title>
  <g>
    <path d="M398.31,549.9l59.76-118.08a16.55,16.55,0,1,0-29.53-14.95l-48.78,96.38L281.31,318.73h0a16.36,16.36,0,0,0-3.89-5l-.21-.21a17.06,17.06,0,0,0-2-1.36c-.27-.16-.52-.35-.8-.5-.13-.08-.24-.18-.37-.25-.48-.24-1-.37-1.47-.56s-.79-.34-1.2-.46a15.64,15.64,0,0,0-1.8-.41,13.61,13.61,0,0,0-1.4-.23,14.43,14.43,0,0,0-1.61,0,15.53,15.53,0,0,0-1.67,0c-.46,0-.9.14-1.35.22a17.76,17.76,0,0,0-1.86.42c-.39.12-.75.29-1.13.44s-1,.33-1.51.58c-.14.07-.26.18-.39.25s-.49.32-.75.48a16.85,16.85,0,0,0-2,1.38l-.18.17a16.62,16.62,0,0,0-3.92,5h0l-188,371.53A16.55,16.55,0,1,0,93.32,705.2l70.5-139.3h85.63a16.55,16.55,0,1,0,0-33.1H180.57l86-169.9,94.64,187-71,140.26a16.54,16.54,0,0,0,7.3,22.23,16.34,16.34,0,0,0,7.45,1.79,16.53,16.53,0,0,0,14.78-9.08l60-118.55L439.81,705.2a16.56,16.56,0,0,0,14.78,9.08,16.35,16.35,0,0,0,7.46-1.79,16.55,16.55,0,0,0,7.3-22.24Z" fill="#fff"/>
    <path d="M686.73,407.85h-178a16.55,16.55,0,0,0,0,33.1h178a16.55,16.55,0,0,0,0-33.1Z" fill="#fff"/>
    <path d="M686.73,532.8h-178a16.55,16.55,0,0,0,0,33.1h178a16.55,16.55,0,0,0,0-33.1Z" fill="#fff"/>
    <path d="M686.73,681.14h-178a16.55,16.55,0,0,0,0,33.1h178a16.55,16.55,0,0,0,0-33.1Z" fill="#fff"/>
    <path d="M945.45,681.14H784V424.4a16.55,16.55,0,1,0-33.09,0V697.69a16.55,16.55,0,0,0,16.55,16.55h178a16.55,16.55,0,0,0,0-33.1Z" fill="#fff"/>
  </g>
</svg>
