<svg xmlns="http://www.w3.org/2000/svg" xmlns:xlink="http://www.w3.org/1999/xlink" width="1024" height="1024" viewBox="0 0 1024 1024">
  <defs>
    <clipPath id="a">
      <rect x="397.3" y="353.3" width="189.4" height="336.9" fill="none"/>
    </clipPath>
  </defs>
  <title>shopping</title>
  <rect width="1024" height="1024" fill="none"/>
  <g>
    <polygon points="136.2 463.9 145.4 450.6 160.8 451.6 156.7 464.9 150.5 475.1 136.2 463.9" fill="#e9d6b8"/>
    <path d="M173.1,434.2c0,3.1-3.1,6.1-6.1,5.1l-22.5-1c-3.1,0-6.1-3.1-5.1-6.1h0c0-3.1,3.1-6.1,6.1-5.1h0l22.5,1c3,1,5.1,3,5.1,6.1Z" fill="#163f59"/>
    <path d="M169,444.4c0,6.1-5.1,10.2-11.3,10.2l-11.3-1c-6.1,0-10.2-5.1-10.2-11.3h0c1-6.1,5.1-10.2,11.3-10.2l11.3,1C164.9,434.2,169,438.3,169,444.4Z" fill="#163f59"/>
    <path d="M176.1,461.8l2-32.8c0-5.1-4.1,0-9.2,0h-5.1c-5.1-1-9.2,3.1-10.2,8.2v1h0l-1,23.6Z" fill="#e9d6b8"/>
    <path d="M156.7,444.4a4.41,4.41,0,0,1-4.1,4.1h0a4.41,4.41,0,0,1-4.1-4.1h0a4.41,4.41,0,0,1,4.1-4.1h0A3.82,3.82,0,0,1,156.7,444.4Z" fill="#e9d6b8"/>
    <path d="M174.1,451.6a2.15,2.15,0,0,0,2,2h2c1,0,2-1,3.1-2,0,0-4.1-13.3-5.1-13.3-1,1-1,1-1,2Z" fill="#e9d6b8"/>
    <path d="M162.8,459.8c-10.2,0-10.2-3.1-11.3-7.2-1,4.1-2,7.2-3.1,11.3V467a13.33,13.33,0,0,0,13.3,11.3l13.3,1,1-15.4v-3.1Z" fill="#163f59"/>
    <path d="M177.2,453.6H170c-3.1,0-6.1,2-7.2,6.1h0v2l14.3,1v-9.1Z" fill="#163f59"/>
    <path d="M166.9,460.8v2a1,1,0,0,0,1,1H174c1,0,1,0,1-1v-2Z" fill="#e9d6b8"/>
    <path d="M175.1,422.9l-19.5-1c-2,0-4.1,1-4.1,3.1h0v8.2l23.6,1Z" fill="#163f59"/>
    <path d="M187.4,429.1c0,3.1-3.1,6.1-6.1,5.1h0l-13.3-1c-3.1,0-5.1-3.1-5.1-6.1h0c0-3.1,3.1-5.1,6.1-5.1h0l13.3,1c2-.1,5.1,3,5.1,6.1Z" fill="#163f59"/>
    <rect x="148.3" y="435.18" width="14.3" height="5.1" transform="translate(-290.78 566.78) rotate(-86.58)" fill="#163f59"/>
    <rect x="154.19" y="424.58" width="16.4" height="15.4" transform="translate(-278.82 568.52) rotate(-86.57)" fill="#163f59"/>
    <path d="M157.7,441.3c0-4.1,4.1-8.2,8.2-7.2H170c4.1,0,6.1,4.1,6.1,8.2h0c0,4.1-4.1,8.2-8.2,7.2h-3.1c-3,0-7.1-4.1-7.1-8.2Z" fill="#e9d6b8"/>
    <path d="M205.8,542.7a28.61,28.61,0,0,1,8.2,4.1v5.1c0,1-2-2-3.1,1a6.58,6.58,0,0,0,0,6.1l5.1,4.1h3.1l3.1-2,1-6.1-1-10.2L212,536.6l-7.2,1Z" fill="#edeef0"/>
    <path d="M209.9,531.5l11.3,8.2s3.1,4.1,4.1,7.2c1,2,2,4.1,3.1,5.1a15.28,15.28,0,0,1-2,7.2c-1,1-4.1,0-4.1,0h-6.1s-2-1,0-3.1c2-1,4.1-2,6.1-2V550c-1-3.1-3.1-5.1-5.1-8.2l-9.2-5.1Z" fill="#edeef0"/>
    <polygon points="177.2 505.9 212 529.4 205.8 544.8 180.2 539.6 177.2 505.9" fill="#b0bfde"/>
    <path d="M87,741.4c-4.1,1-7.2,2-11.3,2a16.12,16.12,0,0,1-9.2-3.1c-3.1-1-5.1-3.1-7.2-5.1a85.51,85.51,0,0,1-4.1-15.4l-2,1-2-7.2s5.1-11.3,8.2-11.3,13.3,12.3,13.3,12.3l1,14.3,5.1,8.2s5.1,1,6.1,2C86,739.3,87,741.4,87,741.4Z" fill="#081832"/>
    <path d="M203.8,734.2l7.2,14.3,12.3-5.1-1-4.1,6.1-2,8.2-1,24.6-18.4s-1-3.1-2-3.1c-3.1-2-13.3,5.1-13.3,5.1L226.4,723Z" fill="#081832"/>
    <polygon points="143.4 620.5 134.1 645.1 77.8 719.9 58.4 702.5 105.5 629.8 113.7 569.3 143.4 620.5" fill="#163f59"/>
    <path d="M139.3,539.6s33.8,100.4,44,122.9c10.2,23.6,48.1,58.4,48.1,58.4l-33.8,16.4s-48.1-77.8-58.4-105.5c-8.2-19.5-19.5-38.9-31.7-56.3-13.3-9.2-19.5-26.6-14.3-42C100.4,506.9,139.3,539.6,139.3,539.6Z" fill="#194866"/>
    <path d="M163.8,481.3l-15.4,78.8L92.1,530.4,130,460.8S143.4,447.5,163.8,481.3Z" fill="#bcd0e2"/>
    <path d="M412.7,722.9c0,7.2-5.1,12.3-12.3,12.3h0c-7.2,1-13.3-4.1-13.3-11.3s4.1-13.3,11.3-13.3h2A12.55,12.55,0,0,1,412.7,722.9Z" fill="#484f59"/>
    <path d="M407.6,722.9a7.2,7.2,0,1,1-7.2-7.2h0a7.11,7.11,0,0,1,7.2,7.2Z" fill="#b7bec0"/>
    <path d="M406.5,722.9a5.87,5.87,0,0,1-6.1,6.1h0a5.87,5.87,0,0,1-6.1-6.1,6.64,6.64,0,0,1,6.1-6.1h0a5.87,5.87,0,0,1,6.1,6.1Z" fill="#cdd5d7"/>
    <path d="M403.5,719.9c0,4.1-2,5.1-5.1,2l-10.2-11.3c-2-3.1-1-5.1,2-5.1h5.1a7,7,0,0,1,7.2,7.2h0Z" fill="#cdd5d7"/>
    <path d="M389.1,712.7h7.2c4.1,0,7.2,3.1,7.2,6.1v-5.1a7,7,0,0,0-7.2-7.2h-5.1c-4.1.1-5.2,2.1-2.1,6.2Z" fill="#b7bec0"/>
    <path d="M317.4,722.9c0,7.2-5.1,12.3-12.3,12.3h0c-7.2,0-12.3-5.1-12.3-12.3s5.1-12.3,12.3-12.3h0c7.2,1.1,12.3,6.2,12.3,12.3Z" fill="#484f59"/>
    <path d="M312.3,722.9a7.2,7.2,0,1,1-7.2-7.2h0a7.11,7.11,0,0,1,7.2,7.2Z" fill="#b7bec0"/>
    <path d="M312.3,722.9a6.56,6.56,0,0,1-6.1,6.1h0a5.87,5.87,0,0,1-6.1-6.1,6.64,6.64,0,0,1,6.1-6.1h0a6.64,6.64,0,0,1,6.1,6.1Z" fill="#cdd5d7"/>
    <path d="M308.2,719.9c0,4.1-2,5.1-5.1,2l-10.2-11.3c-2-3.1-1-5.1,2-5.1H301a7,7,0,0,1,7.2,7.2h0Z" fill="#cdd5d7"/>
    <path d="M294.9,712.7h7.2c4.1,0,7.2,3.1,7.2,6.1v-5.1a7,7,0,0,0-7.2-7.2H297c-5.2.1-6.2,2.1-2.1,6.2Z" fill="#b7bec0"/>
    <rect x="343.3" y="538.12" width="7.2" height="158.7" transform="translate(-304.82 894.74) rotate(-83.72)" fill="#cdd5d7"/>
    <rect x="349.38" y="569.76" width="7.2" height="146.4" transform="translate(-310.39 955.91) rotate(-86.49)" fill="#cdd5d7"/>
    <path d="M415.7,708.6h0l-118.8-1c-3.1,0-7.2-1-9.2-4.1-3.1-5.1-3.1-11.3-1-17.4a127.19,127.19,0,0,1,4.1-17.4c0-2,2-3.1,4.1-3.1h71.7c2,0,3.1,1,4.1,3.1h0c0,2-1,3.1-3.1,4.1H298a129.75,129.75,0,0,0-3.1,14.3c-1,3.1-2,9.2-1,11.3,1,1,3.1,1,4.1,1l119.8,1c2,0,4.1,1,4.1,3.1h0c0,2-1,4.1-3.1,4.1h0c-2,1-2,1-3.1,1Z" fill="#b7bec0"/>
    <path d="M295.9,705.5a11.48,11.48,0,0,1-8.2-3.1c-3.1-3.1-2-9.2,0-15.4a127.19,127.19,0,0,1,4.1-17.4c0-1,1-1,2-1h72.7a2.15,2.15,0,0,1,2,2v1a1,1,0,0,0-1,1H297v1L291.9,689q-3,10.8,0,12.3a9.35,9.35,0,0,0,5.1,1l120.8,1a2.15,2.15,0,0,1,2,2h0a2.15,2.15,0,0,1-2,2h0Z" fill="#cdd5d7"/>
    <path d="M306.2,664.6c-1,0-3.1-1-3.1-2l-22.5-73.7a3.06,3.06,0,0,1,2-4.1c2-1,4.1,0,4.1,2h0l22.5,73.7c1,2,0,4.1-2,4.1Z" fill="#cdd5d7"/>
    <path d="M322.6,664.6a2.75,2.75,0,0,1-3.1-3.1l-18.4-71.7c-1-2,0-4.1,2-4.1,2-1,4.1,0,4.1,2v1l17.4,70.7c2.1,3.1,0,4.2-2,5.2Z" fill="#cdd5d7"/>
    <path d="M340,664.6a2.75,2.75,0,0,1-3.1-3.1l-13.3-67.6c0-2,2-4.1,3.1-4.1s3.1,1,3.1,2l13.3,68.6c1,2.1-.1,4.2-3.1,4.2Z" fill="#cdd5d7"/>
    <path d="M357.4,664.6a2.75,2.75,0,0,1-3.1-3.1L346.1,596c0-2,1-4.1,3.1-4.1h0c2,0,3.1,1,4.1,3.1h0l8.2,65.5a3.82,3.82,0,0,1-4.1,4.1Z" fill="#cdd5d7"/>
    <path d="M374.8,664.6a2.75,2.75,0,0,1-3.1-3.1L367.6,599c0-2,1-4.1,3.1-4.1s4.1,1,4.1,3.1h0l4.1,62.5a4.49,4.49,0,0,1-4.1,4.1Z" fill="#cdd5d7"/>
    <path d="M392.2,664.6h0a3.31,3.31,0,0,1-3.1-3.1V602.1a3.31,3.31,0,0,1,3.1-3.1h0a3.31,3.31,0,0,1,3.1,3.1h0v59.4A2.75,2.75,0,0,1,392.2,664.6Z" fill="#cdd5d7"/>
    <path d="M409.6,664.6h0c-2,0-3.1-2-3.1-4.1h0l5.1-56.3a3.31,3.31,0,0,1,3.1-3.1c2,0,3.1,2,3.1,4.1h0l-5.1,56.3A3.29,3.29,0,0,1,409.6,664.6Z" fill="#cdd5d7"/>
    <path d="M421.9,666.6H290.8c-1,0-3.1-1-3.1-2l-36.9-90.1h0s-2-3.1-10.2-6.1a236.19,236.19,0,0,1-23.6-9.2c-2,0-3.1-2-2-4.1h0c1-2,2-3.1,4.1-2l1,1s12.3,6.1,22.5,9.2a21,21,0,0,1,14.3,10.2l3.1,8.2,171,22.5a3.49,3.49,0,0,1,2,1,3.78,3.78,0,0,1,1,3.1l-9.2,57.3A7.49,7.49,0,0,1,421.9,666.6Zm-129-7.1h126l8.2-50.2L264.3,587.8Z" fill="#cdd5d7"/>
    <path d="M421.9,666.6H290.8c-1,0-3.1-1-3.1-2l-36.9-90.1h0s-2-3.1-10.2-6.1a236.19,236.19,0,0,1-23.6-9.2c-2,0-3.1-2-2-4.1h0c1-2,2-3.1,4.1-2l1,1s12.3,6.1,22.5,9.2a21,21,0,0,1,14.3,10.2l3.1,8.2,171,22.5a3.49,3.49,0,0,1,2,1,3.78,3.78,0,0,1,1,3.1l-9.2,57.3A7.49,7.49,0,0,1,421.9,666.6Zm-129-7.1h126l8.2-50.2L264.3,587.8Z" fill="#cdd5d7"/>
    <polygon points="420.9 657.4 429.1 606.2 265.2 584.7 266.2 587.8 427 609.3 418.8 657.4 420.9 657.4" fill="#b7bec0"/>
    <path d="M422.9,663.6h-130c-1,0-3.1-1-3.1-2l-36.9-90.1s-2-3.1-10.2-6.1c-10.2-4.1-23.6-9.2-23.6-9.2a5.24,5.24,0,0,1-2-4.1c-2,1-2,3.1-1,5.1a1,1,0,0,0,1,1h0c1,0,13.3,6.1,23.6,9.2,8.2,3.1,10.2,6.1,10.2,6.1l36.9,90.1c1,1,2,2,3.1,2H422a2.75,2.75,0,0,0,3.1-3.1h0C423.9,663.6,423.9,663.6,422.9,663.6Z" fill="#b7bec0"/>
    <path d="M292.9,662.5c-1,0-1,0-1-1L255,570.4h0a20.76,20.76,0,0,0-10.2-6.1c-10.2-3.1-22.5-9.2-23.6-9.2l-1-1v-1a1,1,0,0,1,1-1h1a225.71,225.71,0,0,0,23.6,9.2c10.2,3.1,13.3,8.2,13.3,9.2l4.1,9.2,172,22.5h1v1L427,660.5a1,1,0,0,1-1,1Zm0-3h129l9.2-54.3-169-22.5Z" fill="#e5e8ec"/>
    <path d="M242.7,560.1l-22.5-9.2a4.84,4.84,0,1,0-3,9.2h0l23.6,9.2Z" fill="#484f59"/>
    <path d="M323.6,661.5c-1,0-1,0-1-1L317.5,640l-15.4-1,6.1,20.5c0,1,0,1-1,2h0c-1,0-1,0-1-1L300,638l-16.4-1v-2l15.4,1-7.2-25.6-20.5-2v-3.1l19.5,2-6.1-22.5c0-1,0-1,1-2h0c1,0,1,0,1,1l7.2,23.6,17.4,2-5.1-21.5v-1l1-1h0c1,0,1,0,1,1l5.1,22.5,17.4,2-4.1-20.5c0-1,0-1,1-2h0c1,0,1,0,1,1l4.1,22.5,18.4,2L348,593.9c0-1,0-1,1-1h0c1,0,1,0,2,1l3.1,20.5,17.4,2-1-19.5v-1h1c1,0,1,0,1,1l1,19.5,17.4,2V599a1,1,0,0,1,1-1h0a1,1,0,0,1,1,1v18.4l17.4,2,2-18.4a1,1,0,0,1,1-1h1v1l-2,18.4,10.2,1v4.1l-9.2-1-2,19.5,12.3,1v3.1l-12.3-1-1,14.3a1,1,0,0,1-2,0v-1l1-14.3H395v15.4a1,1,0,0,1-1,1h0c-1,0-1,0-2-1h0V645.1l-16.4-1,1,16.4v1h-1c-1,0-1,0-1-1h0l-1-16.4-16.4-1,3.1,16.4c0,1,0,1-1,2h0c-1,0-1,0-1-1l-2-18.4H340l3.1,18.4c0,1,0,1-1,2h0c-1,0-1,0-1-1L337,643.1l-16.4-1,5.1,19.5c0,1,0,1-1,1h0ZM395.3,642l16.4,1,2-19.5-17.4-2Zm-18.5-1,16.4,1V621.5l-17.4-2Zm-19.4-1,16.4,1-1-22.5-17.4-2Zm-18.5-1,16.4,1-3.1-22.5-17.4-2Zm-18.4-1,16.4,1-5.1-24.6-18.4-1Zm-19.4-1.1,16.4,1-7.2-24.6-17.4-2Z" fill="#e5e8ec"/>
    <path d="M182.3,515.1s-12.3-25.6-16.4-32.8c-4.1-6.1-9.2-11.3-14.3-17.4,0,0-8.2,5.1-9.2,9.2a46.92,46.92,0,0,0,3.1,28.7l34.8,36.9,7.2-8.2Z" fill="#b0bfde"/>
    <polygon points="142.3 454.7 137.2 458.8 157.7 474.1 158.7 468 142.3 454.7" fill="#b0bfde"/>
    <path d="M573.4,504.8H843.7a15.81,15.81,0,0,1,15.4,15.4V677.9a15.81,15.81,0,0,1-15.4,15.4H573.4A15.81,15.81,0,0,1,558,677.9V520.2C557.1,512,564.2,504.8,573.4,504.8Z" fill="#e5e8ec"/>
    <path d="M573.4,502.8H843.7a15.81,15.81,0,0,1,15.4,15.4V675.9a15.81,15.81,0,0,1-15.4,15.4H573.4A15.81,15.81,0,0,1,558,675.9V518.1C557.1,510,564.2,502.8,573.4,502.8Z" fill="#2c7eea"/>
    <path d="M683,546.8h0c2-1,3.1,0,4.1,0s-1-1-1-1l2,1c0-1,0-1-1-2,2,0,2-3.1,1-5.1h3.1c0-1-2-1-2-2,1,0,1-1,2,0s0-1,0-2,1-1,2-1,3.1,1,2-1-1,0-2-1c0-1-1-1-2-1a11,11,0,0,0-3.1,1c-1,0,3.1-1,3.1-2s-2-1-4.1-1-2-1-3.1,0-1,0-1-1c-1-1-4.1,0-5.1,1s-3.1,0-4.1,1,1,2,0,2h-5.1c-3.1,0-4.1,3.1-7.2,3.1,0,1,1,0,1,1s-2,1-3.1,2h-2c1,0,1,0,2,1s2-1,2,0,2-1,2,0-3.1,0-4.1,0,1,1,2,2,1-1,2-1c1,1,2,1,4.1,1a4,4,0,0,0,1,3.1v2c1,1,1-1,2,0s-2,0-3.1,0,2,1,3.1,2c-1,0-1,1-2,2,1,0-1,1-1,2,2,1,0,5.1,2,7.2h2c1,0,1,1,2,1s1-1,1-2c0-2,2-2,1-5.1,1,0,0-1,1-1s1-1,2,0l1-1c1,0,2-2,4.1-2s3.1-2,2-3.1C685.1,547.8,683,546.8,683,546.8Zm3.1-1v-2h1a3.13,3.13,0,0,0-1,2Zm2-15.4c0,1-1,1-1,2-1-1-3.1-1-4.1-1C684,529.4,686.1,530.4,688.1,530.4Z" fill="#2366bd"/>
    <path d="M645.1,534.5v2h2c1,0,2-3.1,3.1-2s-2,0-1,1c0,1-1,0-1,1s1,0,1,1-1,0-2,0-1,1,0,2,3.1,0,4.1,1c-2,1-4.1-1-5.1-1s2,1,2,2c2,0,5.1,1,6.1-1,1,0,1,0,1-1s-1,0-1-1h2c0-2,2-2,1-3.1,2,0,2-2,4.1-1,0-1,1-1,2-1,0-1-1-2,0-2s3.1,0,4.1-2-1,0-1-1a101.61,101.61,0,0,0-17.4,1c0,2,1,2,2,3.1-2,0-1-2-4.1-2v2c0,1-1,0-1,1C645.1,534.5,644.1,534.5,645.1,534.5Z" fill="#2366bd"/>
    <path d="M719.9,534.5c0-1,2,0,1-2-3.1,0-5.1-1-8.2-1v1C714.8,534.5,717.8,534.5,719.9,534.5Z" fill="#2366bd"/>
    <path d="M707.6,535.6c0,1-1,1,0,2s1-1,3.1-1c1,0-1,1-1,3.1,1,1,1,1,2,1a1,1,0,0,0,1,1,10.6,10.6,0,0,1,1-4.1c1,1,1,2,3.1,2,0-2-2-3.1-2-4.1,0,1-1,0-1,0-1,0-1,0-1-1,1-1,0-2-2-2s0,2,0,2c-1-2-4.1-3.1-4.1,0a8.7,8.7,0,0,0,.9,1.1Z" fill="#2366bd"/>
    <path d="M739.3,533.5c0-2-3.1-1-3.1,0S738.3,533.5,739.3,533.5Z" fill="#2366bd"/>
    <path d="M755.7,535.6c2,0,5.1,1,5.1-1a4.56,4.56,0,0,0-5.1-1Z" fill="#2366bd"/>
    <path d="M818.2,555c1,0,1-1,2-1s1,2,3.1,2,0-2,0-3.1-2-2-3.1-1v-2c-2,0-3.1-2-5.1-2,0-1-1-1-2-1,0-1-2-1-4.1-1,0,1,1,2,0,2s-1-1-2-2c-1,0-3.1,0-4.1,1-2,1-1-3.1-3.1-2a1,1,0,0,1-1,1l-4.1-2a1,1,0,0,1-1,1c0-1-1-1-2-1,1-1,0-1,0-1h-4.1s1,1,0,1h-8.2c-2,0-1-1-2-1a4,4,0,0,1-3.1-1h-1a3.78,3.78,0,0,0-3.1-1c0-1,1-1,1-2s-1-1-2-2h-4.1c-1,0-1-1-2-1s-1,1-1,2c-2-1-1,1-2,1s0-1-1-1c-1,1-2,2-4.1,1,0,1-1,1-2,1s0,2-1,2-2-1-2,1,2,0,1,2c-1,0-1-1-3.1-1h0c0-1,0,1-2,1s0-2-2-1l-3.1,3.1c-1,0-3.1,0-4.1-1,0,2,2,1,1,2h-4.1a5.24,5.24,0,0,1-4.1,2v-2h-2c0,2,0,3.1-2,3.1,0,1-1,1-2,1s0,1,0,1c-1-1-1-2-2-3.1h4.1c1-2-2-3.1-4.1-3.1-1-1-1-1-2-1,0-1-1-1-1-2h-3.1l2,3.1h-1a14.92,14.92,0,0,1-4.1,3.1,7.85,7.85,0,0,1-2,4.1h-1v1c-2,0-2,2-3.1,4.1,1,1,1,2,1,4.1,0,1,2,0,2,1,1,1-1,1-1,2v2h-3.1c0,1-1,1-1,2-2,0-1,2-2,2v1a3.49,3.49,0,0,0-2,1c-1,0-2,0-1,1s1,0,2,0,1,1,1,3.1c0,1,0,1-1,1H697c0,1,1,4.1-1,4.1-1,0,1,1,1,3.1a4,4,0,0,1,3.1,1c1,1,1-1,2,0,1-1,1-3.1,1-4.1,1,0,1-2,3.1-3.1h3.1c-1,1-1,3.1,0,5.1,2,0,1-2,1-3.1h0a1,1,0,0,1,1,1c1,0,2,1,3.1,2,0,1-1,1-2,0l2,2a3.49,3.49,0,0,1,1-2c1,0,0-1,0-1a1.39,1.39,0,0,0,2,0c1-1-7.2-2-6.1-4.1a14.92,14.92,0,0,0,4.1,3.1v1l1,1v3.1h2c1,0,0-3.1,0-4.1h1v3.1c0,1,0,1,1,1,1,1,3.1,1,5.1,0,1,0-1,2,0,2s0-2,2-2v2c-1,0,0,3.1-2,3.1-2-1-5.1-1-8.2-1-1,0-1,1-1,2-1-2-4.1-2-5.1-3.1-1-2,0-1-1-2s1-1,0-1a9.35,9.35,0,0,0-5.1,1,13.09,13.09,0,0,0-6.1,1c0-1-1-1-2-1,0,1-1,1-2,2s0,4.1-1,5.1l-3.1,3.1c0,1,0,3.1-1,4.1v8.2a7.92,7.92,0,0,1,2,5.1,5.24,5.24,0,0,0,4.1,2h4.1c1,0,1-2,2-2s0,1,1,1h3.1c1,1,1-1,2,0,0,2-1,4.1-1,6.1s2,3.1,2,5.1c1,1,1,3.1,1,4.1a11.24,11.24,0,0,0-1,5.1c1,1,2,3.1,3.1,5.1v3.1c1,2,1,5.1,3.1,6.1,3.1,0,4.1-2,7.2-2,0-2,1-3.1,3.1-4.1v-3.1c0-1,1-1,2-1,0-3.1,1-6.1,4.1-7.2v-9.2c1-1,1-3.1,2-4.1l2-2c1-2,3.1-5.1,4.1-7.2s1-3.1,0-4.1-1,1-2,1h-2c0-2-2-3.1-3.1-4.1s-2-2-1-4.1-1-1-2-2v-3.1s2,2,1,3.1,2,3.1,3.1,4.1,1,3.1,2,5.1c2-1,4.1-2,6.1-3.1a1,1,0,0,1,1-1c1,0,2-2,3.1-2s1-1,1-3.1c0-1-2-1-2-3.1-1,0-2,0-2,1,0-1-1-2-1-3.1-1,0-1-1-2-1a1,1,0,0,0,1-1c2,1,1,5.1,4.1,4.1,0,0,1,0,0,2,2,0,2-1,3.1-1s0,1,1,1a7.85,7.85,0,0,1,4.1,2c1,1,0,0,0,1s1,0,2,1v2a7.85,7.85,0,0,1,2,4.1l2,2v2h2a13.09,13.09,0,0,0,1-6.1h1v-3.1c1,0,1-1,2-1s1-2,2-3.1,2-1,3.1-1c1,1,1,3.1,2,3.1s0,1,0,2,2,0,3.1,1,0,1,0,2c1,0,1,1,2,2,0,1-1,1-1,2s1,1,1,2l4.1,4.1c0-2-1-2-1-4.1-1-1-2-1-2-2s0-3.1,1-3.1,1,2,2,2v1c3.1,0,4.1-3.1,3.1-7.2a1,1,0,0,1-1-1c0-1-1-1,0-2s1,1,2,1,2-1,3.1-1c1-1,2-3.1,3.1-5.1h-3.1c1,0,0-4.1,1-4.1-1,0-1-1-1-2s-1-1-1-2v-2c0-1,1,0,1-1s-1-2,0-2,1,1,2,2c0,1,0,2,2,3.1,2-1,0-5.1,1-7.2a3.1,3.1,0,0,1,2-1c1-1,1-3.1,2-4.1v-7.2c0,2,1,2,1,3.1s0,4.1,1,4.1c1,1,0-1,0-2s0,1,1,0-1-1-1-2a3.49,3.49,0,0,0-1-2s0-3.1-1-3.1,0,1-1,1c0-2-3.1,1-3.1-1s1-1,1-2,0-3.1,1-3.1h1c1,0,3.1,1,4.1,1v1h2c1,0,0-1,0-2a1,1,0,0,1,2,0c1,0,1-2,1-1-1,2-2,4.1-3.1,6.1,0,1,1,1,1,2a4,4,0,0,0,1,3.1c1,0,1-2,2-2,1-1,1-1,0-3.1-1-1,1-1,1-1,0-1-1,0-1-1,0-3.1,2-2,5.1-2a3.1,3.1,0,0,1,1-2c1-1,3.1-1,4.1-1C820.2,558.1,818.2,556,818.2,555Zm-103.4,3.1c1,1,1,1,2,1v4.1c-1,0,0-2-1-1s0,3.1-1,4.1h-2c-1,0-1,1-2,1s-1-1-1,0-1-1,0-1a3.78,3.78,0,0,1-1-3.1c1,0,1,4.1,4.1,3.1,1-1,1-3.1,2-4.1v-2c0-3.1,2-4.1,3.1-6.1h1C716.8,556,714.8,556,714.8,558.1Zm3,3.1c0-1,1-1,2-1,1.1-1.1.1,1-2,1Zm9.2,32.7Zm21.5-45h0c-1,0,1.1-1.1,0,0Zm19.5-6.2Zm1,0Zm0,0Zm14.4,41a3.49,3.49,0,0,1,2-1c1,0,0,1,0,1-1-1-1-1-2,0Z" fill="#2366bd"/>
    <path d="M674.8,621.6h0a5.41,5.41,0,0,1-4.1-2h-2c-1-1-3.1,0-3.1-2s-2,0-2-1-1-5.1-4.1-4.1c-1-1-2-2-2-3.1a5.41,5.41,0,0,1-4.1-2c-2-1,0,1-1,1s-2-1-2-3.1c0-1,0,1-1,1a1,1,0,0,1-1-1c-1,0,0,1-2,1s-2,2-2,3.1c0-1,0-2-1-2s-1,1-2,1c-1-2,0-3.1,0-5.1s-3.1-1-4.1-1c-1-1,1-2,1-4.1h-3.1c0,1,0,2-1,2-4.1,0-2-5.1-2-8.2,1,0,2-1,3.1-1s2,1,4.1,1,0-1,0-1,3.1,0,4.1,1c0,1,1,3.1,2,3.1V592a3.49,3.49,0,0,1-1-2c0-2,2-3.1,4.1-4.1v-2h2c-1-2,1-1,1-3.1l3.1-1c0-1-1-1-1-2,1-1,3.1-1,4.1-2a1,1,0,0,1-1,1c1,0,2-1,3.1-2-1,0-2,0-2-2s1-1,2-1,0-1,0-2c2,1,3.1-1,4.1-1a12.88,12.88,0,0,1-3.1,4.1h2c1,0,0,1,0,1h2c1,0-1-2,0-2-1,0-1-1-2-2v-4.1c-1-1-1,0-2,0s-2-2-2-3.1v-1c-1-1-1-3.1-3.1-3.1s0,2,0,2h0v-3.1c-2,1-1-1-3.1-1h-2c0,3.1-1,5.1,0,7.2,0,0-2-1-2,0s1,0,1,1a7.85,7.85,0,0,1-2,4.1c-1-1-1-3.1-1-4.1s0,0-1,0h-1c-1-1-2-2-3.1-2,0-2-1-1-1-2s1,0,1-1a2.15,2.15,0,0,1,2-2c1-1,1-2,3.1-3.1,2,0,0-1,0-1,2,0,3.1-1,5.1-1v-3.1a1,1,0,0,1-1-1,4,4,0,0,1,3.1,1c0-1,1,0,2,0,0,2,1,1,1,2s-4.1,2-4.1,4.1a3.78,3.78,0,0,0,3.1,1c1,0,3.1,3.1,5.1,3.1-1-2,1-2,0-4.1s-1-1-1-2,2,1,2,1c1,0,0-2,1-1,1,0,0-1,0-2a1,1,0,0,0-1-1c-1,0-2-1-3.1-1a1,1,0,0,1,1-1,3.49,3.49,0,0,1-1-2h-3.1c0-1-1-1-1-2h-3.1c0-2-2-1-3.1,0,0-1,0-2-1-2s-3.1,4.1-1,6.1h1a3.49,3.49,0,0,1-1,2c-1-1,1-1,0-2s-2-2-2-3.1c-1,0-1-1-2-1s0,1,0,1c0,1,1,3.1,0,4.1s-1-1,0-2-2,1-3.1,1-2-1-3.1-2h3.1c1,0,0-1,0-2s2-2,4.1-2c0-1-1-2-1-3.1H638c-2,4.1-3.1,4.1-3.1,6.1l-1-2c-1,0-2,0-2-1,2,1,5.1-1,7.2-2,0,1,3.1,1,3.1,0s0-2-1-2c-2,0-3.1,2-4.1,2v-2h-1v1H632c0,2-1,1-2,2s1,0,1,0l-1,1c-1-2-3.1-2-5.1-2,0,1-1,2-2,3.1,0,1,1,1,0,2a4,4,0,0,0,3.1-1c-1,2,2,0,2,1s-1,0-1,1,3.1,0,3.1,2c1-1,1,0,3.1,0h0s1-1,1,0,0,0-1,0,1,2,0,2,0-1,0-1c-3.1,0-4.1-2-7.2-2-1,0-1-1-2-2-1,0-1,1-2,1v-2c-1,0-1,1-2,1h-2c-1,0,0,1-1,1s0,0,0-1-1,0-2,0a36.18,36.18,0,0,1-10.2-2c-2,1-4.1,1-7.2,2-1,1,0,1,1,2s2,0,2,1a1,1,0,0,1-1,1,3.49,3.49,0,0,0-2-1,7.92,7.92,0,0,0-5.1,2c2,0,2,1,2,2h4.1c-2,3.1-8.2,0-7.2,5.1,1,1,1,1,1,3.1h2c1,0,0,1,0,1a1,1,0,0,0,1,1c0-1,1-1,2-1h1c-1,1-2,3.1-3.1,4.1-2,1-2,2-4.1,2v2c0,1,2-1,3.1,0s1-1,2-1a12.53,12.53,0,0,1,5.1-5.1h1a1,1,0,0,1,1-1h0a9.94,9.94,0,0,0-1,3.1c2,0,3.1-1,5.1-2V560c1,0,1-1,3.1-1,1,1,2,1,2,2,2,0,4.1,2,3.1,4.1h0c2,0,0-2,1-2,0,2,0,5.1,1,7.2-1,1,0,1,0,2s-1,0-1,1v9.2c1,0,1,1,2,2s1,3.1,2,4.1,0,1,0,1,2,2,2,3.1c1,1,1,1,2,0s0-1,0-3.1h0c1,0,0,0,0,1,1,1,2,2,2,3.1a9.35,9.35,0,0,0,1,5.1c3.1,1,4.1,2,7.2,2a3.49,3.49,0,0,0,1,2h2c0,1,1,1,1,2v1c2,0,2,2,4.1,2s0-1,1-1a4,4,0,0,0,1,3.1c0,1-1,0-1,1s-1,2-1,3.1,1,3.1,0,4.1,2,1,2,1c1,1-1,0-1,1,0,2,1,4.1,3.1,4.1v2c0,1,2,3.1,3.1,3.1,1,1,1,3.1,2,4.1v3c-1,1,0,3.1,0,5.1s-1,4.1-2,7.2c-1,2,1,0,2,0a2.15,2.15,0,0,1-2,2c0,1,1,0,1,1v2c0,1,1,3.1,1,5.1-1,2,1,2,2,3.1s0,1,0,1c1,0,1,0,2,1,1,0,3.1,0,3.1-1-1,1-3.1,0-4.1-1h0c0-1-1,0-1-2s1-2,1-3.1,1,0,1-1-1,5.1-1,4.1,2-4.1,0-4.1c2,0,2-1,2-2s2-1,3.1-1,0-2-1-3.1h3.1c1,0,0-2,1-2,0-2,1-2,2-3.1v-1c1,0,1-1,1-2,1,0,2-1,3.1-1,0-2,2-4.1,1-6.1a3.49,3.49,0,0,0,1-2h1a3.49,3.49,0,0,0,1-2c0-1,0-2,1-2s0-1,0-2C675.8,623.6,675.8,622.6,674.8,621.6ZM638,542.7c1,0,0,1,0,0C638,544.8,636.9,542.7,638,542.7Zm-1.1,2.1c1,0,1,1,2,0s-.9,1-2,0Zm-16.4,47.1c1.1,0,1.1,1,0,0,2.1,1,0,1,0,0Z" fill="#2366bd"/>
    <path d="M737.3,547.8c0-1-2-2-2-4.1,2,0,3.1-2,4.1-3.1,2-1,3.1-1,3.1-2h-1v1c-2,0-4.1,1-6.1,2,0,2-1,1-1,3.1s-1,1-1,2c1.8.1,2.9,1.1,3.9,1.1Z" fill="#2366bd"/>
    <path d="M788.5,541.7c1,0,1-1,2-2-1,0-1-1-3.1-1-1,0,0,1,0,1h-2C785.4,541.7,787.5,540.7,788.5,541.7Z" fill="#2366bd"/>
    <path d="M691.2,556c0-1,1,0,2-1,0-1-1-2-1-3.1h-3.1c-1,0-1-1-2-1s-1,1-1,2,1,0,2,0-2,1-2,2c2,0,1,1,2,1S691.2,556,691.2,556Z" fill="#2366bd"/>
    <path d="M649.2,556c-1,0,0-1-1-2s-1-1-2,0,0,2-1,2,1,1,2,1C646.1,555,649.2,558.1,649.2,556Z" fill="#2366bd"/>
    <path d="M703.5,568.3h0c-1-2-3.1-3.1-2-5.1s-1-1-1-1a1,1,0,0,0,1-1c-1,0-2,0-2,1v4.1l1,1c0,1-1,2-1,1a4,4,0,0,0,1,3.1c-1,0-2,0-2,1h5.1C702.5,569.3,701.4,568.3,703.5,568.3Z" fill="#2366bd"/>
    <path d="M695.3,569.3c1,0,2,0,2-1,1-1,0-1,0-3.1h-2c0,1-1,0-1,1A3.78,3.78,0,0,0,695.3,569.3Z" fill="#2366bd"/>
    <path d="M799.7,578.6c1.1,0,0,1,0,0,2,1,1-1,3.1-2-2,0-2-1-4.1-1l1,3C798.7,579.6,798.7,578.6,799.7,578.6Z" fill="#2366bd"/>
    <path d="M792.6,588.8c0,1,1,1,1,2a2.15,2.15,0,0,1,2-2h1c1-1,3.1-1,4.1-3.1,1-1-1-4.1-1-6.1h-1v5.1c-1,1-2,1-3.1,2-1-1-3-1-3,2.1,0,1,2-1,0,0Z" fill="#2366bd"/>
    <path d="M717.8,585.7c0,1,1,0,2,1,.1-1,.1-1-2-1Z" fill="#2366bd"/>
    <path d="M786.4,597c0,1,1,1,1,2,1,0,1-2,1-3.1S786.4,596,786.4,597Z" fill="#2366bd"/>
    <path d="M645.1,596Z" fill="#2366bd"/>
    <path d="M648.2,598h0C646.1,597,647.2,598,648.2,598Z" fill="#2366bd"/>
    <path d="M648.2,597v2h1c0-1,0-1-1-2Z" fill="#2366bd"/>
    <path d="M647.2,602.1c1,0,2,0,2,1s1,0,2-1c0-2-2-2-4.1-2a1,1,0,0,0-1-1s-2,0-2-1H640c0,1-1,1,0,2s1-1,3.1-1,1,2,3.1,2c1,0,2,0,1,1Z" fill="#2366bd"/>
    <path d="M651.3,599h0C649.2,599,651.3,600.1,651.3,599Z" fill="#2366bd"/>
    <path d="M787.5,602.1c0,1,1,1,2,2,0-1,1-1,1-3.1C790.5,600.1,787.5,601.1,787.5,602.1Z" fill="#2366bd"/>
    <path d="M780.3,603.1c1,0,1-1,1-2h-1C779.3,602.1,779.3,602.1,780.3,603.1Z" fill="#2366bd"/>
    <path d="M644.1,602.1h0l2,1C647.2,603.1,645.1,602.1,644.1,602.1Z" fill="#2366bd"/>
    <path d="M652.3,603.1c1,0,2,0,2-1l-2,1Z" fill="#2366bd"/>
    <path d="M685.1,603.1c0,1.1-1.1,0,0,0Z" fill="#2366bd"/>
    <path d="M790.5,608.3c1,1,1,0,2,0s-1,1,0,2c0-1,2-2,3.1-1,0-1-1-1-2-2s0-2-1-2,0,1,0,2C791.6,608.3,790.5,607.2,790.5,608.3Z" fill="#2366bd"/>
    <path d="M759.8,609.3c0,2-1,2,0,3.1s1-1,2-1C760.8,610.3,760.8,610.3,759.8,609.3Z" fill="#2366bd"/>
    <path d="M780.3,618.5c0,1,2,2,1,3.1,2,0,2,1,4.1,1,0-1,1,0,1-1s-1,0-1,0a3.77,3.77,0,0,1,2-3.1c-1-1,0-2,0-3.1a1,1,0,0,0,1-1,3.78,3.78,0,0,0-3.1-1C784.4,615.4,780.3,615.4,780.3,618.5Z" fill="#2366bd"/>
    <path d="M774.1,615.4c0-1-1-1-1-2a1,1,0,0,0-1-1h-2c0,4.1,4.1,3.1,4.1,7.2,1,0,2,2,3.1,2s0-3.1,0-4.1C776.2,617.5,775.2,616.4,774.1,615.4Z" fill="#2366bd"/>
    <path d="M791.6,618.5c0-1-2-1-2-2-2,1-3.1,5.1,0,6.1,0-1,0-2,1-2s1,2,2,1-1-2.1-1-3.1Z" fill="#2366bd"/>
    <path d="M797.7,617.5c-1-1-3.1-1-3.1,1C794.6,619.5,797.7,618.5,797.7,617.5Z" fill="#2366bd"/>
    <path d="M801.8,618.5h-3.1a1,1,0,0,1-1,1c-1,0,0-1-2-1s-1,0-1,1,1,0,1,0a12.88,12.88,0,0,1,4.1,3.1v2c2-1,2,1,3.1,1s1-2,2-1c1,0,2,2,3.1,1,1,1,1,0,1-1s-2-1-2-2v-1C803.8,620.5,802.8,618.5,801.8,618.5Z" fill="#2366bd"/>
    <path d="M785.4,625.7c0-1-1-1-1-2-2,0-4.1-1-6.1-1,0,1-1,1-1,2C780.3,624.6,781.3,626.7,785.4,625.7Z" fill="#2366bd"/>
    <path d="M807.9,639v-4.1c0-2-1-1-1-1,0-2-2-3.1-2-6.1h-1c-1,0,0,5.1-1,5.1-1,1,0-1-2-1s-1,0-1-2,1,0,1-1-4.1,0-6.1-1,0,1,0,1c-1,0-2,1-3.1,1,0,1,0,3.1-1,3.1h-2c-1,0,0,2-1,2s0-1-1,0,0,3.1-2,3.1-2,0-2,1a4.71,4.71,0,0,1,0,5.1,3.49,3.49,0,0,1,1,2v4.1c1,0,1,1,2,1s2-2,4.1-1c2-1,4.1-2,6.1-1,1,1,2,2,2,3.1,1-1,1,1,2,0s0,2,0,2a13.09,13.09,0,0,0,6.1,1l2-2c0-2,2-1,1-3.1,1,0,1-1,2-1s1-2,1-3.1a13.09,13.09,0,0,0-1-6.1C809,638,807.9,639,807.9,639Z" fill="#2366bd"/>
    <path d="M736.3,627.7a3.78,3.78,0,0,0-1,3.1c-1,0-2,1-3.1,2v2c0,1,0,1-1,2,1,1,0,3.1,1,4.1s1,0,3.1,0,0-2,1-3.1v-2a9.35,9.35,0,0,1,1-5.1C737.3,630.8,737.3,627.7,736.3,627.7Z" fill="#2366bd"/>
    <path d="M824.3,650.2c0-1,0-2-1-2l1,2c-1,2-2,2-2,3.1,2,0,1,1,0,2,2,0,2-2,3.1-3.1s1-1,2-1S826.4,650.2,824.3,650.2Z" fill="#2366bd"/>
    <path d="M821.2,654.3c0,1-1,1-1,2h-1a2.15,2.15,0,0,1-2,2c-1,1-2,2-2,3.1,1-1,2,0,3.1,0s1-1,1-2h2c0-2,2-1,2-3.1C823.3,653.3,822.3,654.3,821.2,654.3Z" fill="#2366bd"/>
    <path d="M800.8,655.4a9.94,9.94,0,0,1,1,3.1c0,1,2-1,2-3.1C802.8,655.4,800.8,654.3,800.8,655.4Z" fill="#2366bd"/>
    <path d="M661.5,664.6h0C663.6,663.6,661.5,663.6,661.5,664.6Z" fill="#2366bd"/>
    <path d="M829.4,555c11.3,1,21.5-8.2,22.5-19.5S843.7,514,832.4,513H803.7c-11.3,1-20.5,10.2-19.5,22.5A21.92,21.92,0,0,0,803.7,555Z" fill="#e5e8ec"/>
    <path d="M804.9,553h0a16.94,16.94,0,0,1-12.3-5.1,19.38,19.38,0,0,1-5.1-13.3,18.4,18.4,0,0,1,36.8,0c-1,10.2-9.2,18.4-19.4,18.4Zm0-33.8a16.51,16.51,0,0,0-14.3,16.4c1,7.2,6.1,13.3,14.3,14.3h0c8.2-1,14.3-8.2,13.3-16.4-1-7.2-6.2-13.3-13.3-14.3Z" fill="#2366bd"/>
    <path d="M828.4,553h0c-10.2,0-17.4-8.2-17.4-18.4s8.2-17.4,18.4-17.4,17.4,8.2,17.4,18.4C845.8,544.8,838.7,553,828.4,553Zm0-33.8c-8.2,1-14.3,8.2-13.3,16.4a15.09,15.09,0,0,0,13.3,13.3h0c8.2-1,14.3-8.2,13.3-16.4C841.7,526.3,835.6,520.2,828.4,519.2Z" fill="#2366bd"/>
    <path d="M804.9,551.9h0a7.85,7.85,0,0,1-4.1-2c-3.1-5.1-5.1-10.2-4.1-16.4,0-10.2,4.1-17.4,8.2-17.4s8.2,7.2,8.2,17.4C813.1,544.8,810,551.9,804.9,551.9Zm0-31.7c-2,0-5.1,5.1-5.1,14.3,0,5.1,1,10.2,4.1,14.3a3.49,3.49,0,0,0,2,1h0c2,0,5.1-5.1,5.1-14.3-1-10.2-4.1-15.3-6.1-15.3Z" fill="#2366bd"/>
    <polygon points="821.2 536.6 788.5 536.6 788.5 533.5 821.2 533.5 821.2 536.6" fill="#2366bd"/>
    <polygon points="818.2 528.4 791.6 528.4 791.6 525.3 818.2 525.3 818.2 528.4" fill="#2366bd"/>
    <polygon points="818.2 543.7 791.6 543.7 791.6 540.7 818.2 540.7 818.2 543.7" fill="#2366bd"/>
    <rect x="658.4" y="528.4" width="111.6" height="15.4" fill="#e5e8ec"/>
    <path d="M589.8,543.7h34.8a4.78,4.78,0,0,1,5.1,5.1v30.7a4.78,4.78,0,0,1-5.1,5.1H590.8a4.78,4.78,0,0,1-5.1-5.1V548.8C584.7,545.8,587.8,543.7,589.8,543.7Z" fill="#484f59"/>
    <path d="M624.6,544.8h-6.1V553h11.3v-4.1c-1.1-2.1-3.1-4.1-5.2-4.1Z" fill="#f4da80"/>
    <path d="M601.1,569.3v-5.1H585.7v9.2H597a3.76,3.76,0,0,0,4.1-4.1Z" fill="#f4da80"/>
    <path d="M597,554H585.7v9.2h15.4v-5.1c0-2.1-1-4.1-4.1-4.1Z" fill="#f4da80"/>
    <path d="M602.1,558.1h10.2c0-2,2-4.1,4.1-5.1v-9.2H597V553C600.1,554,602.1,556,602.1,558.1Z" fill="#f4da80"/>
    <rect x="602.1" y="559.1" width="10.2" height="10.2" fill="#f4da80"/>
    <path d="M612.4,570.4H602.2a4.41,4.41,0,0,1-4.1,4.1v10.2h19.5V574.5C614.4,574.5,613.4,572.4,612.4,570.4Z" fill="#f4da80"/>
    <path d="M613.4,569.3a4.41,4.41,0,0,0,4.1,4.1h11.3v-9.2H613.4v5.1Z" fill="#f4da80"/>
    <path d="M617.5,554h0a4.41,4.41,0,0,0-4.1,4.1h0v5.1h15.4V554Z" fill="#f4da80"/>
    <path d="M597,544.8h-7.2a4.41,4.41,0,0,0-4.1,4.1h0V553H597Z" fill="#f4da80"/>
    <path d="M585.7,579.6a4.41,4.41,0,0,0,4.1,4.1H597V573.5H585.7Z" fill="#f4da80"/>
    <path d="M617.5,584.7h7.2a4.41,4.41,0,0,0,4.1-4.1h0v-5.1H617.5Z" fill="#f4da80"/>
    <rect x="642.1" y="644.1" width="93.2" height="6.1" transform="translate(-1.58 1.68) rotate(-0.14)" fill="#e5e8ec"/>
    <rect x="661.51" y="629.81" width="55.3" height="3.1" transform="translate(-3.73 4.1) rotate(-0.34)" fill="#e5e8ec"/>
    <rect x="580.6" y="621.6" width="16.4" height="3.1" fill="#e5e8ec"/>
    <rect x="580.6" y="670.7" width="133.1" height="6.1" fill="#e5e8ec"/>
    <rect x="648.2" y="607.2" width="59.4" height="6.1" fill="#e5e8ec"/>
    <rect x="580.6" y="607.2" width="59.4" height="6.1" fill="#e5e8ec"/>
    <rect x="715.8" y="607.2" width="59.4" height="6.1" fill="#e5e8ec"/>
    <rect x="783.4" y="607.2" width="59.4" height="6.1" fill="#e5e8ec"/>
    <path d="M410.6,303.1H573.4A26.39,26.39,0,0,1,600,329.7v384a26.39,26.39,0,0,1-26.6,26.6H410.6A26.39,26.39,0,0,1,384,713.7v-383C384,315.4,396.3,303.1,410.6,303.1Z" fill="#cdd5d7"/>
    <path d="M414.7,307.2H568.3a26.39,26.39,0,0,1,26.6,26.6V708.6a26.39,26.39,0,0,1-26.6,26.6H414.7a26.39,26.39,0,0,1-26.6-26.6V334.8C388.1,319.5,400.4,307.2,414.7,307.2Z" fill="#e5e8ec"/>
    <path d="M505.9,329.7a2.15,2.15,0,0,1-2,2H479.3a2.15,2.15,0,0,1-2-2h0a2.15,2.15,0,0,1,2-2h24.6A2.24,2.24,0,0,1,505.9,329.7Z" fill="#cdd5d7"/>
    <path d="M481.3,708.6h22.5a2.75,2.75,0,0,1,3.1,3.1v6.1a2.75,2.75,0,0,1-3.1,3.1H481.3a2.75,2.75,0,0,1-3.1-3.1v-6.1C478.2,709.6,479.2,708.6,481.3,708.6Z" fill="#cdd5d7"/>
    <polygon points="388.1 371.7 388.1 371.7 383 371.7 383 371.7 383 355.3 383 355.3 388.1 355.3 388.1 355.3 388.1 371.7" fill="#cdd5d7"/>
    <polygon points="388.1 415.7 388.1 415.7 383 415.7 383 415.7 383 387.1 383 387.1 388.1 387.1 388.1 387.1 388.1 415.7" fill="#cdd5d7"/>
    <polygon points="388.1 448.5 388.1 448.5 383 448.5 383 448.5 383 421.9 383 421.9 388.1 421.9 388.1 421.9 388.1 448.5" fill="#cdd5d7"/>
    <rect x="397.3" y="353.3" width="189.4" height="336.9" fill="#f99b0f"/>
    <path d="M702.5,374.8a13.93,13.93,0,0,0,14.3,14.3h0l4.1-7.2c8.2,0,14.3-12.3,14.3-19.5v-5.1A13.93,13.93,0,0,0,720.9,343h-4.1a13.93,13.93,0,0,0-14.3,14.3h0Z" fill="#b91e2d"/>
    <path d="M731.1,357.4h3.1v4.1c2,12.3,12.3,20.5,24.6,20.5a24.6,24.6,0,1,1-49.2,0c1.1-13.4,10.3-23.6,21.5-24.6Z" fill="#b91e2d"/>
    <path d="M707.6,348.2v4.1a18.63,18.63,0,0,0,13.3,17.4c0,4.1,1,7.2,2,11.3,1,7.2,9.2,8.2,9.2,8.2,1,6.1-24.6,15.4-23.6,14.3,3.1-5.1,6.1-10.2,7.2-15.4a14.61,14.61,0,0,0-2-11.3c-2-2-5.1-4.1-8.2-4.1h-1V357.3C704.5,353.3,705.5,350.2,707.6,348.2Z" fill="#e9d6b8"/>
    <path d="M692.2,480.3h0a131.78,131.78,0,0,1,9.2-28.7c4.1-6.1,8.2-11.3,13.3-15.4,7.2,4.1,15.4,2,22.5,7.2,1,3.1,2,6.1,2,9.2,1,6.1,2,11.3,3.1,17.4,11.3,1,37.9,3.1,48.1,5.1,3.1,0,5.1,2,7.2,5.1,0,9.2-8.2,15.4-13.3,23.6-1,1-64.5,0-75.8,1C708.6,503.8,685.1,503.8,692.2,480.3Z" fill="#194866"/>
    <path d="M792.6,493.6a16.43,16.43,0,0,0,4.1-7.2c1-4.1,1-7.2,0-8.2-5.1-4.1-20.5,4.1-61.4,65.5-9.2,13.3-27.6,38.9-22.5,35.8,9.2-6.1,11.3-13.3,17.4-19.5C779.3,508.9,784.4,502.8,792.6,493.6Z" fill="#e2c59c"/>
    <path d="M710.7,576.5l7.2-11.3c1-1,2-2,3.1-2l-6.1,10.2c-1,1-1,4.1,0,5.1h1l-2,3.1c-1,1-2,2-4.1,1h0c-1.2-2-1.2-4,.9-6.1Z" fill="#163f59"/>
    <path d="M709.6,426l-11.3-19.5c-3.1-4.1-3.1-9.2,1-13.3h0c1-1,2-1,3.1-2l34.8-8.2c6.1,0,10.2,6.1,10.2,11.3h0l-7.2,23.6Z" fill="#e9d6b8"/>
    <path d="M743.4,387.1c-5.1,22.5,7.2,60.4,7.2,60.4s7.2,1,8.2-2c1-4.1-3.1-15.4-5.1-46.1C751.6,380.9,744.4,384,743.4,387.1Z" fill="#163f59"/>
    <path d="M696.3,396.3c-3.1,26.6-11.3,60.4-11.3,60.4s7.2,6.1,9.2,3.1,6.1-19.5,9.2-49.2C706.6,392.2,696.3,392.2,696.3,396.3Z" fill="#163f59"/>
    <path d="M738.3,434.2c0,3.1-2,9.2-4.1,9.2l-20.5-2c-2,0-7.2-2-7.2-4.1V428c0-2,1-5.1,4.1-5.1l25.6-7.2c2,0,4.1,2,4.1,5.1Z" fill="#ffab01"/>
    <path d="M736.3,443.4h-3.1l-19.5-1c-2,0-3.1,0-3.1-1v-1h3.1l19.5,1a4,4,0,0,1,3.1,1Z" fill="#15100c"/>
    <path d="M743.4,393.2c0-1-1-2-2-3.1a42.24,42.24,0,0,1-41,7.2v2c0,6.1,1,13.3,1,19.5s7.2,9.2,11.3,9.2c9.2,0,19.5-1,28.7-5.1,3.1-1,9.2-7.2,8.2-11.3S745.5,399.4,743.4,393.2Z" fill="#ffab01"/>
    <path d="M710.7,389.1s-12.3,0-14.3,7.2a23.78,23.78,0,0,0,3.1,16.4s4.1,12.3,5.1,18.4a43.25,43.25,0,0,1-1,11.3c3.1,0,5.1-1,8.2-2,5.1-3.1,2-11.3,1-14.3-1-6.1-2-13.3-3.1-19.5C708.6,403.5,710.7,389.1,710.7,389.1Z" fill="#194866"/>
    <path d="M750.6,392.2s1-5.1-2-7.2c-5.1-2-10.2-3.1-16.4-2-2,0-3.1,1-5.1,2,0,0,11.3,3.1,11.3,22.5a61.65,61.65,0,0,1-2,14.3,73.77,73.77,0,0,0-1,14.3s6.1,1,6.1,2a53.87,53.87,0,0,1,4.1-12.3C749.6,414.7,750.6,403.5,750.6,392.2Z" fill="#194866"/>
    <path d="M738.3,382c5.1,4.1,8.2,7.2,8.2,29.7,0,4.1-1,10.2-1,16.4l3.1-4.1a159.86,159.86,0,0,0,3.1-30.7,20,20,0,0,0-2-7.2A19.4,19.4,0,0,0,738.3,382Z" fill="#163f59"/>
    <path d="M781.3,497.7c1-2,2-5.1,3.1-7.2a8.12,8.12,0,0,0-2-8.2c-5.1-5.1-17.4,4.1-36.9,44-10.2,20.5-17.4,38.9-30.7,50.2a11.41,11.41,0,0,0-3.1,4.1c-1,4.1-2,8.2-1,12.3,3.1-3.1,8.2-11.3,15.4-20.5C745.5,548.9,763.9,523.3,781.3,497.7Z" fill="#e9d6b8"/>
    <path d="M706.6,588.8l6.1-12.3c0-1,2-2,3.1-2l-5.1,9.2a4.56,4.56,0,0,0,1,5.1h2l-1,3.1c-1,2-2,2-4.1,2h0C706.6,591.9,705.5,589.8,706.6,588.8Z" fill="#194866"/>
    <path d="M656.4,498.7a5.24,5.24,0,0,0-2,4.1v6.1a3.78,3.78,0,0,0,1-3.1C655.4,502.8,655.4,500.7,656.4,498.7Z" fill="#e2c59c"/>
    <path d="M655.4,501.8c-1,2-2,4.1-2,6.1,0,1,0,3.1-1,3.1v-8.2C653.3,498.7,659.5,498.7,655.4,501.8Z" fill="#e2c59c"/>
    <path d="M658.4,496.6c0,1-1,3.1-1,4.1s1,2,2,3.1c-3.1,1-4.1-3.1-6.1-3.1S658.4,493.6,658.4,496.6Z" fill="#e9d6b8"/>
    <path d="M668.7,484.4c-4.1,2-7.2,6.1-10.2,9.2-2,3.1-1,6.1-4.1,8.2v1a1,1,0,0,0-1,1l-1,1c0-3.1,1-6.1,2-9.2a161.1,161.1,0,0,1,12.3-13.3C670.7,478.2,673.8,480.3,668.7,484.4Z" fill="#e9d6b8"/>
    <path d="M655.4,501.8h0a7.82,7.82,0,0,0-4.1,4.1c-1,2-1,4.1-2,5.1,1-1,2-2,2-3.1A19.82,19.82,0,0,1,655.4,501.8Z" fill="#e9d6b8"/>
    <path d="M671.7,476.2c3.1,0,11.3-5.1,12.3-4.1a141.92,141.92,0,0,1-27.6,21.5Z" fill="#e9d6b8"/>
    <path d="M669.7,480.3c1,0,2,2,2,3.1,6.1-4.1,22.5-17.4,23.6-25.6,0-3.1-4.1-9.2-12.3,0-6.1,6.1-11.3,14.3-15.4,22.5Z" fill="#163f59"/>
    <path d="M770,403.5h0a9.35,9.35,0,0,0,1-5.1c0-1-1-6.1-1-6.1v4.1C771.1,398.3,770,400.4,770,403.5Z" fill="#e2c59c"/>
    <path d="M770,402.4c1-2,0-4.1-1-6.1-1-1-1-2,0-4.1,1,2,2,3.1,2,5.1,0,1,1,2,1,3.1C772.1,403.5,768,406.5,770,402.4Z" fill="#e2c59c"/>
    <path d="M752.6,443.4c2-10.2,7.2-19.5,12.3-27.6,0,0,7.2-6.1-4.1,22.5C756.7,447.5,752.6,444.4,752.6,443.4Z" fill="#e9d6b8"/>
    <path d="M770,400.4h0l2,3.1c0,3.1-1,5.1-2,8.2-1,4.1-3.1,8.2-3.1,12.3,0,1-5.1,1-5.1,1s4.1-8.2,5.1-12.3,1-7.2,2-11.3c0-1,1-2,1-4.1.1-1,1.2,1,.1,3.1,0,2,1,2,1,2Z" fill="#e9d6b8"/>
    <path d="M770,404.5v-4.1c-1-2-2-4.1-3.1-5.1a4,4,0,0,0,1,3.1C769,400.4,770,402.4,770,404.5Z" fill="#e9d6b8"/>
    <path d="M769,403.5h0l-1,5.1a4,4,0,0,1,1-3.1v-2Z" fill="#e2c59c"/>
    <path d="M768,403.5v-4.1a4,4,0,0,1-1,3.1v3.1c1,1,1,1,1,2,0-1.1,1-2.1,0-4.1Z" fill="#e2c59c"/>
    <path d="M762.9,433.2c0-1-5.1-2-6.1-1l-1,1s-7.2,11.3-1,14.3C753.7,447.5,759.8,448.5,762.9,433.2Z" fill="#163f59"/>
    <rect x="725" y="474.1" width="61.4" height="1" fill="#cdd5d7"/>
    <path d="M752.6,474.1a2.15,2.15,0,0,0,2,2h31.7c1,0,2,0,3.1-3.1l15.4-28.7a2.15,2.15,0,0,0-2-2l-31.7,1a2.15,2.15,0,0,0-2,2Z" fill="#cdd5d7"/>
    <path d="M755.7,475.1H725a9.35,9.35,0,0,0,5.1,1h51.2a9.35,9.35,0,0,0,5.1-1Z" fill="#b7bec0"/>
    <g opacity="0.6">
      <g clip-path="url(#a)">
        <g>
          <rect x="375.8" y="455.7" width="14.3" height="5.1" fill="#eed2ce"/>
          <rect x="375.8" y="522.2" width="14.3" height="5.1" fill="#eed2ce"/>
          <rect x="389.1" y="426" width="326.7" height="250.9" fill="#eed2ce"/>
          <rect x="389.1" y="425" width="326.7" height="8.2" fill="#c49189"/>
          <rect x="646.1" y="456.7" width="48.1" height="54.3" fill="#ffebe8"/>
          <rect x="587.8" y="456.7" width="48.1" height="54.3" fill="#ffebe8"/>
          <rect x="528.4" y="456.7" width="48.1" height="54.3" fill="#ffebe8"/>
          <rect x="470" y="456.7" width="48.1" height="54.3" fill="#ffebe8"/>
          <rect x="410.6" y="456.7" width="48.1" height="54.3" fill="#ffebe8"/>
          <polygon points="627.7 539.6 635.9 539.6 694.3 539.6 694.3 653.3 635.9 653.3 627.7 653.3 587.8 653.3 587.8 539.6 627.7 539.6" fill="#ffebe8"/>
          <polygon points="635.9 539.6 694.3 539.6 694.3 561.2 587.8 561.2 587.8 539.6 627.7 539.6 635.9 539.6" fill="#eed2ce"/>
          <polygon points="627.7 539.6 634.9 539.6 697.3 539.6 697.3 544.8 634.9 544.8 627.7 544.8 583.7 544.8 583.7 539.6 627.7 539.6" fill="#c49189"/>
          <polygon points="627.7 648.2 634.9 648.2 697.3 648.2 697.3 653.3 634.9 653.3 627.7 653.3 583.7 653.3 583.7 648.2 627.7 648.2" fill="#e0b6af"/>
          <polygon points="451.6 539.6 459.8 539.6 518.1 539.6 518.1 653.3 459.8 653.3 451.6 653.3 410.6 653.3 410.6 539.6 451.6 539.6" fill="#ffebe8"/>
          <polygon points="459.8 539.6 518.1 539.6 518.1 561.2 410.6 561.2 410.6 539.6 451.6 539.6 459.8 539.6" fill="#eed2ce"/>
          <polygon points="451.6 539.6 458.8 539.6 521.2 539.6 521.2 544.8 458.8 544.8 451.6 544.8 407.6 544.8 407.6 539.6 451.6 539.6" fill="#c49189"/>
          <polygon points="451.6 648.2 458.8 648.2 521.2 648.2 521.2 653.3 458.8 653.3 451.6 653.3 407.6 653.3 407.6 648.2 451.6 648.2" fill="#e0b6af"/>
          <polygon points="359.4 447.5 361.5 447.5 378.9 447.5 378.9 535.6 361.5 535.6 359.4 535.6 347.1 535.6 347.1 447.5 359.4 447.5" fill="#ededed"/>
          <rect x="528.4" y="539.6" width="48.1" height="130" fill="#e0b6af"/>
          <rect x="533.5" y="616.4" width="38.9" height="3.1" fill="#c49189"/>
          <rect x="533.5" y="624.6" width="38.9" height="3.1" fill="#c49189"/>
          <rect x="518.1" y="669.7" width="69.6" height="10.2" fill="#ffebe8"/>
          <rect x="528.4" y="539.6" width="48.1" height="21.5" fill="#c49189"/>
          <rect x="380.9" y="676.9" width="344.1" height="15.4" fill="#e0b6af"/>
          <rect x="380.9" y="411.6" width="344.1" height="15.4" fill="#e0b6af"/>
        </g>
      </g>
    </g>
    <path d="M475.1,691.2h64.5c12.3,0,13.3-17.4,8.2-20.5-14.3-8.2-60.4-12.3-60.4-12.3l-31.7,28.7Z" fill="#3c463b"/>
    <path d="M518.1,596s12.3-3.1,17.4,12.3a108.83,108.83,0,0,1,6.1,51.2c0,2-2,9.2-15.4,10.2-5.1,0-3.1-11.3-3.1-11.3-3.1-8.2-5.1-17.4-7.2-26.6C514,619.5,515.1,608.3,518.1,596Z" fill="#2771d1"/>
    <path d="M527.4,598l-30.7-10.2-23.6-2L448.5,594s-8.2,5.1-1,23.6c5.1,15.4,6.1,31.7,5.1,47.1l65.5,2c1-17.4,3.1-35.8,5.1-53.2C524.3,608.3,525.3,603.1,527.4,598Z" fill="#2c7eea"/>
    <path d="M483.3,665.6h3.1a247.57,247.57,0,0,0,0-77.8l-3.1,2C483.3,616.4,482.3,642,483.3,665.6Z" fill="#2771d1"/>
    <path d="M495.6,594.9c0,3.1-3.1,6.1-6.1,7.2h-8.2c-3.1-1-6.1-3.1-6.1-7.2-1-6.1-1-11.3-2-17.4a14.63,14.63,0,0,1,6.1-12.3,15.49,15.49,0,0,1,13.3,0,14.63,14.63,0,0,1,6.1,12.3C497.7,583.7,496.6,589.8,495.6,594.9Z" fill="#e2c59c"/>
    <polygon points="485.4 602.1 479.2 611.3 469 599 471 591.9 474.1 589.8 474.1 594.9 485.4 602.1" fill="#2771d1"/>
    <polygon points="485.4 602.1 491.5 611.3 500.7 600.1 498.7 592.9 496.6 589.8 495.6 594.9 485.4 602.1" fill="#2771d1"/>
    <path d="M484.4,554c-2,0-4.1,2-5.1,4.1h-3.1a4.78,4.78,0,0,0-5.1,5.1h0v13.3h4.1v-5.1a4.41,4.41,0,0,1,4.1-4.1h1a7,7,0,0,0,7.2-7.2h0V555Z" fill="#163f59"/>
    <path d="M477.2,580.6a2.75,2.75,0,0,1-3.1,3.1h0a2.75,2.75,0,0,1-3.1-3.1h0v-4.1a2.75,2.75,0,0,1,3.1-3.1h0c1,0,2,1,3.1,2" fill="#e2c59c"/>
    <path d="M481.3,559.1V554h11.3a7,7,0,0,1,7.2,7.2v5.1H488.5a7,7,0,0,1-7.2-7.2Z" fill="#163f59"/>
    <path d="M498.7,585.7a10.58,10.58,0,0,1-5.1,9.2,20.51,20.51,0,0,1-15.4,0,10.58,10.58,0,0,1-5.1-9.2V562.1c1-3.1,3.1-5.1,6.1-5.1h14.3c3.1,0,6.1,2,6.1,5.1Z" fill="#e9d6b8"/>
    <path d="M487.4,554c2,0,4.1,1,6.1,3.1h2a4.78,4.78,0,0,1,5.1,5.1v13.3h-4.1v-5.1a4.41,4.41,0,0,0-4.1-4.1h-4.1a7,7,0,0,1-7.2-7.2V554Z" fill="#163f59"/>
    <path d="M494.6,576.5a2.75,2.75,0,0,1,3.1-3.1h0a2.75,2.75,0,0,1,3.1,3.1h0v4.1a2.75,2.75,0,0,1-3.1,3.1h0c-1,0-2-1-3.1-2" fill="#e9d6b8"/>
    <path d="M482.3,561.2V555h-5.1a7,7,0,0,0-7.2,7.2v5.1h6.1C477.2,563.2,479.2,561.2,482.3,561.2Z" fill="#163f59"/>
    <path d="M421.9,779.3c-1,1,0,3.1,0,3.1a45.2,45.2,0,0,0,16.4,0c2-1,3.1-1,4.1-2l1-1h1l2-1a11.58,11.58,0,0,0,0-8.2s-11.3-3.1-12.3-1A123,123,0,0,1,421.9,779.3Z" fill="#161711"/>
    <path d="M537.6,773.1l1,9.2,9.2,1,1-1c1,0,1,1,2,2h5.1l18.4,2s1-2,0-3.1a3.78,3.78,0,0,0-3.1-1c-5.1-2-18.4-7.2-20.5-12.3C550.9,763.9,537.6,773.1,537.6,773.1Z" fill="#161711"/>
    <path d="M523.3,654.3l-31.7,12.3a114.22,114.22,0,0,0,36.9,0C537.6,665.6,524.3,653.3,523.3,654.3Z" fill="#e9d6b8"/>
    <path d="M451.6,673.8s-3.1,28.7-3.1,44a304,304,0,0,1-2,52.2,39.9,39.9,0,0,1-15.4,0s-5.1-71.7-7.2-84C422.9,674.8,428,666.6,451.6,673.8Z" fill="#3c463b"/>
    <path d="M544.8,681c-4.1,5.1-11.3,9.2-17.4,9.2-5.1,1,7.2,84,7.2,84L554,768l-4.1-92.2Z" fill="#323b31"/>
    <path d="M491.5,690.2s-25.6,4.1-42,5.1c-6.1,1-11.3-16.4-12.3-17.4-2-2-6.1-4.1-9.2-4.1,4.1-4.1,22.5-7.2,42-12.3,20.5-5.1,23.6-2,23.6-2Z" fill="#323b31"/>
    <path d="M470,661.5c-19.5,5.1-38.9,8.2-42,12.3a14.74,14.74,0,0,1,9.2,4.1s1,6.1,2,8.2c-3.1-6.1,43-22.5,53.2-26.6C485.4,658.4,477.2,659.5,470,661.5Z" fill="#3c463b"/>
    <polygon points="448.5 690.2 446.5 746.5 444.4 759.8 444.4 746.5 445.4 738.3 440.3 726 438.3 696.3 441.3 697.3 441.3 684 448.5 690.2" fill="#323b31"/>
    <path d="M543.7,673.8l5.1,1,2,67.6L540.7,767l5.1-16.4-2-33.8s-7.2,16.4-7.2,15.4,6.1-35.8,6.1-35.8c-2,2-4.1,3.1-6.1,5.1C537.6,692.2,540.7,683,543.7,673.8Z" fill="#3c463b"/>
    <path d="M462.8,593.9s-10.2-8.2-20.5,7.2a191.49,191.49,0,0,0-22.5,51.2,32.26,32.26,0,0,0,5.1,25.6c1,1,10.2,0,10.2,0l5.1-4.1-2-4.1v-4.1a362,362,0,0,1,16.4-33.8A92,92,0,0,0,462.8,593.9Z" fill="#2c7eea"/>
    <path d="M438.3,660.5l32.8,2s-31.7,14.3-32.8,12.3C432.1,660.5,438.3,660.5,438.3,660.5Z" fill="#e9d6b8"/>
    <path d="M456.7,659.5l2-1a7.85,7.85,0,0,0,4.1,2h16.4v1l-11.3,2,11.3,1a1,1,0,0,1,1,1v1l-12.3,2,5.1,1a1,1,0,0,1,1,1v1l-11.3-1C462.8,670.7,454.7,660.5,456.7,659.5Z" fill="#e9d6b8"/>
    <path d="M468,666.6l7.2,1a4,4,0,0,1,3.1,1v1h0l-11.3-1Z" fill="#e9d6b8"/>
    <path d="M514,671.7h0v-2H449.5v2h0c1,2,3.1,2,5.1,2h53.2c2.2,1.1,4.2.1,6.2-2Z" fill="#b6c2c9"/>
    <rect x="459.8" y="670.7" width="43" height="1" fill="#879ba6"/>
    <path d="M514,669.7v-43a2.15,2.15,0,0,0-2-2H451.6a2.15,2.15,0,0,0-2,2h0v43Z" fill="#e4eef3"/>
    <path d="M485.4,648.2c0,2-2,4.1-4.1,3.1h0a3.31,3.31,0,0,1-3.1-3.1,4.41,4.41,0,0,1,4.1-4.1h0c1,0,3.1,1,3.1,4.1Z" fill="#b6c2c9"/>
    <polygon points="434.2 676.9 431.1 662.5 435.2 658.4 443.4 660.5 441.3 675.8 434.2 676.9" fill="#2771d1"/>
    <polygon points="534.5 666.6 535.6 661.5 525.3 652.3 519.2 654.3 527.4 668.7 534.5 666.6" fill="#2c7eea"/>
    <path d="M335.9,402.4V430c0,7.2,8.2,13.3,19.5,13.3s19.5-6.1,19.5-13.3V402.4Z" fill="#ff8b5d"/>
    <path d="M374.8,402.4V430c0,7.2,9.2,13.3,19.5,13.3s19.5-6.1,19.5-13.3V402.4Z" fill="#fff"/>
    <path d="M413.7,402.4V430c0,7.2,8.2,13.3,19.5,13.3s19.5-6.1,19.5-13.3V402.4Z" fill="#ff8b5d"/>
    <path d="M451.6,402.4V430c0,7.2,8.2,13.3,19.5,13.3,10.2,0,19.5-6.1,19.5-13.3V402.4Z" fill="#fff"/>
    <path d="M490.5,402.4V430c0,7.2,9.2,13.3,19.5,13.3s19.5-6.1,19.5-13.3V402.4Z" fill="#ff8b5d"/>
    <path d="M529.4,402.4V430c0,7.2,8.2,13.3,19.5,13.3s19.5-6.1,19.5-13.3V402.4Z" fill="#fff"/>
    <path d="M567.3,402.4V430c0,7.2,8.2,13.3,19.5,13.3s19.5-6.1,19.5-13.3V402.4Z" fill="#ff8b5d"/>
    <path d="M606.2,402.4V430c0,7.2,8.2,13.3,19.5,13.3,10.2,0,19.5-6.1,19.5-13.3V402.4Z" fill="#fff"/>
    <path d="M392.2,359.4l-56.3,43h38.9c14.3-14.3,27.6-28.7,42-43Z" fill="#ef8357"/>
    <path d="M416.8,359.4c-14.3,14.3-27.6,28.7-42,43h38.9l27.6-43Z" fill="#d5e1f2"/>
    <path d="M441.3,359.4l-27.6,43h38.9c5.1-14.3,9.2-28.7,14.3-43Z" fill="#ef8357"/>
    <path d="M465.9,359.4c-5.1,14.3-9.2,28.7-14.3,43h38.9v-43Z" fill="#d5e1f2"/>
    <path d="M490.5,359.4v43h38.9c-5.1-14.3-9.2-28.7-14.3-43Z" fill="#ef8357"/>
    <path d="M515.1,359.4c4.1,14.3,9.2,28.7,14.3,43h38.9l-27.6-43Z" fill="#d5e1f2"/>
    <path d="M539.6,359.4l27.6,43h38.9l-42-43Z" fill="#ef8357"/>
    <path d="M606.2,402.4h38.9l-56.3-43H564.2Z" fill="#d5e1f2"/>
    <rect x="392.2" y="350.2" width="24.6" height="9.2" fill="#ef8357"/>
    <rect x="416.8" y="350.2" width="24.6" height="9.2" fill="#fff"/>
    <rect x="441.3" y="350.2" width="24.6" height="9.2" fill="#ef8357"/>
    <rect x="465.9" y="350.2" width="24.6" height="9.2" fill="#fff"/>
    <rect x="490.5" y="350.2" width="24.6" height="9.2" fill="#ef8357"/>
    <rect x="515.1" y="350.2" width="24.6" height="9.2" fill="#fff"/>
    <rect x="539.6" y="350.2" width="24.6" height="9.2" fill="#ef8357"/>
    <rect x="564.2" y="350.2" width="24.6" height="9.2" fill="#fff"/>
    <path d="M865.3,761.9Z" fill="#ffc910"/>
    <path d="M967.7,744.4v13.3c0,4.1-4.1,7.2-14.3,11.3-25.6,7.2-53.2,8.2-79.9,4.1C861.2,770,854,767,854,762.9V749.6c0,4.1,6.1,8.2,19.5,10.2,26.6,4.1,53.2,2,79.9-5.1C963.6,751.6,967.7,747.5,967.7,744.4Z" fill="#ffab01"/>
    <path d="M948.2,734.2c23.6,5.1,25.6,14.3,5.1,20.5-25.6,7.2-53.2,8.2-79.9,4.1-23.6-4.1-25.6-13.3-5.1-20.5A191.26,191.26,0,0,1,948.2,734.2Zm-67.6,22.5c22.5,4.1,45.1,2,66.6-4.1,17.4-6.1,15.4-13.3-4.1-17.4-22.5-4.1-45.1-2-66.6,3.1-17.4,7.2-15.3,14.3,4.1,18.4" fill="#ffc910"/>
    <path d="M942.1,736.3c19.5,4.1,21.5,11.3,4.1,17.4a146.61,146.61,0,0,1-66.6,3.1c-19.5-4.1-21.5-11.3-4.1-17.4A145.94,145.94,0,0,1,942.1,736.3Z" fill="#ffab01"/>
    <path d="M875.5,741.4a146.61,146.61,0,0,1,66.6-3.1c9.2,2,15.4,5.1,16.4,8.2,1-4.1-4.1-7.2-16.4-9.2-22.5-4.1-45.1-2.1-66.6,4.1-8.2,2-12.3,5.1-11.3,8.2C865.3,746.5,868.4,743.4,875.5,741.4Z" fill="#f99b0f"/>
    <path d="M922.6,749.6c2,1,0,3.1-3.1,4.1-6.1,2-11.3,2-17.4,2a13.09,13.09,0,0,1-6.1-1h-3.1l-4.1-1,2-1h-5.1l-5.1-1h-2.1l4.1-1h3.1l13.3-4.1,4.1-1,11.3-4.1-3.1-1,4.1-1h4.1l5.1,1-2,1h5.1l5.1,1h-1c6.1,1,7.2,4.1,1,5.1C929.8,748.5,926.7,749.6,922.6,749.6Zm-18.4,4.1c3.1,0,7.2,0,10.2-1s3.1-3.1-1-3.1l-9.2-2h0l-12.3,4.1,9.2,2h3.1m15.4-11.3-10.2,3.1,8.2,2h3.1a28.9,28.9,0,0,0,9.2-1c3.1-1,3.1-2-1-3.1l-9.3-1h0" fill="#f99b0f"/>
    <path d="M922.6,747.5c2,1,0,3.1-3.1,4.1-6.1,2-11.3,2-17.4,2a13.09,13.09,0,0,1-6.1-1h-3.1l-4.1-1,2-1H880.6l2-1-3.1-1,4.1-1h3.1l13.3-4.1,5.1-2,11.3-4.1-3.1-1,4.1-1h5.1l5.1,1-2,1h4.1l5.1,1h-3.1c6.1,1,7.2,4.1,1,6.1C930.8,746.5,926.7,747.5,922.6,747.5Zm-18.4,4.1c3.1,0,7.2,0,10.2-1s3.1-3.1-1-4.1l-9.2-2h0l-12.3,4.1,9.2,2,3.1,1m15.4-11.2-11.3,3.1,8.2,2h3.1a28.9,28.9,0,0,0,9.2-1c3.1-1,3.1-2-1-3.1l-8.2-1h0" fill="#ffca10"/>
    <path d="M860.2,754.7V768a60.32,60.32,0,0,0,14.3,5.1,156.27,156.27,0,0,0,21.5,2V760.8c-7.2,0-14.3-1-22.5-2A51.81,51.81,0,0,1,860.2,754.7Z" fill="#f99b0f"/>
    <path d="M870.4,745.5Z" fill="#ffc910"/>
    <path d="M972.8,728.1v13.3c0,5.1-4.1,7.2-14.3,10.2-25.6,7.2-53.2,8.2-79.9,4.1-12.3-2-19.5-6.1-19.5-10.2V732.2c0,4.1,6.1,8.2,19.5,10.2,26.6,4.1,54.3,3.1,79.9-4.1C968.7,735.2,972.8,731.1,972.8,728.1Z" fill="#ffab01"/>
    <path d="M953.3,717.8c23.6,4.1,25.6,14.3,5.1,20.5-25.6,7.2-53.2,8.2-79.9,4.1-23.6-4.1-25.6-13.3-5.1-20.5C899.1,714.8,926.7,713.7,953.3,717.8Zm-68.6,22.6c22.5,4.1,45.1,2,66.6-3.1,17.4-5.1,15.4-13.3-4.1-17.4-22.5-4.1-45.1-2-66.6,3.1-16.3,6.1-14.3,14.3,4.1,17.4" fill="#ffc910"/>
    <path d="M947.2,719.9c19.5,4.1,21.5,11.3,4.1,17.4a146.61,146.61,0,0,1-66.6,3.1c-19.5-4.1-21.5-11.3-4.1-17.4C902.1,717.8,924.7,715.8,947.2,719.9Z" fill="#ffab01"/>
    <path d="M880.6,725a146.61,146.61,0,0,1,66.6-3.1c10.2,2,15.4,5.1,16.4,8.2,1-4.1-4.1-7.2-16.4-9.2-22.5-4.1-45.1-2.1-66.6,4.1-8.2,2-12.3,5.1-11.3,8.2C870.4,730.1,874.5,727,880.6,725Z" fill="#f99b0f"/>
    <path d="M928.8,733.2c1,1,0,3.1-3.1,4.1-6.1,2-11.3,2-17.4,2a13.09,13.09,0,0,1-6.1-1h-3.1l-5.1-1h-4.1l-4.1-1,2-1-3.1-1,4.1-1h3.1l13.3-4.1,4.1-2,11.3-4.1h-3.1l4.1-1h4.1l5.1,1h3.1l5.1,1h-2c6.1,1,7.2,4.1,1,5.1C935.9,732.2,931.8,733.2,928.8,733.2Zm-19.5,4.1c3.1,0,7.2,0,10.2-1,4.1-1,3.1-3.1-1-3.1l-9.2-2h0L897,735.3l9.2,2h3.1M924.7,725l-11.3,4.1,8.2,2h3.1a28.9,28.9,0,0,0,9.2-1c3.1-1,3.1-2-1-3.1l-8.2-2h0" fill="#f99b0f"/>
    <path d="M928.8,731.1c1,1,0,3.1-3.1,4.1-6.1,2-11.3,2-17.4,2a13.09,13.09,0,0,1-6.1-1h-3.1l-4.1-1,2-1h-6.1l-4.1-1h2l-3.1-1,4.1-1h1l13.3-4.1,5.1-1,11.3-3.1-3.1-1,4.1-1h4.1l5.1,1-2,1h5.1l5.1,1-2,1c6.1,1,7.2,4.1,1,5.1C935.9,731.1,931.8,731.1,928.8,731.1Zm-19.5,4.1a43.25,43.25,0,0,0,11.3-1c4.1-1,3.1-3.1-1-3.1l-10.2-2h0l-12.3,4.1,9.2,2h3M924.7,724l-11.3,3.1,8.2,2h3.1a28.9,28.9,0,0,0,9.2-1c3.1-1,3.1-2-1-3.1l-8.2-1h0" fill="#ffca10"/>
    <path d="M865.3,738.3v13.3a60.32,60.32,0,0,0,14.3,5.1,156.27,156.27,0,0,0,21.5,2V745.4c-7.2,0-14.3-1-22.5-2A49,49,0,0,1,865.3,738.3Z" fill="#f99b0f"/>
    <path d="M865.3,727Z" fill="#ffc910"/>
    <path d="M967.7,708.6v13.3c0,5.1-4.1,7.2-14.3,10.2-25.6,7.2-53.2,8.2-79.9,4.1-12.3-2-19.5-6.1-19.5-10.2V712.7c0,4.1,6.1,8.2,19.5,10.2a191.26,191.26,0,0,0,79.9-4.1C963.6,715.8,967.7,712.7,967.7,708.6Z" fill="#ffab01"/>
    <path d="M948.2,698.4c23.6,5.1,25.6,14.3,5.1,20.5-25.6,7.2-53.2,8.2-79.9,4.1-23.6-4.1-25.6-13.3-5.1-20.5A191.26,191.26,0,0,1,948.2,698.4Zm-67.6,23.5c22.5,4.1,45.1,2,66.6-3.1,16.4-6.1,14.3-13.3-4.1-16.4-22.5-4.1-45.1-2-66.6,3.1-17.4,5.2-15.3,12.3,4.1,16.4" fill="#ffc910"/>
    <path d="M942.1,701.4c19.5,4.1,21.5,11.3,4.1,17.4a146.61,146.61,0,0,1-66.6,3.1c-19.5-4.1-21.5-11.3-4.1-17.4A147.33,147.33,0,0,1,942.1,701.4Z" fill="#ffab01"/>
    <path d="M875.5,706.6a146.61,146.61,0,0,1,66.6-3.1c9.2,2,15.4,5.1,16.4,8.2,1-4.1-4.1-7.2-16.4-9.2-22.5-4.1-45.1-2.1-66.6,4.1-8.2,2-12.3,5.1-11.3,8.2C865.3,710.7,868.4,708.6,875.5,706.6Z" fill="#f99b0f"/>
    <path d="M922.6,713.7c2,1,0,3.1-3.1,4.1-6.1,2-11.3,2-17.4,2a13.09,13.09,0,0,1-6.1-1h-3.1l-4.1-1h2l-3.1-1h-7.1l2-1-3.1-1,4.1-1h3.1l13.3-4.1,5.1-2,11.3-4.1-3.1-1,4.1-1h5.1l5.1,1h3.1l5.1,1h-4.1c6.1,1,7.2,4.1,1,5.1C930.8,711.7,926.7,713.7,922.6,713.7Zm-18.4,5.1c3.1,0,7.2,0,10.2-1s3.1-3.1-1-3.1l-9.2-1h0l-12.3,3.1,9.2,2h3.1m15.4-11.2-11.3,4.1,8.2,1h3.1a28.9,28.9,0,0,0,9.2-1c3.1-1,3.1-2-1-3.1l-8.2-1h0" fill="#f99b0f"/>
    <path d="M922.6,712.7c2,1,0,3.1-3.1,4.1-6.1,2-11.3,2-17.4,2a13.09,13.09,0,0,1-6.1-1h-4.1l-4.1-1,2-1h-5.1l-4.1-1h2l-3.1-1,4.1-1h3.1l13.3-4.1,4.1-2,11.3-4.1-4.1,1,4.1-1h4.1l5.1,1-2,1h5.1l5.1,1-1-1c6.1,1,7.2,4.1,1,5.1C929.8,711.7,926.7,711.7,922.6,712.7Zm-18.4,4.1c3.1,0,7.2,0,10.2-1s3.1-3.1-1-3.1l-9.2-2h0l-12.3,5.1,9.2,1h3.1m15.4-12.3-11.3,3.1,8.2,2h3.1a28.9,28.9,0,0,0,9.2-1c3.1-1,3.1-2-1-3.1l-8.2-1h0" fill="#ffca10"/>
    <path d="M860.2,718.8v13.3a60.32,60.32,0,0,0,14.3,5.1,156.27,156.27,0,0,0,21.5,2V726c-7.2,0-14.3-1-22.5-2C868.4,722.9,864.3,721.9,860.2,718.8Z" fill="#f99b0f"/>
    <path d="M870.4,710.7Z" fill="#ffc910"/>
    <path d="M972.8,693.2v13.3c0,4.1-4.1,7.2-14.3,10.2-25.6,7.2-53.2,8.2-79.9,4.1-12.3-2-19.5-6.1-19.5-10.2V697.3c0,4.1,6.1,8.2,19.5,10.2,26.6,4.1,54.3,3.1,79.9-4.1C968.7,700.4,972.8,696.3,972.8,693.2Z" fill="#ffab01"/>
    <path d="M953.3,683c23.6,4.1,25.6,13.3,5.1,20.5-25.6,7.2-53.2,8.2-79.9,4.1-23.6-4.1-25.6-13.3-5.1-20.5C899.1,679.9,926.7,677.9,953.3,683Zm-68.6,22.5c22.5,4.1,45.1,2,66.6-3.1,17.4-6.1,15.4-13.3-4.1-17.4-22.5-4.1-45.1-2-66.6,3.1-16.3,6.2-14.3,13.3,4.1,17.4" fill="#ffc910"/>
    <path d="M947.2,685.1c19.5,4.1,21.5,11.3,4.1,17.4-21.5,6.1-44,7.2-66.6,4.1-19.5-4.1-21.5-11.3-4.1-17.4C902.1,682,924.7,681,947.2,685.1Z" fill="#ffab01"/>
    <path d="M880.6,690.2a146.61,146.61,0,0,1,66.6-3.1c10.2,2,15.4,5.1,16.4,8.2,1-4.1-4.1-7.2-16.4-9.2-21.5-4.1-45.1-3.1-66.6,4.1-8.2,2-12.3,5.1-10.2,8.2C870.4,695.3,874.5,692.2,880.6,690.2Z" fill="#f99b0f"/>
    <path d="M928.8,698.4c1,1,0,3.1-3.1,4.1-6.1,2-11.3,2-17.4,2a13.09,13.09,0,0,1-6.1-1h-3.1l-4.1-1,2-1h-6.1l-4.1-1,2-1-3.1-1,4.1-1h1l13.3-4.1,4.1-2,11.3-4.1-3.1-1,4.1-1h4.1l5.1,1-2,1h5.1l5.1,1h-2c6.1,1,7.2,4.1,1,5.1C934.9,696.3,931.8,697.3,928.8,698.4Zm-19.5,4.1a43.25,43.25,0,0,0,11.3-1c4.1-1,3.1-3.1-1-4.1l-10.2-2h0l-12.3,4.1,9.2,2,3,1m15.4-12.3-11.3,4.1,8.2,2h3.1a28.9,28.9,0,0,0,9.2-1c3.1-1,3.1-2-1-3.1l-8.2-2h0" fill="#f99b0f"/>
    <path d="M928.8,696.3c1,1,0,3.1-3.1,4.1-6.1,2-11.3,2-17.4,2-2,0-4.1-1-6.1-1h-3.1l-4.1-1h2l-3.1-1h0l-3.1,1h-1l-4.1-1h2l-3.1-1,4.1-1h3.1l13.3-4.1,5.1-2,11.3-4.1-2-1h6.1l5.1,1h1l1-1h0l5.1,1-2,1c6.1,1,7.2,4.1,1,5.1C935.9,695.3,931.8,696.3,928.8,696.3Zm-19.5,4.1c3.1,0,7.2,0,10.2-1,4.1-1,3.1-3.1-1-3.1l-9.2-2h0L897,698.4l9.2,2h3.1m15.4-12.3-11.3,4.1,8.2,2h3.1a28.9,28.9,0,0,0,9.2-1c3.1-1,3.1-2-1-3.1l-8.2-2h0" fill="#ffca10"/>
    <path d="M865.3,703.5v13.3a60.32,60.32,0,0,0,14.3,5.1,156.27,156.27,0,0,0,21.5,2V710.6c-7.2,0-14.3-1-22.5-2C873.5,706.6,869.4,705.5,865.3,703.5Z" fill="#f99b0f"/>
    <path d="M880.6,604.2c4.1,10.2,15.4,14.3,25.6,10.2s14.3-15.4,10.2-25.6c-4.1-9.2-14.3-14.3-23.6-11.3-1,0-2,1-3.1,2a19,19,0,0,0-9.1,24.7Z" fill="#282723"/>
    <path d="M870.4,627.7c5.1,12.3,19.5,17.4,31.7,11.3,12.3-5.1,17.4-19.5,11.3-31.7-5.1-12.3-19.5-17.4-31.7-11.3h0c-11.3,5.1-16.4,19.4-11.3,31.7Z" fill="#282723"/>
    <path d="M890.9,653.3s1,3.1-14.3,7.2a220.44,220.44,0,0,1-37.9,6.1l32.8-12.3C871.4,653.3,885.8,649.2,890.9,653.3Z" fill="#e2c59c"/>
    <path d="M850.9,663.6c-4.1,2-8.2,4.1-11.3,8.2-2,1-3.1,3.1-5.1,4.1,1-3.1,3.1-4.1,4.1-5.1s1-1-2,0c-2,1-3.1,3.1-5.1,5.1l-2,2c1-2,2-4.1,3.1-6.1,2-2,3.1-5.1,5.1-7.2,3.1-1,6.1-2,9.2-3.1C850.9,661.5,856.1,662.5,850.9,663.6Z" fill="#e2c59c"/>
    <path d="M838.7,665.6a19.82,19.82,0,0,0-6.1,4.1c-1,2-1,3.1-2,4.1,1-1,2-1,3.1-2C834.6,669.7,836.6,667.6,838.7,665.6Z" fill="#e2c59c"/>
    <path d="M882.7,648.2s13.3-3.1,15.4,5.1c1,3.1-1,7.2-5.1,8.2h-1c-8.2,2-16.4,3.1-16.4,3.1l-7.2-11.3Z" fill="#b0bfde"/>
    <path d="M881.7,642l4.1-37.9s0-10.2,3.1-9.2c3.1,0,6.1,9.2,6.1,12.3,2,8.2,2,16.4,2,24.6v27.6c0,4.1-5.1,0-9.2-1C879.6,656.4,881.7,642,881.7,642Z" fill="#b0bfde"/>
    <polygon points="798.7 747.5 785.4 775.2 768 776.2 758.8 774.1 778.2 769 788.5 743.4 798.7 747.5" fill="#e9d6b8"/>
    <path d="M783.4,779.3h-2l-1-3.1H766l-11.3-2a1,1,0,0,1,1-1c4.1-1,7.2-1,11.3-2,0,0-1,2,0,3.1,5.1,0,10.2,0,14.3-1,4.1,0,7.2-2,6.1-1A17.36,17.36,0,0,1,783.4,779.3Z" fill="#194866"/>
    <path d="M868.4,692.2l-41-1-30.7,67.6-13.3-5.1,29.7-80.9s2-5.1,14.3-5.1,61.4-1,66.6,0C909.3,670.7,866.3,681,868.4,692.2Z" fill="#194866"/>
    <path d="M898,579.6c4.1,9.2,15.4,13.3,24.6,9.2s13.3-15.4,9.2-24.6-15.4-13.3-25.6-9.2h0c-8.2,4.1-12.2,14.3-8.2,24.6Z" fill="#282723"/>
    <path d="M878.6,573.4c3.1,7.2,11.3,9.2,18.4,6.1h0v-7.2c7.2-3.1,10.2-12.3,6.1-19.5l-2-5.1c-3.1-7.2-12.3-10.2-19.5-6.1l-3.1,2c-7.2,3.1-10.2,12.3-7.2,18.4h0Z" fill="#282723"/>
    <path d="M874.5,553c1,1,1,2,2,3.1,4.1,7.2,11.3,10.2,19.5,9.2,2,3.1,4.1,6.1,6.1,9.2,2,2,5.1,3.1,8.2,4.1,4.1,7.2,1,17.4-7.2,20.5h0c-1,1-3.1,1-4.1,1-8.2,1-6.1-7.2-4.1-12.3a14.94,14.94,0,0,0,2-7.2c0-3.1-3.1-6.1-5.1-7.2a14.48,14.48,0,0,0-9.2,0h-1c-1,0-1-1-2-2l-5.1-10.2C873.5,558.1,873.5,555,874.5,553Z" fill="#e9d6b8"/>
    <path d="M916.5,678.9s-6.1,1-7.2,2h-9.2s-1-32.8-2-44-4.1-14.3-4.1-18.4,0-7.2,2-11.3c1-4.1-2-10.2-1-9.2,4.1,3.1,9.2,3.1,12.3-1l1-1C907.3,594.9,916.5,678.9,916.5,678.9Z" fill="#194866"/>
    <path d="M895,584.7s-8.2,8.2-8.2,11.3a236.54,236.54,0,0,0,1,26.6,234.78,234.78,0,0,1,4.1,23.6,154.77,154.77,0,0,0-1,21.5,91.84,91.84,0,0,0,2,16.4c2,1,5.1,0,7.2-2,3.1-3.1,2-32.8,1-39.9-2-10.2-4.1-21.5-5.1-31.7a63.51,63.51,0,0,1,3.1-19.5C900.1,586.8,895,584.7,895,584.7Z" fill="#d1dbea"/>
    <path d="M895,583.7h0c2,2,3.1,2,3.1,3.1,0,0-2-1-2,0a13.09,13.09,0,0,0-1,6.1s-3.1-5.1-2-6.1C892.9,585.7,894,584.7,895,583.7Z" fill="#b0bfde"/>
    <path d="M906.2,604.2c3.1,10.2,13.3,16.4,24.6,14.3,10.2-3.1,16.4-13.3,14.3-24.6-3.1-10.2-13.3-16.4-24.6-14.3h-1A20.16,20.16,0,0,0,906.2,604.2Z" fill="#282723"/>
    <polygon points="838.7 753.7 838.7 773.1 834.6 778.2 824.3 783.4 816.1 782.3 830.5 772.1 831.5 751.6 838.7 753.7" fill="#e9d6b8"/>
    <path d="M837.6,777.2l-4.1,3.1-1-1-9.2,6.1s-9.2,2-11.3,0,1-2,3.1-3.1c1-1,2-1,2-2,0,0,0,1,4.1,2,4.1-2,7.2-3.1,10.2-5.1,2-1,4.1-3.1,6.1-5.1C839.7,773.1,837.6,777.2,837.6,777.2Z" fill="#19486d"/>
    <path d="M921.6,652.3l-5.1,12.3-9.2,1-69.6,4.1s-6.1-2-10.2,8.2c-5.1,14.3,2,84,2,84h10.2l5.1-66.6s66.6,11.3,86,6.1c7.2-2,13.3-15.4,12.3-28.7-1-7.2-3.1-14.3-7.2-19.5Z" fill="#265880"/>
    <path d="M911.4,676.9s-3.1-28.7-5.1-42c-1-13.3-2-26.6-2-39.9,0-3.1-1-5.1-2-8.2,0,0,3.1-7.2,8.2-7.2,7.2,1,15.4,4.1,22.5,6.1,4.1,2,2,48.1,2,50.2,2,9.2,5.1,17.4,8.2,25.6,2,4.1,3.1,9.2,4.1,13.3C934.9,674.8,923.6,674.8,911.4,676.9Z" fill="#d1dbea"/>
    <path d="M909.3,576.5l-3.1,4.1s-4.1,6.1-3.1,5.1,4.1,5.1,4.1,5.1l6.1-12.3Z" fill="#b0bfde"/>
    <path d="M935.9,647.2s5.1,4.1-14.3,6.1a386,386,0,0,1-48.1,0l44-8.2C924.7,643.1,930.8,644.1,935.9,647.2Z" fill="#e9d6b8"/>
    <path d="M889.9,653.3c-6.1,1-11.3,4.1-15.4,7.2-2,1-4.1,3.1-7.2,4.1,1-4.1,4.1-4.1,6.1-5.1s1-1-2,0-5.1,3.1-7.2,5.1c-1,1-2,1-3.1,2,1-2,3.1-4.1,5.1-6.1,2-3.1,5.1-5.1,8.2-7.2,4.1-1,8.2-2,12.3-2S896,652.3,889.9,653.3Z" fill="#e9d6b8"/>
    <path d="M874.5,653.3c-3.1,1-5.1,2-8.2,3.1l-4.1,4.1a7.85,7.85,0,0,0,4.1-2C868.4,657.4,871.4,655.4,874.5,653.3Z" fill="#e2c59c"/>
    <path d="M924.7,642l-6.1-42c1-4.1,2-8.2,4.1-11.3a9.66,9.66,0,0,1,9.2-2s7.2,6.1,7.2,38.9c0,22.5,2,32.8-7.2,32.8-10.2,1-19.5,1-19.5,1l-7.2-13.3Z" fill="#b0bfde"/>
    <rect x="812" y="664.6" width="60.4" height="1" fill="#cdd5d7"/>
    <path d="M845.8,664.6a2.15,2.15,0,0,1-2,2H813.1c-1,0-2-1-3.1-3.1l-14.3-28.7a2.15,2.15,0,0,1,2-2h0l31.7,1a2.15,2.15,0,0,1,2,2Z" fill="#cdd5d7"/>
    <path d="M842.8,665.6h30.7c-1,1-3.1,1-5.1,1H817.2a9.35,9.35,0,0,1-5.1-1Z" fill="#b7bec0"/>
  </g>
</svg>
