<svg xmlns="http://www.w3.org/2000/svg" xmlns:xlink="http://www.w3.org/1999/xlink" width="1024" height="1024" viewBox="0 0 1024 1024">
  <defs>
    <clipPath id="a">
      <rect x="157.9" y="562.6" width="420.9" height="9.2" fill="none"/>
    </clipPath>
  </defs>
  <title>teamwork</title>
  <rect width="1024" height="1024" fill="none"/>
  <path d="M764.6,660.7c-64.6,0-265-2.8-386.6-10.2C152.7,636.4-31.6,660.7,89.5,688c33.8,7.6-63.6,53.8,175,63.7,209.4,8.7,422.9-11.2,526.2-19.8s151-23.6,173.2-30.7C983,695.5,990.5,662.4,764.6,660.7Z" fill="#e4efff"/>
  <rect x="404.2" y="270.3" width="530.3" height="212.8" fill="#edf4fc"/>
  <rect x="806.7" y="270.3" width="127.8" height="212.8" fill="#aebddc"/>
  <rect x="431.4" y="293.3" width="85.2" height="3.5" fill="#d9e1e4"/>
  <rect x="431.4" y="285.8" width="27.5" height="3.5" fill="#d9e1e4"/>
  <rect x="610.4" y="293.3" width="85.2" height="3.5" fill="#d9e1e4"/>
  <rect x="610.4" y="417.6" width="4.3" height="3.5" fill="#ffc40e"/>
  <rect x="610.4" y="426" width="71.7" height="3.5" fill="#d9e1e4"/>
  <rect x="610.4" y="434.5" width="52.5" height="3.5" fill="#d9e1e4"/>
  <rect x="706.5" y="417.6" width="4.3" height="3.5" fill="#3bb6d5"/>
  <rect x="706.5" y="426" width="71.7" height="3.5" fill="#d9e1e4"/>
  <rect x="706.5" y="434.5" width="52.5" height="3.5" fill="#d9e1e4"/>
  <rect x="610.4" y="285.8" width="27.5" height="3.5" fill="#d9e1e4"/>
  <rect x="827.5" y="293.3" width="85.2" height="3.5" fill="#cfd9e8"/>
  <rect x="827.5" y="285.8" width="27.5" height="3.5" fill="#cfd9e8"/>
  <path d="M567.9,455H434.8V304H567.9Zm-133.1,0H567.9V304.1H434.8Z" fill="#bac2c6"/>
  <rect x="434.8" y="433.3" width="133" height="0.2" fill="#bac2c6"/>
  <rect x="434.8" y="411.8" width="133" height="0.2" fill="#bac2c6"/>
  <rect x="434.8" y="390.1" width="133" height="0.2" fill="#bac2c6"/>
  <rect x="434.8" y="368.6" width="133" height="0.2" fill="#bac2c6"/>
  <rect x="434.8" y="347" width="133" height="0.2" fill="#bac2c6"/>
  <rect x="434.8" y="325.5" width="133" height="0.2" fill="#bac2c6"/>
  <rect x="523.4" y="304" width="0.2" height="150.8" fill="#bac2c6"/>
  <rect x="479" y="304" width="0.2" height="150.8" fill="#bac2c6"/>
  <rect x="426.5" y="307.38" width="9.7" height="0.2" transform="translate(-91.08 395.07) rotate(-45)" fill="#bac2c6"/>
  <rect x="426.59" y="329" width="9.7" height="0.2" transform="translate(-106.34 401.46) rotate(-45)" fill="#bac2c6"/>
  <rect x="426.53" y="350.52" width="9.7" height="0.2" transform="translate(-121.58 407.73) rotate(-45)" fill="#bac2c6"/>
  <rect x="426.48" y="372" width="9.7" height="0.2" transform="translate(-136.78 413.98) rotate(-45)" fill="#bac2c6"/>
  <rect x="426.47" y="393.62" width="9.7" height="0.2" transform="translate(-152.07 420.31) rotate(-45)" fill="#bac2c6"/>
  <rect x="426.52" y="415.14" width="9.7" height="0.2" transform="translate(-167.28 426.64) rotate(-45)" fill="#bac2c6"/>
  <rect x="426.46" y="436.62" width="9.7" height="0.2" transform="translate(-182.48 432.9) rotate(-45)" fill="#bac2c6"/>
  <path d="M421.8,440.8h.2v3.9h-.5Z" fill="#bac2c6"/>
  <path d="M426.3,442.3c0,1.3,0,2-1.3,2s-1.2-.7-1.3-2,.6-2,1.4-2S426.3,440.9,426.3,442.3Zm-2.1,0c0,1,0,1.6.7,1.6s.8-.6.8-1.6,0-1.6-.8-1.6S424.2,441.2,424.2,442.3Z" fill="#bac2c6"/>
  <path d="M420.7,422.8h0c1-.9,1.4-1.4,1.4-2a.59.59,0,0,0-.5-.7h-.2a1.39,1.39,0,0,0-.9,0h0a2,2,0,0,1,1.1,0,.9.9,0,0,1,1.1.9v.2c0,.8-.5,1.3-1.3,2.2h1.7Z" fill="#bac2c6"/>
  <path d="M426.3,420.9c0,1.3,0,2-1.3,2s-1.2-.7-1.3-2,.6-2,1.4-2S426.3,419.8,426.3,420.9Zm-2.1,0c0,1,0,1.6.7,1.6s.8-.6.8-1.6,0-1.6-.8-1.6S424.2,419.8,424.2,420.9Z" fill="#bac2c6"/>
  <path d="M420.8,400.8a1.39,1.39,0,0,0,.9,0,.64.64,0,0,0,.8-.6V400c0-.5,0-.7-1-.7h0s.9,0,.9-.7,0,0-.7,0H421a1.7,1.7,0,0,1,1,0,1,1,0,0,1,1.1.9v.1a1,1,0,0,1-.7.9h0c.5,0,.9,0,.9.9s0,1.2-1.4,1.2a1.7,1.7,0,0,1-1,0Z" fill="#bac2c6"/>
  <path d="M426.3,399.4c0,1.3,0,2-1.3,2s-1.2-.7-1.3-2,.6-2,1.4-2S426.3,398.2,426.3,399.4Zm-2.1,0c0,1,0,1.6.7,1.6s.8-.6.8-1.6,0-1.6-.8-1.6S424.2,398.4,424.2,399.4Z" fill="#bac2c6"/>
  <path d="M422.3,380v-1.1h-1.8l1.7-2.6h.6v2.6h0v1Zm0-1.4v-1.9h0v.6l-1,1.3h1Z" fill="#bac2c6"/>
  <path d="M426.3,378.1c0,1.3,0,2-1.3,2s-1.2-.7-1.3-2,.6-1.9,1.4-1.9S426.3,376.8,426.3,378.1Zm-2.1,0c0,.9,0,1.5.7,1.5s.8-.6.8-1.6,0-1.5-.8-1.5-.7.6-.7,1.7Z" fill="#bac2c6"/>
  <path d="M423,355.2h-1.5v1h.8a1.23,1.23,0,0,1,.5,1,1.32,1.32,0,0,1-1.3,1.3h-.2a.8.8,0,0,0,.9-.7v-.1s0-.9-1.1-.9h0v-1.9H423v.3Z" fill="#bac2c6"/>
  <path d="M426.3,356.7c0,1.3,0,2-1.3,2s-1.2-.7-1.3-1.9.6-2,1.4-2S426.3,355.4,426.3,356.7Zm-2.1,0c0,1,0,1.5.7,1.5s.8-.6.8-1.6,0-1.5-.8-1.5-.7.6-.7,1.7Z" fill="#bac2c6"/>
  <path d="M422.9,333.7h0a1.7,1.7,0,0,0-1.4,1.4h0a1.39,1.39,0,0,1,.9,0c.7,0,1.1,0,1.1,1.2a1.11,1.11,0,0,1-1.1,1.3h-.1a1.37,1.37,0,0,1-1.4-1.4V336a2.41,2.41,0,0,1,.7-1.7,2.73,2.73,0,0,1,1.2-.6h.1Zm0,2.3a.8.8,0,0,0-.7-.9h-.1a.75.75,0,0,0-.7.5h0c0,.7,0,1.1.9,1.1s.4-.1.4-.7Z" fill="#bac2c6"/>
  <path d="M426.3,335.3c0,1.3,0,2-1.3,2s-1.2-.7-1.3-1.9.6-2,1.4-2S426.3,334,426.3,335.3Zm-2.1,0c0,1,0,1.5.7,1.5s.8-.6.8-1.6,0-1.5-.8-1.5-.7.6-.7,1.7Z" fill="#bac2c6"/>
  <path d="M423.2,312h0l-1.7,3.6h0l1.6-3.5h-1.8Z" fill="#bac2c6"/>
  <path d="M426.3,313.9c0,1.3,0,2-1.3,2s-1.2-.7-1.3-1.9.6-2,1.4-2S426.3,312.6,426.3,313.9Zm-2.1,0c0,1,0,1.5.7,1.5s.8-.6.8-1.5,0-1.6-.8-1.6-.7.6-.7,1.7Z" fill="#bac2c6"/>
  <path d="M448.8,462.8h0c.9-1,1.4-1.5,1.4-2a.64.64,0,0,0-.6-.8h-.2a1.1,1.1,0,0,0-.8,0h0a1.7,1.7,0,0,1,1,0,1.06,1.06,0,0,1,1.2,1v.1c0,.7-.5,1.3-1.3,2.2h1.7v.5Z" fill="#bac2c6"/>
  <path d="M454.5,460.8c0,1.3-.5,2-1.3,2s-1.3-.7-1.3-1.9.6-2,1.4-2S454.5,459.6,454.5,460.8Zm-2.2,0c0,1,0,1.5.8,1.5s.8-.6.8-1.6,0-1.5-.8-1.5S452.3,459.8,452.3,460.8Z" fill="#bac2c6"/>
  <path d="M456.1,459.4h.2v3.9h-.5Z" fill="#bac2c6"/>
  <path d="M460.8,459h0l-1.7,3.6h-.5l1.6-3.5h-1.8Z" fill="#bac2c6"/>
  <path d="M494,462.8h0c1-1,1.5-1.5,1.5-2a.64.64,0,0,0-.6-.8h-.2a1.1,1.1,0,0,0-.8,0h0a2,2,0,0,1,1.1,0,1.06,1.06,0,0,1,1.2,1v.1c0,.7,0,1.3-1.3,2.2h1.7v.5Z" fill="#bac2c6"/>
  <path d="M499.7,460.8c0,1.3,0,2-1.3,2s-1.3-.7-1.3-1.9.6-2,1.3-2S499.7,459.6,499.7,460.8Zm-2.1,0c0,1,0,1.5.8,1.5s.8-.6.8-1.6,0-1.5-.8-1.5S497.6,459.8,497.6,460.8Z" fill="#bac2c6"/>
  <path d="M501.8,459.4h0v3.9h0Z" fill="#bac2c6"/>
  <path d="M503.2,461.8a1.08,1.08,0,0,1,.8-1h0a1,1,0,0,1-.6-.9c0-.6.5-1,1.2-1a.9.9,0,0,1,1.1.9h0a1,1,0,0,1-.7.9h0a1,1,0,0,1,.8,1,1.16,1.16,0,0,1-1.3,1.1h0C503.7,462.8,503.2,462.4,503.2,461.8Zm2.1,0c0-.5,0-.7-.9-.9a.76.76,0,0,0-.6.8.64.64,0,0,0,.6.8h.1a.64.64,0,0,0,.8-.6Zm-1.4-1.9a.74.74,0,0,0,.7.7.86.86,0,0,0,.6-.7.62.62,0,0,0-.7-.6.44.44,0,0,0-.6.4Z" fill="#bac2c6"/>
  <path d="M539.2,462.8h0c1-1,1.4-1.5,1.4-2a.64.64,0,0,0-.6-.8h-.1a1.1,1.1,0,0,0-.8,0h0a2,2,0,0,1,1.1,0,1.06,1.06,0,0,1,1.2,1v.1c0,.7-.6,1.3-1.4,2.2h1.7v.5Z" fill="#bac2c6"/>
  <path d="M545,460.8c0,1.3,0,2-1.4,2s-.8-.7-.8-2,0-2,1.3-2S545,459.6,545,460.8Zm-2.3,0c0,1,0,1.5.8,1.5s.7-.6.7-1.6,0-1.5-.7-1.5S542.7,459.8,542.7,460.8Z" fill="#bac2c6"/>
  <path d="M546.6,459.4h.2v3.9h0Z" fill="#bac2c6"/>
  <path d="M548.9,462.4h.8a1.91,1.91,0,0,0,.5-1h0a1.39,1.39,0,0,1-.9,0,1.22,1.22,0,0,1-1.2-1.2,1.32,1.32,0,0,1,1.3-1.3h0c.8,0,1.3.6,1.3,1.6a2.41,2.41,0,0,1-.7,1.8,1.61,1.61,0,0,1-1.1.5h0v-.4Zm0-2.2a.64.64,0,0,0,.6.8h.2a.85.85,0,0,0,.7,0h0s0-1.1-.8-1.1a.71.71,0,0,0-.6.3Z" fill="#bac2c6"/>
  <g opacity="0.34">
    <rect x="434.8" y="325.6" width="133" height="21.5" fill="#fff"/>
  </g>
  <g opacity="0.34">
    <rect x="434.8" y="368.7" width="133" height="21.5" fill="#fff"/>
  </g>
  <g opacity="0.34">
    <rect x="434.8" y="411.8" width="133" height="21.5" fill="#fff"/>
  </g>
  <rect x="434.8" y="325.6" width="59.8" height="3.5" fill="#ffc40e"/>
  <rect x="434.8" y="334.6" width="102.7" height="3.5" fill="#165670"/>
  <rect x="434.8" y="343.8" width="36.6" height="3.5" fill="#3bb6d5"/>
  <rect x="434.8" y="368.7" width="107.9" height="3.5" fill="#ffc40e"/>
  <rect x="434.8" y="377.8" width="44.3" height="3.5" fill="#165670"/>
  <rect x="434.8" y="386.8" width="88.7" height="3.5" fill="#3bb6d5"/>
  <rect x="434.8" y="412.1" width="44.3" height="3.5" fill="#ffc40e"/>
  <rect x="434.8" y="421.1" width="88.7" height="3.5" fill="#165670"/>
  <rect x="434.8" y="430.2" width="73.2" height="3.5" fill="#3bb6d5"/>
  <rect x="827.5" y="310.3" width="4.5" height="4.5" fill="#cfd9e8"/>
  <rect x="840.4" y="310.3" width="4.5" height="4.5" fill="#cfd9e8"/>
  <rect x="853.2" y="310.3" width="4.5" height="4.5" fill="#cfd9e8"/>
  <rect x="866.1" y="310.3" width="4.5" height="4.5" fill="#fff"/>
  <rect x="879" y="310.3" width="4.5" height="4.5" fill="#fff"/>
  <rect x="891.9" y="310.3" width="4.5" height="4.5" fill="#cfd9e8"/>
  <rect x="904.8" y="310.3" width="4.5" height="4.5" fill="#cfd9e8"/>
  <rect x="827.5" y="321.6" width="4.5" height="4.5" fill="#fff"/>
  <rect x="840.4" y="321.6" width="4.5" height="4.5" fill="#fff"/>
  <rect x="853.2" y="321.6" width="4.5" height="4.5" fill="#fff"/>
  <rect x="866.1" y="321.6" width="4.5" height="4.5" fill="#3bb6d5"/>
  <rect x="879" y="321.6" width="4.5" height="4.5" fill="#fff"/>
  <rect x="891.9" y="321.6" width="4.5" height="4.5" fill="#cfd9e8"/>
  <rect x="904.8" y="321.6" width="4.5" height="4.5" fill="#cfd9e8"/>
  <rect x="827.5" y="333" width="4.5" height="4.5" fill="#fff"/>
  <rect x="840.4" y="333" width="4.5" height="4.5" fill="#fff"/>
  <rect x="853.2" y="333" width="4.5" height="4.5" fill="#fff"/>
  <rect x="866.1" y="333" width="4.5" height="4.5" fill="#fff"/>
  <rect x="879" y="333" width="4.5" height="4.5" fill="#165670"/>
  <rect x="891.9" y="333" width="4.5" height="4.5" fill="#cfd9e8"/>
  <rect x="904.8" y="333" width="4.5" height="4.5" fill="#cfd9e8"/>
  <rect x="827.5" y="344.4" width="4.5" height="4.5" fill="#fff"/>
  <rect x="840.4" y="344.4" width="4.5" height="4.5" fill="#3bb6d5"/>
  <rect x="853.2" y="344.4" width="4.5" height="4.5" fill="#3bb6d5"/>
  <rect x="866.1" y="344.4" width="4.5" height="4.5" fill="#165670"/>
  <rect x="879" y="344.4" width="4.5" height="4.5" fill="#fff"/>
  <rect x="891.9" y="344.4" width="4.5" height="4.5" fill="#cfd9e8"/>
  <rect x="904.8" y="344.4" width="4.5" height="4.5" fill="#cfd9e8"/>
  <rect x="827.5" y="355.7" width="4.5" height="4.5" fill="#fff"/>
  <rect x="840.4" y="355.7" width="4.5" height="4.5" fill="#fff"/>
  <rect x="853.2" y="355.7" width="4.5" height="4.5" fill="#fff"/>
  <rect x="866.1" y="355.7" width="4.5" height="4.5" fill="#fff"/>
  <rect x="879" y="355.7" width="4.5" height="4.5" fill="#fff"/>
  <rect x="891.9" y="355.7" width="4.5" height="4.5" fill="#cfd9e8"/>
  <rect x="904.8" y="355.7" width="4.5" height="4.5" fill="#cfd9e8"/>
  <rect x="827.5" y="367.1" width="4.5" height="4.5" fill="#fece40"/>
  <rect x="840.4" y="367.1" width="4.5" height="4.5" fill="#fff"/>
  <rect x="853.2" y="367.1" width="4.5" height="4.5" fill="#fff"/>
  <rect x="866.1" y="367.1" width="4.5" height="4.5" fill="#fff"/>
  <rect x="879" y="367.1" width="4.5" height="4.5" fill="#fff"/>
  <rect x="891.9" y="367.1" width="4.5" height="4.5" fill="#cfd9e8"/>
  <rect x="904.8" y="367.1" width="4.5" height="4.5" fill="#cfd9e8"/>
  <rect x="746" y="303.5" width="0.2" height="82.5" fill="#bac2c6"/>
  <rect x="712.4" y="303.5" width="0.2" height="82.5" fill="#bac2c6"/>
  <rect x="678.8" y="303.5" width="0.2" height="82.5" fill="#bac2c6"/>
  <rect x="645.1" y="303.5" width="0.2" height="82.5" fill="#bac2c6"/>
  <g opacity="0.34">
    <rect x="678.8" y="303.5" width="67.3" height="82.5" fill="#fff"/>
  </g>
  <path d="M779.9,386.2H611.5V303.5H779.8v82.7Zm-168.3,0h168V304.3h-168Z" fill="#bac2c6"/>
  <rect x="611.6" y="372.2" width="168.1" height="0.2" fill="#bac2c6"/>
  <rect x="611.6" y="358.5" width="168.1" height="0.2" fill="#bac2c6"/>
  <rect x="611.6" y="344.7" width="168.1" height="0.2" fill="#bac2c6"/>
  <rect x="611.6" y="331" width="168.1" height="0.2" fill="#bac2c6"/>
  <rect x="611.6" y="317.2" width="168.1" height="0.2" fill="#bac2c6"/>
  <path d="M608.8,385.3q0,1.8-1.2,1.8c-.7,0-1.2-.6-1.2-1.8s0-1.8,1.2-1.8S608.8,384.2,608.8,385.3Zm-2,0c0,.9,0,1.5.7,1.5s.7-.6.7-1.5,0-1.4-.7-1.4S606.8,384.4,606.8,385.3Z" fill="#bac2c6"/>
  <path d="M604.7,370.2h.2v3.6h0Z" fill="#bac2c6"/>
  <path d="M608.8,371.5q0,1.8-1.2,1.8c-.7,0-1.2-.6-1.2-1.7s0-1.9,1.2-1.9S608.8,370.4,608.8,371.5Zm-2,0c0,.9,0,1.4.7,1.4s.7-.6.7-1.5,0-1.4-.7-1.4-.7.6-.7,1.6Z" fill="#bac2c6"/>
  <path d="M603.5,359.5h0c.9-.9,1.3-1.3,1.3-1.9s0-.6-.7-.6h-.7a1.7,1.7,0,0,1,1,0,1,1,0,0,1,1.1.9v.1c0,.6,0,1.1-1.2,1.9h1.6Z" fill="#bac2c6"/>
  <path d="M608.8,357.7c0,1.2,0,1.9-1.2,1.9s-1.2-.7-1.2-1.8,0-1.8,1.2-1.8S608.8,356.6,608.8,357.7Zm-2,0c0,.9,0,1.4.7,1.4s.7-.6.7-1.5,0-1.4-.7-1.4-.7.6-.7,1.6Z" fill="#bac2c6"/>
  <path d="M604.2,345.2h.8a.64.64,0,0,0,.8-.6v-.1s0-.7-.9-.7h0s.8,0,.8-.6,0,0-.6,0h-.7a1.7,1.7,0,0,1,1,0,.85.85,0,0,1,1,.8h0a.77.77,0,0,1-.7.8h0a.86.86,0,0,1,.8.8c0,.6,0,1.1-1.3,1.1h-.9Z" fill="#bac2c6"/>
  <path d="M608.8,344c0,1.1,0,1.8-1.2,1.8s-1.2-.6-1.2-1.8,0-1.8,1.2-1.8S608.8,342.7,608.8,344Zm-2,0c0,.9,0,1.4.7,1.4s.7,0,.7-1.4,0-1.4-.7-1.4S606.8,343,606.8,344Z" fill="#bac2c6"/>
  <path d="M605.1,332v-1h-1.6l1.5-2.3h.5v2.2h0v1Zm0-1.5v-1.7h0l-.9,1.2h1.2Z" fill="#bac2c6"/>
  <path d="M608.8,330.1q0,1.8-1.2,1.8c-.7,0-1.2-.6-1.2-1.8s0-1.8,1.2-1.8S608.8,329,608.8,330.1Zm-2,0c0,.9,0,1.5.7,1.5s.7-.6.7-1.5,0-1.4-.7-1.4S606.8,329.2,606.8,330.1Z" fill="#bac2c6"/>
  <path d="M605.7,315h-1.5v.9h0a1.1,1.1,0,0,1,.8,0v.9a1.16,1.16,0,0,1-1.3,1.1h-.9l1.4-.5a.79.79,0,0,0,.8-.8h0s0-.8-1-.8h0v-1.7h1.7Z" fill="#bac2c6"/>
  <path d="M608.8,316.3q0,1.8-1.2,1.8c-.7,0-1.2-.6-1.2-1.7s0-1.9,1.2-1.9S608.8,315.2,608.8,316.3Zm-2,0c0,.9,0,1.4.7,1.4s.7-.6.7-1.5,0-1.4-.7-1.4-.7.6-.7,1.6Z" fill="#bac2c6"/>
  <path d="M627.9,390.7h.1v3.4h0Z" fill="#bac2c6"/>
  <path d="M660.6,393.5h0c.8-.8,1.2-1.2,1.2-1.7a.44.44,0,0,0-.4-.6h-.9a1.7,1.7,0,0,1,1,0,.85.85,0,0,1,1,.8v.1c0,.6,0,1.1-1.2,1.8h1.4Z" fill="#bac2c6"/>
  <path d="M694.3,393h.7c.6,0,.8,0,.8-.6s0-.7-.9-.7h0s.8,0,.8-.6a.64.64,0,0,0-.6,0,.85.85,0,0,0-.7,0h.9a.8.8,0,0,1,.9.7v.1a.67.67,0,0,1-.6.7h0a1,1,0,0,1,.7.9,1.11,1.11,0,0,1-1.2,1h-.8V393Z" fill="#bac2c6"/>
  <path d="M729.2,393.5v-.9h-1.5l1.5-2.2h0v2.2h0Zm0-1.2v-1.6h0v.5l-.8,1.1h.8Z" fill="#bac2c6"/>
  <path d="M763.4,390.6h-1.2v.9h.7a.75.75,0,0,1,0,.9,1.11,1.11,0,0,1-1.1,1.1h-.2a.77.77,0,0,0,.8-.7s0-.7-1-.7h0v-1.6h1.5Z" fill="#bac2c6"/>
  <polygon points="611.7 387.1 611.4 386.2 645 372.4 678.7 357.7 712.4 344.1 746.3 344.1 779.6 330.6 780 331.6 746.5 345.1 712.6 345.1 679 358.6 645.4 373.4 611.7 387.1" fill="#ffc40e"/>
  <polygon points="678.8 372.8 645.2 359.1 611.7 372.7 611.4 371.8 645.2 358 678.9 371.8 712.2 359.1 745.8 317.7 745.9 317.6 779.6 303.1 780 304 746.4 318.6 712.8 359.9 712.7 360 678.8 372.8" fill="#3bb6d5"/>
  <path d="M748,318.2a1.9,1.9,0,0,1-1.9,1.9h0a1.9,1.9,0,1,1,0-3.8h0a1.78,1.78,0,0,1,1.9,1.9Z" fill="#fff"/>
  <path d="M746.1,320.6a2.5,2.5,0,1,1,2.5-2.5A2.61,2.61,0,0,1,746.1,320.6Zm0-3.9a1.4,1.4,0,1,0,1.4,1.4A1.37,1.37,0,0,0,746.1,316.7Z" fill="#3bb6d5"/>
  <path d="M714.4,359.5a1.9,1.9,0,0,1-1.9,1.9h0a1.74,1.74,0,0,1-1.9-1.7v-.2a1.9,1.9,0,0,1,1.9-1.9h0A1.9,1.9,0,0,1,714.4,359.5Z" fill="#fff"/>
  <path d="M712.5,362a2.5,2.5,0,1,1,2.5-2.5h0A2.48,2.48,0,0,1,712.5,362Zm0-3.9a1.4,1.4,0,1,0,1.4,1.4A1.37,1.37,0,0,0,712.5,358.1Z" fill="#3bb6d5"/>
  <path d="M680.8,372.3a1.94,1.94,0,0,1-3.8.8,1.39,1.39,0,0,1,0-.9,1.74,1.74,0,0,1,1.7-1.9h.1a1.74,1.74,0,0,1,1.9,1.7A.77.77,0,0,1,680.8,372.3Z" fill="#fff"/>
  <path d="M678.8,374.8a2.5,2.5,0,1,1,2.5-2.5h0a2.35,2.35,0,0,1-2.2,2.5Zm0-3.9a1.4,1.4,0,1,0,1.4,1.4A1.37,1.37,0,0,0,678.8,370.9Z" fill="#3bb6d5"/>
  <path d="M647.2,358.4a1.9,1.9,0,0,1-1.9,1.9,2,2,0,0,1-1.9-1.9,1.9,1.9,0,0,1,1.9-1.9h0A1.9,1.9,0,0,1,647.2,358.4Z" fill="#fff"/>
  <path d="M645.1,361a2.5,2.5,0,1,1,2.5-2.5v.1a2.43,2.43,0,0,1-2.4,2.4Zm0-3.8a1.4,1.4,0,1,0,1.4,1.4A1.31,1.31,0,0,0,645.1,357.2Z" fill="#3bb6d5"/>
  <path d="M713.6,344.8a1.79,1.79,0,0,1-1.8,1.8h-.1a1.79,1.79,0,0,1-1.8-1.8h0a1.74,1.74,0,0,1,1.7-1.9h.1a1.74,1.74,0,0,1,1.9,1.7Z" fill="#fff"/>
  <path d="M711.7,347.1a2.43,2.43,0,0,1-2.4-2.4h0a2.43,2.43,0,0,1,2.3-2.5h.1a2.45,2.45,0,0,1,1,4.8A1.21,1.21,0,0,1,711.7,347.1Zm0-3.8a1.37,1.37,0,0,0-1.4,1.4,1.41,1.41,0,0,0,1.4,1.3,1.27,1.27,0,0,0,1.4-1.2v-.1a1.43,1.43,0,0,0-1.4-1.4Z" fill="#ffc40e"/>
  <path d="M748,344.8a1.9,1.9,0,1,1-3.8,0,2,2,0,0,1,1.9-1.9,1.9,1.9,0,0,1,1.9,1.9Z" fill="#fff"/>
  <path d="M746.1,347.1a2.5,2.5,0,1,1,2.5-2.5v.1a2.43,2.43,0,0,1-2.4,2.4Zm0-3.8a1.4,1.4,0,1,0,1.4,1.4,1.43,1.43,0,0,0-1.4-1.4Z" fill="#ffc40e"/>
  <path d="M770,381.7l1.3-17.2a13.14,13.14,0,0,1,11-5.2,17.49,17.49,0,0,1,12.9,20.5c-.8,10.2-8,18.7-16,18.1a15.1,15.1,0,0,1-12-11.5A5.64,5.64,0,0,0,770,381.7Z" fill="#163f59"/>
  <path d="M802,389.6c0,2.7-2.3,5.4-6,6.1l-8.8,1.5c-3.8.6-7.3-1-7.8-3.7l-4.4-25c0-2.7,2.3-5.4,6.1-6.1l8.7-1.5a6.35,6.35,0,0,1,7.8,3.7Z" fill="#163f59"/>
  <path d="M779.8,401.8c-5.1,2.6-7.7,2-3.6,3.5a49.73,49.73,0,0,0,27.3-5.9s-10.2-1.3-10.2-1.6a30.53,30.53,0,0,1-.5-13.1.73.73,0,0,0-.7-.6l-5.5.5s-3.9,1-3,2.8C784.7,392.1,785.1,399.4,779.8,401.8Z" fill="#e9d6b8"/>
  <path d="M777.1,387.5V387h0v-.6h0v-.6h0v-1.5h0a45,45,0,0,1,.8-14.2,1.29,1.29,0,0,1,1.3-.8c4.3,0,17.4-1.3,14.7,10.9h0v1.5h0V383h0v1.4h0c-1.5,5.7-4.5,10.2-8,10.2a7,7,0,0,1-5.4-3.7h0Z" fill="#e9d6b8"/>
  <path d="M729.9,402.9h-1.3a12.55,12.55,0,0,1-1.2-4.6v-6a5.34,5.34,0,0,1,1,3.5A22,22,0,0,0,729.9,402.9Z" fill="#e2c59c"/>
  <path d="M729.7,402.3a6.78,6.78,0,0,1,0-6.2,4.75,4.75,0,0,0,0-3.7,31.61,31.61,0,0,0-1.7,5.2,6.16,6.16,0,0,0,0,3.3C728.3,404.2,732.2,406.5,729.7,402.3Z" fill="#e2c59c"/>
  <path d="M779.6,681.3a45.78,45.78,0,0,1,7.3-1.8c3.2-.6,5.6-.6,6.8-1.7s.6-8.2,1.5-8c4.5,1,6.1,11.7,3.6,13a87.93,87.93,0,0,1-18.5.7C779,683.3,779.2,681,779.6,681.3Z" fill="#e9d6b8"/>
  <path d="M811.9,563.2l-1.8-7.8c-2.2-3.8-4.1-5.7-5.4-5.5-5.4.9-10.2,21.8,6.9,72.3.9,2.6,12.2,46.4,12.3,45.4C826,654.4,821.1,602.1,811.9,563.2Z" fill="#e9d6b8"/>
  <path d="M806.4,486.6c-4.3-.7-4.3,1.7-7.3,8a90.31,90.31,0,0,0-6.2,48.7A148.63,148.63,0,0,0,809,596.9a148.72,148.72,0,0,0,7.6-36.8C821.4,517,819.2,488.8,806.4,486.6Z" fill="#e9d6b8"/>
  <path d="M802.1,536.1a61.5,61.5,0,0,1,17.1-1.9c0,7.3-1,15.3-1.9,23.9a16.63,16.63,0,0,0-21.4,0c-.9-4.8-1.8-10.2-2.5-15a13,13,0,0,0-.5-4.4A74,74,0,0,1,802.1,536.1Z" fill="#e2c59c"/>
  <path d="M831.1,429.3c-6.3,5.7-11.9,31.5-11.9,31.5S820,471,834,438.4C838,429,832.6,427.8,831.1,429.3Z" fill="#e9d6b8"/>
  <path d="M766.2,420.8A69.69,69.69,0,0,0,756,445.3a14.83,14.83,0,0,0-.7,7.8s2.3,10.2,12.8-18.7C770.2,427,768,419.8,766.2,420.8Z" fill="#e9d6b8"/>
  <path d="M758.6,452.3c-.8-10.4-21.3-36.7-21.3-36.7s-10.2-7.7,10.2,31.5C753.8,459,758.8,454.9,758.6,452.3Z" fill="#e9d6b8"/>
  <path d="M729.7,400.3h-.8v3.3a34.5,34.5,0,0,0,3.2,7.4,113.08,113.08,0,0,1,4.6,11.4c.6.9,5.7.6,5.7.6s-4.7-8.1-6.2-11.4a73.42,73.42,0,0,1-2.8-10.2,20.94,20.94,0,0,1-1.3-3.5s-1.1.7,0,4.4a.78.78,0,0,1-.9.8Z" fill="#e9d6b8"/>
  <path d="M780.4,503.6a104.4,104.4,0,0,1,8.8,45.1,161.39,161.39,0,0,1-7.7,51.2,219.46,219.46,0,0,1-8.7-33.7C763.9,526.7,777.6,498.1,780.4,503.6Z" fill="#e9d6b8"/>
  <path d="M771.6,545.7a30.38,30.38,0,0,1,3.7-22.8c1-1.2,1.5-.5,3.4,0a17.71,17.71,0,0,1,9.7,10.2v21.8A29,29,0,0,0,771.6,545.7Z" fill="#e2c59c"/>
  <path d="M781.5,566.9c2.2-1,5.9,1.5,8.5,6.8a108,108,0,0,1,7.8,41.7c.9,18.4.9,32.2.7,43.4s4.4,26.8-4,25.4a146.94,146.94,0,0,0-6-50.2C773,593.2,775.2,570.2,781.5,566.9Z" fill="#e9d6b8"/>
  <polygon points="776.2 438 808.8 435.6 810.4 398 771.9 404.2 776.2 438" fill="#3bb6d5"/>
  <path d="M823.3,547.7l-55.9-5a584.17,584.17,0,0,0,8.7-105.6l32.9-2.3C807.3,448.8,836.6,472,823.3,547.7Z" fill="#3bb6d5"/>
  <path d="M827,434.7l-18-22.3-4.6-10.2a5.07,5.07,0,0,1,1.8-2.5h.6a5.27,5.27,0,0,1,7.3,1.2l20.5,28.6Z" fill="#3bb6d5"/>
  <path d="M763.7,447.9l10.2-24.6,3.5-17a5.63,5.63,0,0,0-2.6-1.7h-.7a5.13,5.13,0,0,0-6.5,3.4h0l-11.4,33.8Z" fill="#3bb6d5"/>
  <path d="M819.2,468.3a1.08,1.08,0,0,0,1.4.7H822a1.08,1.08,0,0,0,.7-1.4h0l-2.3-6.8a1.14,1.14,0,0,0-1.4-.8h-1.4a1,1,0,0,0-.7,1.2v.1Z" fill="#e9d6b8"/>
  <path d="M824.4,671.8c3.4,7.1,7.6,12.1,9.4,11.2s.6-7.3-2.7-14.3-7.6-12-9.4-11.1S821,664.9,824.4,671.8Z" fill="#3bb6d5"/>
  <path d="M823.4,667.8c1.7,5.5,5.4,9.4,7.3,8.6s1.2-5.6-1.4-10.2a27.19,27.19,0,0,1-4.9-12.8C824,648.6,817,647.2,823.4,667.8Z" fill="#e9d6b8"/>
  <path d="M798.1,675.2Z" fill="#e9d6b8"/>
  <path d="M782.6,680.3c-.9,3.5,10.2,2,12.7,1.1a31.45,31.45,0,0,1,4.4-1.1h0c0,1.9.9,4.5-2.2,4.5H778.1C762.7,685.1,782.6,680.2,782.6,680.3Z" fill="#3bb6d5"/>
  <path d="M729.7,404.3a8.68,8.68,0,0,1-.7-4.2,53.14,53.14,0,0,1,2.3-5.5,5.55,5.55,0,0,1,0,3.6A18.35,18.35,0,0,0,729.7,404.3Z" fill="#e9d6b8"/>
  <path d="M731,403.6h1c.2,0,0,.5,0,.7s.5,3.9.5,3.9c-.3-1-.8-2-1.2-3a3.9,3.9,0,0,0-.8-2.3v-.5Z" fill="#e2c59c"/>
  <path d="M732,402.7c-.9-2.5-.7-3.6,0-4.1.3,1,.6,1.9,1,2.9a19.73,19.73,0,0,1,.7,2.6,4,4,0,0,0-1,2.6,11.67,11.67,0,0,1-1.1-3.1C731.3,402.2,732.2,403.5,732,402.7Z" fill="#e2c59c"/>
  <path d="M785,383.6a6.7,6.7,0,0,0,2.7-4.6l1.4-17.3h0a6.35,6.35,0,0,1,7.8,3.7l4.4,24.8a5.5,5.5,0,0,1-3.7,5.3h-1.3A14.62,14.62,0,0,1,785,383.6Z" fill="#163f59"/>
  <path d="M196.9,636.5a14.3,14.3,0,0,1-9.5-3.5,25.81,25.81,0,0,1-6.1-21.9,81.52,81.52,0,0,1,6.1-21.7,83.79,83.79,0,0,0,7.7-46l5.4-.8a90.11,90.11,0,0,1-8,48.8,69.51,69.51,0,0,0-5.7,20.5,20.59,20.59,0,0,0,4.2,17.4,8.48,8.48,0,0,0,7.3,2l1.1,5.4A6.88,6.88,0,0,1,196.9,636.5Z" fill="#367082"/>
  <path d="M239,680l5.3,8.2-44.9,14.3s-3.1-2.9,8-8.6C220.3,687.2,239,680,239,680Z" fill="#88bdda"/>
  <path d="M247,680l-5.3,8.2,45.1,14.3s3.1-2.9-8-8.6C266.2,687.2,247,680,247,680Z" fill="#88bdda"/>
  <rect x="238.3" y="655.8" width="9.4" height="33.4" fill="#88bdda"/>
  <path d="M238.4,681.8l4.6,7.8-38.2,13.7s-2.7-2.8,6.9-8.3S238.4,681.8,238.4,681.8Z" fill="#91e2f6"/>
  <path d="M247.6,681.8l-4.6,7.8,38.5,13.7s2.6-2.8-6.9-8.3C263.6,688.6,247.6,681.8,247.6,681.8Z" fill="#91e2f6"/>
  <path d="M208.9,706.6a3.3,3.3,0,0,1-6.6,0,3.47,3.47,0,0,1,3.3-3.3A3.33,3.33,0,0,1,208.9,706.6Z" fill="#001f46"/>
  <path d="M283.3,706.6a3.4,3.4,0,0,1-6.8,0,3.26,3.26,0,0,1,6.4-1.2,2.44,2.44,0,0,1,0,1.2Z" fill="#001f46"/>
  <path d="M201,706.6a3.25,3.25,0,1,1-6.5,0,3.47,3.47,0,0,1,3.3-3.3A3.24,3.24,0,0,1,201,706.6Z" fill="#367082"/>
  <path d="M291.2,706.6a3.26,3.26,0,0,1-6.4,1.2,2.44,2.44,0,0,1,0-1.2,3.26,3.26,0,1,1,6.4-1.2A2.44,2.44,0,0,1,291.2,706.6Z" fill="#367082"/>
  <rect x="239.4" y="643.6" width="6.9" height="12" fill="#367082"/>
  <path d="M251.5,637.2a6.85,6.85,0,0,1-6.8,6.7h-3.8a6.7,6.7,0,0,1-6.7-6.7h0a6.85,6.85,0,0,1,6.7-6.8h3.8A7,7,0,0,1,251.5,637.2Z" fill="#367082"/>
  <path d="M293.9,631.1v-6.6a9,9,0,0,0-7.2-10.1H199.4a9,9,0,0,0-7.8,10.1v6.8Z" fill="#3dc7c9"/>
  <path d="M190.8,633.8c0,1.6,1,3,2.2,3h99.8c1.2,0,2.2-1.3,2.2-3h0c0-1.6-.9-3-2.2-3H193C191.8,630.8,190.8,632.1,190.8,633.8Z" fill="#367082"/>
  <path d="M195.7,580.9h18.1c14.8,0,27.8-2.7,28.5-6.3a128.1,128.1,0,0,0,0-46.2c-.6-3.7-13.7-6.5-29-6.2H194.9A125.24,125.24,0,0,1,195.7,580.9Z" fill="#3dc7c9"/>
  <path d="M193.6,523c-1.7,0-2.9.8-2.7,1.7a123.3,123.3,0,0,1,.5,54.4c0,1,.9,1.8,2.6,1.8h0c1.6,0,3.2-.7,3.4-1.7a125.26,125.26,0,0,0,0-54.5c0-1-1.7-1.7-3.4-1.7Z" fill="#367082"/>
  <path d="M192.9,580.8a26.7,26.7,0,0,0,4,0,8,8,0,0,0,7.2-6.5,124.28,124.28,0,0,0,0-45.5,7.89,7.89,0,0,0-7.4-6.5h-4A124.41,124.41,0,0,1,192.9,580.8Z" fill="#33a8b5"/>
  <path d="M222,444.7h-7v3.8A9.69,9.69,0,0,1,222,444.7Z" fill="#dce5ea"/>
  <path d="M242,467.5s-12.7,4.5-.5,41S262,540.6,262,540.6l10.2-1,19.4-22.9-10.2-9.1-2.2.8a5.21,5.21,0,0,1-3-3.6c0-2.6-4.5-8.8-12.8-28.9A17.52,17.52,0,0,0,242,467.5Z" fill="#aebddc"/>
  <path d="M287.8,518.3a443.91,443.91,0,0,0,34,34.6c6.7,5.7,12,3.8,4,6.5a176.54,176.54,0,0,1-46.9-18.3c-10.2-5.8-7.3-12.9-1.4-16.7S287.8,518.3,287.8,518.3Z" fill="#e2c59c"/>
  <path d="M267,511.1l6.3-4.1,2.7-1.4a5.67,5.67,0,0,0,2.8,2.7l-5.2,2.3-5.8,3.7-5.9,7.2Z" fill="#cfd9e8"/>
  <path d="M265.5,572.1l-47.6-1s-18.6-48.8-19.8-66.2c-.6-10.2,5.4-31.9,15.6-37a53.08,53.08,0,0,1,12.8-4.1,79.51,79.51,0,0,1,33.5,4.3C260,468.2,279.3,478.3,265.5,572.1Z" fill="#cfd9e8"/>
  <path d="M343.8,712.6s-4.6,7.2-7,2.8c-7.2-13.1-13.5-54.5-13.9-71.7-.5-22.6-1.5-36.5-1.5-36.5l22.7-8.3Z" fill="#163f59"/>
  <path d="M263.8,571.7l80.4,27.4-21.1,11.8s-82.8,14.5-84.4-16.2C237.5,568.8,263.8,571.7,263.8,571.7Z" fill="#163f59"/>
  <path d="M315.2,713.3s-4.2,3.8-6.6-.6a204.82,204.82,0,0,1-19.1-64.9,164.81,164.81,0,0,1,3.3-38.4l23.2-8.1Z" fill="#194866"/>
  <path d="M238.9,572.5l76.6,29L295,612.9s-77.8,14.5-79.3-16.2S238.9,572.5,238.9,572.5Z" fill="#194866"/>
  <path d="M213.8,598.4a24.26,24.26,0,0,0,3.5,12c7.3,8.8,24.4,5.8,38.1,5.8A58.07,58.07,0,0,0,260,606l6.2-35.4-48.1.8A270.93,270.93,0,0,0,213.8,598.4Z" fill="#194866"/>
  <path d="M291.9,550.2l17.6-3.2s2.8,0,2.9,1.6,0,10.2,0,10.2l-3.2-1.9-4.5,2.8-5.5-6.8a14,14,0,0,1-5,0C293.5,553,291.9,550.2,291.9,550.2Z" fill="#e9d6b8"/>
  <path d="M248.7,545.3l46.6,5.1a126.84,126.84,0,0,1-36.5,12.8,109.37,109.37,0,0,1-22.1-2.6Z" fill="#e9d6b8"/>
  <path d="M225.8,496.9l23.2,44-1.3,3.6,3.6.6-10.9,17.3-17.1-3.9-20.5-49.2a34,34,0,0,1,7.6-34.5C214,471,223.7,493.4,225.8,496.9Z" fill="#aebddc"/>
  <path d="M231.7,556s11-8.4,16.6-13l-.6,1.5,3.6.6-3.8,6-6.6,7.7-3.8-1.4,1.4-2.7Z" fill="#cfd9e8"/>
  <path d="M322.7,720.3a5.28,5.28,0,0,1,0,2.5,37.75,37.75,0,0,1-9.5,0,10.14,10.14,0,0,1-2.6-1.6s0-.8-.6-.9,0,0-.6,0a5.24,5.24,0,0,1-1.1-1,10.9,10.9,0,0,1,0-6.2s6.1-2.9,7.3-.9A44.36,44.36,0,0,0,322.7,720.3Z" fill="#194866"/>
  <path d="M336,714.6l1,6.6h5.4s0-.9.8-.9.8.9,1.3.9h13.8v-1.8a5.07,5.07,0,0,0-1.6-.9c-2.9-.9-11.4-3.1-13.2-6C341.7,709.4,336,714.6,336,714.6Z" fill="#163f59"/>
  <rect x="226.04" y="457.8" width="8.4" height="11.9" transform="translate(-286.96 487.97) rotate(-66.28)" fill="#aebddc"/>
  <path d="M245.8,431.8a5.93,5.93,0,0,1-4.8,6.7l-21.4,3.4a5.93,5.93,0,0,1-6.7-4.8h0a5.68,5.68,0,0,1,4.8-6.5h0l21.5-3.4A5.67,5.67,0,0,1,245.8,431.8Z" fill="#163f59"/>
  <path d="M243,442.4a10.23,10.23,0,0,1-8,12,2.77,2.77,0,0,1-.9.1l-11.2,1.7a10.23,10.23,0,0,1-12-8,2.77,2.77,0,0,1-.1-.9h0a10.24,10.24,0,0,1,8.2-12c.3,0,.5-.1.8-.1l11.2-1.8a10.23,10.23,0,0,1,12,8A3.33,3.33,0,0,0,243,442.4Z" fill="#163f59"/>
  <path d="M254.1,457.8,249,424.9c-.8-5.2-4.3.7-9.5,1.5l-5,.8a9.63,9.63,0,0,0-8,11l3.7,23.3Z" fill="#e9d6b8"/>
  <path d="M231.7,444.9a4.26,4.26,0,0,1-3.5,4.8h0a4.09,4.09,0,0,1-4.8-3.3v-.2h0a4.09,4.09,0,0,1,3.3-4.8h.2a4.2,4.2,0,0,1,4.8,3.5Z" fill="#e9d6b8"/>
  <path d="M249.8,448a2.43,2.43,0,0,0,2.6,2.1h1.9a2.37,2.37,0,0,0,2-2.7v-.1s-6.2-11.9-7.5-11.7a4.23,4.23,0,0,0-.7,2.7Z" fill="#e9d6b8"/>
  <path d="M240.5,458.1c-9.5,1.5-11-1.2-11.8-4.5A62.37,62.37,0,0,0,228,465v3a12.32,12.32,0,0,0,15,8.4l13.3-2-2.4-14.7-.6-3.5Z" fill="#163f59"/>
  <path d="M252.8,449.9l-7.6,1.2a6.25,6.25,0,0,0-5.3,7.2h0a6.61,6.61,0,0,0,.5,1.5l13.6-2.2Z" fill="#163f59"/>
  <path d="M244.1,458.1v2.2a1.05,1.05,0,0,0,1.3.7.76.76,0,0,0,.4-.2l6.1-.9a1.18,1.18,0,0,0,.9-1.2v-2.2Z" fill="#e9d6b8"/>
  <path d="M244.7,419.8l-19.5,3.1a3.75,3.75,0,0,0-3.2,4.3v.1l1.1,7.6,23.2-3.7Z" fill="#163f59"/>
  <path d="M257.6,423.4a5.93,5.93,0,0,1-4.8,6.7l-13.1,2a5.93,5.93,0,0,1-6.7-4.8h0a5.93,5.93,0,0,1,4.8-6.7l13.1-2A5.88,5.88,0,0,1,257.6,423.4Z" fill="#163f59"/>
  <rect x="226.18" y="431.11" width="5.3" height="14" transform="translate(-65.42 40.97) rotate(-8.96)" fill="#163f59"/>
  <rect x="227" y="423.98" width="15.7" height="16.5" transform="translate(-64.4 41.81) rotate(-8.95)" fill="#163f59"/>
  <path d="M232,441.3a7.92,7.92,0,0,1,6.6-9.1l4.1-.6a6.9,6.9,0,0,1,7.7,6.1v.7h0a7.93,7.93,0,0,1-6.4,9.1h-3a7.81,7.81,0,0,1-9-6.4v.2Z" fill="#e9d6b8"/>
  <path d="M292.7,559.8h0v-2.3h94.4v2.3h0a6.27,6.27,0,0,1-5.8,2.4H299.4a6.18,6.18,0,0,1-5.8-2.4Z" fill="#b4c0c7"/>
  <path d="M315.4,560.2h0a5.26,5.26,0,0,1-1.4,1.2H299.7a6.4,6.4,0,0,1-5.6-1.9h0v-1.1h21.4v1.8Z" fill="#d6e3eb"/>
  <rect x="328.1" y="558" width="47.2" height="1.6" fill="#8599a4"/>
  <path d="M315.9,557.4,327.7,511a3.22,3.22,0,0,1,2.9-2.3h66.3a1.67,1.67,0,0,1,1.8,1.5,1.48,1.48,0,0,1-.1.7l-12.3,46.4H315.9Z" fill="#d7dfe2"/>
  <path d="M353.4,533.1a3.06,3.06,0,0,0,1.7,4,2.62,2.62,0,0,0,1.5.2,5.89,5.89,0,0,0,5.4-4.2,3.22,3.22,0,0,0-1.8-4.1,3,3,0,0,0-1.3-.2A5.88,5.88,0,0,0,353.4,533.1Z" fill="#b4c0c7"/>
  <path d="M728.9,638.8a12.34,12.34,0,0,0,8.6-3.1,23,23,0,0,0,5.6-19.9,67.09,67.09,0,0,0-5.8-19.6,76.79,76.79,0,0,1-6.9-41.7l-4.9-.8a81.15,81.15,0,0,0,7.2,44.2,60.55,60.55,0,0,1,5.2,18.1,19.5,19.5,0,0,1-3.8,15.8,8.21,8.21,0,0,1-6.6,1.8l-1,4.9Z" fill="#367082"/>
  <path d="M690.8,678.2l-4.7,7.9,41,13s2.8-2.6-7.3-7.8S690.8,678.2,690.8,678.2Z" fill="#88bdda"/>
  <path d="M683.6,678.2l4.8,7.4-41,13s-2.4-2.3,7.9-7.8C666.7,684.7,683.6,678.2,683.6,678.2Z" fill="#88bdda"/>
  <rect x="683" y="656.3" width="8.5" height="30.2" fill="#88bdda"/>
  <path d="M691.4,679.7l-4.2,7.1L722,699.3s2.4-2.6-6.2-7.5C707.9,687.4,699.7,683.3,691.4,679.7Z" fill="#91e2f6"/>
  <path d="M683.1,679.7l4.1,7.1-34.8,12.5s-2.3-2.6,6.2-7.5C666.6,687.4,674.8,683.3,683.1,679.7Z" fill="#91e2f6"/>
  <path d="M718.1,702.1a2.9,2.9,0,0,0,2.8,3h.1a3,3,0,0,0,3-3,3,3,0,0,0-3-3,2.9,2.9,0,0,0-2.9,2.9Z" fill="#001f46"/>
  <path d="M650.6,702.1a3,3,0,0,0,3,3,3,3,0,1,0-3-3Z" fill="#001f46"/>
  <path d="M725.2,702.1a3,3,0,0,0,3,3,3,3,0,1,0-3-3Z" fill="#367082"/>
  <path d="M643.6,702.1a2.9,2.9,0,0,0,2.8,3h.1a3,3,0,0,0,3-3,3,3,0,0,0-3-3,2.9,2.9,0,0,0-2.9,2.9Z" fill="#367082"/>
  <rect x="684.2" y="645.2" width="6.2" height="10.9" fill="#367082"/>
  <path d="M679.5,639.5a6.08,6.08,0,0,0,6.6,5.6h3.4a6,6,0,0,0,6-6h0a5.85,5.85,0,0,0-5.8-6h-3.6A6,6,0,0,0,680,639v.1Z" fill="#367082"/>
  <path d="M641.1,634v-6a8.05,8.05,0,0,1,7.1-8.8H727a8.05,8.05,0,0,1,7.1,8.8v6Z" fill="#3dc7c9"/>
  <path d="M734.4,636.3c0,1.5-.8,2.7-1.9,2.7H642.2c-1,0-1.9-1.1-1.9-2.7h0c0-1.5.9-2.7,1.9-2.7h90.3C733.6,633.7,734.4,634.8,734.4,636.3Z" fill="#367082"/>
  <path d="M730,588.5H713.6c-13.5,0-25.1-2.4-25.7-5.7a113,113,0,0,1,0-41.8c.6-3.4,12.4-5.8,26.2-5.7h16.7A115.22,115.22,0,0,0,730,588.5Z" fill="#3dc7c9"/>
  <path d="M732,536.1c1.4,0,2.6.7,2.4,1.6a113.42,113.42,0,0,0,0,49.2c0,.9-.8,1.6-2.3,1.6h0c-1.5,0-2.9-.7-3.1-1.5a114.33,114.33,0,0,1,0-49.4c0-.8,1.6-1.5,3.2-1.5Z" fill="#367082"/>
  <path d="M732.5,588.5H729a7.13,7.13,0,0,1-6.6-5.8,113,113,0,0,1,0-41,7.24,7.24,0,0,1,6.7-5.8h3.6A114,114,0,0,0,732.5,588.5Z" fill="#33a8b5"/>
  <path d="M650.6,549.1s0,3.5-16.8,3.5a314.57,314.57,0,0,1-41-4.1l38.5-3.6C631.4,544.9,645.9,544.2,650.6,549.1Z" fill="#e2c59c"/>
  <path d="M605.8,549.7a27.19,27.19,0,0,0-14.2,5.6c-2.1,1-4.2,2.1-6.2,3.3,1.6-3.4,4.2-3.6,5.5-4.7s.9-.6-1.9-.7-4.3,2.9-6.3,4.5a6.9,6.9,0,0,1-2.8,1.5,32.38,32.38,0,0,1,4.5-5.3,43.32,43.32,0,0,1,7.8-5.7,32,32,0,0,1,10.2-.7C607.1,547.9,611.5,549.5,605.8,549.7Z" fill="#e2c59c"/>
  <path d="M592.5,548.4a37.91,37.91,0,0,0-7.1,2.6c-.7.5-3.7,3.9-3.7,3.9a9.21,9.21,0,0,0,3.6-1.7A47.46,47.46,0,0,1,592.5,548.4Z" fill="#e2c59c"/>
  <path d="M643.1,542.1s15.4,0,14.6,9.5a7.15,7.15,0,0,1-7.2,7.1,6.15,6.15,0,0,1-1.3-.1,164.5,164.5,0,0,1-18.4-1.3l-4.8-14Z" fill="#b0bfde"/>
  <path d="M646.3,543.2l13.4-47.3s1.9-7,5.6-5.8c5.4,1.7,3,7.4,2.7,10.2a112,112,0,0,1-4.3,26.3c-2.7,10.2-4.8,21.9-7.3,28.6-1.6,4.7-4.9-1.7-9.6-3.5C638.2,549.2,646.3,543.2,646.3,543.2Z" fill="#b0bfde"/>
  <path d="M672.4,480.6a19.53,19.53,0,1,0,15.3-23c-.1,0-.3.1-.4.1a19.2,19.2,0,0,0-14.9,22.9Z" fill="#194866"/>
  <path d="M654.4,470a14.8,14.8,0,0,0,17.5,11.3l2-7.7a14.78,14.78,0,0,0,11.2-17.5l-1.2-5.5a14.72,14.72,0,0,0-17.5-11.1h0l-3.6.8a14.63,14.63,0,0,0-11.2,17.4v.1Z" fill="#194866"/>
  <path d="M655.4,447.7c.4,1.3.8,2.6,1.3,3.9a19.22,19.22,0,0,0,16.9,14.1,42.56,42.56,0,0,0,4.6,10.2,21.12,21.12,0,0,0,7.1,6.2c2.5,6.2-22.3,26.9-23.4,26.4s1.8-16.1,5.8-20.5a14.21,14.21,0,0,0,3.9-6.1,8.88,8.88,0,0,0-3.9-8.6,12.31,12.31,0,0,0-9.3-2,1.48,1.48,0,0,1-1.3,0,9.77,9.77,0,0,1-1.1-3l-2.7-11.8A9.84,9.84,0,0,1,655.4,447.7Z" fill="#e9d6b8"/>
  <path d="M681.2,579.5a41.13,41.13,0,0,1-8.2,6.2,21.77,21.77,0,0,1-9.1-2.2s1.8-29.9,1.2-41.7-3.5-15.3-3.2-18.9c0-5.8-4.2-8.8-2.9-13.2a140.39,140.39,0,0,1,5.2-18.2c2,18.9,9.3,4.3,10.2,2S681.2,579.5,681.2,579.5Z" fill="#fece40"/>
  <path d="M667.9,486.4s-8.4,6.2-8.3,9a67.18,67.18,0,0,0-2.6,24,179.81,179.81,0,0,1,2.5,33.6c0,9.2-4.7,17.2-4.8,28.5,0,8.9,1.8,10.2,1.8,10.2a7.53,7.53,0,0,0,7.3-1.6c3.3-3,2.7-33.4,2.3-41s-3-25.7-3.5-30.7a52.24,52.24,0,0,1,.7-14.8,62.14,62.14,0,0,1,3.5-12.8,29.38,29.38,0,0,0,2.5-2.5C669.3,487.9,668.6,485.7,667.9,486.4Z" fill="#d1dbea"/>
  <path d="M670.1,483.3s1.7,0,0,1.6a3.18,3.18,0,0,0-.8,2,1.39,1.39,0,0,0-1.9,0,20.41,20.41,0,0,1-2.7,2.3s1.1-3,1.3-3.2Z" fill="#b0bfde"/>
  <path d="M678,506.6a20.49,20.49,0,1,0,16.1-24.1c-.2,0-.4.1-.6.1A20.48,20.48,0,0,0,678,506.6Z" fill="#194866"/>
  <polygon points="636 681.6 639.8 710.9 623.3 718.4 614.2 720.4 630.4 708.2 625 681.8 636 681.6" fill="#e9d6b8"/>
  <path d="M640.8,715.3l-3.5.9-2.5-2.2-13.2,6.3L610,723a2.85,2.85,0,0,1,0-1.3,48.14,48.14,0,0,1,9.6-6s0,2.8,1.3,2.9a88.42,88.42,0,0,0,13.9-6.6c4.1-2.5,4.8-4,5.1-3.8S640.8,715.3,640.8,715.3Z" fill="#161711"/>
  <polygon points="596.2 640.9 583.1 665.8 564.9 665 555.9 662.4 575.9 659.1 586.9 637.8 596.2 640.9" fill="#e9d6b8"/>
  <path d="M582,670.2l-3.7-.8-1.1-3H561l-9.7-2.2a8.45,8.45,0,0,1,1.8-1.5,50.88,50.88,0,0,1,10.2-1.3s-.8,2.2,0,2.7a83.37,83.37,0,0,0,15,.8c4.7,0,6-1.3,6.2-1S582,670.2,582,670.2Z" fill="#161711"/>
  <path d="M691.9,566.4l-10.2,4.2-3.8,13.1L615,573.4s-6.5-1.9-10.2,8.2c-5.7,14.4-20.5,59.2-20.5,59.2l9.4,9.7L623,600s60.1,28.3,80,22.1c7.6-2.4,13.4-15.8,12.3-29.3a177.66,177.66,0,0,0-3-20.5Z" fill="#194866"/>
  <path d="M683.4,621.3l-48.5-3.5L639,692H624.9l-10.2-86.8s2.8-13,12-11.1S658.2,613.6,683.4,621.3Z" fill="#163f59"/>
  <path d="M677.3,585.2s-1.4-30.2-1.4-44.5-.7-42-.9-45.4a47.62,47.62,0,0,1,.7-8.4s4.4-7.4,9.2-6.8a55.38,55.38,0,0,1,15,9.3c4.1,2.7,3.6,53.1,3.8,55.7a86.56,86.56,0,0,0,10.2,27,52,52,0,0,1,3,14.5A135,135,0,0,0,677.3,585.2Z" fill="#d1dbea"/>
  <polygon points="682.8 477.8 679.4 481.2 674.5 486.4 677 492.3 685.6 480.3 682.8 477.8" fill="#b0bfde"/>
  <path d="M689.5,556.7s0,3.7-20.5,1.4a393.11,393.11,0,0,1-48.2-10.2l46,1.2C666.7,549.2,684.4,550.7,689.5,556.7Z" fill="#e9d6b8"/>
  <path d="M636.2,551.4a36,36,0,0,0-17.6,4.2,44.48,44.48,0,0,0-7.7,2.8c2.4-3.5,5.4-3.4,7-4.4s1.2-.5-2.2-1-5.4,2.5-8,4a7.84,7.84,0,0,1-3.6,1.3,32.42,32.42,0,0,1,6-5.1,44.61,44.61,0,0,1,10.2-5.2,42.27,42.27,0,0,1,12.8.7C638,549.7,643,552,636.2,551.4Z" fill="#e9d6b8"/>
  <path d="M620.6,548.2a63.69,63.69,0,0,0-8.7,1.7l-4.9,3.8a11.22,11.22,0,0,0,4.4-1.3A84.17,84.17,0,0,1,620.6,548.2Z" fill="#e9d6b8"/>
  <path d="M681.3,548.1l2.3-46.4s2.5-9.7,6.1-12,10.2,2.3,10.2,2.3,3.1,7.3,1,41.8c-1.3,23-3.5,34.9-14.4,33.3s-21.6-3.9-21.6-3.9l-4.1-15.8Z" fill="#b0bfde"/>
  <path d="M642,559.8h0v-2.4H546.1v2.4h0a6.44,6.44,0,0,0,5.9,2.4h83.6a5.94,5.94,0,0,0,5.9-2.4Z" fill="#d0dee6"/>
  <path d="M618.9,560.2h0a3.6,3.6,0,0,0,1.4,1.1h14.5a6.6,6.6,0,0,0,5.7-1.9h0v-1.1H618.8v1.9Z" fill="#b6c2c9"/>
  <rect x="558" y="558" width="47.9" height="1.6" fill="#b6c2c9"/>
  <path d="M618.4,557.4l-12.5-47.2a3.22,3.22,0,0,0-2.9-2.3H535.7a1.67,1.67,0,0,0-1.8,1.5,1.48,1.48,0,0,0,.1.7l12.4,47.2h72Z" fill="#f1f0f6"/>
  <path d="M580.3,532.5a3.26,3.26,0,0,1-1.9,4.2,3,3,0,0,1-1.3.2,5.76,5.76,0,0,1-5.4-4.4,3.22,3.22,0,0,1,1.8-4.1,3,3,0,0,1,1.3-.2A6,6,0,0,1,580.3,532.5Z" fill="#b6c2c9"/>
  <polygon points="266.3 724.6 276.2 724.6 260 567.6 245.8 567.6 266.3 724.6" fill="#acd5f4"/>
  <polygon points="246.7 574.9 265.7 623.3 260.4 571.2 260 567.6 247.6 567.6 246.7 574.9" fill="#86bbd8"/>
  <polygon points="163.3 724.6 153.5 724.6 169.7 567.6 183.9 567.6 163.3 724.6" fill="#acd5f4"/>
  <polygon points="183 574.9 176.7 622.4 169.3 571.2 169.7 567.6 182.1 567.6 183 574.9" fill="#86bbd8"/>
  <polygon points="581.2 724.6 571.4 724.6 587.7 567.6 601.9 567.6 581.2 724.6" fill="#acd5f4"/>
  <polygon points="600.9 574.9 594.6 622.4 587.3 571.2 587.7 567.6 600.1 567.6 600.9 574.9" fill="#86bbd8"/>
  <polygon points="684.3 724.6 694.2 724.6 678 567.6 663.8 567.6 684.3 724.6" fill="#acd5f4"/>
  <polygon points="664.7 574.9 683.7 623.3 678.3 571.2 678 567.6 665.5 567.6 664.7 574.9" fill="#86bbd8"/>
  <rect x="390" y="562.6" width="301.7" height="9.2" fill="#367082"/>
  <g clip-path="url(#a)">
    <g>
      <rect x="157.9" y="562.6" width="420.9" height="9.2" fill="#5dcfca"/>
      <path d="M553,561.9H531.8v-2.6l-1.5,4.3c-1,2.9-2.2,5.7-3.3,8.6-.5,1.3-1.1,2.8-1.6,4.2v-4H157.2V562.2Z" fill="#5dcfca"/>
      <path d="M549.7,561.9H528.6v-3.7l-1.5,4.3c-1,2.8-2,5.6-3.2,8.5s-1.1,2.8-1.7,4.2v-2.8h-365V562.2Z" fill="#5ecfca"/>
      <path d="M546.3,561.9H524v-.6c-1,2.9-2.2,5.6-3.3,8.5s-1,2.8-1.6,4.1v-1.4H157.2V562.3Z" fill="#5fd0cb"/>
      <path d="M542.7,561.9H520.8v-1.7c-2,5.6-4.2,11.2-6.6,16.6v-4.3h-357V562.3Z" fill="#60d0cb"/>
      <path d="M539.6,561.9h-22V559c-2,5.5-4.2,11.1-6.5,16.4v-3h-354V562.2Z" fill="#61d0cb"/>
      <path d="M536.3,561.9H514.6v-4c-2,5.5-4.2,10.9-6.5,16.3v-1.7H157.2V562.3Z" fill="#62d1cc"/>
      <path d="M532.5,561.9H509.9v-1.1l-1.5,4.1-3.3,8H156.9V562.7Z" fill="#63d1cc"/>
      <path d="M529.6,561.9H506.8v-2.3c-.5,1.3-1,2.7-1.6,4s-2,5.3-3.2,7.9l-1.7,4v-3.1h-343V562.2Z" fill="#64d2cc"/>
      <path d="M526.2,561.9H503.6v-3.5l-1.5,4c-1,2.7-2.2,5.2-3.2,7.9a29.32,29.32,0,0,1-1.7,3.9v-1.7h-340V562.3Z" fill="#65d2cd"/>
      <path d="M522.9,561.9H499v-.7l-3.2,7.8-3.4,7.7v-4.2H157.2V562.3Z" fill="#66d2cd"/>
      <path d="M519.6,561.9H495.8V560l-3.1,7.7-3.4,7.7v-2.9H157.2V562.3Z" fill="#67d3ce"/>
      <path d="M516.2,561.9H492.8v-3.2c-1,2.6-2,5.1-3.2,7.6s-2.2,5.1-3.3,7.6v-1.4H157.2V562.3Z" fill="#68d3ce"/>
      <path d="M512.8,561.9H489.6v-4.4a80.89,80.89,0,0,1-3.1,7.6c-1.2,2.6-2.2,4.9-3.3,7.5h-326V562.4Z" fill="#69d3ce"/>
      <path d="M509.5,561.9H485V560l-1.5,3.7-3.2,7.4-1.7,3.7v-2.4H157.2V562.2Z" fill="#6ad4cf"/>
      <path d="M506.2,561.9H481.9v-3.2l-1.5,3.7c-2,4.9-4.3,10.2-6.6,14.5v-4.5H157.2V562.2Z" fill="#6bd4cf"/>
      <path d="M502.8,561.9H477.3v-.7c-2,4.8-4.2,9.6-6.5,14.3v-3.1H157.2V562.2Z" fill="#6cd4cf"/>
      <path d="M499.5,561.9H474.2v-2c-2,4.8-4.2,9.5-6.5,14.2v-1.6H157.2V562.3Z" fill="#6dd5d0"/>
      <path d="M496.1,561.9H471v-3.4c-2,4.8-4.2,9.5-6.3,14.1H157.5V562.4Z" fill="#6ed5d0"/>
      <path d="M492.7,561.9H468v-4.7c-2,4.7-4.1,9.4-6.3,14l-1.6,3.4v-2.2H157.2V562.2Z" fill="#6fd5d0"/>
      <path d="M489.5,561.9h-26v-2.5l-1.5,3.5c-1,2.3-2.2,4.5-3.2,6.9l-3.4,6.8v-4.1H157.2V562.3Z" fill="#70d6d1"/>
      <path d="M486.1,561.9H458.9c-1,2.3-2,4.5-3.2,6.8s-2.2,4.5-3.3,6.8v-3H157.2V562.3Z" fill="#71d6d1"/>
      <path d="M482.8,561.9h-27v-1.7c-.9,2.3-2,4.5-3.1,6.7l-3.3,6.7v-1H157.2V562.4Z" fill="#72d7d1"/>
      <path d="M479.4,561.9H452.8v-3.2c-1,2.3-2,4.5-3.2,6.7s-2,4.4-3.2,6.6l-1.7,3.3v-2.8H157.2V562.3Z" fill="#73d7d2"/>
      <path d="M476.1,561.9H449.8v-4.5l-3.1,6.6c-2,4.3-4.3,8.6-6.6,12.8v-4.3H157.2V562.3Z" fill="#74d7d2"/>
      <path d="M472.8,561.9H445.3v-2.7l-1.5,3.3c-2.2,4.3-4.3,8.5-6.6,12.7v-2.8h-280V562.2Z" fill="#75d8d2"/>
      <path d="M469.4,561.9H440.3V561c-2,4.2-4.2,8.4-6.5,12.5v-1.1H157.4V562.2Z" fill="#76d8d3"/>
      <path d="M466,561.9H437.6v-2.4c-2,4.2-4.2,8.4-6.3,12.5l-1.7,3.1v-2.7H157.2V562.2Z" fill="#77d8d3"/>
      <path d="M462.7,561.9H434.5v-3.8c-1.9,4.2-4.1,8.3-6.2,12.3l-3.4,6v-4H157.2V562.2Z" fill="#78d9d3"/>
      <path d="M459.4,561.9H430.1v-2.2l-1.5,3.1-3.2,6-3.3,5.9v-2.4H157.2V562.1Z" fill="#79d9d4"/>
      <path d="M456,561.9H425.3v-.6c-1,1.9-2,4-3.2,5.9s-2.2,3.9-3.3,5.8v-.6H157.2V562.2Z" fill="#7ad9d4"/>
      <path d="M452.7,561.9H422.6v-2.2l-3.1,5.8c-2.2,4-4.3,7.8-6.7,11.6v-4.7h-256V562.2Z" fill="#7bdad5"/>
      <path d="M449.3,561.9H419.8v-3.7l-3.1,5.8c-2,3.8-4.3,7.7-6.6,11.4v-3h-253V562.2Z" fill="#7cdad5"/>
      <path d="M446,561.9H415.3v-2.4l-1.5,2.9c-2,3.8-4.2,7.6-6.5,11.3v-1.2H157.2V562.3Z" fill="#7ddbd5"/>
      <path d="M442.7,561.9H410.8v-1c-2,3.7-4.2,7.5-6.5,11.1-1,1.8-2.2,3.6-3.4,5.4v-4.9H157.2V562.3Z" fill="#7edbd6"/>
      <path d="M439.3,561.9H407.8v-2.7c-2,3.7-4.1,7.4-6.3,11-1,1.8-2.2,3.6-3.3,5.3v-3.1h-241V562.2Z" fill="#7fdbd6"/>
      <path d="M435.9,561.9H405.2v-4.2a88.87,88.87,0,0,1-6.2,10.2c-1,1.8-2.2,3.6-3.3,5.3v-.8H157.2V562.2Z" fill="#80dcd6"/>
      <path d="M432.6,561.9H399.3l-3.1,5.2c-2.2,3.5-4.4,7-6.7,10.2v-4.9H157.2V562.2Z" fill="#81dcd7"/>
      <path d="M429.3,561.9H396v-2.2l-3.1,5.2c-2.2,3.5-4.3,6.9-6.6,10.2v-2.8H157.2V562.1Z" fill="#82dcd7"/>
      <path d="M425.9,561.9H393v-3.8a52.35,52.35,0,0,1-3,5.1c-2.2,3.5-4.3,6.8-6.5,10.2v-1H157.2V562.2Z" fill="#83ddd7"/>
      <path d="M422.6,561.9H387.2c-2,3.4-4.2,6.8-6.3,10.2l-3.4,4.9v-4.6H157.2V562.2Z" fill="#84ddd8"/>
      <path d="M419.2,561.9H384.3v-2c-2,3.3-4.1,6.6-6.2,9.7l-3.4,4.8v-1.9H157.2V562.3Z" fill="#85ddd8"/>
      <path d="M415.8,561.9H381.4v-3.8c-2,3.3-4.1,6.5-6.2,9.6s-4.3,6.2-6.6,9.3v-4.6H157.2V562.2Z" fill="#86ded8"/>
      <path d="M412.6,561.9h-37v-.7l-3.2,4.7c-2,3.1-4.3,6.1-6.6,9.2v-2.7H157.2V562.2Z" fill="#87ded9"/>
      <path d="M409.6,561.9H372.7v-2.6l-3.1,4.6c-2,3.1-4.2,6.1-6.5,9.1v-.6h-206V562.2Z" fill="#88ded9"/>
      <path d="M405.8,561.9H370v-4.4l-3.1,4.6c-2,3.1-4.2,6-6.3,8.9l-3.3,4.4v-3H157.2V562.2Z" fill="#89dfd9"/>
      <path d="M402.5,561.9H364.1v-1.6c-2,3-4.1,5.9-6.2,8.8l-3.3,4.3v-.9H157.2V562.3Z" fill="#8adfda"/>
      <path d="M399.4,561.9h-38v-3.5c-4,5.8-8.2,11.6-12.7,17v-3H157.2V562.2Z" fill="#8be0da"/>
      <path d="M395.8,561.9H355.7v-1.1l-3.1,4.3c-2.2,2.8-4.3,5.5-6.6,8.2v-.8H157.2V562.3Z" fill="#8ce0db"/>
      <path d="M392.5,561.9H352.9v-3l-3.1,4.1q-3,4.2-6.3,8.1l-3.3,4v-2.7h-183V562.2Z" fill="#8de0db"/>
      <path d="M389.1,561.9h-42V561l-6.2,8-6.7,7.7v-4.3h-177V562.2Z" fill="#8ee1db"/>
      <path d="M385.7,561.9h-41V559c-1.9,2.7-4,5.3-6.1,7.9s-4.3,5.1-6.6,7.6v-2H158V562.3Z" fill="#8fe1dc"/>
      <path d="M382.5,561.9h-41v-4.8l-6,7.7-6.5,7.5-3.4,3.6v-3.4H157.2V562.3Z" fill="#90e1dc"/>
      <path d="M378.9,561.9H336.2v-3l-3.1,3.7a137.53,137.53,0,0,1-12.9,14.3v-4.5h-163V562.2Z" fill="#91e2dc"/>
      <path d="M375.8,561.9H330.5v-1.3c-4,4.8-8.3,9.5-12.7,14v-2.2H157.2V562.2Z" fill="#92e2dd"/>
      <path d="M372.4,561.9H327.7v-3.5q-6,7.2-12.6,13.8l-3.3,3.3v-3.1H157.2V562.2Z" fill="#93e2dd"/>
      <path d="M368.6,561.9H322.4v-2.2l-3.1,3.5c-2,2.3-4.2,4.5-6.3,6.7s-4.3,4.2-6.7,6.2v-3.7H157.2V562.2Z" fill="#94e3dd"/>
      <path d="M365.8,561.9H317.5V561c-2,2.3-4.1,4.4-6.2,6.6l-6.5,6.1v-1.2H157.2V562.3Z" fill="#96e3de"/>
      <path d="M362.4,561.9H314.5v-3.2c-2,2.2-4,4.3-6.1,6.3-4.2,4.2-8.5,8.2-13.1,12v-4.6h-138V562.2Z" fill="#97e4de"/>
      <path d="M359,561.9H309v-2.3l-3.1,3.1c-4.1,4.1-8.4,8-12.9,11.8v-2H157.2V562.3Z" fill="#98e4de"/>
      <path d="M355.7,561.9H303.6v-1.5A151.93,151.93,0,0,1,291,571.9l-6.8,5.3v-4.7h-127V562.3Z" fill="#99e4df"/>
      <path d="M352.4,561.9H301.2V558c-4,4-8.1,7.7-12.4,11.3-2.2,1.8-4.4,3.5-6.7,5.2v-2H157.2V562.3Z" fill="#9ae5df"/>
      <path d="M349,561.9H293v-.6c-2,1.8-4.1,3.7-6.2,5.4a145,145,0,0,1-13.2,10.2v-4.1H157.2V562.6Z" fill="#9be5df"/>
      <path d="M345.7,561.9h-55v-3.1c-2,1.8-4,3.6-6.1,5.3a154.1,154.1,0,0,1-12.9,9.6v-1.3H157.2V562.2Z" fill="#9ce5e0"/>
      <path d="M342.3,561.9H282.5c-4.1,3.3-8.3,6.5-12.7,9.4l-6.7,4.3v-3.2h-106V562.2Z" fill="#9de6e0"/>
      <path d="M338.9,561.9H280.3v-3a138.18,138.18,0,0,1-12.4,9.3c-4.3,2.9-8.7,5.6-13.3,8.1v-3.9H157.1V562.2Z" fill="#9ee6e0"/>
      <path d="M335.7,561.9H272.3V561l-6.2,4.4c-4.2,2.8-8.5,5.5-13,7.9v-.9H157.3V562.2Z" fill="#9fe6e1"/>
      <path d="M332.3,561.9H270.2v-3.5l-6,4.8A154.26,154.26,0,0,1,238,577.4v-5H157.2V562.2Z" fill="#a0e7e1"/>
      <path d="M328.9,561.9H262.3V560a153.43,153.43,0,0,1-25.7,13.5v-1H157.1V562.3Z" fill="#a1e7e2"/>
      <path d="M325.6,561.9H260.5v-4.7a159.14,159.14,0,0,1-25,13.6c-4.5,1.8-9,3.5-13.6,4.9v-3.3H157.2V562.2Z" fill="#a2e8e2"/>
      <path d="M322.3,561.9H246.7a121.7,121.7,0,0,1-12.6,6.1,144,144,0,0,1-27.1,8.4v-4H157.2V562.2Z" fill="#a3e8e2"/>
      <path d="M318.9,561.9H245.2v-3.3a108.41,108.41,0,0,1-12.4,5.9,140,140,0,0,1-54.9,11.2v-3.3H157.4V562.2Z" fill="#a4e8e3"/>
      <path d="M315.6,561.9H231.4a137,137,0,0,1-53.6,10.9,129.93,129.93,0,0,1-14-1.1l-7-.8h0V562H315.6Z" fill="#a5e9e3"/>
      <path d="M312.2,561.9H230.3v-3.5A132.48,132.48,0,0,1,178,568.6a103.93,103.93,0,0,1-13.7-.6,17.74,17.74,0,0,1-6.8-.9h-.2v-5Z" fill="#a6e9e3"/>
      <path d="M308.8,561.9H216.6v-2.2c-3.9,1.4-7.9,2.5-11.9,3.5a130,130,0,0,1-26.4,2.7,85.35,85.35,0,0,1-13.4-.7l-6.6-.8-3.7-1.1h2.5v-1.7Z" fill="#a7e9e4"/>
      <path d="M305.6,561.9H203.2v-2.2a139.14,139.14,0,0,1-25.7,2.6,92.87,92.87,0,0,1-13-.6h0Z" fill="#a8eae4"/>
      <path d="M302.2,561.9Z" fill="#a9eae4"/>
      <path d="M298.8,561.9Z" fill="#aaeae5"/>
      <path d="M295.5,561.9Z" fill="#abebe5"/>
      <path d="M292.1,561.9Z" fill="#acebe5"/>
      <path d="M288.8,561.9Z" fill="#adebe6"/>
      <path d="M285.5,561.9Z" fill="#aeece6"/>
      <path d="M282.1,561.9Z" fill="#afece6"/>
      <path d="M278.7,561.9Z" fill="#b0ede7"/>
      <path d="M275.5,561.9Z" fill="#b1ede7"/>
      <path d="M272.1,561.9Z" fill="#b2ede8"/>
      <path d="M268.8,561.9Z" fill="#b3eee8"/>
      <path d="M265.4,561.9Z" fill="#b4eee8"/>
      <path d="M262,561.9Z" fill="#b5eee9"/>
      <path d="M258.8,561.9Z" fill="#b6efe9"/>
      <path d="M255.4,561.9Z" fill="#b7efe9"/>
      <path d="M252,561.9Z" fill="#b8efea"/>
      <path d="M248.7,561.9Z" fill="#b9f0ea"/>
      <path d="M245.8,561.9Z" fill="#baf0ea"/>
      <path d="M242,561.9Z" fill="#bbf1eb"/>
      <path d="M238.7,561.9Z" fill="#bcf1eb"/>
      <path d="M235.5,561.9Z" fill="#bdf1eb"/>
      <path d="M231.9,561.9Z" fill="#bef2ec"/>
      <path d="M228.7,561.9Z" fill="#bff2ec"/>
      <path d="M225.3,561.9Z" fill="#c0f2ec"/>
      <path d="M221.9,561.9Z" fill="#c1f3ed"/>
      <path d="M218.6,561.9Z" fill="#c2f3ed"/>
      <path d="M215,561.9Z" fill="#c3f3ed"/>
      <path d="M211.9,561.9Z" fill="#c4f4ee"/>
      <path d="M208.6,561.9Z" fill="#c5f4ee"/>
      <path d="M204.8,561.9Z" fill="#c6f4ef"/>
      <path d="M201.8,561.9Z" fill="#c7f5ef"/>
      <path d="M198.6,561.9Z" fill="#c8f5ef"/>
      <path d="M195.2,561.9Z" fill="#c9f6f0"/>
      <path d="M191.8,561.9Z" fill="#caf6f0"/>
      <path d="M188.5,561.9Z" fill="#cbf6f0"/>
      <path d="M185.1,561.9Z" fill="#ccf7f1"/>
      <path d="M181.8,561.9Z" fill="#cdf7f1"/>
    </g>
  </g>
  <path d="M446.8,697.3l-1.6,8.2h-8.4a1.08,1.08,0,0,0-1.1-1.1c-1.1,0-1.3,1.1-2.2,1.1H412.1v-2.3a7.56,7.56,0,0,1,2.6-1.1c4.3-1.2,16.8-5,18.9-9.2S446.8,697.3,446.8,697.3Z" fill="#161711"/>
  <path d="M444.4,593.9s2.4,13.4,4.3,30.7a490,490,0,0,1-.7,73.7c0,1.5-16.1-3.2-16.1-3.2s-5.8-70-7.2-85.7S434.8,584.5,444.4,593.9Z" fill="#163f59"/>
  <path d="M471,682.5c-.6-.7,0-2.8,0-2.8a70.27,70.27,0,0,1,14.5,0,28.75,28.75,0,0,1,4,1.8,10.63,10.63,0,0,0,.9,1.1h1l1.7,1.1a11.1,11.1,0,0,1,0,7.2s-9.1,2.8-11.2.9C476.5,686.8,472.6,684.1,471,682.5Z" fill="#161711"/>
  <path d="M472,606s-8.8-5.2-6.6,8.6c5.4,33.3,10.2,57.8,12.7,68.8.9,4.3,2.4,3.6,2.4,3.6l10.2,1.6,5-3.5-9.4-75.3Z" fill="#163f59"/>
  <path d="M431.8,608.2c15.8,9,32.1,17.2,48.7,24.6h37.3c2,0,17.2-2.2,20.5-12.2a75.5,75.5,0,0,0,0-29.2,3.8,3.8,0,0,0-3.6-4H488.1c-2,0-6.2,1.7-6.2,4L436.8,590a10.93,10.93,0,0,0-7.9,13.2A11.55,11.55,0,0,0,431.8,608.2Z" fill="#194866"/>
  <path d="M517.6,619.3H474.9s-37.3-10.2-37.7-10.2l4.5,14.3a206.88,206.88,0,0,0,38.8,9.3h37.3c2,0,17.2-2.2,20.5-12.2a35.23,35.23,0,0,0,1.5-11.2A32.28,32.28,0,0,1,517.6,619.3Z" fill="#163f59"/>
  <path d="M501.8,484.9l-1.9-9s-7.2,0-8.5-3.1a32.15,32.15,0,0,1,1.2-21.2c4.8-8.9,6.8-24.5,29.1-12.1,8.5,4.7-4.6,27.5-5.5,32.5a18.85,18.85,0,0,0,1.9,10.2l-5.2,3.6Z" fill="#e9d6b8"/>
  <path d="M464.9,547.3l38.3,13.6s-45.2,3.3-45.3.6C456.9,547.1,464.9,547.3,464.9,547.3Z" fill="#e9d6b8"/>
  <path d="M541.7,493.8s7.7,3.6,13.1,33,2,28.2,2,28.2l-1,6.8-14.2,1.5L533.9,538Z" fill="#fec12f"/>
  <path d="M542.7,493.9,524,486.1l-5.7-4.8H497.8l-3.5,5.2-15.5,6.1s-3.8,5.4-.5,25.7a572,572,0,0,1,0,80.7l63.1.9C541.4,600,536.7,504.7,542.7,493.9Z" fill="#fece40"/>
  <path d="M484.4,492.5s-3.5-3.5-12,6a129.36,129.36,0,0,0-22.9,41,20.28,20.28,0,0,0,2.7,20.5,8.34,8.34,0,0,0,8.9,3.2l13.8-10.9-4.4-2.3h-3.1s7-13.9,14.4-26.6A44,44,0,0,0,484.4,492.5Z" fill="#fece40"/>
  <path d="M498.8,454.1s2.6-1.3,3,0a7.53,7.53,0,0,1-2.2,6c-1.1,0-1.5,5.1-1.5,5.1l3.1,5.3H517s4.8-1.9,5.2-5.1,4.3-25.7,4.3-25.7l-11.1-5.3a73,73,0,0,0-10.2-3.7c-6.2-1.6-7.6,1.3-7.4,3s-1.7,1.7-4.3,1.7-5.6,1.8-4.3,2.9-1.9,1.8-.9,3.5,6.2,3.3,6.6,7.2C495.3,451.2,496.1,457,498.8,454.1Z" fill="#194866"/>
  <path d="M452.7,646.9V641a8.21,8.21,0,0,1,7.1-8.9h78.6a8.21,8.21,0,0,1,7.1,8.9v5.9Z" fill="#36afb1"/>
  <path d="M546,649.2c0,1.5-.8,2.8-1.9,2.8H453.8c-1.1,0-1.9-1.2-1.9-2.8h0c0-1.4.8-2.7,1.9-2.7h90.3A2.5,2.5,0,0,1,546,649.2Z" fill="#2c5b6a"/>
  <path d="M509.3,691.2l-4.9,7.4,41,13s2.8-2.7-7.3-7.8A306.2,306.2,0,0,0,509.3,691.2Z" fill="#88bdda"/>
  <path d="M501.8,691.2l4.8,7.4-41,13s-2.7-2.7,7.3-7.8C485.2,697.7,501.8,691.2,501.8,691.2Z" fill="#88bdda"/>
  <rect x="501.5" y="669.2" width="8.5" height="30.2" fill="#88bdda"/>
  <path d="M509.8,692.7l-4.2,7.1,34.8,12.4s2.4-2.5-6.2-7.5S509.8,692.7,509.8,692.7Z" fill="#91e2f6"/>
  <path d="M501.8,692.7l4.1,7.1L471,712.2s-2.3-2.5,6.2-7.5S501.8,692.7,501.8,692.7Z" fill="#91e2f6"/>
  <path d="M536.6,715a3,3,0,1,0,3-3h-.1A2.92,2.92,0,0,0,536.6,715Z" fill="#001f46"/>
  <path d="M469.1,715a3,3,0,0,0,3,3,3,3,0,0,0,3-3,3,3,0,0,0-3-3,3,3,0,0,0-3,3Z" fill="#001f46"/>
  <path d="M543.6,715a3,3,0,0,0,3,3,3,3,0,0,0,0-6,3,3,0,0,0-3,3Z" fill="#367082"/>
  <path d="M462,715a3,3,0,1,0,3-3,3,3,0,0,0-3,3Z" fill="#367082"/>
  <rect x="502.7" y="658.1" width="6.2" height="10.9" fill="#2c5b6a"/>
  <path d="M498.1,652.4a5.85,5.85,0,0,0,5.8,6h3.6a5.85,5.85,0,0,0,6-5.8v-.2h0a5.85,5.85,0,0,0-5.8-6h-3.6a5.85,5.85,0,0,0-6,5.8Z" fill="#2c5b6a"/>
  <path d="M465.5,646.9V641a8.21,8.21,0,0,1,7.1-8.9h78.6a8.21,8.21,0,0,1,7.1,8.9v5.9Z" fill="#3dc7c9"/>
  <path d="M558.8,649.2c0,1.5-.8,2.8-1.9,2.8H466.6c-1,0-1.9-1.2-1.9-2.8h0c0-1.4.9-2.7,1.9-2.7h90.3A2.5,2.5,0,0,1,558.8,649.2Z" fill="#367082"/>
  <path d="M549.1,574.6a3.8,3.8,0,0,1-3.7,3.9H471a5,5,0,0,1-4.7-3.9,141.06,141.06,0,0,1,0-48.5,5,5,0,0,1,4.7-3.8h74.3a3.8,3.8,0,0,1,3.9,3.7v.2C549.1,542.2,549,558.4,549.1,574.6Z" fill="#33a8b5"/>
  <path d="M553.5,574.6a4,4,0,0,1-4,3.9H475.2a4.81,4.81,0,0,1-4.6-3.9,141.06,141.06,0,0,1,0-48.5,4.9,4.9,0,0,1,4.6-3.8h74.3a4,4,0,0,1,4,3.9Z" fill="#3dc7c9"/>
  <path d="M485.7,652.2c11.5-41-10.2-81.9-1-123.5a2.93,2.93,0,0,0-1.8-3.8,5,5,0,0,0-1.2-.2h-1.3a5.32,5.32,0,0,0-4.9,4c-9.4,41,12.5,81.9,1,123.5Z" fill="#367082"/>
  <path d="M550.8,652.2c11.5-41-10.2-81.9-1-123.5a2.93,2.93,0,0,0-1.8-3.8,5,5,0,0,0-1.2-.2h-1.3a5.32,5.32,0,0,0-4.9,4c-9.4,41,12.4,81.9,1,123.5Z" fill="#367082"/>
  <rect x="858.7" y="666.9" width="73.4" height="9.8" fill="#b0bfde"/>
  <rect x="849.8" y="584.3" width="91.3" height="84.8" fill="#b0bfde"/>
  <rect x="849.8" y="592" width="91.3" height="75" fill="#cfd9e8"/>
  <rect x="864.5" y="594.1" width="62" height="26.1" fill="#e4efff"/>
  <rect x="886.1" y="598.4" width="18.7" height="4.4" fill="#fff"/>
  <rect x="864.5" y="627.8" width="62" height="26.1" fill="#e4efff"/>
  <rect x="886.1" y="632.1" width="18.7" height="4.4" fill="#fff"/>
  <rect x="844.9" y="574.6" width="101.1" height="9.8" fill="#cfd9e8"/>
  <path d="M892.4,550.5A51.81,51.81,0,0,1,904,529a85.8,85.8,0,0,1,21.4-17c9.3-3.5,11.6-10.2,8.1-12.2s-15.2-8.6-29.2,6.1a51.33,51.33,0,0,0-17.3,40C887.3,560.1,891.8,558.5,892.4,550.5Z" fill="#3bb6d5"/>
  <path d="M889.8,542.7H888a51,51,0,0,1,19.3-32.1,85.5,85.5,0,0,1,20.5-9.1l.5,1.6a89,89,0,0,0-20.5,8.9A48.83,48.83,0,0,0,889.8,542.7Z" fill="#3096af"/>
  <path d="M888.5,555.6s-7.3-20.5-10.2-26.9a35.29,35.29,0,0,1,2.4-27.9,30.84,30.84,0,0,0,9-28.2c-3.5-13.2-1.7-21.4,4.7-16.3a45.75,45.75,0,0,1,8.5,64.2c-.7.9-1.4,1.8-2.1,2.6A61.59,61.59,0,0,0,888.5,555.6Z" fill="#f8c44f"/>
  <path d="M885.5,550.8a69.39,69.39,0,0,1,0-29.4c.9-1.8,2-4.2,3.4-6.7a90.55,90.55,0,0,0,10.2-26.9,44.22,44.22,0,0,0-7-24.5l1.4-1a47,47,0,0,1,7.2,25.6,84.55,84.55,0,0,1-10.2,27.5l-3.3,6.8a67.49,67.49,0,0,0,0,28.3Z" fill="#f4da80"/>
  <path d="M860.2,525.1c-8.4-1.5-9-11.2-2.6-13.1a21.32,21.32,0,0,1,22.1,5.1,44.21,44.21,0,0,1,6.3,31.7c-1.8,10.2,0-3.9-4.1-10.2A37.29,37.29,0,0,0,860.2,525.1Z" fill="#194866"/>
  <path d="M886.4,546.4a39,39,0,0,0-11.1-23.1,23.46,23.46,0,0,0-19-5.3v-1.2a24.29,24.29,0,0,1,20.5,5.6,39.42,39.42,0,0,1,11.5,23.9Z" fill="#161711"/>
  <polygon points="902.3 575.1 879.3 575.1 875.4 537.8 906.2 537.8 902.3 575.1" fill="#b0bfde"/>
  <polygon points="877.7 537.8 879.9 567.5 896.4 567.5 898.7 537.8 877.7 537.8" fill="#cfd9e8"/>
</svg>
