<svg xmlns="http://www.w3.org/2000/svg" xmlns:xlink="http://www.w3.org/1999/xlink" width="250" height="4500"><svg id="bitcoin-exchange-guide" width="250" height="250" y="0"><style>.st0{fill:none}.st1{fill:#6400fa}</style><path class="st0" d="M0 0h250v250H0z"/><path class="st1" d="M22.8 115.9c.4-1.4-.3-2.9-1.7-3.3H21c-.8-.3-1.6-.5-2.4-.7l.6-3.3h-2.1c-.3 1.1-.5 2.2-.7 3.2h-1.6c.2-1.1.4-2.2.6-3.2h-2.1c-.3 1.1-.5 2.2-.8 3.4H8.4c-.1.5-.1.8-.2 1.1s-.2.7-.2 1.1h.7c1.8.1 1.9.2 1.5 2-.4 2.1-.9 4.2-1.3 6.3-.1.7-.3 1.3-.4 2-.1.3-.3.6-.6.7-.6.1-1.1.2-1.7.1-.1 0-.2.1-.3.1l-.9 2.5h4.2c-.2 1.3-.4 2.3-.6 3.5h2.1l.8-3.3h1.6l-.6 3.3h2.1l.8-3.4c1.1-.1 2.2-.3 3.3-.6.8-.2 1.6-.7 2.2-1.2 1.3-1.1 2-2.7 2-4.4 0-.9-.5-1.8-1.3-2.3l-.8-.4c1.4-1.3 1.8-1.9 2-3.2zm-5.5 8.6c-.7.4-1.5.7-2.4.8-1 .1-2 .2-3 .2.3-1.6.6-3 1-4.7.9.1 1.8.1 2.6.2.7 0 1.4.1 2.1.4.8.7.9 1.9.2 2.7-.1.1-.3.2-.5.4zm.4-6.6c-1.3.8-2.7.7-4.3.8l.9-4.2c1-.1 2-.1 3 0 .7 0 1.3.5 1.5 1.2.1.9-.3 1.8-1.1 2.2zm151.3-1.7c-.2 0-.5.3-.6.5-.1.2-.2.4-.2.6-.7-.5-1.5-.9-2.4-1.2-1.3-.3-2.6 0-3.7.7-2.1 1.2-3.5 3.4-3.7 5.8-.2 2.1.5 4.7 2.8 5.3.6.1 1.2.1 1.8 0 .8-.2 1.6-.6 2.3-1l.3-.2v.4c-.9 2.9-3 3.4-6.2 1.3l-2.6 2.2c.6 1 1.5 1.6 2.6 1.9 1.7.3 3.4.3 5.1 0 1.2-.3 2.4-1 3.3-1.9.9-.9 1.6-2 2-3.3.2-.8.4-1.7.6-2.5s.4-1.9.6-2.8c.4-2 .8-4 1.3-6-1.3.2-2.3.1-3.3.2zm-3.7 8.1c-.7.5-1.7.4-2.2-.4-.2-.2-.3-.5-.3-.8-.2-1.1.2-2.3 1.1-3 .4-.6 1.2-.8 1.9-.5.6.3 1 1 .9 1.7-.1 1.3-.2 2.4-1.4 3zm-73.5-.2h-6.4c.2-.9.4-1.6.6-2.5h5.3c.2-1.2.4-2.3.7-3.6h-5.2c.2-.8.3-1.4.4-2.1h6.2c.3-1.3.5-2.5.8-3.8H83.6c-1.1 5.3-2.2 10.5-3.3 15.8H91c.3-1.2.5-2.5.8-3.8zM125 122c-.4 1.9-.8 3.9-1.2 5.9h4.2c.4-1.7.7-3.4 1-5.1l.5-2.5c.1-.4.2-.8.2-1.2 0-.4 0-.8-.1-1.2-.1-.5-.3-.9-.6-1.3-.4-.3-.8-.5-1.3-.6-1.3-.2-2.6.1-3.8.8-.3.2-.5.3-1 .6.4-2.1.8-3.9 1.2-5.8H120c-1.2 5.4-2.3 10.8-3.4 16.3h4.2c.1-.4.2-.9.3-1.3.3-1.6.6-3.1 1-4.7.2-.6.5-1.2 1-1.6.4-.4 1-.6 1.5-.5.7.2.5.9.4 1.5v.7zm19.3-5.6h-4.2l-.4 1.1c-1.3-1.6-3.6-2-5.4-.9-2.2 1.3-3.7 3.7-3.8 6.3-.2 2.3 1 4.8 3.4 5.3 1.3.2 2.6-.1 3.7-.9.3-.3.7-.5 1-.8.4 1.7 1.1 2 4 1.5.1-.7.3-1.3.4-2 .1-.5.4-1.2.2-1.4-.4-.5-.5-1.2-.3-1.8.1-.7.3-1.3.4-1.9.4-1.5.7-3 1-4.5zm-6.4 7.7c-.6.5-1.4.7-2.1.3-.7-.4-.9-1.1-.8-2 .1-1 .6-2 1.5-2.5.5-.4 1.1-.4 1.7-.2.5.3.8.8.9 1.3 0 .6 0 1.1-.2 1.7-.3.5-.6 1-1 1.4zm54.5-9c1.7-1 3.8-.4 4.8 1.3.1.1.2.3.2.5 0 .1.1.1.2.1l2.4-1.5c-.2-1.1-.9-2-1.8-2.7-1-.6-2.1-.9-3.3-.8-2.3 0-4.6 1-6.3 2.6-1.7 1.6-2.8 3.7-3.1 6-.3 2.3.5 4.6 2.1 6.2.9.7 2 1.2 3.1 1.3 1.5 0 3-.4 4.3-1.3h.4v1.2h2.4c.6-2.7 1.1-5.3 1.7-8.1h-5.6l-.5 2.2h3.1c-.3.6-.4 1.2-.7 1.4-.9.7-1.8 1.2-2.8 1.6-.9.3-1.8.2-2.6-.2-.8-.5-1.3-1.3-1.6-2.2-.5-1.9-.1-3.9 1-5.5.8-.9 1.6-1.6 2.6-2.1zm-38 .9c-1.3.1-2.6.6-3.6 1.4l-.1-1.2H147c-.8 3.9-1.6 7.8-2.5 11.7h4.3c.3-1.6.7-3.1 1-4.7.1-.7.3-1.4.5-2 .3-.5.7-.9 1.2-1.3.9-.6 1.6-.2 1.6.9 0 .5-.1 1-.2 1.4-.4 1.8-.8 3.7-1.2 5.6h4.3c.5-2.4 1.1-4.8 1.5-7.2.3-1.4.8-3.4-.6-4.3-.9-.3-1.7-.4-2.5-.3zm-3.9 1.4h.1l-.1.2v-.2zm82.4-2.4c.2-1.1.4-2.2.7-3.4h-3c-.4 2.1-.9 4.1-1.4 6.3-.9-1.3-2.4-1.9-4-1.8-1.6.3-2.9 1.1-3.9 2.4-1.8 2.2-2.6 5.8-.8 8.2.9 1.3 2.5 1.8 4.1 1.4 1.1-.4 2.2-.8 3.2-1.4.5 1.5 1 1.7 3.1 1.2.1-1 .8-1.9.1-3-.1-.2 0-.7.1-.9l.3-1.3c.2-.8.4-1.7.6-2.6l.9-5.1zm-6.3 10.1c-1.9 1.2-3.7.3-4-1.9-.1-1.4.5-2.8 1.6-3.7.9-1 2.4-1.1 3.5-.3.6.5.9 1.2.8 2-.2 1.4-.3 2.9-1.9 3.9zm-44-2.7c1.3-.6 2.1-2 1.9-3.5-.1-1.3-1.1-2.4-2.4-2.7-2.7-.8-5.6-.1-7.7 1.9-2 1.9-3.1 5.5-1.4 8 1 1.3 2.5 2.1 4.1 2.1.6 0 1.1 0 1.7-.1 1.9-.4 3.6-1.4 4.8-3-1-.3-1.9-.7-2.8-.9-.3 0-.7.1-.9.3-.7.3-1.5 1-2.3.7-.6-.2-.7-1-.8-1.6 2-.2 4.1-.2 5.8-1.2zm-3.4-3.4c.5 0 1 .1 1.1.7s-.2.8-.7.9c-.7.1-1.4.2-2.2.3.4-1.3 1-1.9 1.8-1.9zm-68.8 1c.6-.5 1.5-.5 2.1 0 .2.2.6.3.9.3.4-.1.8-.2 1.3-.3l2.6-.8c-.3-1.1-1-2-1.9-2.6-1-.5-2.1-.7-3.2-.6-2.1 0-4.1.9-5.5 2.5-1.5 1.6-2.1 3.8-1.8 6 .5 2.1 2.2 3.6 4.4 3.7 1.3.1 2.6-.1 3.7-.6 1.2-.6 2.3-1.5 3.1-2.6-.9-.3-1.7-.5-2.4-.8-.4-.2-.8-.3-1.2-.3-.4 0-.8.2-1.2.5-.5.4-1.2.3-1.6-.3 0-.1-.1-.1-.1-.2-.7-1.4-.3-3 .8-3.9zm-54.2-3.9c-2.5 0-4.9 1.4-6.2 3.5-1.3 2.1-1.6 5.2.1 7.1 1.7 1.9 4.8 1.9 7 .7 2.3-1.2 3.8-3.5 3.9-6.1.1-1.3-.3-2.7-1.2-3.7-.9-1.1-2.2-1.6-3.6-1.5zm-.2 8.8c-.7.7-1.8.9-2.7.5-.8-.5-1.3-1.4-1.2-2.3 0-.9.2-1.8.7-2.7.5-.8 1.3-1.5 2.2-1.8 1-.3 2 .1 2.5.9.4.8.5 1.8.2 2.7-.2 1.2-.8 2.1-1.7 2.7zm152.8-2.4c-.1.8-.5 1.5-1.1 2.1-.6.6-1.4 1-2.3 1.1-.8-.1-1.4-.8-1.4-1.6v-.2c.2-1.1.4-2.2.7-3.3.3-1.4.6-2.8.9-4.3h-3c-.3 1.6-.7 3.2-1 4.8-.4 1.5-.7 3.1-.7 4.6-.1 1.3.8 2.4 2.1 2.5h.3c1.5.1 3-.4 4.2-1.3l.8-.6c.1 1.6.6 2.2 3.1 1.6.1-.7.1-1.3.2-1.9v-.9c-.1-.3-.1-.6-.1-.9.1-1.3.5-2.6.8-3.9l.8-4h-3c-.5 2.1-1 4.1-1.3 6.2zM77 116.1c-1.8-.1-3.6.7-4.9 2l.2-1.8h-2.6c-.8 3.9-1.6 7.7-2.4 11.6h3l.8-3.6c.1-.6.3-1.2.4-1.8.1-.5.2-1 .4-1.5.3-.8.9-1.4 1.6-1.8.6-.4 1.5-.8 2.2-.5.9.5.6 1.9.5 2.7-.4 2.1-.9 4.2-1.3 6.4h3c.5-2.3 1-4.5 1.4-6.7.2-1 .3-1.9.3-2.9.1-1.2-.8-2.2-1.9-2.3-.4.1-.6.1-.7.2zm161.3 7c1.5-.1 3-.3 4.4-.7 1.6-.4 2.5-1.9 2.3-3.5-.3-2.8-3.5-3.2-5.7-2.7-2.3.5-4.2 2-5.2 4.2-.6 1.3-.7 2.6-.5 4 .3 1.8 1.6 3.3 3.4 3.7 1.7.4 3.5 0 4.9-.9.9-.5 1.6-1.2 2.1-2.1l-2.2-.7c-.7 1.2-2.1 1.8-3.5 1.5-.6-.1-1.1-.5-1.3-1-.2-.6-.3-1.2-.3-1.8h1.6zm1.3-4.8c.5-.1 1-.1 1.6 0 .5.1.9.5.9 1 0 .6-.1 1.1-.7 1.3-.8.2-1.6.4-2.4.5h-2c.5-1.4 1.3-2.4 2.6-2.8zm-193.8 1.6l2.8-.8c-.4-1.6-1.7-2.7-3.3-3-3.7-.6-7.2 1.7-8.2 5.3-.6 1.8-.3 3.7.8 5.2 1.2 1.3 2.9 1.8 4.6 1.5 2-.2 3.7-1.3 4.7-3-.7-.3-1.4-.5-2.1-.7-.4 0-.8.1-1.1.3-.4.2-.7.5-1 .7-1 .5-2.2 0-2.7-1-.1-.2-.1-.4-.2-.6-.2-1 0-2.1.4-3 1.2-2.4 3.4-2.8 5.3-.9zm-11.6-1.3h2.3c.2-.8.3-1.5.5-2.3l-2.3-.1c.3-1.3.5-2.5.7-3.7h-3c-.3 1.3-.6 2.5-.9 3.7l-1.4.2-.4 2.1 1.3.3c-.4 2.3-1 4.5-1.4 6.8-.2.7 0 1.3.4 1.9.5.5 1.1.7 1.8.7 1.2.1 2.4-.2 3.5-.8v-2.3l-.8.2c-1.4.3-1.8 0-1.5-1.4.4-1.7.8-3.5 1.2-5.3zm27.4 9.3h3c.8-3.9 1.6-7.8 2.4-11.6h-3c-.8 3.9-1.6 7.7-2.4 11.6zm151.9 0h3c.8-3.9 1.6-7.7 2.5-11.6h-3c-.9 3.9-1.7 7.7-2.5 11.6zm-190.6.1h3c.8-3.9 1.7-7.7 2.4-11.7h-3c-.8 3.9-1.6 7.7-2.4 11.7z"/><path class="st1" d="M132.1 129.1h-5.6l-9.6-.1h-.5l.3.6.3.3 3.6 4.6.3.3.3.5c-.2.3-.4.7-.7 1-.3.4-.6.7-1 1-.2 0-.4.1-.6.2-1.8 1.4-3.6 2.8-5.5 4.1l-3 2-.6.4-.4.3-.8.5-.3.2-.5.3-1.4.8-.7.3-.8.5c-.1 0-.2 0-.2.1l-.3.2-.4.2-.9.4-.5.2-3 1.1-.3.2-1.9.6-1 .3c-1.6.3-3.2.4-4.8.1-1.4-.3-2.7-1.2-3.4-2.5l-.2-.5c0-1.5-.1-2.9-.1-4.4.5-1.4.9-2.7 1.4-4.1s1.1-2.4 1.7-3.6c1.2-2.3 2.7-4.5 4.2-6.6.9-1.2 1.8-2.4 2.8-3.6 0 .1.1.1.2.1l.3.6c.2.6.4 1.3.7 1.8.1.2.4.4.6.4h3.9c-1-2.3-1.9-4.4-2.8-6.5 3.3-3.7 6.8-7.2 10.6-10.5 3.6-3.2 7.5-6.1 11.6-8.8 2.3-1.5 4.6-2.8 7.1-4 2.1-1.1 4.3-1.9 6.6-2.4 1.9-.5 3.9-.6 5.8-.2 1 .3 1.9 1 2.6 1.8.8 1.9.9 4.1.3 6.1-.5 2-1.3 4-2.2 5.8-.5 1-1.1 2.1-1.7 3.1l-.2.3-.2.3c0 .1-.1.1-.1.2l-.4.5.4.1h7.9l.1-.1c.6-.1.6-.6.8-1.1.9-2.1 1.8-4.1 2.6-6.2.7-2.1 1.1-4.3 1.1-6.5.1-1.6-.2-3.2-1-4.6-.8-1.3-1.9-2.3-3.3-2.9-1-.4-2-.6-3-.7-1.3-.1-2.6-.1-3.9 0-3.4.4-6.7 1.4-9.8 2.8-3 1.3-5.9 2.8-8.7 4.5-5.5 3.4-10.7 7.3-15.5 11.6-1.4 1.3-2.8 2.6-4.2 3.8s-3 2.8-4.5 4.1l-1.3-2.7h-4.2c.1.4.2.8.4 1.1.4 1 .9 1.9 1.3 2.9l.6 1.4c.2.5.3.9.4 1.4l-5.6 7.5c-2.5 3.6-4.6 7.5-6.1 11.7-.8 2.1-1.3 4.4-1.5 6.6-.2 1.9.2 3.9 1 5.6.9 1.6 2.4 2.8 4.1 3.3 1.1.3 2.2.5 3.3.5 3.6 0 7.2-.7 10.6-2.2l1.1-.5.5-.2.7-.3 1-.4.7-.4.4-.1.7-.4h.1l.4-.2.4-.1 1-.5.3-.3.3-.2.6-.3-.3-.4.3.4.5-.3.4-.2.7-.4 1.3-.8.6-.3.3-.2.3-.2.5-.3.3-.2 6.1-4.3.3-.2 4.1-3 4.7 5.9c.7-1.8 1.3-3.3 1.9-4.8s1.2-2.9 1.8-4.3l1.3-3.1 2.6-5.9-.2-.3-6.3.4zm-29.6 26.4l.5-.3-.5.3zm13.7-15l-.1-.1.1.1zm-4.9 3.3h.8-.8zm105.6-32.2l-.6 3h3c.2-1 .4-1.9.6-3h-3zm-148.9.1h-3c-.2 1-.4 1.9-.6 2.9h3.1c.1-1 .3-1.9.5-2.9zm-42.3 2.9h3c.2-1 .4-1.9.6-3h-3c-.2 1-.4 1.9-.6 3z"/></svg><svg id="bitcoininst" width="250" height="250" y="250"><style>.st0{fill:none}.st1{fill:#6400fa}</style><path class="st0" d="M0 0h250v250H0z"/><path class="st1" d="M5 135.3v-24.2h27.9V139H8.6c-.5-.5-.9-1-1.4-1.4-.7-.8-1.5-1.6-2.2-2.3zm20.2-9.7c.9-.2 1.6-.8 1.9-1.6.2-.4.3-.8.4-1.2.2-1.2-.2-2.3-1.1-3.1-.5-.4-1-.8-1.6-1l-1.1-.5.8-3.2-2-.5c-.3 1-.5 2.1-.8 3.1l-1.5-.3.8-3.1c-.6-.2-1.3-.3-2-.5l-.8 3.2-3.9-1-.5 2.2.7.2.7.2c.5.1.9.6.8 1.1 0 .1 0 .1-.1.2 0 .2-.1.3-.1.5-.2.8-.4 1.6-.6 2.5-.3 1-.5 2-.8 3.1l-.6 2.4c-.1.3-.2.5-.5.7-.7.1-1.3-.3-1.9-.3l-1 2.2c.7.2 1.3.3 2 .5.7.1 1.3.3 1.9.5-.2 1.1-.6 2.1-.8 3.2l1.9.5.8-3.2 1.2.3.2.3v.5c-.1.4-.2.7-.3 1.1L17 136c.7.2 1.3.4 1.9.5.3-1.1.5-2.2.9-3.2l.4.1c.9.2 1.9.2 2.8.2 1.1 0 2.1-.5 2.8-1.3l.1-.1.2-.3.1-.1.4-.7h.1c.1-.2.2-.4.4-.6l-.1-.5v-.7c0-.3 0-.7-.1-1-.2-.6-.6-1.2-1.1-1.6l-.1-.1-.5-.3v-.7z"/><path class="st1" d="M26.8 130.6l.3-1.1.1.5c-.1.2-.2.4-.4.6.1 0 0 0 0 0zm-9.2 1.9h.3c0 .3 0 .5-.1.7v-.5l-.2-.2zm7.6-6.8H25h.2zm.7.4l-.1-.1.1.1zm.4 5.3l.1-.1-.1.1zm-.3.5l.1-.1-.1.1zm-.8-6.3zm-2.7 1.6c.8.7.8 1.8.2 2.6-.1.1-.2.2-.3.2-.4.2-.8.4-1.3.4-.8.1-1.6 0-2.4-.2-.4-.1-.9-.2-1.3-.3l-.4-.1 1.1-4.3c.3.1.6.1.8.2.9.2 1.8.5 2.6.9.3.1.6.3 1 .6zm.4-3.5c-.4.2-.9.3-1.4.3-.7 0-1.3-.1-2-.3l-.9-.3 1-3.9 1.3.3c.7.2 1.4.5 2.1.9.6.4.9 1 .8 1.7 0 .5-.3.9-.7 1.2l-.2.1zm0 0l.1-.1-.1.1zm-.4 3.5zm198.2-15.9c-.1 1-.1 1.9-.1 3-2.7-2-5.9-3.2-9.2-3.5-3-.4-6.1.1-8.8 1.6-2.7 1.5-4.4 4.4-4.2 7.5.1 3.3 1.9 5.5 4.8 6.8.6.3 1.2.5 1.8.7 1.7.5 3.5.9 5.2 1.4.9.2 1.8.6 2.6 1s1.1 1.3.7 2c-.2.3-.5.6-.8.7-.5.3-1.1.4-1.7.4-2.7.2-5.4-.5-7.6-1.9-.7-.4-1.3-.9-2.1-1.3l-3.8 4.7c-.8-.3-.4-1-.4-1.5v-21.7h-7.8v27.7h7.8v-3c.1-.3.2-.6.4-.8.4.4.7.7 1.1 1 3 2.1 6.6 3.3 10.3 3.4 2.8.3 5.7-.3 8.2-1.6 2.7-1.5 4.4-4.4 4.3-7.5.1-3.1-1.8-5.8-4.7-6.8-1.8-.7-3.6-1.2-5.4-1.8-1.3-.4-2.7-.8-4-1.2-.7-.2-1.1-.9-1.1-1.6.1-.7.6-1.3 1.3-1.5.4-.1.9-.2 1.4-.2 2.4 0 4.7.7 6.8 2l1.2.7 3.6-5.1.1 3.3h8.4V139h7.7v-21h8.3v-6.6h-24.3zm-41.2 14.2c-.5-.6-.7-.8-.9-1-3-3.9-6.1-7.8-9.1-11.7-.7-1.2-2-1.8-3.3-1.6-1.7.2-3.4 0-5.1 0v27.6h7.6v-14.5l.3-.1c.3.3.5.6.8.9 3 3.8 6.1 7.5 8.9 11.4 1.3 1.9 2.8 2.7 5 2.4 1.2-.2 2.4.2 3.6-.2v-27.4h-7.7l-.1 14.2zm-121.5.2l-2.4-1.3c.3-.2.5-.3.7-.4 2.3-1.2 3.6-3.7 3.3-6.2-.1-2.5-1.8-4.7-4.1-5.6-1.5-.6-3.1-.9-4.8-.9H37c-.3 0-.6.1-.9.1v27.5c5.7 0 11.3.1 17 0 1.9-.1 3.8-.8 5.3-2 3.1-2.3 3.7-9-.4-11.2zm-14.5-8.5h5.2c.7.1 1.5.2 2.2.5.8.3 1.3 1.2 1.2 2 0 .9-.5 1.7-1.3 2-.4.2-.8.3-1.2.3h-6c-.2-1.5-.2-3.2-.1-4.8zm8.3 15c-.5.3-1.1.4-1.7.5-2.2.1-4.4 0-6.7 0v-5.1c2.4 0 4.6-.1 6.9 0 1.4-.1 2.6.9 2.8 2.3v.1c.2 1-.3 1.9-1.3 2.2zm92.9-18.2c-3.7-3.1-8.7-4.2-13.4-3-7.8 1.6-12.7 9.2-11.1 17 .4 1.9 1.2 3.7 2.3 5.3 3.2 4.5 7.8 6.4 13.3 6.2 8.1-.3 14.4-6.9 14.1-13.5-.1-5.5-1.7-9.2-5.2-12zm-2.7 11.6c0 2.9-1.9 5.6-4.7 6.5-3.8 1.3-7.8-.7-9.1-4.5-.2-.4-.3-.9-.3-1.4-.6-4 1.6-7.6 5.2-8.5.6-.2 1.1-.2 1.7-.3 4 0 7.3 3.3 7.3 7.4-.1.3-.1.5-.1.8z"/><path class="st1" d="M114.7 129.2c-.8.7-1.4 1.4-2.1 1.9-2.8 2.3-7 1.8-9.2-1.1-.3-.4-.6-.8-.8-1.2-.8-1.6-1-3.5-.7-5.2.3-2.5 1.9-4.6 4.3-5.5 2.4-1 5.2-.4 7.1 1.5.4.4.8.9 1.1 1.4l5.8-4.5c-2.9-4.9-9.6-7-15.6-5.4-7.8 2-12.4 10-10.4 17.7 1.2 4.6 4.6 8.3 9 9.9 5.8 2 13.3.5 17.2-5.5l-2.9-2.1-2.8-1.9zm-20.5-18H70.1v6.7h8.3v20.9H86v-21h8.2v-6.6zm-32.6 0v27.6h7.7v-27.6c-2.6 0-5.1-.1-7.7 0zm89.6 27.6h7.6v-27.5h-7.6v27.5z"/></svg><svg id="business-insider" width="250" height="250" y="500"><style>.st0{fill:none}.st1{fill-rule:evenodd;clip-rule:evenodd;fill:#6400fa}</style><path class="st0" d="M0 0h250v250H0z"/><path class="st1" d="M79.4 87.6c2-.5 4-.5 6-.3 2.2.3 4.4 1 6.3 2.3v5.2c-1.2-.9-2.4-1.7-3.8-2.3-1.8-.8-3.8-1.1-5.8-.9-.9.1-1.9.3-2.7.8-.5.3-1 .7-1.3 1.3-.4.7-.4 1.5-.3 2.3.1.7.5 1.3 1 1.7.7.6 1.5.9 2.4 1.3 1.8.6 3.5 1.3 5.3 1.9 1.5.6 3 1.3 4.2 2.4 1.2 1 2 2.4 2.3 3.9.3 1.5.4 3.2-.1 4.7-.4 1.4-1.2 2.6-2.3 3.6-1.2 1-2.6 1.7-4.1 2.1-2 .5-4.1.6-6.2.4-2.6-.3-5.2-1-7.3-2.5v-5.3c2.6 2.1 5.8 3.4 9.2 3.5 1.4 0 2.9-.1 4.2-.8.7-.4 1.3-1 1.6-1.7.3-.8.3-1.8 0-2.6s-1-1.5-1.7-1.9c-1.3-.8-2.8-1.2-4.2-1.7-1.7-.6-3.5-1.2-5.1-2.1-1.2-.7-2.3-1.6-3.1-2.8-1-1.6-1.3-3.6-1.1-5.4.2-1.7 1-3.4 2.3-4.6 1.3-1.5 2.8-2.2 4.3-2.5zm118.2 1.3c2-1.3 4.5-1.8 6.9-1.7 3 0 6 .8 8.5 2.4v5.2c-1.1-.8-2.2-1.6-3.5-2.1-2.1-1-4.6-1.3-6.9-1-1.2.2-2.6.8-3.2 1.9-.7 1.3-.4 3 .7 4 .9.8 2 1.1 3 1.5 1.7.6 3.5 1.3 5.2 1.9 1.5.6 3 1.4 4.2 2.7 1.1 1.1 1.7 2.6 1.9 4.1.2 1.6.2 3.4-.5 4.9-.5 1.3-1.5 2.5-2.7 3.3-1.4 1-3 1.5-4.6 1.8-2.3.4-4.7.3-6.9-.2-1.9-.4-3.7-1.1-5.3-2.2v-5.3c2 1.6 4.4 2.8 7 3.3 1.1.2 2.3.2 3.4.2 1.1-.1 2.3-.3 3.3-1 .8-.5 1.3-1.3 1.5-2.2.2-1 0-2.2-.7-3-.6-.7-1.5-1.2-2.4-1.6-1.4-.6-2.9-1.1-4.3-1.6s-2.8-1-4-1.7c-1.2-.7-2.2-1.6-2.9-2.8-.7-1.1-1-2.5-1.1-3.8-.1-1.2.1-2.4.5-3.6.5-1.4 1.6-2.6 2.9-3.4zm32.5-1c1.4-.5 2.9-.8 4.4-.7 3.1-.1 6.2.7 8.8 2.3.1 0 .1.2.1.3v5.1c-1.2-.9-2.5-1.7-3.9-2.3-1.8-.7-3.7-1-5.6-.9-1 .1-1.9.3-2.8.8-.6.3-1.1.9-1.4 1.5-.5 1.3-.2 2.9.9 3.8 1.2 1 2.7 1.3 4.1 1.9 1.7.6 3.4 1.2 5 1.9 1.5.7 2.9 1.7 3.8 3 1 1.4 1.5 3.2 1.4 5 0 1.6-.4 3.1-1.3 4.4-.9 1.3-2.2 2.3-3.6 3-1.5.7-3.2 1-4.9 1.1-1.9.1-3.8-.1-5.6-.5-1.7-.4-3.3-1.1-4.8-2.1-.1-1.8 0-3.6 0-5.3 2.6 2.1 5.9 3.4 9.2 3.5 1.4 0 3-.1 4.3-.8.7-.4 1.2-.9 1.5-1.7.3-.9.3-1.8 0-2.7-.3-.8-.9-1.4-1.7-1.9-1.3-.8-2.8-1.2-4.3-1.8-1.7-.6-3.5-1.2-5.1-2.1-1.3-.7-2.5-1.7-3.2-3-.8-1.4-1.1-3-1-4.6.1-1.5.5-2.9 1.4-4.1 1.2-1.6 2.7-2.6 4.3-3.1zm-104.4-.8c6.8 6.5 13.6 13 20.5 19.5V87.5h4.9v30.4c-4.6-4.5-9.2-8.9-13.8-13.4-2.2-2.1-4.4-4.3-6.7-6.5v19.4h-4.9V87.1zM5 87.6h7.8c1.8 0 3.7-.1 5.5.2 1.7.3 3.4.9 4.8 2.1 1.1.9 1.8 2.2 2.2 3.6.4 1.6.4 3.2-.1 4.8-.5 1.6-1.7 3.1-3.4 3.7.3.2.6.3.9.4 1.5.8 2.7 2.1 3.3 3.6.5 1.2.6 2.5.5 3.7-.1 1.6-.6 3.2-1.7 4.5-1.2 1.5-2.9 2.3-4.7 2.8-1.5.4-3.1.4-4.7.4H5V87.6zM9.9 92v8.2h6c1.3-.1 2.6-.3 3.6-1.2.7-.6 1.1-1.6 1.1-2.5.1-1-.1-2.1-.8-3-.6-.7-1.5-1.1-2.4-1.3-1-.2-2.1-.2-3.1-.2H9.9zm0 12.4v8.7h6.4c1.2 0 2.5-.2 3.5-.9.9-.6 1.5-1.5 1.7-2.5.2-1.1.1-2.3-.5-3.3-.5-.8-1.3-1.4-2.2-1.7-.8-.3-1.6-.4-2.5-.4-2.1.1-4.2.1-6.4.1zm27.4-16.8h5.1V103c0 1.8-.1 3.7.4 5.4.3 1.4 1.1 2.9 2.3 3.8 1.2.9 2.7 1.2 4.2 1.2s3.1-.3 4.3-1.2c1-.8 1.7-1.9 2.1-3.1.5-1.4.6-2.9.6-4.4V87.6h5.1v17.8c0 2.4-.4 5-1.6 7.1-1 1.9-2.7 3.4-4.7 4.3-2.2 1-4.7 1.3-7.2 1.1-1.7-.1-3.4-.6-4.9-1.4-1.1-.6-2.1-1.4-2.9-2.3-1-1.1-1.6-2.5-2.1-3.9-.5-1.6-.7-3.3-.6-5-.1-5.9-.1-11.8-.1-17.7zm69 0h5.1v29.9h-5.1c0-10-.1-19.9 0-29.9zm58.2 0h18.1v4.5h-13.1v7.2h11.7v4.4h-11.7v9.2h13.1v4.6h-18.1V87.6zM44.4 132.5c6.8 6.4 13.6 12.8 20.3 19.2v-18.8h4.8v29.9c-6.8-6.5-13.5-13-20.3-19.6v19.1h-4.9c.1-9.8.1-19.8.1-29.8zm42.4 1.1c1.9-.9 4.1-1.2 6.2-1.1 2.8.1 5.6.9 8 2.4v5.2c-1.2-.9-2.5-1.7-3.8-2.2-1.8-.7-3.8-1-5.8-.9-.9.1-1.9.3-2.7.8-.6.4-1.1.9-1.4 1.6-.4 1.1-.2 2.5.7 3.4.7.7 1.6 1.1 2.5 1.4 1.8.6 3.6 1.3 5.3 1.9 1.4.5 2.8 1.2 4 2.2 1.1 1 2 2.2 2.4 3.7.4 1.5.5 3 .1 4.5-.3 1.4-1 2.7-2.1 3.7-1.1 1.1-2.5 1.8-4 2.2-1.8.5-3.8.6-5.7.5-2-.1-3.9-.6-5.8-1.3-.8-.3-1.6-.7-2.3-1.2v-5.2c2.6 2.1 5.8 3.4 9.2 3.4 1.4 0 2.9-.1 4.2-.8.7-.4 1.4-1.1 1.6-1.9.2-.8.2-1.7-.1-2.5-.3-.8-1-1.4-1.8-1.9-1.3-.7-2.7-1.2-4.1-1.7-1.6-.6-3.2-1.1-4.7-1.9-1.3-.7-2.6-1.7-3.4-3-.8-1.3-1.1-2.9-1.1-4.4 0-1.4.4-2.9 1.2-4.1.9-1.3 2.1-2.2 3.4-2.8zM25 133h5.1v29.4H25V133zm90.4 0h5v29.4h-5V133zm19.7 0h11.7c3 0 6.1.8 8.6 2.6 2.1 1.5 3.6 3.7 4.5 6.1.7 2 1 4.1 1 6.2 0 3-.7 6.1-2.4 8.6-1.4 2.1-3.5 3.8-5.8 4.7-1.8.7-3.8 1.1-5.8 1.1h-11.7c-.1-9.7-.1-19.5-.1-29.3zm5.1 4.4v20.5h4.8c1 0 2 0 2.9-.1 1.9-.2 3.7-.9 5.1-2.2 1.2-1.1 2-2.6 2.4-4.2.4-1.6.5-3.2.4-4.8-.1-1.5-.4-2.9-1-4.2-.6-1.3-1.5-2.4-2.6-3.2-1.3-1-2.9-1.4-4.5-1.6-1-.1-2-.1-2.9-.1-1.6-.1-3.1-.1-4.6-.1zm31.2-4.4h18v4.4h-13v7.1h11.7v4.3h-11.7v9.1h13v4.5h-18V133zm33 0h11c1.8 0 3.7.3 5.3 1.1 1.3.6 2.5 1.6 3.2 2.8.9 1.5 1.3 3.2 1.2 4.9 0 1.7-.3 3.5-1.2 5.1-.7 1.1-1.7 2-2.9 2.6-.9.4-1.8.6-2.8.8 3.5 4 7.1 8.1 10.6 12.1h-5.7c-3.4-4-6.9-8-10.3-11.9h-3.5v11.9h-5c.1-9.8.1-19.6.1-29.4zm5 4.3v9h5.8c1.3 0 2.7-.4 3.7-1.3.7-.6 1.1-1.5 1.2-2.4.2-1.1 0-2.3-.6-3.3-.6-.9-1.6-1.5-2.6-1.8-1.1-.3-2.2-.2-3.3-.2h-4.2z"/></svg><svg id="ccn" width="250" height="250" y="750"><style>.st0{fill:none}.st1{fill:#6400fa}</style><path class="st0" d="M0 0h250v250H0z"/><path class="st1" d="M245 133.8V149c0 2 0 2.1-2 2.1h-7c-2 0-2 0-2-2.1v-27.5c0-6.2-3.4-10.2-9.5-10.9-2.6-.3-5.3-.3-7.9 0-6.1.7-9.4 4.6-9.4 10.7v26.3c0 3.7 0 3.2-3.2 3.2h-6.1c-1.8 0-1.9-.1-1.9-2v-6.6c0-7.3.1-14.7 0-22-.2-12 10.1-20.8 20.2-21 4.2-.1 8.6-.3 12.6.6 8.6 2 14.1 7.6 16 16.4.2 1 .3 2.1.3 3.2-.1 4.9-.1 9.6-.1 14.4zM60.6 125c0-11-6.9-20.7-17.2-24.4-2.1-.7-2.6-2.3-1.4-4.1.3-.3.7-.6 1.1-.6 1.9-.1 3.8-.2 5.6-.2 1.4.1 2.9.2 4.3.1 5-.6 10.1.2 14.6 2.4 9.8 4.6 15.4 12.4 16.9 23.1 1.4 8.8-1.5 17.7-7.7 24-6.1 6.8-15.2 10.1-24.2 8.9-1-.1-2-.1-2.9.1-3.1.5-6.2.3-9.2-.6-3.6-1.2-5.8-4.8-5.1-8.6.6-3.5 1.4-7 2.1-10.4.1-.4.2-.9.3-1.3.1-.8-.3-.9-1-.6-.9.6-1.8 1.1-2.7 1.8-.5.5-1.2.4-1.7 0-.1-.1-.1-.2-.2-.3-2-2.6-2.1-2.8.7-4.6 1.7-1.1 3.4-2.3 5.1-3.4 2.9-1.9 4.9-1.4 6.9 1.5 1.3 2 2.6 4.1 3.9 6.1 1 1.6 1 1.6-.6 2.7-2.8 1.9-2.1 1.7-3.8-.8-.5-.7-1.1-1.3-1.7-1.9-.3.8-.6 1.6-.9 2.5-.6 2.8-1.1 5.6-1.7 8.4-.5 1.5 0 3.1 1.2 4.1 1.3 1 2.7.8 4 .1 10-5 14.9-13.1 15.3-24zm10.4 2c.1-8.3-2-13.9-6-18.7-2.6-3.2-6.1-5.5-10-6.9-.3 0-.7 0-1 .1.2.2.3.5.5.7 1.3 1.4 2.7 2.7 3.9 4.1 3.6 4.3 5.8 9.5 6.4 15 1.2 9.2-1.9 18.4-8.4 24.9-.4.4-.7.8-1.1 1.2-.1.1-.1.3-.1.4.1.1.3.1.4.1l1.5-.6c9-4.7 13.4-12.3 13.9-20.3zm9.6-.4c0-8.4-2.4-14.1-6.8-19.1-2.3-2.5-5-4.4-8.1-5.7-.2-.1-.5.1-.8.1l.3.6c.3.4.8.8 1.1 1.1 11.7 11.5 11.9 30.4.4 42.2l-.8.8c-.3.3-.6.5-.8.8-.1.1-.1.3-.1.4.1.1.2.1.4.1.5-.2 1-.4 1.4-.6 9-4.8 13.3-12.4 13.8-20.7zm94.5-25.5h11.8c2 0 2.1 0 2.1 2v7.3c0 1.8-.1 1.9-2 1.9h-20.9c-4.5-.2-8.5 2.6-9.9 6.9-.2.4-.3.9-.4 1.3 0 3.6-.4 7.3.1 10.8.7 5.2 4.8 8.3 10 8.4h20.2c2.8 0 2.8 0 2.8 2.9v6.4c0 2-.1 2.1-2.1 2.1h-21.4c-9.1-.1-15.3-4.6-19.1-12.6-1.4-2.8-2.1-5.9-2-9 .1-3.8-.2-7.7.6-11.3 1.8-8.6 7-14.4 15.7-16.7 1.3-.3 2.5-.4 3.8-.3 3.7-.1 7.2-.1 10.7-.1zM126.3 151c-4.2 0-8.5.1-12.7 0-4.4-.2-8.1-2.2-11.3-5.2-4.5-4.1-7-9.9-7.1-16-.2-4.2-.4-8.4.7-12.4 2.2-8 7.1-13.6 15.4-15.8 1.3-.3 2.5-.4 3.8-.4h22.3c2.2 0 2.3 0 2.3 2.3v6.6c0 2.2 0 2.3-2.4 2.3h-18.9c-8.1 0-12 3.9-12 12v5.2c-.1 5.6 4.5 10.2 10.1 10.3h21.8c1.1-.1 1.5.4 1.5 1.5 0 2.7-.1 5.4 0 8.2 0 1.3-.5 1.7-1.7 1.7h-11.6l-.2-.3z"/><path class="st1" d="M5 124.4c.6-10.4 5.4-19.1 14.8-25 1.4-.9 2.9-1.6 4.4-2.3 2.6-1.3 5.7-.8 7.8 1.1 2.3 1.8 3.3 4.9 2.6 7.7-.7 3.5-1.4 7-2 10.5 0 .5 0 1 .1 1.4.4-.1.8-.3 1.2-.5.5-.3.9-.6 1.3-.8.7-.3 1.9-1 2.1-.8.8.9 1.5 1.9 2 3 .1.2-.4.8-.7 1-2.4 1.6-4.7 3.3-7.2 4.8-1.7 1.2-4.1.8-5.4-.9-.1-.1-.1-.2-.2-.3-1.7-2.4-3.2-5-4.8-7.4-.5-.8-.3-1.2.4-1.7 2.5-2 2.7-2 4.4.7.4.7 1 1.3 1.5 1.9.4-.8.7-1.6.9-2.4.7-3 1.3-6.1 2-9.1.5-1.4 0-3-1.2-3.9-1.2-.9-2.8-1.1-4.1-.3-8.5 4-13.5 10.7-15.1 20-1.9 12.5 5.4 24.5 17.3 28.6.6.2 1.6.8 1.7 1.2 0 1.1-.3 2.2-.7 3.3-.1.2-1 .2-1.4.1-3.5-1-6.8-2.7-9.6-5C9.4 143.1 5.3 135 5 124.4z"/></svg><svg id="coin-announcer" width="250" height="250" y="1000"><style>.st0{fill:none}.st1{fill:#6400fa}</style><path class="st0" d="M0 0h250v250H0z"/><path class="st1" d="M41.6 88.6C21.7 88.3 5 105.1 5 125.1c.2 20 16.4 36.2 36.4 36.4 20.2-.4 36.3-15.8 36.4-36.3S61.9 89 41.6 88.6zm14.6 20c2.5.2 4.3 2.5 4.1 4.9s-2.5 4.3-4.9 4.1c-2.5-.3-4.3-2.5-4.1-5 .1-2.5 2.4-4.3 4.9-4zm2.2 32.1c-5.2 4.9-12.5 6.8-19.5 5-11.4-2.8-18.4-14.3-15.6-25.8s14.3-18.4 25.8-15.6c.9.2 1.9.5 2.8.9.4.2.9.4 1.3.6 1.2.6 1.4 1.2 0 1.9-1.8.8-3 2.5-3.3 4.4-.2 1.7-1 1.8-2.3 1.3-2.7-.9-5.6-.7-8.1.4-6.3 2.6-9.3 10.5-6.3 16.3 3.6 6.9 11.1 9.1 17.4 5.2.8-.5 1.5-1.2 2.3-1.7 2.4-1.5 4.9-1.3 6.4.7s1.1 4.8-.9 6.4zm104.6-52c-12.9-.1-22.6 9.5-22.5 22.4s9.2 22.2 22.3 22.3 22.4-9 22.5-22S176 88.8 163 88.7zm-.2 35.7c-7.6-.1-13-5.6-13-13.4s5.6-13.3 13.1-13.3 13 5.7 13 13.5-5.5 13.3-13.1 13.2zM245 95.1c0-6.3 1.1-5.5-5.6-5.6-2.9 0-3 .2-3 3.1v18.1c-.1.7-.3 1.4-.5 2.1-.6-.4-1.2-.9-1.7-1.3-.2-.2-.4-.4-.6-.7-6-7-12-13.9-18-20.9-.8-.9-1.7-1.9-2.8-1.2-.6.3-.7 1.6-.8 2.5-.1 6.4 0 12.8 0 19.2V127c0 6.3-.9 5.7 5.9 5.7 2.7 0 2.9-.2 2.9-3v-16.3c.1-1 .2-2 .4-3 .9.6 1.7 1.3 2.5 2.1 5.8 6.4 11.5 12.8 17.3 19.2 1 .8 2.1 1.5 3.2 2l.9-3.6v-.9c-.1-11.3-.1-22.7-.1-34.1zm-111 29c-.2-1.2-.8-1.5-2-1.2-1.7.5-3.5.9-5.3 1.1-3.6.5-7.3-.7-10-3.2-4.2-3.9-5.3-11.2-2.6-16.4s8-7.5 14.3-6.4c1.5.3 3.8 1 4.3.4.9-1 .7-3 .9-4.7 0-.4 0-.8.1-1.1.2-1.5-.4-2.3-1.9-2.7-7.6-2.2-14.6-1-20.8 4-7 5.6-9.5 16-6.3 25.1 3 8.6 10.6 13.7 21.1 13.9 1.5-.1 3-.2 4.4-.5 5.6-1.3 4.5-1.3 4.1-5.5 0-1-.1-1.9-.3-2.8zm62.5-34.6c-3 0-3 0-3 3.1v34.6c0 6.2-.8 5.6 5.7 5.6 2.7 0 2.9-.2 2.9-3V94.9c-.1-6.1.5-5.3-5.6-5.4zm-83.3 62.9c-.6-2.1-2.6-3.5-4.8-3.4-2.3 0-4.3 1.3-4.7 3.5-.3 2.5-.4 4.9-.4 7.4.1.6.6 1.1 1.1 1.3.4.1 1-.5 1.4-.9s.7-1.4 1.3-1.7c1.5-.7 2.9.1 3.9 1.6.3.5.9.7 1.4 1.1.3-.5.9-.9 1-1.5.1-.9.1-1.9 0-2.9h.2c0-1.4-.1-2.9-.4-4.5zm-4.7 3.8c-1.2 0-2.4 0-2.4-1.7s1-3 2.4-2.9 2.3 1.4 2.4 3-1.3 1.5-2.4 1.6zm132.4-6.6c-1.5-.2-3-.3-4.6-.2-.9-.1-1.7.5-1.8 1.4v4.7c0 1.5-.1 3.1.1 4.6 0 .5.7.9 1.1 1.3.5-.4.9-.8 1.2-1.3.2-.3.1-.8.1-1.1.4-1.6 1.3-1.8 2.4-.7.8.8 1.3 2 2.1 2.7.6.4 1.6.3 2.4.4 0-.7-.2-1.3-.5-1.9-1.1-1.4-1.2-2.4-.1-4 1.9-2.6.5-5.4-2.4-5.9zm.3 3.7c-.1.8-1.3 1.4-2.4 2.6-.8-1.2-1.5-1.8-1.6-2.6-.3-1.4.6-1.8 1.9-1.7 1.1.1 2.3.5 2.1 1.7zm-47.5-4.2c-5.6.1-5.6.1-5.6 5.8v4.3c0 .9-.1 2.1 1.3 2.1s1.4-1 1.4-2c-.1-1.8 0-3.6.2-5.4.4-1 1.2-1.8 2.2-2.2 1.4-.4 2 .8 2.2 2 .1.9.2 1.9.3 2.8 0 1.2.1 2.5.2 3.7.1.4.9.9 1.4 1 .3 0 1-.7 1-1 .1-2.7-.1-5.3-.4-8-.5-1.9-2.3-3.2-4.2-3.1zm-34.5 0c-3.4 0-6.2 2.7-6.2 6.1 0 3.5 2.8 6.2 6.3 6.2h.2c3.3 0 5.9-2.7 5.9-5.9v-.2c0-3.3-2.7-6.1-6.2-6.2.1 0 .1 0 0 0zm-.3 10c-2-.3-3.4-2.1-3.3-4.1.1-2 1.7-3.5 3.6-3.4h.2c2 .2 3.5 2 3.3 4-.2 2-1.8 3.4-3.8 3.5zm-16.4-10c-1.7.1-4-.3-4.8.7-.9 1.1-.6 3.4-.8 5.1v.3c-.1 1.5 0 3 .1 4.6.1.6.8 1.1 1.2 1.6.4-.5 1.2-1 1.2-1.5.2-1.6.1-3.2.1-4.9s.5-3.1 2.4-3.3c1.4-.2 2.3 1 2.5 3.2.1 1.7 0 3.4.1 5.1 0 .5.7.9 1.1 1.4.5-.4 1.4-.9 1.4-1.4.1-2.5 0-4.9-.2-7.4-.4-2.1-2.2-3.5-4.3-3.5zm38.8 2.3c-.1-.7-.7-1.8-1.1-1.9-1.4-.2-1.3 1.1-1.3 2-.1.8 0 1.5 0 2.3.1 1.1-.1 2.3-.4 3.4-.5.9-1.4 1.4-2.4 1.6-.6 0-1.5-1-1.8-1.8-.3-1-.4-2-.4-3.1 0-1 0-2.1-.1-3.1-.1-.5-.8-.9-1.1-1.4-.5.5-1.3.9-1.4 1.4-.1 2.3 0 4.6.3 6.8.2 2 1.9 3.5 3.9 3.7 1.6.1 3.2.1 4.8-.1.5-.1 1.1-1 1.2-1.5.1-1.4.1-2.9.1-4.3-.1-1.3-.2-2.6-.3-4zm-55.9-2.3c-5.3.4-5.3.4-5.3 5.8v.3c-.1 1.4-.1 2.9.1 4.3.1.6.8 1.2 1.3 1.8.5-.6.9-1.2 1.2-1.9.1-.8.1-1.5.1-2.3-.1-1.1 0-2.3.3-3.4.5-1 1.3-1.7 2.3-2 .6-.1 1.6 1 2 1.9.3.9.4 1.8.4 2.8 0 1.1 0 2.3.1 3.4.1.6.8 1 1.3 1.5.4-.4 1.1-.9 1.1-1.3.1-2.4.1-4.8-.1-7.1-.5-2.3-2.5-3.9-4.8-3.8zm100 9.8c-.7-.3-1.4-.7-2.1-1.1.5-.5 1.1-1 1.7-1.5.5-.3 1.2-.1 1.7-.3.4-.2.7-.6.8-1 0-.3-.4-.8-.8-1s-.8 0-1.1-.2c-.6-.4-1.1-.8-1.7-1.3l1.8-.9c.4-.1 1 .2 1.4 0 .4-.2.7-.5.9-.9.1-.4-.1-.8-.4-1-1.5-.9-3.4-1-4.9-.2-1.5.6-2.3 2.2-1.8 3.8.2.8.2 1.6 0 2.4-1.3 3.6.2 5.7 4.7 5.7.7-.1 1.5-.3 2.1-.6.4-.2.6-.9.8-1.3-.5-.3-1-.6-1.5-.8-.5-.1-1.1.4-1.6.2zm-13.8-.2c-1.4.6-3 .2-3.9-1-1.3-1.5-1.2-3.8.3-5.1.9-.8 2.1-1.1 3.2-.8.5.1.9.5 1.3.5.7 0 1.3-.1 2-.3-.3-.6-.4-1.4-.8-1.8-2.2-1.5-5.1-1.4-7.2.2-2.1 1.6-2.9 4.4-2.1 6.9.7 2.2 3.3 4 6.4 4.1.9-.3 1.9-.6 2.7-1.1.5-.3.7-1.1 1-1.7-.7-.2-1.3-.3-2-.4-.2 0-.6.3-.9.5z"/></svg><svg id="coinmercenary" width="250" height="250" y="1250"><style>.st0{fill:none}.st1,.st2{fill:#6400fa}.st2{fill-rule:evenodd;clip-rule:evenodd}</style><path class="st0" d="M0 0h250v250H0z"/><path class="st1" d="M66.8 132.5c-1.1 0-2-.2-3-.6-.9-.4-1.7-.9-2.4-1.6-.7-.7-1.2-1.5-1.6-2.4-.4-.9-.6-1.9-.6-2.9s.2-2 .6-2.9c.4-.9.9-1.7 1.6-2.4.7-.7 1.5-1.2 2.4-1.6.9-.4 1.9-.6 3.1-.6.7 0 1.3.1 1.9.2.6.1 1.1.3 1.5.5.5.2.9.4 1.3.7.4.3.7.6 1.1.9l-2 2.3c-.6-.5-1.1-.9-1.7-1.2-.6-.3-1.2-.4-2-.4-.6 0-1.2.1-1.7.4-.5.2-1 .6-1.3 1-.4.4-.7.9-.9 1.4-.2.5-.3 1.1-.3 1.7 0 .6.1 1.2.3 1.8.2.6.5 1 .9 1.4.4.4.8.7 1.3 1 .5.2 1.1.4 1.7.4.8 0 1.5-.2 2.1-.5.6-.3 1.1-.7 1.7-1.2l2 2c-.4.4-.8.8-1.2 1.1-.4.3-.8.6-1.3.8-.5.2-1 .4-1.6.5-.5.1-1.2.2-1.9.2zm15.1-2.9c.6 0 1.2-.1 1.8-.4.5-.2 1-.6 1.4-1 .4-.4.7-.9.9-1.4.2-.5.3-1.1.3-1.7 0-.6-.1-1.2-.3-1.8-.2-.6-.5-1-.9-1.4-.4-.4-.9-.7-1.4-1-.5-.2-1.1-.4-1.8-.4-.6 0-1.2.1-1.8.4-.5.2-1 .6-1.4 1-.4.4-.7.9-.9 1.4-.2.5-.3 1.1-.3 1.7 0 .6.1 1.2.3 1.8.2.6.5 1 .9 1.4.4.4.9.7 1.4 1 .5.2 1.1.4 1.8.4zm-.1 2.9c-1.1 0-2.1-.2-3.1-.6-.9-.4-1.7-.9-2.4-1.6-.7-.7-1.2-1.5-1.6-2.4-.4-.9-.6-1.9-.6-2.9s.2-2 .6-2.9c.4-.9.9-1.7 1.6-2.4.7-.7 1.5-1.2 2.4-1.6.9-.4 2-.6 3.1-.6s2.1.2 3.1.6c.9.4 1.7.9 2.4 1.6.7.7 1.2 1.5 1.6 2.4.4.9.6 1.9.6 2.9s-.2 2-.6 2.9c-.4.9-.9 1.7-1.6 2.4-.7.7-1.5 1.2-2.4 1.6-.9.4-2 .6-3.1.6zM92 117.8h3.2v14.5H92v-14.5zm6.3 0h2.9l6.8 8.9v-8.9h3.1v14.5h-2.7l-7-9.2v9.2h-3.1v-14.5zm16.6 0h1.7l5.3 7.9 5.3-7.9h1.7v14.5h-1.6v-11.7l-5.3 7.8h-.1l-5.3-7.7v11.7H115v-14.6h-.1zm17.3 0h10.5v1.5h-8.8v4.9h7.9v1.5h-7.9v5.1h8.9v1.5h-10.6v-14.5zm19.2 7.3c.5 0 1-.1 1.5-.2s.8-.3 1.2-.6c.3-.3.6-.6.8-.9.2-.4.3-.8.3-1.3 0-.9-.3-1.6-1-2.1-.6-.5-1.6-.8-2.7-.8H147v5.9h4.4zm-6.1-7.3h6.2c.9 0 1.7.1 2.4.4.7.3 1.3.6 1.7 1.1.4.4.6.8.8 1.3.2.5.3 1 .3 1.6 0 .6-.1 1.1-.3 1.6-.2.5-.5.9-.8 1.2-.4.4-.8.6-1.3.9-.5.2-1 .4-1.6.5l4.5 5.9h-2l-4.2-5.6h-4v5.6h-1.6v-14.5h-.1zm20.9 14.7c-1 0-2-.2-2.9-.6-.9-.4-1.6-.9-2.3-1.6-.6-.7-1.2-1.5-1.5-2.4-.4-.9-.5-1.9-.5-2.9s.2-2 .5-2.9c.4-.9.9-1.7 1.5-2.4s1.4-1.2 2.3-1.6c.9-.4 1.9-.6 2.9-.6.7 0 1.3.1 1.8.2s1 .3 1.5.5.9.4 1.3.7c.4.3.8.6 1.1.9l-1.1 1.2c-.6-.6-1.3-1.1-2-1.4-.7-.4-1.6-.6-2.6-.6-.8 0-1.5.2-2.2.5-.7.3-1.3.7-1.8 1.3-.5.5-.9 1.2-1.2 1.9-.3.7-.4 1.5-.4 2.3 0 .8.1 1.6.4 2.4.3.7.7 1.4 1.2 1.9s1.1 1 1.8 1.3c.7.3 1.4.5 2.2.5 1 0 1.8-.2 2.6-.5.7-.4 1.4-.9 2.1-1.5l1.1 1.1c-.4.4-.8.7-1.2 1-.4.3-.8.6-1.3.8-.5.2-1 .4-1.5.5-.5-.1-1.1 0-1.8 0zm7.9-14.7h10.5v1.5h-8.8v4.9h7.9v1.5h-7.9v5.1h8.9v1.5h-10.6v-14.5zm13.2 0h1.5l9.1 11.6v-11.6h1.6v14.5h-1.3l-9.4-11.9v11.9h-1.6v-14.5h.1zm25 9.1l-3.3-7.4-3.3 7.4h6.6zm-4-9.3h1.5l6.6 14.6h-1.8l-1.7-3.8H205l-1.7 3.8h-1.7l6.7-14.6zm16.3 7.5c.5 0 1-.1 1.5-.2s.8-.3 1.2-.6c.3-.3.6-.6.8-.9.2-.4.3-.8.3-1.3 0-.9-.3-1.6-1-2.1-.6-.5-1.6-.8-2.7-.8h-4.5v5.9h4.4zm-6.1-7.3h6.2c.9 0 1.7.1 2.4.4.7.3 1.3.6 1.7 1.1.4.4.6.8.8 1.3.2.5.3 1 .3 1.6 0 .6-.1 1.1-.3 1.6-.2.5-.5.9-.8 1.2-.4.4-.8.6-1.3.9-.5.2-1 .4-1.6.5l4.5 5.9h-2l-4.2-5.6h-4.1v5.6h-1.6v-14.5zm18.8 8.7l-6-8.8h2l4.9 7.2 4.9-7.2h1.9l-6 8.7v5.8h-1.7v-5.7z"/><path class="st2" d="M27.6 102.4c7.5 0 14.1 3.6 18.2 9.2l-3.2 2.7c-3.3-4.7-8.8-7.7-15-7.7-10.2 0-18.4 8.2-18.4 18.4 0 7.5 4.5 14 11 16.8v4.5C11.3 143.2 5 134.9 5 125c0-12.5 10.1-22.6 22.6-22.6z"/><path class="st2" d="M23 113.9V147c1.3.3 2.7.4 4.1.5v-24.9l8.9 6.3 9.6-8.1c.3 1.3.5 2.7.5 4.1 0 9.4-7 17.1-16.1 18.3v4.2c11.4-1.2 20.2-10.8 20.2-22.5 0-4-1-7.7-2.8-11l-1.8 1.5v-.1l-9.6 8.3-13-9.7z"/></svg><svg id="crains" width="250" height="250" y="1500"><style>.st0{fill:none}.st1{fill:#6400fa}</style><path class="st0" d="M0 0h250v250H0z"/><path class="st1" d="M212.2 132.1zm-.6 0zm0 0c-1.9 0-3.8 0-5.7.2 0 .1 0 .1-.1.2s.1-.1.1-.2c1.9-.2 3.8-.3 5.7-.2zM109.2 104c-.2.4-.4.8-.6 1.3L99.9 126c-2.5 5.8-4.9 11.7-7.4 17.5-.2.4-.4.7-.7 1.1-.3-.4-.6-.6-.8-.9l-8.7-11.4v-.2c0-.1.1-.2.1-.3l1.1-.7c7-4.5 7.7-12.8 5.3-18.2-1.5-3.3-4.1-5.8-7.5-7.1-2.7-1.1-5.6-1.6-8.6-1.6H55.9c-.5 0-.9.1-1.4.1-.2.6-.3 1.3-.2 2v38.2c0 .5.1.9.1 1.4.2.1.4.2.6.2h8.8c.3 0 .6-.1.9-.1 0-.7.1-1.3.1-1.9v-8.4c0-.5-.1-1.1.3-1.6h6.1l8.9 12c.4 0 .7.1 1 .1h21c.1 0 .1 0 .2-.1.1 0 .2-.1.2-.1 1.1-2.2 1.7-4.6 2.8-6.9.4 0 .8-.1 1.2-.1h15.3c.4 0 .8.1 1.2.1.5 1.2.9 2.4 1.4 3.6.4 1.2.9 2.4 1.5 3.5h10.3c.1 0 .3-.2.4-.3-.5-1.7-16.9-40.6-17.6-41.8-3.2-.4-6.5-.4-9.8-.1zm-29.8 16.5c-.5 1.3-1.4 2.4-2.7 3-1.2.6-2.5 1-3.8 1h-7.3c-.2 0-.3-.1-.5-.1-.1-.2-.2-.3-.2-.5V114c0-.2.1-.3.2-.5.2-.1.3-.1.5-.1h7.3c1.4 0 2.9.4 4.1 1.1 2.2 1.1 3.1 3.7 2.4 6zm39.9 9.3c-3.4.2-6.8.2-10.2 0v-.5c1.6-4.2 3.2-8.4 4.9-12.7.3.3.5.4.6.6 1.6 4 3.1 8 4.7 12v.6zm72.1-25.5c-3.4-.3-6.9-.2-10.3.1 0 7.5 0 15-.2 22.6-1.5-1.4-2.9-2.8-4.1-4.4-1.3-1.5-2.6-3.1-4-4.6s-2.6-3-3.9-4.5l-4-4.6-4-4.6h-4c-1.3-.1-2.7-.1-4 .2v40.6c0 .4.1.7.2 1 .5 0 .8.1 1.2.1 2.9 0 5.7 0 8.6-.1.1 0 .2-.1.4-.2.1-.6.2-1.3.1-1.9v-18.7c-.1-.6 0-1.1.2-1.7.4.3.7.6.9.9l9.3 10.7c2.9 3.3 5.8 6.6 8.7 10 .5.6 1.2 1 2 .9 1.9-.1 3.8 0 5.7 0 .4 0 .7-.1 1.1-.2V105.3c0-.5.2-.7.1-1z"/><path class="st1" d="M238 124.6c-.8-.6-1.6-1-2.5-1.4-1.8-.8-3.7-1.4-5.6-1.8l-6.6-1.5c-.9-.2-1.8-.6-2.7-1-1.6-.9-2.2-3-1.3-4.6.1-.2.3-.5.5-.7.6-.7 1.4-1.2 2.3-1.4 1.8-.5 3.7-.5 5.5 0 1.6.4 2.9 1.6 3.5 3.1.2.6.4 1.1.7 1.8 1.1.1 2.3.1 3.4.1h3.6c1.1.1 2.2 0 3.3-.2 0-.1 0-.3.1-.4-.4-5.2-3.7-9.6-8.6-11.5-5.2-2.2-11.1-2.5-16.5-.8-2.3.7-4.4 2-6.1 3.7-3.3 3.5-4 7.8-3 12.4.5 2.2 1.7 4.1 3.6 5.4.9.7 1.9 1.3 2.9 1.8 1.7.8 3.4 1.4 5.3 1.7l7 1.5c1.1.2 2.1.6 3 1.1 1.4.9 1.8 2.7.9 4-.2.3-.5.6-.8.8-.7.5-1.5.9-2.3 1-2.1.4-4.3.3-6.4-.4-2-.6-3.7-2.2-4.4-4.1-.1-.3-.3-.7-.4-1-.5-.1-1-.1-1.5-.1h-3.2c-1.9 0-3.8 0-5.7.2 0 .1 0 .1-.1.2v.8c.8 5.7 4.8 10.4 10.2 12.1 3.8 1.3 7.9 1.7 11.9 1.1 2.5-.2 5-.9 7.2-2.1 5.4-2.8 7.5-7.8 6.8-13.3-.3-2.5-1.7-4.9-4-6.5zm-197.5 4.2c-.2.5-.4.9-.5 1.4-1.1 3.7-4.4 6.4-8.3 6.8-5 .8-9.9-1.8-12-6.3-1.4-3-1.6-6.3-.7-9.5.5-1.8 1.4-3.5 2.7-4.8 2.3-2.4 5.5-3.6 8.8-3.4 4.1 0 7.9 2.5 9.3 6.4.2.6.5 1.2.7 1.8.2.1.4.2.5.2h9.2c.3 0 .5-.1.8-.1 0-.3.1-.4.1-.5v-.3c-1.3-7.3-5.1-12.7-12.1-15.6-4.6-1.9-9.7-2.2-14.5-1-6.6 1.4-12.1 5.8-14.7 12-1.4 3.2-2.1 6.7-1.8 10.2.5 8.9 4.7 15.3 12.8 19 4.2 1.8 8.9 2.4 13.4 1.5 8.5-1.2 15.3-7.8 16.8-16.3.1-.5.1-1 .2-1.6-3.7-.2-7.2-.2-10.7.1zm108.3-22.4v-1.3c0-.3-.1-.7-.2-1h-10.2c0 .9-.1 1.6-.1 2.3v38.5c0 .5.1.7.1 1 3.4.3 6.8.3 10.2 0 .2-.7.2-1.4.2-2.1v-37.4zm53.9-1.9c-1.9-1.4-4.4-1.4-6.4-.2-3.2 2-3.5 6.4-.4 8.4.3.2.6.4.9.7l-.6 1.5c-.6 1.4-1.3 2.7-1.9 4.1-.1.4-.2.7-.2 1.1 1.7.1 3.5.1 5.2 0l.4-.4 3.9-6.6c.4-.6.7-1.3.9-1.9.9-2.6.2-5.2-1.8-6.7z"/><path class="st0" d="M0 0h250v250H0z"/></svg><svg width="250" height="250" id="e-crypto-news" y="1750"><path fill="none" d="M0 0h250v250H0z"/><path d="M38.87 124.47a17.3 17.3 0 0 1-6 13 15.91 15.91 0 0 1-11.13 4.15A16.47 16.47 0 0 1 9 135.49a16 16 0 0 1-4-11.21 14.41 14.41 0 0 1 2.76-8.75 19.1 19.1 0 0 1 5-5 14.87 14.87 0 0 1 9.43-2.75 17 17 0 0 1 12.44 5.89 17.38 17.38 0 0 1 4.24 10.8zm-3.15.25A13.61 13.61 0 0 0 22.24 111a13.1 13.1 0 0 0-10.09 3.93 13.25 13.25 0 0 0-4 8.93 13.61 13.61 0 0 0 13.43 14.66 13 13 0 0 0 10.09-3.93 13.3 13.3 0 0 0 4.05-9.87zm137.99 12.42v-18.82c0-1.23.28-1.45 1.61-1.48h.9a6.08 6.08 0 0 1 2.37.25c.5.27.56 1.26 1 1.77 2.1 2.43 3.17 5.52 5.21 8a10 10 0 0 1 .94 2c.06-.77.13-1.24.13-1.71v-8.78c0-1.25.29-1.5 1.58-1.52h2.25c.75 0 1 .43 1.13 1.07a1.62 1.62 0 0 1 0 .22v19c-1.28 0-2.47-.08-3.64 0a2.21 2.21 0 0 1-2.24-1.38c-1.34-2.23-2.76-4.41-4.13-6.62a74.51 74.51 0 0 1-2-3.49c-.05.68-.12 1.15-.12 1.62v8.33c0 1.25-.28 1.5-1.58 1.52-1.12.03-2.12.02-3.41.02zm-68.12-10.83c-1 .16-2-.19-3 .4a3.29 3.29 0 0 0-2 3v7.39h-3.8c-.77 0-1.15-.42-1.16-1.25v-12.4a1.08 1.08 0 0 1 1.18-1.22h2.26c.95 0 1.56.31 1.57 1.41.88-.55 1.32-1.37 2.43-1.53a5.17 5.17 0 0 1 2.18 0 16.19 16.19 0 0 0 3.56.14c1.25 0 1.23 0 1.7 1.41.81 2.37 1.66 4.72 2.5 7.11.81-2.45 1.67-4.92 2.43-7.42.23-.75.56-1.12 1.35-1.1h3.81c-.33 1-.58 1.9-.88 2.74-1 2.61-1.91 5.21-2.9 7.81-.87 2.27-1.84 4.51-2.66 6.79-.59 1.68-2.08 2.07-3.46 2.46a11.74 11.74 0 0 1-3.14 0 1.06 1.06 0 0 1-1.06-1.05v-.68c0-2.18 0-2.23 2.16-2.27a2.15 2.15 0 0 0 1.51-.74c.35-.31.1-.5 0-.82a28.69 28.69 0 0 0-1.87-5.49c-.61-1.71-1.2-3.41-1.81-5.12.09-.63-.17-1-.9-1.36zm-43.82-9.47v4.46H52v3.21h7.75a1.1 1.1 0 0 1 1.17 1.24v3.19H52c-.13 1.23 0 2.39-.08 3.69h8.6c1.58 0 1.78.2 1.79 1.76 0 2.42.39 2.82-2.59 2.77-3.76-.07-7.51 0-11.26 0-1.83 0-1.93-.1-1.94-1.84v-16.68c0-1.6.19-1.79 1.75-1.8 4.46-.01 8.95 0 13.5 0zm160.12 5.49c.7 2.58 1.38 5.08 2.17 8 .78-2.83 1.47-5.31 2.22-8h3.75c.75 0 1 .58.76 1.34-1.14 3.51-2.26 7-3.39 10.54-.32 1-.67 2-1 3h-3.64a1.11 1.11 0 0 1-1.21-1 58.6 58.6 0 0 1-1.36-5.75c0-.17-.21-.31-.33-.47-.18.16-.49.28-.54.48q-.72 2.74-1.37 5.52c-.22 1-.41 1.18-1.43 1.22h-.45a8.56 8.56 0 0 1-3-.29c-.9-.45-.58-1.79-.92-2.71-.69-1.9-1.28-3.83-1.9-5.76a23.59 23.59 0 0 0-1.65-4.95c-.27-.46.26-1.14.89-1.17h3.8c.72 2.59 1.42 5.14 2.27 8.2.74-3 1.36-5.54 2-8.12zm-132.84 2.18a5.46 5.46 0 0 0-1.74-2.72 3.68 3.68 0 0 0-4.91 0c-1.4 1.17-2.41 2.52-2.1 4.54.14.88-.13 1.84.06 2.7.35 1.59.87 3.18 2.65 3.81a4.78 4.78 0 0 0 4.37-.33 4.49 4.49 0 0 0 1.52-2.94c0-.13.07-.27.11-.47h4.68c.69.93-.09 1.82-.36 2.6s-.16 1.74-1 2.29-1.12 1.5-2 2.11a10.21 10.21 0 0 1-4.58 1.5 10.41 10.41 0 0 1-5.25-.9 6.74 6.74 0 0 1-2.94-2.13 9.23 9.23 0 0 1-2.13-4.05 13.43 13.43 0 0 1-.53-3.86 11.23 11.23 0 0 1 3.1-7.29 7.42 7.42 0 0 1 2.54-2c1.55-.44 3.06-1.26 4.79-1a10.65 10.65 0 0 1 6 2.55c1.36 1.26 1.79 2.87 2.49 4.41.22.49-.29 1.13-.94 1.16-1.29.05-2.56.02-3.83.02zm37.29 11.59v4.6c0 1-.35 1.36-1.24 1.4s-1.65 0-2.47 0-1.23-.42-1.24-1.4v-16.86c0-1.3.26-1.61 1.5-1.57s2.3-.25 3.44.37c.41.23 1.25-.13 1.8-.41 2.79-1.37 5.92.73 7.16 2.45 1.48 2.06 1.61 4.33 1 7.32a10.86 10.86 0 0 1-1.29 3.09 5 5 0 0 1-3.51 2.39 5.22 5.22 0 0 1-5.15-1.38zm5.42-4.15v-3.53a3 3 0 0 0-1.57-2.46 3.16 3.16 0 0 0-2-.07 2.83 2.83 0 0 0-1 .72c-.28.24-.53.52-.84.83 0 1.15.06 2.35 0 3.54a1.93 1.93 0 0 0 .76 1.72 9.92 9.92 0 0 1 .8.79c2.25.05 2.25.05 3.85-1.49zm66.44-.68c0 1.25.5 2.1 1.26 2.26 2.17.44 3.29 0 4.22-1.8h2.64c1.11.06 1.56.78 1 1.77a7.34 7.34 0 0 1-6.12 4.13 9 9 0 0 1-3.82-.62 6.55 6.55 0 0 1-3.81-3.93 9.68 9.68 0 0 1 .9-8.24 6.26 6.26 0 0 1 3.6-2.54 10.88 10.88 0 0 1 1.83-.45 7.1 7.1 0 0 1 4.48 1.06 5.51 5.51 0 0 1 2.76 3.55 9 9 0 0 1 .85 3.47c-.06 1-.35 1.33-1.3 1.34h-6.75zm-.21-3.68h5c-.92-1.67-.92-1.7-1.66-1.72-1.33-.04-2.72-.3-3.33 1.72zm-34.65 2.25a7.69 7.69 0 0 1-2.43 6 6.5 6.5 0 0 1-3.82 1.66 7.88 7.88 0 0 1-6.8-1.92 6.89 6.89 0 0 1-1.94-3.7c-.42-1.59-.37-1.88 0-4a10.55 10.55 0 0 1 1.24-3.11c.46-.89 1.26-1.09 1.81-1.68s1.55-.62 2.31-.94a6.65 6.65 0 0 1 5.75.55 6.47 6.47 0 0 1 3.87 6.2zm-8.8 3.69a17 17 0 0 1 1.9 0c1 .14 1.52-.57 1.9-1.23a4.77 4.77 0 0 0 .47-2 4.69 4.69 0 0 0-2.24-4.5 6.59 6.59 0 0 0-2.24.38 2.62 2.62 0 0 0-1.24 1.67 24.19 24.19 0 0 0-.11 4c0 .17.23.35.37.51zm85.59-6.32c-.34-1.76-.37-1.79-1.75-1.8-.8 0-1.69-.2-2 1.12a15.49 15.49 0 0 0 3.42 1.22c1.92.33 4 .82 5.19 3.14v2.33a3.19 3.19 0 0 1-1.75 3 10.83 10.83 0 0 1-3.5 1.35 11.76 11.76 0 0 1-5-.54 5.94 5.94 0 0 1-2.82-2.37 3.68 3.68 0 0 1-.47-2.86c.67 0 1.4 0 2.12-.08 1.12-.05 2.11-.06 2.61 1.33.28.77 1.12 1 2.05 1a2.35 2.35 0 0 0 2.28-1.49 5.77 5.77 0 0 0-3-1.21 20.74 20.74 0 0 1-3.79-1.23 3.8 3.8 0 0 1-1.22-6c1.6-2 5.62-2.95 8.75-1.75 1.76.68 3.22 1.61 3.3 3.75.86.8 0 1-.47 1.08-1.26.08-2.54.01-3.95.01zm-95.74-4.96h1c1.57.07 1.74.24 1.74 1.81s-.17 1.74-1.75 1.8h-.91v7.64h2.61v3.64h-4.44a3.4 3.4 0 0 1-3.17-3.18v-8c-.35 0-.7-.07-1-.06-.83 0-1.23-.39-1.22-1.22s0-1.48 0-2.38h2.25v-4.08h3.84a1 1 0 0 1 1.12 1.07c-.03.93-.07 1.89-.07 2.96zm-80.26 8.95v-4h7.81c.77 0 1.13.42 1.16 1.25s0 1.77 0 2.73z" fill="#6400fa"/><path d="M105.59 126.31v-1.81c.73.32 1 .73.9 1.36zM23 132v2.39h-1.3v-2.68c-1.77.26-3.17-.42-4.71-1.12.2-.54.38-1.07.6-1.58s.43-.87.68-1.35c1 1.38 2.42 1.43 3.91 1.41a1.31 1.31 0 0 0 1.24-.74 1.68 1.68 0 0 0-.48-1.8 13.11 13.11 0 0 0-1.54-.64 10.6 10.6 0 0 1-2.28-1c-2.21-1.67-2.27-4.84.65-6.67a9.08 9.08 0 0 1 1.85-.65v-2.44H23l.14 2.51a8.92 8.92 0 0 1 1.68.3c1.58.6 1.72 1.09.79 2.47-.28.41-.55.58-1 .07-.18-.2-.7-.09-1-.19a2.39 2.39 0 0 0-2.63.7c-.25.32.16 1.42.73 1.71a12.18 12.18 0 0 0 2.1.9 4.76 4.76 0 0 1 3.11 2.71 2.63 2.63 0 0 1 0 2.29c-.53 1.26-1.1 2.41-2.64 2.71A4.55 4.55 0 0 0 23 132zm-12.13-7.28l1.58-.64c0 .39.27 1 .09 1.15-.54.61-.78-.23-1.67-.51zm21.7.19l-1.27.42v-1.19l1.27.41zM11 127.42l-.64-.76a3 3 0 0 1 .67-.34c.4-.08.78 0 .66.54 0 .14-.32.31-.69.56zm23-.6a6.25 6.25 0 0 1-1.39.37c-.2 0-.52-.26-.54-.43-.06-.6.45-.45.77-.43a5.81 5.81 0 0 1 1.16.49zm-3.84-6.69l.79-1.59.65 1.22zm-17.38 8.59c.21.65 1.17.74.4 1.37-.3.24-.71.52-.85.12s.23-.83.45-1.49zM30 129.8c.65-.21.74-1.18 1.37-.4.24.3.52.71.12.84s-.87-.24-1.49-.44zm-16.21-14.98c.59.39.79.55 1 .66a3.94 3.94 0 0 0 .6.17c-.83.77-.83.77-1.6-.83zm16.15.18c-.69 1.45-.69 1.45-1.49.73zM15 118c-.29.1-.36.16-.41.15-.36-.1-.93.29-1-.43a.42.42 0 0 1 .13-.37c.53-.33.75.16 1.06.42zm13.66.19c.46-.45.66-.75.94-.87s.43.2.65.31c-.15.19-.26.46-.45.54a4.27 4.27 0 0 1-1.14.02zm-15.17 1.66c-.14.05-.27.15-.39.14-.32 0-.78.2-.88-.33 0-.17.13-.37.2-.56.31.15.62.28.91.45.08.05.11.19.16.3zm-3.84.99a5.8 5.8 0 0 1 .91-.75.83.83 0 0 1 .58 0c.08 0 .19.3.15.35a1.45 1.45 0 0 1-.54.45 3.9 3.9 0 0 1-1.1-.05zm24.14-.09c-.14 0-.27.15-.39.14-.32 0-.78.21-.88-.33 0-.17.13-.37.21-.56.3.15.61.29.9.46.08.04.11.19.16.29zm-20.28 10.8c.15-.15.24-.3.36-.35a5.61 5.61 0 0 1 .91-.27.82.82 0 0 1 .13.36c0 .59-.47.42-.79.42a2.3 2.3 0 0 1-.61-.16zm18.61-9.15c.15-.05.28-.15.4-.14.32 0 .78-.21.87.33 0 .17-.13.37-.2.56-.31-.15-.61-.29-.9-.46-.09-.04-.11-.19-.17-.29zm-20.35.07l-.23.22c-.3.28-.55.75-1 .31a.47.47 0 0 1-.08-.39c.18-.65.71-.25 1.08-.35-.01-.01.06.08.23.21zm18.55 9.12c-.29.09-.37.15-.42.13-.36-.09-.94.29-1-.44a.48.48 0 0 1 .14-.37c.52-.31.75.18 1.05.44zm-16.16 2.77A1 1 0 0 1 14 134c0-.32-.21-.78.33-.87.17 0 .37.13.56.2-.15.3-.29.61-.46.9-.03.06-.17.08-.27.13zm15.64.31c-.45-.46-.76-.66-.87-.94s.19-.43.31-.65c.18.15.46.26.54.45a4.27 4.27 0 0 1 .02 1.14zm-16-12.77a3.13 3.13 0 0 1-.8.33c-.11 0-.35-.36-.32-.41a1.24 1.24 0 0 1 .54-.45c.08-.02.26.23.58.53zM28.69 135a2.62 2.62 0 0 1-.8.33c-.11 0-.36-.36-.32-.41a1.29 1.29 0 0 1 .54-.44c.08-.05.26.21.58.52zm-17.93-6.67c.29.31.55.5.52.58a1.3 1.3 0 0 1-.45.54s-.4-.21-.4-.33a2.5 2.5 0 0 1 .33-.79zm22.1 0c.3.31.55.5.52.58a1.27 1.27 0 0 1-.44.54s-.41-.21-.41-.33a3.1 3.1 0 0 1 .33-.79zm-2.09-7.22c.2.36.41.59.36.67s-.35.32-.53.47c-.12-.15-.35-.32-.32-.44s.25-.38.49-.7zm-16.97 6.63c-.36.2-.59.4-.67.35a1.86 1.86 0 0 1-.47-.53c.14-.11.32-.35.44-.32s.37.26.7.5zm17.59-.15c-.32.25-.49.45-.7.5s-.29-.2-.44-.32a2 2 0 0 1 .47-.53c.08-.05.28.16.67.35zm-3.58-13.53a5.25 5.25 0 0 1 .62.53s-.08.24-.13.36l-.77-.57zm-11.3 21.49a4.37 4.37 0 0 1-1.12-.46c-.08-.07.07-.37.11-.57a3.46 3.46 0 0 1 .45.29 5.86 5.86 0 0 1 .56.74zm-.9-21.89l.57.78c-.12 0-.31.17-.36.13a6.4 6.4 0 0 1-.53-.62z" fill="#6400fa"/></svg><svg id="e27" width="250" height="250" y="2000"><style>.st0{fill:none}.st1{fill:#6400fa}</style><path class="st0" d="M0 0h250v250H0z"/><path class="st1" d="M5 60.4v129.2h240V60.4H5zm94.6 74.1H46.7c.1 2.8.3 5.5.7 8.2.4 2.1 2.2 3.8 4.4 4 2.2.4 4.4.5 6.6.6 9.5.1 19 0 28.5 0h1.5V160h-2c-11.1-.1-22.2-.1-33.2-.3-4.2.1-8.4-1.2-11.8-3.6-3.6-2.6-5.8-6.7-6.2-11.1-.6-5.3-.8-10.6-.9-15.9-.1-6-.1-11.9.1-17.8.2-8.4 4.1-13.6 12.3-15.9 3.6-1 7.3-1.6 11-1.7 9.5-.2 19 .1 28.5.3 2 .1 3.9.5 5.8 1.2 4.5 1.7 6.8 5.4 7.2 9.9.5 6.8.5 13.6.6 20.4-.1 2.9-.2 5.9-.2 9zm11.8 15.3h49v10h-59c-.1-.2-.1-.4-.1-.6 0-7.1 0-14.1.1-21.2.1-2.1.4-4.2 1-6.2 1-4 4.3-7.1 8.4-7.8 4.1-.7 8.3-1.1 12.5-1.1 6.9-.2 13.8 0 20.7 0 4.5 0 6-1.4 6-5.9 0-2.1 0-4.2-.1-6.3-.1-3.8-1.6-5.2-5.4-5.3H122V93.6c.5 0 1-.1 1.4-.1 7.2 0 14.5-.1 21.7.1 4.3.1 8.3 1.2 11.3 4.6 2.4 2.7 3.7 6.2 3.8 9.8.3 5.3.2 10.6-.3 15.9-.5 5.9-4.3 9.2-10.1 9.9-1.9.2-3.8.3-5.7.4h-24.3c-1.3 0-2.6.1-3.8.3-2.6.4-4.3 1.7-4.4 4.4-.4 3.5-.2 7.1-.2 10.9zM216 103.6c-1 2.2-2.2 4.2-3.6 6.1-11.6 16.2-23.2 32.5-34.9 48.7-.7 1.1-1.9 1.7-3.2 1.6-3.9-.1-7.8 0-11.9 0l39.6-54.9h-39.9V93.6h1.6c15.1 0 30.2.2 45.3-.1 6.4-.1 9.1 5.3 7 10.1z"/><path class="st1" d="M82.6 105.4c-.5 0-1-.1-1.6-.1-5.6 0-11.2 0-16.8.1-3.8 0-7.6.1-11.3.4-2.8.1-5.1 2.3-5.5 5.1-.4 4.1-.4 8.2-.6 12.5H88v-12.2c0-4-1.5-5.5-5.4-5.8z"/></svg><svg id="forbes" width="250" height="250" y="2250"><style>.st0{fill:none}.st1{fill:#6400fa}</style><path class="st0" d="M0 0h250v250H0z"/><path class="st1" d="M144.1 115.6c-2.5 0-5 .6-7.2 1.8 0-6.4 0-12.3.2-14.3l-13.5 2.4v1.2l1.4.2c1.8.4 2.4 1.4 2.8 3.8.4 4.8.2 30.6 0 34.8 3.7.9 7.5 1.3 11.3 1.4 10.7 0 17.1-6.6 17.1-17.1 0-8.2-5.2-14.3-12.1-14.2zm-4.6 29.1c-.8 0-1.6 0-2.4-.2-.2-2.8-.4-14.7-.2-25.1 1-.4 2-.6 3-.6 4.4 0 6.8 5.2 6.8 11.7 0 7.9-3 14.2-7.2 14.2zm-66.6-40.8H37.5v1.8l2 .2c2.6.4 3.6 2 4 5.8.5 8.8.5 17.7 0 26.6-.4 3.8-1.4 5.6-4 5.8l-2 .4v1.6h22.7v-1.6l-2.4-.4c-2.6-.2-3.6-2-4-5.8-.2-2.6-.4-6.8-.4-12.1l4.8.2c3 0 4.4 2.4 5 5.8H65V118h-1.8c-.6 3.4-2 5.8-5 5.8l-4.8.2c0-6.8.2-13.3.4-17.1h7c5.4 0 8.3 3.4 10.3 9.4l2-.6-.2-11.8z"/><path class="st1" d="M84.4 115.1c10.1 0 15.1 6.8 15.1 15.9 0 8.6-5.6 15.9-15.7 15.9s-15.1-6.8-15.1-15.9c0-8.7 5.6-15.9 15.7-15.9zm-.6 2c-4.4 0-5.6 6-5.6 13.9 0 7.6 2 13.9 6 13.9 4.6 0 5.8-6 5.8-13.9 0-7.6-2-13.9-6.2-13.9zm75 14.1c0-8.3 5.2-16.1 15.5-16.1 8.4 0 12.5 6.2 12.5 14.5h-18.7c-.2 7.4 3.4 12.9 10.7 12.9 2.5.1 4.9-.7 6.8-2.2l.8 1c-2.9 3.7-7.4 5.7-12.1 5.6-9.1 0-15.5-6.4-15.5-15.7zm9.2-3.8l9.4-.2c0-4-.6-10-4-10s-5.1 5.6-5.4 10.2zm42.7-10.6c-3-1.1-6.1-1.7-9.3-1.6-7.4 0-12.1 4.4-12.1 9.7 0 5.2 3.4 7.4 8.2 9 5 1.8 6.4 3.2 6.4 5.6s-1.8 4.6-5 4.6c-3.8 0-6.6-2.2-8.9-8.3l-1.4.4.2 8.9c3.4 1.2 7 1.8 10.7 1.8 7.8 0 12.9-4 12.9-10.3 0-4.2-2.2-6.6-7.4-8.7-5.6-2.2-7.6-3.6-7.6-6.2-.1-2.3 1.6-4.3 3.9-4.4h.3c3.6 0 6 2.2 7.8 7.6l1.4-.4-.1-7.7zm-85.1-.8c-3.4-2-9.4-1-12.7 6.2l.2-7-13.5 2.6v1.1l1.4.2c1.8.2 2.6 1.2 2.8 3.8.3 5.8.3 11.7 0 17.5-.2 2.4-1 3.6-2.8 3.8l-1.4.2v1.6h18.7v-1.6l-2.4-.2c-2-.2-2.6-1.4-2.8-3.8-.4-5.4-.4-10.9-.2-16.3 1-1.4 5.4-2.6 9.4 0l3.3-8.1z"/></svg><svg id="kabn" width="250" height="250" y="2500"><style>.st0{fill:none}.st1{fill:#6400fa}</style><path class="st0" d="M0 0h250v250H0z"/><path class="st1" d="M142.6 108.7h-2.1l-.7 1.2-.1.1-18 31.1h6.3l3.9-6.7h20.2l3 5.1v.1l.9 1.6h6.3l-18.7-32.4h-1zm-7.6 20.2l7.1-12.2 7 12.2H135zm63.1-17.4c-1.8-1.9-3.9-2.8-6.4-2.9h-21.1V141h21.1c2.5-.1 4.6-1 6.4-2.8 1.8-1.9 2.7-4.1 2.7-6.7 0-2.6-.9-4.9-2.8-6.7 1.9-1.8 2.8-4.1 2.8-6.7-.1-2.5-.9-4.7-2.7-6.6zm-3.9 23c-.8.8-1.8 1.2-2.9 1.2H176v-8.1h15.5c1.1.1 2 .5 2.8 1.3.8.8 1.1 1.7 1.1 2.8 0 1.1-.4 2-1.2 2.8zm0-13.6c-.8.8-1.7 1.2-2.8 1.2H176V114h15.3c1.2 0 2.1.4 2.9 1.1.8.8 1.1 1.8 1.1 2.9.1 1.2-.3 2.1-1.1 2.9zm45.5-12.2v23.2l-23.2-23.2h-3.8v32.4h5.4v-23.2l21.6 21.7 1.5 1.5h3.9v-32.4h-5.4zM100 124.9v-.1zm0 0l16.3-16.2h-7.7l-23.2 23.2v-23.2H80v32.4h3.6l12.6-12.4 11.6 11.6c.1.1.2.2.3.2l.6.6h7.7L100 124.9zm-48.9 9.6c-.4 0-.8.1-1.2.2-.3.2-.7.5-1 .7-.8.5-1.8 1.1-2.8 1.7-.2.1-.5.2-.7.3-3.3 1.8-7.3 2.8-12 2.8-3.9 0-7.2-1.5-10-4.4-2.8-3-4.2-6.5-4.2-10.7 0-4.1 1.4-7.6 4.2-10.6 2.7-2.9 6-4.4 9.9-4.2.8 0 1.5-.3 2-.8.2-.3.4-.6.5-.8.2-.4.3-.7.3-1.1 0-.8-.3-1.5-.9-2.1-.6-.5-1.2-.7-2-.7-4.4 0-8.3 1.3-11.8 4-.8.6-1.5 1.3-2.2 2-3.9 4-5.9 8.9-5.9 14.5 0 5.7 2 10.6 5.9 14.6l1.3 1.3c3.6 3.2 7.9 4.8 12.8 4.9 4.9 0 9.2-.8 13-2.5.9-.4 1.8-.8 2.7-1.3.6-.4 1.2-.7 1.9-1.1.4-.3.8-.5 1.3-.8.3-.2.7-.5 1-.7v-.1c.6-.6.9-1.2.9-2s-.3-1.5-.9-2.1c-.7-.7-1.3-1-2.1-1z"/><path class="st1" d="M47.7 146.7c-.6-.2-1.2-.3-1.8-.2l.3-.2-.6.3h-.2c-.1 0-.1.1-.1.1-3.9 1.5-7.9 2.2-12 2.2-3.2 0-6.3-.6-9.2-1.9-4-2-7.3-4.9-9.8-8.8-2.5-4-3.7-8.4-3.7-13.1 0-6.5 2.2-12.1 6.7-16.8 4.4-4.7 9.7-7 16-7 1.6 0 2.9.6 4 1.7 1.1 1.2 1.7 2.7 1.7 4.4 0 .4 0 .8-.1 1.1-.2 1.2-.7 2.3-1.6 3.2-1.1 1.1-2.4 1.7-4 1.7-3.2 0-5.9 1.2-8.1 3.5-2.2 2.3-3.4 5.1-3.4 8.4 0 3.2 1.1 6 3.4 8.3 2.3 2.3 5 3.4 8.1 3.4 4.5 0 8.7-1 12.4-3 .2-.1.5-.2.7-.4.1-.1.3-.3.8-.6.4-.4.6-1 .6-1.8s-.3-1.5-.9-2.1c-.5-.5-1.2-.8-2-.8-.3 0-.6 0-.9.1l-.6.3c-.2.1-.3.2-.5.3-2.8 1.4-5.9 2.1-9.4 2.1-1.6 0-2.9-.6-4.1-1.8-1.1-1.2-1.7-2.7-1.7-4.4 0-1.7.6-3.2 1.7-4.4 1.1-1.2 2.4-1.7 4-1.7 3.1 0 5.8-1.1 8-3.4 1.9-2 3-4.3 3.2-6.9.1-.5.1-.9.1-1.4 0-3.2-1.1-6-3.3-8.3-2.2-2.3-4.9-3.4-8-3.4-7.9 0-14.6 2.9-20.1 8.7C7.8 109.9 5 116.8 5 125c0 5.8 1.5 11.1 4.6 16 3 4.8 7 8.5 12.1 11 3.4 1.6 7.3 2.4 11.7 2.4 4.3 0 8.6-.7 12.7-2 .5-.1.9-.3 1.4-.5.7-.2 1.3-.7 1.6-1.4.4-.8.4-1.6 0-2.3-.2-.7-.7-1.2-1.4-1.5z"/><path class="st1" d="M44.9 115.8l-.1.2c-1.3 2-3 3.5-5 4.6-2 1.1-4.2 1.7-6.5 1.7-1.9 0-2.9.9-2.9 2.8 0 2 1 2.9 2.9 2.9 3.2 0 6.2-.8 9.1-2.3 1.6-.8 3-1.8 4.2-3 1.1-1 2-2.1 2.9-3.3 2.1-3.2 3.2-6.8 3.3-10.9v-.6l-.4-4.3v-.1c-.4-1.8-1.5-2.6-3.2-2.4h-.3c-1.7.6-2.4 1.7-2.1 3.3.2 1.1.3 2.2.3 3.4v.7c-.2 2.9-.9 5.3-2.2 7.3zm11.6 14.3c-.8 0-1.5.3-2 .8-.6.5-.8 1.2-.8 2s.3 1.5.8 2c.6.5 1.2.8 2 .8s1.5-.3 2-.8c.6-.6.8-1.2.8-2s-.3-1.4-.8-2c-.5-.5-1.2-.8-2-.8zm3.1-16.4c-.4-.7-.8-1.1-1.2-1.3h-.3c-.8-.2-1.5-.1-2.1.3-.7.3-1.2.9-1.4 1.8v.2c-1.1 3.7-2.9 7-5.5 9.9l-.6.6c-.3.5-.5 1-.5 1.6 0 .8.3 1.5.8 2 .6.6 1.3.9 2.1.9.7 0 1.3-.2 1.8-.7l.1-.1c.3-.3.5-.6.8-.8 2.9-3.3 5-7.4 6.3-12.1v-.1l.1-.6v-.7c-.3-.7-.4-1-.4-.9z"/></svg><svg id="las-vegas-business-press" width="250" height="250" y="2750"><style>.st0{fill:none}.st1{fill:#6400fa}</style><path class="st0" d="M0 0h250v250H0z"/><path class="st1" d="M5 189.7V60.6l.1-.1.1-.1 238.8-.1h1v129.4H5zm10.8-99.2h1.6l99.8-.1.1-.1.1-.1c.3-2.4.2-18.9-.1-20-1.8-.3-100.3-.2-101.5.1v20.2zm35.8 67.6c1.5 0 2.7-.1 4 0 2.4 0 4.5 1.6 5.1 4 .4 1.6.8 3.2 1 4.8.2 1.9.7 3.7 1.5 5.5 1.7 3.7 6.7 3.6 8.9 1.2 1.7-1.8 1.9-4.2 1.9-6.6h-1.4c0 .5 0 1-.1 1.4-.2 1.1-.5 2.1-.9 3.1-.4.8-1.4 1.2-2.2.8-.3-.2-.6-.4-.8-.7-.3-.5-.5-1-.7-1.6-.4-2-.9-4-1.2-6-.6-3.5-2.6-5.5-6-6.4-.4-.1-.8-.3-1.5-.5l1.1-.4c1.9-.6 3.6-1.6 5.1-2.8 3-2.6 3.4-7.1.8-10.2-.6-.8-1.4-1.4-2.3-1.8-1.7-.8-3.6-1.3-5.5-1.3H42c-.2.1-.3.1-.4.2l.1.8c1 .3 2 .5 2.9.7 1 .2 1.7 1.1 1.7 2.1v25.9c-.1 1.7-.7 2.4-2.4 2.7l-2.3.4c0 .2-.1.4-.1.6 0 .2.1.3.2.5h14.5l-.1-1.1c-1-.2-1.9-.3-2.8-.5-1.1-.1-2-1.2-1.8-2.3 0-4 .1-8.2.1-12.5zm-21.2-46.5c.7-.3 1.1-.4 1.5-.6.9-.4 1.8-.7 2.7-1.2 1.9-1 3.3-2.8 3.6-4.9.6-3.5 0-6.4-4.3-8.1-.9-.5-1.9-.7-2.8-.8-1.3-.2-2.7-.2-4-.2H14.5c-.4 0-.7.1-1.1.2l.1 1.1c.6.2 1.2.3 1.7.4 2.4.7 2.8 1.2 2.8 3.7v24.9c0 1-.7 1.8-1.6 2l-2.7.6c-.2.1-.3.1-.5.3l.2.9c.2.1.4.1.6.1 5.4 0 10.9.1 16.3 0 2.3-.1 4.5-.8 6.3-2.2 3.8-2.6 4.7-7.8 2.1-11.6-.5-.7-1-1.3-1.7-1.8-1.4-1.1-3.1-1.9-4.9-2.3-.5-.2-1-.3-1.7-.5zm122 18.6v-25.6c0-1.3.1-2.6.3-3.8.1-1.5 1.1-2.7 2.6-3 .9-.2 1.9-.5 2.8-.8v-1.2h-13.8l.1 1.1c1.1.3 2 .7 3 .9 1.5.3 2.6 1.6 2.7 3.2.2 1.2.3 2.4.3 3.7v15.7c0 .3-.1.6-.1 1.2l-19-25.7h-9.6l-.1 1c1.2.5 2.4.9 3.5 1.5 1.8.7 2.9 2.5 2.9 4.4v17.5c0 1.7-.2 3.3-.4 5-.1 1.2-.9 2.1-2.1 2.4l-2.9.9c-.1 0-.2.2-.4.3l.2.8c2.5.4 13.5.2 13.9-.2l-.1-.8c-1.2-.4-2.3-.7-3.4-1.1-1.2-.3-2.1-1.3-2.2-2.5-.3-1.5-.5-3-.5-4.6-.1-5.4 0-10.9 0-16.3V103l.3-.1c6.8 9.1 13.5 18.2 20.3 27.3h1.7zm26.4-24.7c-.4 1.3-.6 2.3-.9 3.3-.4 1.2-1.3 2.1-2.4 2.4-1.9.4-4 .4-5.9 0-.3-2.2-.2-12.7.1-13.8h7.6c1.8 0 3.4 1 4.3 2.5.6.8 1 1.8 1.5 2.7.2.3.4.7.6 1.2l1.2-.2V96c-1.3-.3-24-.4-25.5-.1v1c.9.2 1.6.4 2.4.6 2.1.6 2.5 1.1 2.5 3.3v24.8c.2 1.2-.7 2.4-1.9 2.5h-.1l-1.5.3-1.5.3.1 1c2 .3 26.2.2 27.4-.1.2-3.1.4-6.2.6-9.4h-1.1c-1.2 2.1-2.2 4.1-3.3 6.1-.5 1-1.5 1.6-2.6 1.7-2.7.1-5.3.3-8 .1-2.1-.1-2.8-.9-2.9-3-.1-3.7-.1-7.5-.2-11.2 0-.2.1-.5.2-.7.2-.1.4-.1.7-.1h3.7c1.9-.1 3.6 1.2 4 3l.9 3.3h.8c.2 0 .3-.1.4-.2v-13.7h-1.2zM85.5 142c2.7.1 5.2.2 7.7.2 1.7-.1 3.3.8 4.2 2.2.9 1.3 1.6 2.6 2.4 4.1l1.1-.1v-7.6c-.6 0-.9-.1-1.3-.1H75.7c-.1 0-.3.1-.4.2l.1.9 1.7.4c3 .7 3.3 1.1 3.3 4.2v23c0 .4 0 .8-.1 1.2 0 1.4-1.1 2.5-2.4 2.5l-2.6.4c0 .2-.1.4-.1.6 0 .2.1.3.2.5h27.4c.2-3.2.4-6.3.6-9.4h-1.1c-1.2 2.1-2.2 4-3.3 5.9-.5 1-1.5 1.6-2.6 1.7-2.4.1-4.7.3-7.1.3-3 0-3.8-.9-3.9-3.9v-10.3c0-.3.1-.7.2-1 1.5 0 3-.1 4.4 0 2 0 3.7 1.4 4 3.4.3.9.5 1.9.7 2.9l1.2-.1v-13.9h-1.2c-.4 1.3-.7 2.5-1.1 3.6-.4 1.2-1.4 2-2.6 2.2-1.8.2-3.7.3-5.6.1l.1-14.1zm-72.2 32.5c2.5.3 14.4.2 14.8-.1l-.1-.9-2.4-.4c-2-.4-2.5-.9-2.5-2.9v-9.9c0-.4.1-.8.1-1.2h3c2.2 0 4.3-.4 6.3-1.3 3.2-1.3 5.4-4.1 6-7.5.8-3.6-1.1-7.2-4.4-8.6-1.5-.7-3.2-1.1-4.9-1.1H13.5c-.2 0-.3.1-.4.2l.1.9c.9.2 1.7.3 2.5.5 2 .5 2.3.9 2.3 3v24.7c0 2.3-.4 2.8-2.6 3.2l-2 .4-.1 1zM78 95.9c-2.3-.3-13.4-.2-13.9.2l.1 1 1.1.3c3.8.9 4.8 1.3 4.9 5.8.2 4.9.1 9.9.1 14.8 0 1.1 0 2.2-.1 3.2-.2 3-2.1 5.5-4.8 6.6-2.3.9-4.8 1-7.1.3-2.5-.6-4.4-2.6-4.9-5.1-.2-1-.4-2.1-.4-3.2v-20c0-.9.7-1.8 1.6-2 .5-.2 1.1-.3 1.7-.4l1.5-.4v-.7c-.1-.1-.1-.3-.3-.4H43.4l-.1 1.1c.5.1.9.2 1.3.3 2.9.6 3.5 1.3 3.5 4.3 0 6.4.1 12.7 0 19.1-.1 4 2.4 7.6 6.1 8.9 1.5.5 3 .9 4.6 1.1 3.1.4 6.3-.3 9-2 2.2-1.3 3.8-3.4 4.3-5.9.2-1.1.4-2.2.4-3.4v-14.8c0-1 0-2 .1-2.9.2-2.6.9-3.5 3.5-4.2.7-.2 1.4-.3 2.1-.5l-.2-1.1zm137.2 22.8c.1 3.9.3 7.8.4 11.7h1.6l1.6-2.1c.6.4 1.2.7 1.7.9 2.7 1.4 5.8 1.7 8.7 1 3.1-.7 5.6-2.8 6.9-5.7.6-1.6.9-3.4.8-5.1.1-2.8-1.4-5.5-3.8-7-.7-.5-1.4-.9-2.1-1.2-1.6-.8-3.3-1.4-4.9-2.2-1.6-.6-3-1.6-4.3-2.7-1.6-1.6-2.2-3.9-1.6-6 .5-2 2.3-3.5 4.4-3.4 2.7-.1 5.2 1.1 6.7 3.4.8 1.2 1.4 2.5 2 3.8.4.9.7 1.8 1.1 2.7h1.1c-.1-3.8.1-7.5-.4-11.3h-1.6l-1.4 1.9c-1.3-.7-2.6-1.3-4-1.8-4-1.3-8.5.3-10.7 3.9-2.3 3.7-2.1 10.8 3.7 13.7 2.4 1.1 4.8 2.2 7.2 3.2 4.4 1.9 5.2 6.1 3.8 9.6-.5 1.4-1.7 2.4-3.2 2.7-2.5.7-5.1.1-7.1-1.5-2.3-1.8-3.6-4.3-4.8-6.9-.2-.6-.5-1.1-.8-1.7l-1 .1zm-92.1 23.5c-.7-.4-1.2-.7-1.7-1-1.9-1.1-4.1-1.5-6.2-1.2-3.6.3-6.6 2.8-7.6 6.3-1.3 3.7-.2 7.8 2.7 10.4.9.7 1.9 1.3 2.9 1.7 2.1 1 4.2 1.9 6.3 2.8 2.8 1.1 4.5 4 4.2 7-.2 3.4-2.3 5.5-5.8 5.4-2.7 0-5.2-1.3-6.8-3.4-1.3-1.6-2.4-3.5-3.1-5.5-.2-.5-.4-1-.7-1.5l-1.1.2c.1 3.9.3 7.7.4 11.6h1.7l1.7-2.2c2.4 1.8 5.4 2.6 8.4 2.3 5.5-.2 9.8-4.9 9.7-10.4.1-3.3-1.1-6.2-4.1-7.9-1.8-1-3.8-1.9-5.7-2.8-1.7-.7-3.3-1.6-4.8-2.7-1.8-1.5-2.7-3.9-2.2-6.2.3-2 2-3.5 4-3.7 3-.1 5.6.9 7.3 3.5.9 1.6 1.7 3.2 2.5 4.9.2.4.4.9.6 1.4l.9-.1v-10.4l-.3-.9h-1.5l-1.7 2.4zM96.7 97.5c-.4-.3-.7-.5-1-.7-2-1.3-4.3-1.9-6.6-1.7-4.1.3-7.5 3.4-8.2 7.4-.7 4.5.5 8.2 4.7 10.5.4.2.9.5 1.4.7 2.1.9 4.2 1.8 6.3 2.8 3.4 1.6 5 5.6 3.6 9.1-.5 1.5-1.8 2.7-3.4 3-2.2.6-4.6.1-6.5-1.1-1.7-1.2-3.1-2.7-4-4.6-.7-1.4-1.3-2.8-2-4.2h-1.1c-.1 3.9.1 7.8.4 11.7h1.6l1.6-2c.2 0 .4.1.5.2 2.4 1.6 5.3 2.3 8.2 2 5.6-.4 9.8-5.2 9.4-10.7-.2-3.4-2.1-6.4-5.1-8.1-1.4-.8-2.9-1.5-4.4-2.1-1.7-.6-3.4-1.5-4.9-2.6-1.5-1.1-2.5-2.8-2.5-4.7-.2-3 1.6-5 3.9-5.3 2.8-.4 5.7.8 7.3 3.1.9 1.3 1.6 2.7 2.3 4.2.4.8.7 1.7 1 2.6l1.1-.2c-.1-3.8-.2-7.4-.3-11.2h-1.7l-1.6 1.9zm97.1 30.8c.5.3.9.6 1.2.8 3.1 1.8 6.9 2.1 10.3.9 3.7-1.2 6.3-4.6 6.6-8.5.5-4.3-1-7.7-5-9.7-1.5-.7-3-1.4-4.4-2.1s-3.1-1.5-4.6-2.4c-1.7-1-2.7-2.8-2.8-4.7-.3-3.1 1.6-5.3 4-5.5 2.7-.3 5.3.7 7 2.8 1.2 1.5 2.1 3.2 2.7 5 .3.7.5 1.3.8 2l1.1-.2c-.1-3.8-.2-7.4-.3-11.2h-1.7l-1.4 1.9c-1.3-.6-2.6-1.2-3.9-1.7-4.2-1.4-8.8.3-11 4.2-1 1.8-1.3 3.9-1.1 6 .1 2.3 1.2 4.5 3 6 1 .8 2.1 1.4 3.3 2 2 1 4.1 1.8 6.2 2.8 3.4 1.5 5 5.5 3.6 8.9-.5 1.7-1.9 2.9-3.6 3.2-2.8.7-5.7-.2-7.6-2.2-1.1-1.2-2.1-2.5-2.9-3.9-.7-1.2-1.3-2.5-1.8-3.8h-1.1c-.1 3.9.1 7.8.4 11.7h1.6l1.4-2.3zm-45.6 13.8c-1.2-.6-2.4-1.2-3.7-1.7-4.4-1.6-9.3.3-11.4 4.5-2 4.1-1.3 10.7 4.6 13.3l6.3 2.8c3.6 1.6 5 4.1 4.6 8-.2 2.3-1.9 4.2-4.1 4.5-2.2.5-4.6 0-6.4-1.4-1.5-1.1-2.7-2.5-3.6-4.2-.8-1.4-1.4-2.9-2.2-4.5l-.9.1v5.9c-.1 1.9 0 3.9.2 5.8h1.6l1.7-2.2c2.2 1.6 4.9 2.4 7.6 2.3 5.6-.1 9.7-3.6 10.4-9.1.5-4-.7-7.4-4.4-9.4-1.9-1.1-4-1.9-6-2.9-1.4-.7-2.8-1.5-4.1-2.4-1.7-1.2-2.6-3.3-2.4-5.4 0-2.2 1.6-4.1 3.8-4.4 2.4-.3 4.8.4 6.5 2.1 1.4 1.5 2.5 3.3 3.2 5.2.3.8.6 1.6.9 2.5l1-.1v-11.2h-1.8l-1.4 1.9zM105.1 97c1.1.3 2.1.6 3.1 1 1 .3 1.7 1.3 1.6 2.3v25.3c0 1.9-.6 2.6-2.5 2.9-.7.1-1.3.2-2 .3-.1 0-.2.1-.3.2l.2.9c2.7.3 14 .2 14.4-.1v-.9l-2.4-.6c-1.8-.5-2.3-1.2-2.3-2.9v-24.5c0-2.3.4-2.9 2.7-3.4.7-.2 1.4-.3 2.1-.4l-.2-1.1h-14.4v1z"/><path class="st1" d="M43.3 85.7l-.4.3h-6.7l-.1-.3 1.6-.7c0-1.1-.6-2-1-3h-4l-1 2.7c.3.2.7.4 1.1.6.3.1.7.3 1 .5-1.2.3-2.4.3-3.6.2h-3.7c-1.2 0-2.6.1-3.9 0-1.3.1-2.6 0-3.9-.2l1.8-.7c.4-3.3.4-6.7.1-10-.2-.1-.5-.3-.7-.4s-.6-.2-.9-.3c.8-.6 4.6-.6 6.1-.1l-1.6.7c-.4 2.1-.3 9.2.3 10.3 1 .1 2.1.1 3.1 0 .5-.2 1-.5 1.3-1 .5-.7.9-1.4 1.3-2.1.5 1.1 0 2.1.3 3.1.9-.2 1.2-1 1.4-1.6 1.1-2.6 2.1-5.2 3.1-7.9.2-.6.5-1.2.8-1.9l.9-.2c.2.2.3.4.4.7 1.2 3.1 2.5 6.3 3.7 9.4.2.9 1 1.6 2 1.6.1-1.2-.2-2.3.4-3.6.3.5.5.9.8 1.4.5 1 1.3 1.7 2.3 2.1 1.1.5 2.4.1 2.9-1 .5-1 .1-2.3-1-2.8-.1 0-.2-.1-.2-.1-.8-.4-1.7-.7-2.6-1-1.7-.5-2.7-2.4-2.2-4.2.6-1.8 2.4-2.9 4.2-2.5.7.1 1.4.3 2.2.6l.9-.5c.2.1.3.2.4.3V78c-.2-.2-.5-.5-.7-.8-.2-.4-.4-.8-.7-1.2-.6-1.2-2-1.9-3.4-1.5-1.5 1.3-1.4 2.7.3 3.6 1 .5 2.1.8 3.1 1.3 1.7.8 2.5 2.8 1.7 4.5-.1.2-.2.4-.3.5-.7 1.1-1.9 1.8-3.2 1.8-1.1-.1-2.4-.2-3.7-.5zm-8.7-9L33 81h3.3l-1.7-4.3zM69.1 75c-2-.9-2.7-.7-3.5 1.1-1.2 2.7-2.3 5.5-3.5 8.2-.2.6-.5 1.1-.8 1.7h-1c-.2-.5-.5-1-.6-1.6-.9-2.4-1.7-4.7-2.6-7.1-.8-2.2-.8-2.2-2.4-3.3 1.9-.4 3.9-.4 5.8.1l-1.6.9 2.8 7.8h.3l3-7.5-2.2-1c1-.5 2-.2 2.9-.3s2 0 2.9 0h8.7v3c-.3-.3-.6-.4-.7-.7-.5-1.3-1.9-2.1-3.2-1.8h-1.6v4.7c2.2.4 2.3.3 3.4-1.9.5.8.6 3.4.1 5.1l-.9-1.8c-1.1-.6-1.1-.6-2.6-.4-.2 1.6-.2 3.2.1 4.8 1.4.5 2.7.2 4.2.2l2.1-3.1v3.8c-3.6.2-7.2.1-10.8.1l-.1-.3 1.7-.6.1-10.1zm36.6 10.5l-.6.4h-6.9v-.3l1.7-.7-1.1-3h-4.1l-.7 2.8 2.1.9c-.9.6-1.7.3-2.5.3H91c.7-.5 1.4-1 2-1.7.4-.7.7-1.4.9-2.1l2.7-6.9c.2-.5.5-1 .7-1.6h1.1c.8 2 1.6 4 2.4 6.1.5 1.4 1.1 2.8 1.6 4.2.4 1 .4 1 1.9 1.3v-3.5l.3-.1c.2.4.4.7.7 1.1.4.7 1 1.3 1.5 1.9.5.4 1.2.6 1.8.7 1 .1 1.9-.4 2.1-1.4.3-.9 0-1.9-.9-2.4-.5-.3-1-.5-1.6-.7-.6-.3-1.3-.4-1.9-.7-1.3-.5-2.2-1.9-2-3.3.1-1.4 1.1-2.7 2.5-3.1 1.4-.4 2.9-.2 4.2.4l1.1-.6c.4 1.3.4 2.7.2 4.1l-.3.1c-.3-.5-.5-.9-.7-1.4-.4-1-1.3-1.7-2.4-2-.9-.3-1.8.2-2.2 1-.4.9 0 1.9.8 2.4.6.3 1.3.6 1.9.9.6.3 1.2.4 1.7.7 1.2.5 1.9 1.7 1.9 3 .1 1.4-.7 2.7-1.9 3.3-1.2.6-2.7.8-4 .4-.4 0-.9-.2-1.4-.5zM98.5 81c-.4-1.4-1-2.8-1.7-4l-1.5 4h3.2zm-10.6.7l-2-.9.1-.2h5.9l.1.2-1.5.8c-.1 1.5-.1 3-.2 4.8l-1.3-.9c-1.5.3-3 .6-4.5.7-2.6.1-4.8-1.7-5.3-4.2-1.1-3.4.9-7 4.3-8.1 1.4-.4 3-.4 4.4.2l.6.2 1.3-.6c.3 1.5.4 3.1.2 4.7-.3-.3-.6-.6-.8-.9-.4-.7-.8-1.4-1.3-2-1.1-1.3-3.1-1.4-4.4-.3-.4.3-.7.7-.8 1.2-1.1 2.4-1.1 5.1.1 7.4.5 1.4 2 2.1 3.4 1.7 1.1-.2 1.9-1.2 1.8-2.3-.1-.5-.1-.9-.1-1.5zm-36.3 74.7v-14c.3-.1.7-.1 1-.2H56c3.3.1 5.2 1.6 5.8 4.8.2 1.4.2 2.9 0 4.3-.4 2.9-2.9 5-5.8 5.1-1.3.1-2.7 0-4.4 0zm-28.5-43.6c1.9-.2 3.8-.1 5.7.1 3.1.7 5.4 3.5 5.3 6.7.1 1.6-.2 3.3-.8 4.8-1.4 3.4-5.2 5-8.6 3.6-.9-.3-1.6-1.2-1.7-2.2v-13zm.1-1.8V97.5c2.4-.2 4.6-.5 6.8.7 1.6 1 2.6 2.7 2.6 4.6.1 1.3-.1 2.7-.4 4-.5 2.2-2.3 3.8-4.5 4.2-1.5.2-3 .2-4.5 0zm.1 31.3c1.5-.1 3-.1 4.5 0 2 .3 3.7 1.7 4.2 3.6.8 2.2.9 4.5.3 6.8-.6 2.2-2.3 3.9-4.5 4.4-1.4.3-2.9.4-4.4.3-.3-1.2-.4-12.6-.1-15.1z"/></svg><svg id="pcmag" width="250" height="250" y="3000"><style>.st0{fill:none}.st1{fill:#6400fa}</style><path class="st0" d="M0 0h250v250H0z"/><path class="st1" d="M13.2 192.1v-27h4.4l17.1 21.2v-21.2h4.1v27h-4.4l-17.1-21.2v21.2h-4.1zm33.4.2v-27h22.1v3.9h-17v7.5h15.8v3.9H51.7v7.5h17.7v4.2H46.6zm50.5-27H72.4v4.1h10.1v22.8h4.7v-22.8h9.9zm1.7-.3h5.8l6 21.4 6.5-21.4h5.5l6.6 21.6L135 165h5.5l-8.7 27.2h-5.2l-7-20.5-6.3 20.5h-5.6zm59.8-.8c-8.3 0-15 4-15 14.5 0 8 4.6 14.5 15 14.5 9.8 0 15-6.5 15-14.5.1-10.1-6.7-14.5-15-14.5zm0 24.7c-6.7 0-9.6-4.6-9.6-10.2 0-7.4 4.3-10.2 9.6-10.2s9.6 3.1 9.6 10.2c0 5.7-3.3 10.2-9.6 10.2zm45.2-1.5c0-2.8.6-7.4-3.6-8.2 0 0 4.3-1 4.3-7.5S197 165 197 165h-17.7v27.2h5.5v-10.7h8.8c2.1-.4 4.1.9 4.6 2.9 0 .2.1.4.1.7.5 4.4-.1 5.7.9 7.1h5.7c-.7-1.5-1.1-3.1-1.1-4.8zm-8.9-10h-10v-8H195c2.2.1 3.9 1.9 3.9 4.1-.1 3.9-4 3.9-4 3.9zm15.8-12.4h5.3v13l13.2-13.2h7.3l-11.6 11.3 12.6 16.2h-7.3l-9.7-12.4-4.6 4.3v8.1h-5.2zM12.5 153.8h223.2v3.6H12.5zm21.8-96.3l-21.8.1V146h14.6v-32.8h9.8s10.9.6 10.9-12.6V74.2c-.1 0 1.6-16.7-13.5-16.7zm-1.5 17.2v21.7c0 4.5-3.2 4.5-3.2 4.5h-2.1V69.8c6.1 0 5.3 4.9 5.3 4.9zm51.9 13.8H71.1V71.8s.5-3.1-2.1-3.1-2.6 1.7-2.6 3.4v59s-.6 3.3 2.6 3.3c0 0 2 .4 2-3.2v-20.7h13.7V134s.2 12.7-16.9 12.7-17.2-14.6-17.2-17.3V73.2s-1.7-16.4 18.1-16.4c0 0 15.9-.5 15.9 14l.1 17.7zm134.2 58.2c-17 2.2-17.1-14.6-17.1-17.3V73.2s-1.8-16.4 18.1-16.4c0 0 15.9-.5 15.9 14v17.8h-13.6V71.8s.5-3.1-2.1-3.1-2.6 1.7-2.6 3.4v59s-.6 3.3 2.6 3.3c0 0 2 .2 2-3.1v-15.5h-3.3v-13.5h17.3v43.5h-7.4l-2.1-4.4c.1 0-2.6 4.7-7.7 5.3zM98.5 57.4V146h11.6V97.3l9.8 48.7h9.9l8.7-49v49h13.8V57.4h-20.5l-6.3 45.9-7.5-45.9zm87.1 88.6h14.9l-12-88.8h-19.3L157.1 146h15.4l2.5-24.3h8l2.6 24.3zm-9.3-36.6L179 84l2.7 25.4h-5.4z"/></svg><svg id="popular-mechanics" width="250" height="250" y="3250"><style>.st0{fill:none}.st1{fill:#6400fa}</style><path class="st0" d="M0 0h250v250H0z"/><path class="st1" d="M100.1 118.7l.3 1.8c.8-1.3 2.1-2 3.6-2.1.7-.1 1.4.1 2 .4v4.6h-3.2V122h-.6c-.7 0-1.3.3-1.7.9v6.5h1.2v2.5h-6.5v-2.5h.8v-7.8h-1v-2.8l5.1-.1zm-81.8-1.6v6.1h1.9c1.1.2 2.2-.6 2.4-1.7v-2.1c.2-1.1-.6-2.1-1.7-2.3h-2.6zm2.5-2.8c4.1 0 6.3 1.5 6.3 5v1.3c0 3.7-2.4 5.3-6.5 5.3h-2.3v3.4h1.5v2.5h-7.3v-2.5h1.2V117h-1.2v-2.8l8.3.1zm15.9 12.5v-3c0-1.9-.7-2.7-2-2.7s-2.1.8-2.1 2.7v3c0 1.9.7 2.6 2.1 2.6s2-.8 2-2.6m4.5-2.7v2.1c0 4.2-2.6 5.9-6.5 5.9-3.7 0-6.6-1.7-6.6-5.6v-2.3c0-4.1 2.9-5.8 6.6-5.8 3.8 0 6.5 1.6 6.5 5.7m10.4 2.3v-2.3c0-2-.5-2.6-1.7-2.6-.9.1-1.8.5-2.3 1.3v5.6c.6.5 1.3.8 2 .8 1.1.1 1.9-.8 2-2.8m-4.2 7h1.1v2.6h-6.4v-2.5h.9v-12h-1v-2.8h5l.3 2c1-1.4 2.6-2.3 4.4-2.3 2.9 0 4.4 1.5 4.4 5.2v3.3c0 3.7-2.2 5.3-5 5.3-1.3-.1-2.6-.6-3.6-1.5l-.1 2.7zm19.1-3.5c-1.1 1.3-2.7 2.1-4.4 2.2-2.7 0-4.1-1.3-4.1-4.4v-6.2h-.8v-2.8h5.3v8.5c0 1.2.5 1.7 1.5 1.7 1-.1 1.8-.6 2.4-1.3v-6.1h-1v-2.8h5.5v10.6h1v2.5h-5l-.4-1.9zm12-15.6v15h.8v2.5h-6.2v-2.5h.9v-12.2h-1.1v-2.8zm9.8 14.4v-3l-1.2.2c-1.9.3-2.3.8-2.3 2 0 1 .3 1.6 1.6 1.6.7-.1 1.4-.3 1.9-.8m4.5-5.8v6.4h1v2.5h-5l-.3-1.4c-1 1.1-2.3 1.7-3.8 1.7-2.6 0-4.1-1.4-4.1-3.8v-.3c0-2.7 1.8-3.5 6.3-4.3l1.4-.2v-.6c0-1.3-.5-1.8-2.1-1.8-.5 0-1 .1-1.5.3v1.4h-3.4v-3.1c1.8-.8 3.7-1.2 5.6-1.2 4.4-.1 5.9 1.5 5.9 4.4m138.9-4.6c1.7-.1 3.4.2 5 .8v3.3h-3.2v-1.3c-.6-.3-1.2-.4-1.8-.3-1.4 0-1.7.4-1.7 1.2s.4 1 1.6 1.2l1.1.2c3.7.6 4.8 1.3 4.8 4.3s-1.9 4.5-5.8 4.5c-1.8 0-3.6-.3-5.2-1.1v-3.3h3.3v1.5c.6.2 1.3.3 1.9.2 1.3 0 2-.3 2-1.2s-.3-.9-1.9-1.1l-1.1-.2c-3.3-.5-4.4-1.5-4.4-4.3 0-3.4 2.3-4.3 5.4-4.4m-18.8 5.9c0-4.2 2.9-5.8 6.4-5.8 1.9-.1 3.7.3 5.4 1.3v3.8h-3.4v-2c-.5-.3-1.1-.4-1.6-.3-1.8 0-2.2 1.1-2.2 3v2.1c0 2.3.6 3.2 2.1 3.2.6 0 1.2-.1 1.8-.3v-1.5h3.4v3.4c-1.7.8-3.6 1.2-5.4 1.1-4 0-6.4-1.9-6.4-5.9l-.1-2.1zm-29.9 4.5v-3l-1.2.2c-1.9.3-2.2.8-2.2 2 0 1 .3 1.6 1.6 1.6.6-.1 1.3-.3 1.8-.8m4.5-5.8v6.4h1.1v2.5h-5l-.4-1.4c-1 1.1-2.3 1.7-3.8 1.6-2.5 0-4.1-1.4-4.1-3.8v-.2c0-2.7 1.8-3.5 6.3-4.3l1.4-.3v-.6c0-1.3-.5-1.8-2.1-1.8-.5 0-1 .1-1.5.2v1.4H176v-3.2c1.8-.8 3.7-1.2 5.6-1.2 4.3.2 5.9 1.8 5.9 4.7m-56.1-8.6v2.8h-1.2v12.2h1.2v2.5h-7.2v-2.5h1.4v-9.4l-3 8.4h-2.4l-3.2-8.4v9.4h1.3v2.5h-5.9v-2.5h1.2v-12.2h-1.2v-2.8h6.6l2.8 7.9 3-7.9zm5.4 9.6h3.9v-.6c0-1.8-.6-2.3-1.9-2.3s-2 .6-2 2.4v.5zm7.9-.3v2.6h-7.9v.4c0 2.1.8 2.8 2.6 2.8.7 0 1.3-.1 1.9-.3v-1.4h3.4v3c-1.6 1-3.5 1.5-5.4 1.4-4.4 0-6.9-1.8-6.9-5.8v-2.2c0-3.4 2-5.8 6.4-5.8s5.9 1.7 5.9 5.3m1.7.6c0-4.2 2.9-5.8 6.4-5.8 1.9-.1 3.7.4 5.4 1.3v3.8h-3.4v-2c-.5-.3-1.1-.4-1.6-.3-1.8 0-2.2 1.1-2.2 3v2.1c0 2.3.6 3.2 2.1 3.2.6 0 1.2-.1 1.8-.3v-1.5h3.4v3.1c-1.6.9-3.5 1.4-5.4 1.3-4 0-6.4-1.9-6.4-5.9v-2zm18.7-9.9v6.3c1-1.4 2.6-2.2 4.3-2.2 2.5 0 3.9 1.2 3.9 4.3v6.7h.8v2.5h-6.4v-2.5h1.2v-6c0-1.2-.4-1.6-1.3-1.6-1 .1-1.9.5-2.5 1.3v6.3h1.2v2.5h-6.5v-2.5h.9V117h-1v-2.8l5.4.1zm29.6 4.4l.4 2c1.1-1.4 2.7-2.2 4.4-2.3 2.5 0 3.9 1.2 3.9 4.3v6.6h.8v2.5h-6.4v-2.5h1.2v-6c0-1.2-.4-1.6-1.3-1.6-1 .1-1.9.5-2.5 1.3v6.3h1.2v2.5h-6.5v-2.5h.9v-7.7h-1v-2.8l4.9-.1zm16.1 0v10.6h1v2.5h-6.3v-2.5h.9v-7.8h-1.1v-2.8zm-4.2-4.7h4.2v3.8h-4.2z"/></svg><svg id="tech-bullion" width="250" height="250" y="3500"><style>.st0{fill:none}.st1{fill:#6400fa}</style><path class="st0" d="M0 0h250v250H0z"/><path class="st1" d="M41.9 90.3c1.4.2 2.8.3 4.1.6 9.3 1.6 17.4 7 22.6 14.8 3.3 4.8 5.3 10.4 5.8 16.3 1 10.6-2.9 21-10.8 28.3-5.5 5.3-12.5 8.6-20.1 9.3l-1.7.2h-4.2l-1.8-.2c-7.1-.8-13.8-3.7-19.1-8.5C10.9 146 7 139 5.6 131.4c-.3-1.4-.4-2.9-.6-4.3v-4l.3-2.7C7.4 105.6 18.7 93.7 33.4 91c1.4-.3 2.8-.4 4.3-.6l4.2-.1zm-7.5 22v34.4c3.6.8 7.3.8 10.8 0v-34.3h10.2c.7-3.1.7-6.3 0-9.5H24.1c-.7 3.1-.7 6.4 0 9.5l10.3-.1zM245 137.1h-4v-6.7c0-.7-.1-1.4-.4-2-.5-1.3-1.7-2.2-3.1-2.2-1.4.1-2.7 1.1-3.1 2.5-.1.6-.2 1.1-.2 1.7v6.6h-4.1v-14.1h3.3l.7 1.1c2.7-2.4 6.8-2.1 9.2.6.8.9 1.3 2 1.5 3.2l.3 1-.1 8.3zm-82.2-.2V133h1.6c1.5 0 2.7-1.2 2.7-2.7s-1.2-2.7-2.7-2.7h-7.5V114h6.1c3.7-.1 6.8 2.9 6.8 6.6 0 1.3-.3 2.5-1 3.6l-.1.3c2.8 2.7 3.6 5.8 1.6 9.2-1.5 2.6-4.5 3.8-7.5 3.2zm-1.7-19v5.2c.8 0 1.7-.1 2.5-.2 1.4-.4 2.2-1.8 1.8-3.1-.3-1-1.2-1.8-2.2-1.9h-2.1zm-23.3-5.3h4.4v11c.7-.3 1.5-.6 2.3-.9 3.9-1.1 8 1.2 9.1 5.1l.3 1.5c.2 2.6 0 5.1 0 7.8h-4.3v-6.7c.1-1.4-.6-2.8-1.7-3.6-1.1-.8-2.5-.8-3.6-.2-1.2.6-2 1.9-2 3.2v7.2h-4.4l-.1-24.4zM93.6 137v-18.3h-6.3v-4.6h17.3v4.5h-6.3V137h-4.7zm26.4-5.7h-10.4c.5 2.4 3 3 5.7 1.5l3 2c-1 1.8-4.9 3.8-8.6 2.1-3.8-1.6-5.6-6-4-9.9 1.6-3.8 6-5.6 9.9-4 3.2 1.3 5.1 4.8 4.4 8.3zm-10.4-2.6h6.5c-.3-1.5-1.7-2.6-3.3-2.6-1.6 0-2.9 1.1-3.2 2.6zm110.3 8.7c-3.7.1-7-2.5-7.8-6.2-.7-4.1 2.1-8 6.3-8.7h.1c3.4-.6 6.8 1 8.4 4 1.9 3.7.4 8.2-3.3 10.1-1 .5-2.1.8-3.1.8h-.6zm3.6-7.4c.1-2-1.5-3.8-3.5-3.9-2.1 0-3.8 1.8-3.8 3.9 0 2 1.6 3.6 3.6 3.8 2 0 3.7-1.7 3.7-3.8 0 .1 0 0 0 0zm-49.2-7.1h4.2v6.7c-.1 1.1.3 2.2 1.1 2.9.8.9 2.1 1.1 3.2.6 1.3-.5 2.1-1.8 2.1-3.1.1-2.1 0-4.2 0-6.2v-.9h4.3c-.1 3 .3 5.9-.3 8.8-.8 3.4-3.9 5.8-7.5 5.8-3.4-.2-6.3-2.7-7-6-.1-.5-.1-1.1-.1-1.6v-7zm17.6 14.1v-24.4h4.1V137h-4.1zm10.9 0h-4.1v-24.4h4.1V137zm-69.5-4.3l1.8 3.2c-3.1 2.3-7.4 2-10.2-.7-2.9-2.7-3.1-7.2-.5-10.1 2.8-3.1 7.8-3.7 10.8-1.1l-1.9 3.3c-1-.9-2.3-1.3-3.6-1-1 .2-1.8.7-2.4 1.5-1 1.4-.9 3.3.2 4.6 1.5 1.6 3.6 1.7 5.8.3zm76.4 4.3h-4.2v-14.1h4.2V137zm0-18.4h-4.2V114h4.2v4.6z"/></svg><svg id="techaeris" width="250" height="250" y="3750"><style>.st0{fill:none}.st1{fill:#6400fa}</style><path class="st0" d="M0 0h250v250H0z"/><path class="st1" d="M46.2 121.8h12.2v-5H46.2V99.6h15v-5.1H40.5v50.2h20.7v-5.1h-15v-17.8zm42.3-10.7v-3c0-.1-.1-.3-.1-.4-1.7-1-3.2-2.4-4.2-4.1 1.3 1 2.8 1.8 4.3 2.4l.1-.1-.4-.3c-2.5-1.7-4.6-3.9-6-6.5-.7-1.4-1.2-2.9-1.5-4.4 0-.1-.1-.3-.1-.4h-.3c-1.9-.4-3.9-.4-5.8-.1-3.4.5-6.2 2.8-7.4 6-.8 2-1.1 4.1-1.1 6.3v26.1c0 1.8.2 3.6.8 5.3.9 3.4 3.7 6.1 7.2 6.9 2.4.6 4.8.5 7.2-.1 2.6-.7 4.8-2.4 6-4.9.9-1.9 1.5-4 1.5-6.1V126.3h-5.3v6.7c0 .9-.1 1.8-.3 2.6-.3 2.1-1.9 3.8-4 4.2-.8.1-1.6.2-2.3.1-2.1-.1-4-1.5-4.6-3.6-.4-1.1-.6-2.4-.6-3.6V106c0-1 .1-1.9.3-2.9.3-1.8 1.5-3.2 3.2-3.9 1-.4 2-.5 3-.4 2.1 0 4 1.4 4.6 3.4.3.8.5 1.7.5 2.6.1 1.8.1 3.6.1 5.5v.6h5.2zm-76-11.5h9.3v45.1h5.6V99.6h9.2v-5.1H12.5v5.1zm221.2 23.7c-1.5-1.5-3.1-2.8-4.8-4.1-1.7-1.3-3.4-2.6-5.1-4-1.5-1.2-2.7-2.7-3.5-4.4-1.4-3.2-1.4-6.9.1-10.2.7-1.7 2.2-2.9 4-3.3 1-.3 2.1-.3 3.1-.3 2.6.1 4.8 1.7 5.8 4.1.6 1.5.9 3 .9 4.6v1.9h3.1v-2.8c-.1-1.6-.4-3.2-1-4.7-1-2.8-3.3-4.9-6.1-5.7-1.8-.5-3.7-.6-5.6-.3-3.3.4-6.2 2.5-7.4 5.6-.7 1.8-1.1 3.7-1.2 5.6-.3 3.9 1 7.8 3.8 10.6 1.5 1.5 3.1 2.9 4.8 4.1 1.8 1.3 3.5 2.6 5.2 4 1.6 1.2 2.8 2.9 3.6 4.7 1.3 3.1 1.1 6.6-.3 9.7-.8 1.8-2.4 3-4.3 3.4-1.4.3-2.8.3-4.2 0-2-.4-3.7-1.7-4.5-3.5-.4-.9-.7-1.8-.9-2.8-.2-1.6-.3-3.2-.2-4.8v-.7h-3.1v3c0 2.1.4 4.2 1.1 6.1 1 2.7 3.3 4.8 6.1 5.5 1.9.5 4 .6 5.9.3 3.3-.4 6.2-2.6 7.4-5.8.8-2 1.1-4.1 1.1-6.2.1-3.5-1.2-7-3.8-9.6zm-33 16v-9.2c0-1.3-.2-2.6-.6-3.8-.9-2.8-3.3-4.9-6.2-5.5h-.2v-.1h.2c1.5-.4 3-1.1 4.1-2.2 1.5-1.5 2.4-3.4 2.5-5.5.2-1.8.2-3.6.2-5.3 0-1.5-.1-3-.2-4.4-.1-1.7-.7-3.3-1.6-4.6-1.9-2.8-4.7-3.8-8-3.9l-.2 1.1-.5 1.7c.1.1.3.1.5.2.9.1 1.7.3 2.6.5 1.9.7 3.4 2.4 3.7 4.4.3 1 .4 2.1.4 3.2 0 2.3 0 4.6-.1 6.8 0 1.4-.5 2.8-1.3 3.9-1 1.4-2.6 2.3-4.4 2.5-.9.2-1.9.2-2.8.3h-6.1v-11.2l-.3.1-2.7 1.7-.3.3V145h3.3v-22.4h6.1c1.1 0 2.2.2 3.3.4 2.4.4 4.2 2.2 4.8 4.6.3 1 .4 2.1.4 3.2.1 2.7 0 5.4 0 8 0 1.3.1 2.7.3 4 .1.8.4 1.6.8 2.3h3.4c-.3-.7-.5-1.3-.7-2-.3-1.5-.4-2.6-.4-3.8zm-72.7-6c.1.1.3.3.5.4h14.4c.2 0 .4 0 .7-.1.8-.9 1.5-1.7 2.3-2.6.2-.2.3-.4.3-.7-.3-1.3-.6-2.5-.9-3.8l-6.5-29.4c-.2-.9-.4-1.8-.6-2.8h-4.8c0 .1-.1.3-.1.4-.6 2.7-1.2 5.3-1.8 8.1-1.6 7.2-3.1 14.4-4.7 21.6-.4 1.8-.8 3.7-1.2 5.5v.5l1.1 1.1c.2.7.7 1.3 1.3 1.8zm7.5-34.8h.1l7.3 32.3h-14.7c2.5-10.8 4.9-21.5 7.3-32.3zm-25.8 23.3l-5.3-4.1c-.2-.1-.4-.3-.6-.4h-4.5l-.1-3.4c-1-.5-1.9-1-2.8-1.4s-1.8-1-2.7-1.4V145h5.6v-22.6H110c-.1-.4-.2-.5-.3-.6zm97.5 23h3.2V94.5h-3.2v50.3zm-96-25.5l-.2.3c-.1 0-.1 0-.2-.1-1.5-.8-3-1.5-4.6-2.3-.3-.2-.7-.2-1 0 2.2 1 4.4 2 6.5 3.1 1.8.9 3.5 1.9 5.2 2.9l.3.1V95.1c0-.2 0-.4-.1-.7l-5.5.1v22.6h-3.7l.1.2 3.2 2zm45.9 2.7l.4-.3.1-.8 2-.2 3.7-1.9c.5-.3 1.1-.5 1.7-.8l.3-.2h-.9l-3.8 1.9-.2-.3 2.3-1.4c-.2 0-.3-.1-.5-.1h-4.7V97.5H174v-3.1h-19.7c0 .2-.1.4-.1.6v28.6l2.9-1.6zm-34.5 6.1zm35-2.5l-1.5 1.3-1.8 1.7v15.6c0 .2 0 .4.1.6H174v-3.1h-16.4v-16.1zm-40.4 2.9c-1.8-1.8-3.6-3.5-5.6-5.1v21.4h5.6v-16.3zm-21.6-20.6l3.2 2.9.3.2V94.5h-5.6v11.3c.4.4.8.9 1.2 1.3l.9.8z"/><path class="st1" d="M94.8 111.3l3.8 2 .6.3 2.5 1.2h.1l.2.1 2.5 1.2.1.1 1.3.7 3.9 1.9.6.3.1-.1-.5-.2-2.2-1.4-2.9-1.8-.1-.1-2.6-1.8-.1-.1h-.1l-.1-.1-.1.3.1-.3-2.5-1.9-.1-.1-.1-.1h-.1l-.1-.1-.1-.1-.2-.2-2.5-2.1-.5-.4-.1-.1-.1-.1-.1-.2-.8-.8-3.7-4.3-.1-.1-.1-.2-.1-.1-.1-.2-.1-.1-.1-.2v-.1l-.1-.1-.1-.2-.1-.1v-.1l-1-1.8v-.2l-.1-.2-.2-.3-.1-.2v-.1l-.1-.1v-.1l-.1-.1v-.1l-.1-.3-.1-.2v-.1l-.1-.1v-.1c0-.1-.1-.2-.1-.3-1-2.5-1.4-5.1-1.5-7.7V87l-.2.2c-.1.1-.2.2-.2.4-1 2.1-1.3 4.5-.9 6.8.1 1 .3 1.9.5 2.9.3.8.6 1.6.9 2.3.3.6.6 1.1.9 1.6l.1.1.1.1.1.1.5.7H88l-.6-.3-1.6-1.3-.1-.1-1.9-2.1V98l-1.1-1.8-.1-.1-.1-.2-.1-.2c-.9-1.5-1.3-3.1-1.3-4.8H81l-.2 1.9c0 .7.1 1.3.1 2 .1 1.1.5 2.2 1 3.3v.1l.1.2 1.3 2.3c.6.9 1.3 1.8 2.1 2.5l1.1 1.1.1.1v-.1.1l.2.2 2 1.4h.2l.3.2 1 .6v.1l-.9-.1c-1.2-.6-2.4-1.1-3.6-1.7-.3-.2-.7-.4-1-.7l-.1.1 1.2 1.2c.8.7 1.7 1.3 2.5 2l.4.2.2.1c.7.4 1.4.9 2.1 1.3 1.3.7 2.6 1.3 3.7 2zm50.2 29.5l.9 4h3.3l-1.8-7.9-.2.2-2 3.1-.2.6zm34.6-31.1h.1v-.1h.1l.1-.1h.1l.1-.1 2.2-1.3.4-.3c1.5-.9 2.9-2 4-3.4l-2.8 1.5-.2.1h-.1l-.1.1h-.1l-1 .4-1.1.2v-.1l1.4-.8h.1l.1-.1h.1v-.1h.1l.1-.1h.2l.1-.1.1-.1 1.9-1.6h.1l1.1-1.1 1.7-2.2.1-.1v-.1l.1-.1.1-.2 1.4-2.7.5-1.7.2-1.6c0-.8-.1-1.6-.1-2.3l-.2-.4c0 1.2-.3 2.4-.8 3.4-.4 1.1-1 2.1-1.8 3l-.2.3-.1.1-.3.3h.1-.1l-.1.1-2.4 2.5-1.3 1-.1-.1.1-.1.2-.2-.3.2.3-.2.1-.1c0-.1-.1-.2 0-.2s0 .1 0 .2l.2-.3.1-.2c.6-.8 1-1.6 1.3-2.6l.1-.3.1-.3.1-.2v-.2l.1-.3.1-.1v-.3l.1-.3v-.2h.1v-.5l.1-.4v-.3l.1-.5V91c0-1.5-.5-2.9-1.4-4.1v1.4c0 1.2-.1 2.3-.1 3.5l-.1.8-.1.6.1.2-.1-.2v.1l-.3 1.4-1 3.1-.1.3-.1.2-.1.2-.1.3-.1.1-.2.6c.1 0 .1-.1.2-.2l-.2.2-.2.4-.1.2-.1.2-.1.1v.1l-.1.1v.1l-2 3c-.1.2-.3.3-.4.5l-.4.5-.1.2-.1.1c.1 0 .1.1.1.1 0 .1.1.1.1.2 0-.1 0-.2-.1-.2 0-.1-.1-.1-.1-.1l-3.8 4-.4.4-.1.1c-.8.7-1.5 1.3-2.3 1.9-1 .8-2 1.6-3.1 2.4l-4.2 2.9-2.1 1.3-1.2.8v.1l2.6-1.2.9-.5.2-.1 4.1-2 .2-.1c1.1-.6 2.2-1.1 3.3-1.6.9-.4 1.7-.9 2.5-1.4-.1 0-.2-.1-.2-.2l.2.2h.1l.1-.1 3.6-2h.1l.1-.2zm8.1-11.4zm-4.4 3.8l-.1.1.1-.1zm-57 38.2c0-.2 0-.3-.1-.5l-1.9-2.9-.2-.3-.1.1-1.8 8.1h3c.4-1.5.7-3 1.1-4.5zm37-19.7c0 .3.2.2.3.2h7.3c.1 0 .2 0 .3-.1v-3h-4.1l-3.8 2.9zm-6.7 5.5z"/><path class="st1" d="M150.7 149.4l-.4-.1h-.2l-.3-.1h-.2l-3.5-1.3-.1-.1h-.1l-.1-.1-.2-.1-.1-.1h-.1l-.1-.1-.1-.1h-.1l-1.8-1.9-.9 1.3-.2.5h-.2v-.2l.2-.5c.2-.6.4-1.3.7-1.9.6-1.4 1.3-2.8 2-4.2l.1-.1v-.1l.1-.1v-.1l.1-.1.1-.2.1-.1v-.1l.1-.1.1-.2.1-.1v-.1l.1-.1.1-.1v-.1l.1-.1v-.1l.1-.1.1-.1v-.1l.1-.1.1-.1.6-.8c.1-.2.2-.3.3-.5l2.2-3 .1-.1v-.1l.1-.1.1-.1.1-.1.1-.1.1-.1.2-.2.1-.1.1-.1.1-.1.1-.1.1-.1.2-.2.1-.1.1-.1.4-.4c.8-.8 1.5-1.6 2.2-2.4l.8-.9 1.1-1 .1-.1.1-.1.1-.1.1-.1.1-.1.1-.1.1-.1 3.4-3 .5-.4 2.6-2.1 3.8-2.9 1.1-.8.5-.3-.1-.1-.6.3.1.1-.1-.1-2.9 1.4-2.6 1.3-2.8 1.4-.6.3-.2.1-.2.1-.2.1-.1.1-.3.2-.9.4-2.5 1.6-.4.2c-.4.3-.9.6-1.4 1-1.4 1.2-2.8 2.3-4.1 3.5-.1.1-.2.1-.3.2L146 131c-.6.6-1.2 1.3-1.7 1.9-.2.2-.3.4-.5.6l-.1.1-.3.2-.1.2-.4.4c-.7.7-1.5 1.1-2.4 1.4l-.2.1.2-.1-1.3-.1-1.9-.3c-.7 0-1.3-.1-2-.1-.4 0-.8.1-1.2.1-.8.1-1.5.2-2.2.4-.9.2-1.9-.1-2.6-.7-.1-.1-.3-.2-.4-.4-.4-.4-.8-.7-1.1-1.1l-2.7-3-.4-.4-1.4-1.9-.1-.1-.1-.1-.1-.1-.1-.1-.7-.7c-1.6-1.2-3.1-2.5-4.7-3.7l-.3-.1-3.4-2-3.3-1.7v.2-.2l-2-1-.2-.1-.2-.1h-.1l-.6-.3-2-1-1.6-.7v.1l.5.4 3.3 2.4 2.2 1.8.2.2.2.2 1 .9 2 1.7 2.6 2.3 4 4.1.4.5.6.6.2.2.3.3.5.6.3.3 2.7 3.6 1.9 2.9c.7 1.4 1.6 2.8 2.1 4.3.8 2.2 1.5 4.4 2.2 6.6.5.7.8 1.4 1 2.1.1.4.2.7.2 1.1.1.7-.1 1.3-.4 1.9-.2.4-.6.5-.9.7-1.5.6-1.4 2.1-.9 3.3.1.2.4.4.6.6l-.1-1.5 1.1-1.1.1.1c-.2.6-.1 1.2.1 1.7.3.6.3 1.2 1 1.6-.3-.8-.2-1.6.3-2.3-.1-.5-.1-1 0-1.5.4.5.2 1.3.9 1.4.2.8.1 1-.5 1.4.5.1 1.1-.2 1.2-.7v-.1c.2-.6.1-1.2-.2-1.7-.3-.4-.5-.9-.7-1.3-.1-.2-.2-.4-.2-.7 0-1 .1-2 .2-3l.8.6-.1-2.6.2.1.2.1-.6-2.1.2.1.8 2.4-.6.1.2 2.4-.9-.3v1.2h3.3l-.6-3.7h-.7l.7-2.1c.1.7-.1 1.4-.4 2l.7-.2c0 .1.1.2.1.3.1 1.3.3 2.6.7 3.9v.1c-.1.8-.2 1.6-.3 2.3s-.5 1.5-1.5 1.6c-.1 0-.2.1-.3.1-.7.3-1.1.9-1.1 1.7 0 .1 0 .3-.1.4-.1.6.2 1.2.7 1.4-.2-.5-.1-1 .1-1.5l1.1-.9c-.3 1.2-.1 2.5.7 3.4-.1-.7.1-1.5.6-2.1l.1-1.5c.5.4.2 1.2.9 1.5 0 .5.2 1-.2 1.4h.4l.1-.1.2-.2c0-.3.1-.6.2-.9.2-.4.2-.8 0-1.2-.2-.4-.4-.9-.6-1.3-.2-.4-.3-.8-.2-1.2 0-.5.1-1 .2-1.5s.3-.9.5-1.5l.3.6c.1-.2.1-.5.1-.8.1-1.1.2-2.1.5-3.1.1-.2.1-.5.1-.8v-.2l.1-.2v-.3l.2-.3v.7l-.1.7v.2l-.1.8-.1.7-.1.8c0 .2-.1.4-.1.6 0 .1.1.3.2.4l1.4-.2h.2l.5-.1c1.6-.2 3.3-.6 4.9-1-.6-.3-1.1-.7-1.7-1.1-.6-.6-1.1-1.2-1.6-1.9l.3.2c1.1.9 2.3 1.6 3.6 2 .6.3 1.2.3 1.8 0h.1l.3-.2h.1l.2-.1h.1l.1-.1.2-.1.3-.1.3-.1c1.2-.4 2.3-1 3.4-1.6l-3.5-.3-.6-.4zm8.3-28.2zM133.2 139l-.7-.8.1-.1.9.3.5.1c.2 0 .4 0 .3.2l-.7-.1-.4.4zm3.7 2.6l-1.1 1.2-.3-.2-.1-.1-.1-.1-.1-.1-.2-.3-.1-.1-.1-.1c-.4-.4-.8-.9-1.3-1.3.6-.3 1.1-.8 1.4-1.3l.3-.5.3.6c.1.2.1 0 .2 0l.1-.3h.1l-.1.2c-.2 1-.3 2-.2 2.9l1.1-.7.4-.4.1.1-.3.5zm1.7-2.9l-.1.1-.3.2-.3-.4-.6.1v-.1l.9-.2c.2-.1.4-.1.6-.2s.2.1.3.1l-.1.2-.4.2zm5.4 11zm42.2-52.2h1.6c.6-1 1.1-1.9 1.7-2.8v-.3h-2.8l-.3 1.8-.2 1.3zM84.6 98.6c.7.9 1.6 1.6 2.3 2.4l.2.3.1-.1-.2-.2c-.7-1.2-1.3-2.4-1.6-3.8-.9-1.1-2-1.9-3.3-2.4l.3.7c.8 1.1 1.4 2.1 2.2 3.1z"/><path class="st1" d="M131.3 153.2l-1-2.3-.5-1-.1-.3-.1-.3v-.1l-.1-.2v-.1c-.3-1.3-.7-2.5-1.2-3.7l-.6 1-.1.1-.1.1-1.6 1.2.1.7-.1-.7-.2.1-1.6.8-.7.3-2.5.7-1.7.2-1.7.1h-.7v.1l1 .5.1.1 1.2.6h.1l.1.1 1.4.6c.3.1.6.2.9.4.7.4 1.5.4 2.2 0h.1l.2-.1 1.8-.9h.1l.1-.1.2-.1.7-.5.5-.5.3-.2-.4.7-.2.1c-.8 1-1.9 1.8-3 2.4v.1l3.3.7 1.1.2c.8.2 1.7.3 2.6.3l.1-1.1zm-10.6-3.6zm14.4 12.4zm48.4-56.4zm-.7-7.8c0-.1.1-.2.1-.2l.6-.1.9-2.8c-.2-.1-.3-.1-.5-.2h-4.4v9.5c1-1.3 1.9-2.6 2.7-4.1.4-.6.6-1.3.6-2.1z"/></svg><svg id="vegastech" width="250" height="250" y="4000"><style>.st0{fill:none}.st1{fill:#6400fa}</style><path class="st0" d="M0 0h250v250H0z"/><path class="st1" d="M106.3 138.9v5.5l-3.7 4.2H89.3c-5-2.3-6.1-6.1-2.6-10.7l2.3.8-1.1 3.7c1 2.7 2.8 3.5 5.4 3.3s4.9 0 7.1 0c2.3-1.5 2.6-3.5 2.2-6.3l-2.9-3.7h-9.8l-3.6-4v-12.3l3.3-3.2h8.8l2.2-3.7 2.5.8-1.2 3.9 1.9 2.3v12.1l-1.6 1.8c1.5 2 2.9 3.8 4.1 5.5zm-17-17.8v9.1l2.3 2.5c1.3-.1 2.7-.1 4 0 2.5.3 4.4-.5 5.4-2.9V121l-1.7-1.8h-8.1l-1.9 1.9zM26 110.4h2.9v7.9c1.8.6 3.4.1 5.3.4l.2 2.3h-5.2v7h5v2.9h-5v7.6l-2.9.2v-7.4c-2.3-.6-4.4-.2-6.6-.3v7.6h-2.9V131h-5.2v-2.9h5v-7h-4.9l-.2-2.5h5.3v-8.1h2.9v8H26v-8.1zm-6.3 17.4c2.1.3 4.2.3 6.2 0v-6.7h-6.2v6.7zm155 1.3v4.7l2.6 2.3h7.5l4.1-1.9 1.4 2.3-4.2 2.6h-10.7l-4.2-4.1v-15.1l4.2-3.7h11.5l3.6 4.3v7.8c0 .2-.3.5-.6.9h-15.2zm2.3-9.9l-2.2 1.9v5h12.1v-4.6l-1.8-2.3H177zm-114.3.9l3.8-3.8h11c1.8.3 2.7 2.2 3.8 3.8v9.1H65.7v3.8c.5 1.5 1.8 2.8 3.3 3.3h7.1l3.8-1.9 1.8 2-4.2 2.8H67.3c-2.1-.9-3.7-2.6-4.7-4.6l.1-14.5zm3 6h12.8V122c-.8-2.2-2.4-2.9-4.6-2.8-1.8.1-3.7 0-5.9 0l-2.3 2.4v4.5zm43 8.7v-5.6c.5-2.2 2.5-2.9 3.9-4.1h12.2c.7-.9.1-2 .4-3.4l-3.1-2.4c-3.4.1-7.3-.8-10.9 1.7l-1.5-2.5 4-2.2h10.8l3.5 3.7v16.9l-4.5 2.3h-9.9c-2.6-.6-3.4-2.9-4.9-4.4zm6.5 1.5c3.3-.2 6.8.7 9.8-1.6v-6.1c-3.2-1.5-6.6-1.2-10.3-1.1l-3 2.4c-.5 3.4.7 5.3 3.5 6.4zm104.7-18.9c4-2.1 7.9-.7 11.5-1.2 2.4.7 3.6 2.5 5 3.9v18.5h-3.3v-15.4c-.1-1.8-1.3-3.4-3-3.9h-6.5l-3.5 1.7v17.6h-2.9v-30.9h2.7v9.7zm-87.6 8.4V120l4.2-3.7h8.8l4.1 2.2-1.4 2.5c-3.1-2.1-6.6-1.9-10.2-1.7l-2.5 2.4v3.1c.6.4 1.2.6 1.9.8 2.4.3 4.8.5 7.2.6 2.2-.2 4.3 1 5.4 2.9v5.6c-1.3 1.7-2.3 3.8-4.8 4.5h-8.9l-4.1-2.6c.4-.9.8-1.5 1.1-2.3 1.8.7 3.6 1.3 5.5 1.8 1.8.2 3.7.2 5.5.1 2-1.5 3.4-3.1 2.7-5.8-.9-1-2.1-1.2-3.4-1.3-2.4-.1-4.8-.3-7.2-.6-1.7-.1-3.2-1.2-3.9-2.7zm-93.1 3.3V117H42v8.8c-.1 1.6.5 3.1 1.6 4.2 1.7 1.9 3.3 3.8 5.1 5.9l6.2-7.7V117h3.5v11.7c-2.5 3.7-5.3 7.2-8.3 10.4h-2.8c-2.9-3-5.7-6.4-8.1-10zm173.5-10.5c-.7 1-1.2 1.7-1.6 2.3l-3.4-1.6H200l-2.4 2.6V133c.6.6 1.1 1.2 1.5 1.9.6 1 1.8 1.5 2.9 1.5 3.1.2 6.2.1 8.9-2.1l2 2.2-4 2.9h-9.5a8.7 8.7 0 0 1-4.8-4.8V120l3.8-3.7h10.5l3.8 2.3zm-53.2 14.7l2.3 3h5c.1.9.1 1.8.2 2.9-2.2.1-4.4 0-6.9 0l-4.3-4.8v-15.1l-3.4-.2-.1-2.2h3.2c.7-1.9 0-3.9.4-5.9h3.4v5.7h7v2.3h-6.8v14.3z"/></svg><svg id="zcorum" width="250" height="250" y="4250"><style>.st0{fill:none}.st1{fill:#6400fa}</style><path class="st0" d="M0 0h250v250H0z"/><path class="st1" d="M206.5 142.8H198c0-.5-.1-1-.1-1.5v-12.6c0-.8 0-1.5-.2-2.3-.4-2.3-1.8-3.6-3.8-3.6-2.1 0-4 1.5-4.3 3.7-.1.8-.1 1.6-.2 2.4v13.8h-8.6V117h7.2c.2 1 .3 2 .5 3.3 2.3-2.8 5.1-4 8.5-4.1 3.4 0 6.2 1.1 8 4.3.3-.3.6-.5.8-.8 3-3 6.7-4.1 10.8-3.2 3 .6 5.2 2.5 6.2 5.4.6 1.8.9 3.7 1 5.5.1 4.7 0 9.5 0 14.2 0 .3-.1.7-.1 1.1h-8.6V128.9c0-1.1-.1-2.1-.4-3.2-.5-1.9-1.7-2.9-3.5-3-1.9-.1-3.6.9-4.2 2.7-.3.9-.4 1.9-.4 2.9V141c0 .7 0 1.2-.1 1.8zM18 136.1h20.3v6.6H5c0-1.4-.1-2.7 0-4.1 0-.4.4-.8.7-1.2 6.1-7.4 12.3-14.8 18.5-22.1.3-.4.6-.8 1.2-1.5H6.9v-6.7h31c0 1.5.1 3 0 4.6 0 .4-.5.9-.8 1.2-6 7.3-12 14.5-18 21.8-.4.5-.6.8-1.1 1.4zm57-27.9c-.7 2.2-1.3 4.2-2 6.3-1.6-.3-3.1-.7-4.6-.9-2.9-.4-5.8-.4-8.6.4-7.3 1.9-10.8 9.5-7.5 16.3 1.5 3 4 4.7 7.1 5.6 4.1 1.2 8.2.8 12.3-.1.3-.1.6-.1.9-.2h.4c.5 2 .9 4 1.5 6.2-1.2.3-2.3.7-3.4.9-5.7 1-11.5 1.1-17.1-.6-3.5-1-6.6-2.7-9-5.5-6.6-7.6-5.1-19.5 3.1-25.5 3.3-2.4 7-3.7 11-4.3 4.7-.7 9.4-.5 14.1.6.6.3 1.1.5 1.8.8zm23 35.2c-4.5 0-7.6-.6-10.5-2.1-4.3-2.3-6.7-5.9-6.9-10.8-.2-5.1 1.9-9.1 6.3-11.8 3.6-2.1 7.5-2.7 11.6-2.5 2.6.1 5.2.7 7.5 1.9 4.5 2.3 7 6 7.1 11 .1 5.2-2.1 9.2-6.7 11.8-2.9 1.9-6.2 2.5-8.4 2.5zm-7.5-13.6c.4 1.5.6 3 1.2 4.4 1 2.3 2.9 3.4 5.4 3.4 2.5 0 4.2-1.2 5.2-3.5 1.2-2.9 1.2-5.8-.1-8.7-1-2.2-2.8-3.3-5.2-3.3-2.4 0-4.3 1-5.2 3.2-.7 1.5-.9 3-1.3 4.5zm82.9 13h-8.2c-.2-1.2-.4-2.3-.6-3.5-.6.6-1 1-1.5 1.4-3.7 3.1-10.3 3.7-14.5 1.3-3.1-1.8-4.5-4.6-4.6-8-.2-5.5-.1-11-.1-16.5 0-.1.1-.2.1-.5h9.6v13.8c0 .9.1 1.8.3 2.7.6 2.4 2.5 3.6 5.1 3.3 2.6-.3 4.4-2 4.4-4.5V117h9.8c.2 8.6.2 17.2.2 25.8zm-44.5 0h-9.8V117h8.1c.1 1.4.2 2.9.4 4.6l.8-1.2c2.2-3.2 5.2-4.3 9-4.2.5 0 .9.2.9.8v6.9c-.6 0-1-.1-1.5-.1-1.4.1-2.8 0-4.1.4-2.5.7-3.8 2.5-3.8 5.1v11.8c-.1.6 0 1.1 0 1.7zm108.7-25.6c-.1 2.1-.3 3.9-.4 5.8h-1.8c.2-2.7.3-5.3.5-8.2.8 0 1.5-.1 2.2 0 .3.1.6.5.7.9.5 1.4.8 2.8 1.3 4.4.4-1.4.8-2.6 1.2-3.8.5-1.5.5-1.5 2.1-1.5.3 0 .5 0 1 .1.2 2.7.3 5.4.5 8.2h-2v-5.3c-.1 0-.3 0-.4-.1-.3.8-.5 1.5-.8 2.3-.2.7-.5 1.5-.7 2.2-.2.6-.4.9-1.1.9-.6 0-.9-.3-1.1-.9-.2-1.7-.7-3.2-1.2-5zm-9-1v-1.5h6.6c0 .5 0 .9.1 1.5-.8.1-1.4.1-2.3.2v6.5h-2.1v-6.5c-.9 0-1.5-.1-2.3-.2z"/></svg></svg>