<svg xmlns="http://www.w3.org/2000/svg" width="1024" height="1024" viewBox="0 0 1024 1024">
  <title>join-us</title>
  <g>
    <rect width="1024" height="1024" fill="none"/>
    <path d="M51.2,883.8c0,48,206.3,86.9,460.8,86.9s460.8-38.9,460.8-86.9S766.5,796.9,512,796.9,51.2,835.8,51.2,883.8Z" fill="#d1f0ff" opacity="0.5" style="isolation: isolate"/>
    <path d="M139.3,839.7s8.8-31.4,22.7-42.2,23.9-25.8,42.2-32.8,22.6-19.5,15.7-23.9-29.6-17.1-57.2,11.9-34.6,51.2-34,78.7S138,855.7,139.3,839.7Z" fill="#3dc7c9"/>
    <path d="M209.8,745.9a168.25,168.25,0,0,0-40.3,17.6c-12.6,9.4-35.8,35.8-37.1,61.4" fill="none" stroke="#33a8b5" stroke-miterlimit="10" stroke-width="3.37"/>
    <path d="M131.7,849.9s-14.2-40.2-20.5-52.8-5-42.8,4.2-54.6,24.7-29.4,17.7-55.4-3.4-42,9.2-31.9a89.82,89.82,0,0,1,12.6,131A120.25,120.25,0,0,0,131.7,849.9Z" fill="#acd5f4"/>
    <path d="M127.3,840.3s-7.5-40.2,0-56.6,25.6-46.4,27.1-66.9a91.07,91.07,0,0,0-13.8-49.2" fill="none" stroke="#86c0f0" stroke-miterlimit="10" stroke-width="3.37"/>
    <path d="M75.7,790.1c-16.4-3.2-17.6-22-5-25.8s33.4-3.2,43.4,10.2a87.31,87.31,0,0,1,12.6,62.4c-3.8,19.6,0-7.6-8.2-20.5A73.2,73.2,0,0,0,75.7,790.1Z" fill="#194866"/>
    <path d="M68.1,774.9a47.2,47.2,0,0,1,38.4,10.2,77.09,77.09,0,0,1,22.1,46.2" fill="none" stroke="#161711" stroke-miterlimit="10" stroke-width="2.52"/>
    <polygon points="158.8 888.1 113.5 888.1 105.9 815.1 166.4 815.1 158.8 888.1" fill="#2c7eea"/>
    <path d="M365.8,333.3s1.7,6.1-31.3,16.2a680.15,680.15,0,0,1-78.4,17l69.1-29.2C325.1,337.3,353.5,327.7,365.8,333.3Z" fill="#e9d6b8"/>
    <path d="M266.2,366c-17.6,6-23.2,19-29.4,24l-11.6,8.6s7.2-10.2,9.2-13.5,0-4.7-4.7,0-16.6,18.7-16.6,18.7a66.69,66.69,0,0,1,6.7-14,98.47,98.47,0,0,1,13.8-17.1,79.86,79.86,0,0,1,23.7-8.9C267.6,361.5,278.4,361.6,266.2,366Z" fill="#e9d6b8"/>
    <path d="M307.8,356.6c9.1-2.2,18.3-4.5,26.6-7.1s19.4-5.3,23.8-7.3c13.8-6,.8-11.3.8-11.3-12.2-6-34.4,6.3-34.4,6.3L304.1,346Z" fill="#ad5c49"/>
    <path d="M461.7,234l92.2,9.5s-44.4-33.5-78.2-42.4S460.8,234.3,461.7,234Z" fill="#e9d6b8"/>
    <path d="M262.9,203.6s14.6-18.2,84-20.5c6.3,0,14.1.5,21.3.6,89.5.8,87.2,10.2,87.2,10.2l19.5,5.9-2.6,35.1-143.4,1.3Z" fill="#d1dbea"/>
    <path d="M328.5,235.5l122.1-.7h0l-18.9-7.3s2.9-8.9-86.3-16.2a337.86,337.86,0,0,0-66.7,0Z" fill="#b0bfde"/>
    <polygon points="457.3 206.8 454.2 230 454.2 235.9 470.9 238.9 468.9 211 457.3 206.8" fill="#b0bfde"/>
    <path d="M286.7,184.3c-.9,10.2-6.6,19.8-12.6,20.5H257.2c-5.9-.5-11.7-9.6-12.6-20.5-1.3-17.4-2.8-34.8-4.1-52.3-1-10.2,3.1-31.4,12.2-37.7a22.55,22.55,0,0,1,26,0c9.1,6.2,13.2,27.2,12.3,37.7C289.6,149.2,288.3,166.6,286.7,184.3Z" fill="#e9d6b8"/>
    <path d="M171.5,359.7l45.6,74s-67.7-32.6-64.2-62.8S171.5,359.7,171.5,359.7Z" fill="#e9d6b8"/>
    <path d="M344.4,183.2l-51.2,5.2-32.3,10.2-27.1-5.8-36.2,15.8s-16.3,15.7-1.1,66.2a323.81,323.81,0,0,1,9.3,108.7l131.5,8.4C337.2,391.9,331.6,211.3,344.4,183.2Z" fill="#d1dbea"/>
    <path d="M220.6,210.6a22.38,22.38,0,0,0-22.3-2.6A53,53,0,0,0,181,224a349.3,349.3,0,0,0-53.8,104.3c-3.5,10.2-8.2,40.3,5.8,49.3l14,9,30.7-17.5-6.3-9.4-2.3-5.6s16.3-35.8,33.8-68.4A182.66,182.66,0,0,0,220.6,210.6Z" fill="#d1dbea"/>
    <polygon points="259.2 197 246.2 211.1 233.2 192.5 240.9 180.9 259.2 197" fill="#b0bfde"/>
    <polygon points="288.4 180.3 263.4 196.4 275.1 210.6 294.6 188.4 288.4 180.3" fill="#b0bfde"/>
    <rect x="256.4" y="196.3" width="11.1" height="190.2" fill="#b0bfde"/>
    <path d="M209.9,854c-1.4,1.7,0,6.1,0,6.1a161.42,161.42,0,0,0,32.6.9,41.41,41.41,0,0,0,8.8-4.1c.5,0,1.4-2.3,2-2.6s1.4,0,2.4,0a19.48,19.48,0,0,0,3.7-2.7,23.8,23.8,0,0,0-.7-15.8s-20.5-7-24.8-2.2A160,160,0,0,1,209.9,854Z" fill="#161711"/>
    <path d="M270.4,441.1s16.3,146,48.9,197.7,49.9-9.4,49.9-9.4L336.8,387.2l-102.4-.6C234.5,386.7,254.9,385.8,270.4,441.1Z" fill="#3c463b"/>
    <path d="M289.4,387.3s-15.6,235.5-19.5,247.2c-13.2,40.2-47.5,16.1-52.1,2.7s-12.5-112.6-11-185.4,1.5-67.8,1.5-67.8Z" fill="#3c463b"/>
    <path d="M264.5,592.6a292.53,292.53,0,0,1,10.2,77.3c-.6,35.9-8.5,108.3-16.1,166.5,0,3.6-29.6,0-29.6,0s-6.9-137.9-8.7-174.8c-.6-13-5.9-51.2-1.1-63.2C228,575.9,250.1,575.1,264.5,592.6Z" fill="#3c463b"/>
    <path d="M359.5,634.9a101.86,101.86,0,0,1-37.3,8.4c-5.2,0,37.7,203.1,37.7,203.1l36.9-15.9L368.6,625.2Z" fill="#323b31"/>
    <path d="M362.8,843.9l3.5,18.3H385s1-2.6,2.6-2.6,3.1,2.6,4.9,2.6h47.8s.8-3.9,0-5.2a24.09,24.09,0,0,0-5.7-2.5c-9.6-2.7-37.3-11.2-42.1-20.5C386.2,823,362.8,843.9,362.8,843.9Z" fill="#161711"/>
    <path d="M171.5,359.7s2.2,0,4.4,4.3,6.9,7.4,3.9,8.6a264.11,264.11,0,0,0-20.5,17.6c-2.2,1.7-10.2-1.1-10.2-1.1s-5.4-2.8-5-4A199.76,199.76,0,0,1,171.5,359.7Z" fill="#b0bfde"/>
    <path d="M267.9,90.9V79.1h25.6a15.62,15.62,0,0,1,15.6,15.6h0v11.9H283.5A15.71,15.71,0,0,1,267.9,90.9Z" fill="#163f59"/>
    <path d="M257.2,86h31.4a13.83,13.83,0,0,1,13.8,13.8v62.9a13.83,13.83,0,0,1-13.8,13.8H257.2a13.83,13.83,0,0,1-13.8-13.8V99.8A13.83,13.83,0,0,1,257.2,86Z" fill="#e9d6b8"/>
    <path d="M266.9,79.1a15.17,15.17,0,0,0-13,7.1h-5.3a12,12,0,0,0-12.1,11.9V128H245V115.8a8.49,8.49,0,0,1,8.5-8.5H279a15.67,15.67,0,0,0,15.6-15.2v-13Z" fill="#163f59"/>
    <path d="M247.6,135.7a7.38,7.38,0,0,0-7.4-7.4h-.6a7.38,7.38,0,0,0-7.4,7.4v9a7.38,7.38,0,0,0,7.4,7.4h.6a7.45,7.45,0,0,0,6.8-4.4" fill="#e9d6b8"/>
    <path d="M720.8,280c-22.5,11.4-63.6,85.6-63.6,85.6s-8.2,32.5,61.4-53.9C739.7,285.8,726.3,277.2,720.8,280Z" fill="#e9d6b8"/>
    <path d="M631.4,436.9l-3.2-10.2v-8.9l5.2-13.5a92.62,92.62,0,0,1,11.7-18,263.86,263.86,0,0,0,16-27.1c2-2.3,16.5.9,16.5.9s-16,18.6-21.6,26.6a208.4,208.4,0,0,0-12.1,25.2,40.36,40.36,0,0,1-8,9s4.1-9.4,5.4-11.8-1.9-2.7-1.9-2.7a96.24,96.24,0,0,0-7.5,16.3,24.81,24.81,0,0,0,.5,7.7Z" fill="#e9d6b8"/>
    <path d="M759.1,237,707.2,344.3l-2.5,6.5L674,337c38.5-59.7,46.6-71.7,51.2-83.3,1.8-4.3,15.9-39.8,17.8-46.4a38.52,38.52,0,0,1,31.7-28.7C797,174.1,759.1,237,759.1,237Z" fill="#2d8ca4"/>
    <polygon points="668.9 181.2 729.5 288.3 841.2 328.7 845.9 373.9 720 337 664.1 284.7 668.9 181.2" fill="#163f59"/>
    <path d="M835,167.2a47.31,47.31,0,1,1-48.3-46.3h1A46.93,46.93,0,0,1,835,167.2Z" fill="#282723"/>
    <path d="M797.2,790.4l.5,56.6a200.26,200.26,0,0,1-27.5,28.5c-7.4,4-6.5,0-5.9-1.4A138.22,138.22,0,0,0,779,849.9c2-8-2.5-56.2-1.9-58.7S797.2,790.4,797.2,790.4Z" fill="#e9d6b8"/>
    <path d="M850.4,796.3a398.46,398.46,0,0,1,7.8,43.4c0,10.9-1.4,14.2,1.5,17.7s23.7,30.7,28.6,30.7a4.74,4.74,0,0,0,4.9-4.7v-.2a163.62,163.62,0,0,1-18.7-28.6,478.15,478.15,0,0,1-3-56.1C871.5,793.4,850.4,796.3,850.4,796.3Z" fill="#e9d6b8"/>
    <path d="M857.6,297.6s-8,1-3.8,43.5a874.93,874.93,0,0,0,19.9,104l-1.2-98.9C872.4,346.2,870.4,308.4,857.6,297.6Z" fill="#e9d6b8"/>
    <path d="M790.9,398.4,794.2,602l6.7,194.6-29,2.2s-20.5-197-22.9-214S716.8,430.2,733.9,396,790.9,398.4,790.9,398.4Z" fill="#194866"/>
    <path d="M733.9,395.9a20.25,20.25,0,0,0-1.4,3.4c18.4,28.8,35.8,53,39.9,59.3,2.3,3.6,10.2,16.5,20.5,34l-1.5-94.1C791.3,398.4,750.9,361.7,733.9,395.9Z" fill="#163f59"/>
    <path d="M857.9,393.9s8.6,86.6,8.6,145.7,5.8,231.7,5.8,231.7V802l-22.4-1.2L815.3,580.2,786.4,393.8h71.5Z" fill="#194866"/>
    <path d="M868.5,165.1a47.31,47.31,0,1,1-48.4-46.2h1.1A46.84,46.84,0,0,1,868.5,165.1Z" fill="#282723"/>
    <path d="M835.6,117a41.3,41.3,0,1,1-41.3-41.3A41.31,41.31,0,0,1,835.6,117Z" fill="#282723"/>
    <path d="M787,129.9a88,88,0,0,1,.6,30.7c-3.3,6.6-25.6,21.7-28.9,26.3s6.6,40,38.7,34.8,61.4-25.6,61.4-30.7-.7-10.2-11.2-14.4S820,170,815.4,164.8a39.09,39.09,0,0,1-7.3-32.2C811.3,118.2,787,129.9,787,129.9Z" fill="#e9d6b8"/>
    <path d="M842.5,239.9l11.3,118.5v6.9l34-1.9s-10.2-91.5-11.4-96.1a392.14,392.14,0,0,1-4.4-49.7c0-6.9-.9-41-23.7-37.9C825.7,182.8,842.5,239.9,842.5,239.9Z" fill="#2d8ca4"/>
    <path d="M804.6,82.9h-2a44.76,44.76,0,0,1-17.9,25.3,61.94,61.94,0,0,1-7.4,4.7v7.7a21.3,21.3,0,1,0,42.6,0V102.9A43.72,43.72,0,0,1,804.6,82.9Z" fill="#e9d6b8"/>
    <path d="M848.9,401H743l15.4-89.8L754.9,206a146.71,146.71,0,0,0,36.9,8.6,123.75,123.75,0,0,0,35.5-8.6Z" fill="#ad5c49"/>
    <path d="M874.5,446.4a118.79,118.79,0,0,1-4.1,18.6c-1.2,1.9-8.2,10.2-8.2,10.2a20.56,20.56,0,0,1,3.1-9.3A203.75,203.75,0,0,0,874.5,446.4Z" fill="#e2c59c"/>
    <path d="M749.3,193.6s3.3,65,1.3,88.7S729,380.7,726.9,395L725,408.8a49.44,49.44,0,0,0,13.1,5.8c4.6.7,13.4-3.8,16.5-19.7,3.7-19.7,15.4-87.6,17.7-99.7,3.3-17.4.6-68.3,3.3-74.9s12.1-28,10.9-33.2a50.7,50.7,0,0,0-10.9-14.7S754.6,181.2,749.3,193.6Z" fill="#35a3bf"/>
    <path d="M832.2,170s-12.8,5.4-16.8,7.5-1.9,23.6,0,26.5,5.4,69.4,5.9,85.2,2.5,77.8,4.9,89.1,1,24.7,12.8,29.1a89.3,89.3,0,0,0,26.6,4.4s-5.9-38.9-8.9-52.1a458,458,0,0,1-13.3-65.5c-.9-20.5,1.9-50.7,3-67a221.57,221.57,0,0,1,10.9-45.3C858.2,178.9,836.1,171.5,832.2,170Z" fill="#35a3bf"/>
    <path d="M798.7,844.1a11.7,11.7,0,0,1,1.4,7.1c0,3-3,11.6-3,11.6l-5.3,2.5v-3.9A133.74,133.74,0,0,1,777,876.7c-4.9,3.5-15.3,12-21.1,10.2a3.42,3.42,0,0,1-2-2.5s9.4-10.2,10.9-11.8,4.9,1.4,8.9-1a160.17,160.17,0,0,0,18.2-16.7A67.56,67.56,0,0,0,798.7,844.1Z" fill="#161711"/>
    <path d="M858.1,849.9a18,18,0,0,0-.6,7.3,42.64,42.64,0,0,0,2.8,7.8l4.9,2.8a139.36,139.36,0,0,0,13.8,15c4.5,3.4,14.1,12,19.7,10.2a3.61,3.61,0,0,0,1.8-2.5s-8.7-10.2-10.2-11.9-4.5,1.5-8.2-.9a132.28,132.28,0,0,1-16.8-17.5A105.44,105.44,0,0,1,858.1,849.9Z" fill="#161711"/>
    <path d="M829.4,168l-14.3,9.4a11.15,11.15,0,0,1,5.9,5.8,94.44,94.44,0,0,1,3.5,10.2l13.1-21.5C837.6,172,829.4,166.6,829.4,168Z" fill="#2d8ca4"/>
    <path d="M777,169.6l2.4,3.8,7.4,13.1s-1.6-4.1-7.3,0a24.44,24.44,0,0,0-5.9,10.2L769.7,173Z" fill="#2d8ca4"/>
    <path d="M866.2,411.9c2.3,20.5-5.9,29.8-7.9,38.1a142.28,142.28,0,0,1-5.3,16.8c7.4-5.3,6.9-11.9,9-15.5s1-2.6,2.4,4.6c.7,4.1-5,12-8.1,17.5a19,19,0,0,0-2.6,7.7,86.17,86.17,0,0,0,10.2-13.2,102.35,102.35,0,0,0,10.2-21.7,84.21,84.21,0,0,0-2.4-27.4C869.8,408,864.6,397.3,866.2,411.9Z" fill="#e9d6b8"/>
    <polygon points="524.1 184.7 542.8 232.4 479.8 337 440.6 334.6 445.3 294.2 524.1 184.7" fill="#194866"/>
    <path d="M406.4,152.5a51.43,51.43,0,0,0-8.8.8,52.36,52.36,0,0,1,.8,8.8,49,49,0,0,1-41,48.1,49.87,49.87,0,1,0,49.2-57.7Z" fill="#282723"/>
    <path d="M469.5,154.7a40.12,40.12,0,1,0,21.1,36.6A48.08,48.08,0,0,1,469.5,154.7Z" fill="#282723"/>
    <path d="M469.5,149.2a36.06,36.06,0,0,1-71.7,7.7,33.05,33.05,0,0,1,0-7.7,36.06,36.06,0,1,1,71.7-7.7A33.05,33.05,0,0,1,469.5,149.2Z" fill="#282723"/>
    <path d="M387.3,211.4s17,33.1,37,37.7,47.7,0,50.6-7.8a35.24,35.24,0,0,0-8.7-27.6c-4.6-4-19.5-8-23.4-15.5a40.36,40.36,0,0,1,0-25.7c2.3-8.5,9.1-9.1,2.3-13.1s-4-8-10.9-6.9-10.9-1.4-10.9,5.1c0,12.1,1,28.9-5.6,36.6S402.8,205.3,387.3,211.4Z" fill="#e9d6b8"/>
    <path d="M447.1,126.4h-1.8A38.42,38.42,0,0,1,430.1,148a39.59,39.59,0,0,1-6.5,4.1v6.7a18.65,18.65,0,0,0,37.2,0V143.4A39.17,39.17,0,0,1,447.1,126.4Z" fill="#e9d6b8"/>
    <path d="M423.5,862.4a83.5,83.5,0,0,0-13.9-3.6c-6-1.1-10.2-1-12.8-3.4s-1.6-12.8-3.4-12.4c-8.5,1.9-11.5,22-6.6,24.5a151.43,151.43,0,0,0,35.6-1C424.6,866.4,424.2,861.9,423.5,862.4Z" fill="#e2c59c"/>
    <path d="M442.7,638.6c-4-2-16.6,8.9-21.6,18.9a139.59,139.59,0,0,0-15.2,52.8c-4.8,34.9-13.1,90.4-15.6,114.1-2.3,21.3-11.8,46.3,4.4,43.4-1.8-29.5,12.8-73.2,21.5-96.2C445.8,693.5,454.9,645.1,442.7,638.6Z" fill="#e2c59c"/>
    <path d="M417.6,860.2c1.6,6.8-19,4.1-24.4,2.4a57.72,57.72,0,0,0-8.4-2.3h-.6c0,3.8-1.6,8.7,4.3,8.7h37.1C455.8,869.8,417.6,860.2,417.6,860.2Z" fill="#ad5c49"/>
    <path d="M455.5,408.4c-6.9-2.5-7.6,3.7-14,18.7a333,333,0,0,0-22.7,121.7,524,524,0,0,0,13.4,137.3,225.71,225.71,0,0,0,28.7-81.9C481.9,497.2,476.8,416.1,455.5,408.4Z" fill="#e2c59c"/>
    <path d="M446.5,615.7c-3.1-2-9.6,7.3-14.6,16.4-10.2,17.9-14.6,40.1-21.1,70.9a451.18,451.18,0,0,0-10.9,88.9c7.9-15.7,14.8-35.8,24.1-56.8C455.2,663.3,455.9,622.1,446.5,615.7Z" fill="#e2c59c"/>
    <path d="M447.4,353.5c-3.7,16.7,0,19-10.2,4.9L366.7,246.9a20.41,20.41,0,0,1,1.1-28.9,21,21,0,0,1,11.1-5.3l88.4-16.1c16.6-3.3,21.9,12.9,18.2,29.7Z" fill="#e9d6b8"/>
    <path d="M406.4,407.8c-10.2-2.5-10.2,4-18.7,19.9C372,458.4,367.2,505,370.2,555.2c3,48,7.3,108.2,12.3,123.7,2.5,7.3,10.2,13.7,13.3,19.8a423.2,423.2,0,0,0,24.1-95.8C437.8,489.8,437.8,415.2,406.4,407.8Z" fill="#e9d6b8"/>
    <path d="M457.6,401.6c-7-2-7.4,3.6-13.2,17.4a283,283,0,0,0-18.3,111.5,454,454,0,0,0,17.8,124.8,444.6,444.6,0,0,0,18.4-83.8C477.3,473.3,478.8,408.2,457.6,401.6Z" fill="#e9d6b8"/>
    <path d="M472.6,604.7a75.69,75.69,0,0,0,2-12.5c1.8-43.1,12.7-85.1-13.1-233.4a226.9,226.9,0,0,0-6.8-27c-16.3-12.3-31.7-2.9-49.3-12.4a169.4,169.4,0,0,0-29.7,35.7c-45,86.8-25.2,212.5-30.7,259A198.88,198.88,0,0,0,472.6,604.7Z" fill="#ad5c49"/>
    <path d="M377.7,217.5c11.9,41-12.7,119.1-12.7,119.1s-8.2,4.3-11.4-2.5c-3.9-8.6-2.7-33.6,1.9-92.2C358.4,206.3,375.6,210.7,377.7,217.5Z" fill="#ad5c49"/>
    <path d="M455.5,332.5c0,.6-3.4,1-7.5.7l-46.4-2.9c-4.1,0-7.4-1-7.3-1.7V326c0-.7,3.4-1.1,7.5-.8l46.4,2.9c4.1,0,7.4,1,7.4,1.7Z" fill="#15100c"/>
    <path d="M486.6,260.4c-3.7-14-7.4-28.1-11-42.2a33.35,33.35,0,0,0-3.3-8.4,466.24,466.24,0,0,1-95.5,12.4,26.7,26.7,0,0,0,0,4c-.8,15.3,0,30.7,0,45.6A21.53,21.53,0,0,0,387,288.6a15.25,15.25,0,0,0-.8,3.7l-1.1,7.5c0,6,4,26.7,9.7,27l61.4,3.3c5.7,0,13.1-12.2,13.4-18.2l8.5-29.8a3.79,3.79,0,0,0,0-1.5A21.86,21.86,0,0,0,486.6,260.4Z" fill="#ffc40e"/>
    <path d="M399.4,206.4s-31.8-1-37.4,14.2,8,37.5,8,37.5,8,28.3,10.2,43.6-7.5,29.9-4.5,26.9a62.89,62.89,0,0,0,19.4-5.3c11.5-5.4,5.1-26.3,3.9-33.1a314.27,314.27,0,0,1-5.4-45.4C395.1,239.4,399.4,206.4,399.4,206.4Z" fill="#ad5c49"/>
    <path d="M490.8,219.1s2.5-12.8-2.8-17.8c-7.8-7.5-26.4-6.5-32.5-4.7a73.46,73.46,0,0,0-10.2,3.8s21.1,8.5,20.5,52.1a233.05,233.05,0,0,1-5,34.2,262.13,262.13,0,0,0-3.4,34.3s12.5,2.6,13.1,4.4a113.1,113.1,0,0,1,10.8-28.5C489.5,282.8,490.8,219.1,490.8,219.1Z" fill="#ad5c49"/>
    <path d="M463.1,195.5c11.7,10.2,18.8,18.1,17,68.9,0,8.2,0,23.3-1.4,37.4.7-1.4,4.3-8,4.9-9.5,11.4-29.3,7.3-73.1,7.3-73.1s2.5-12.8-2.8-17.8A35.41,35.41,0,0,0,463.1,195.5Z" fill="#975140"/>
    <path d="M382.3,668.9c.6-5.5,1.2-10.9,1.9-16.2,3.5-8.1,6.8-12.5,9.6-12.4,11,.6,25.5,41.7,3,147.5-1.1,5.3-13.4,96.5-14,94.3C375.4,856.4,372.8,749.7,382.3,668.9Z" fill="#e9d6b8"/>
    <path d="M382.7,890.9c-5.1,15-12.5,26-16.4,24.7s-3.1-14.5,2-29.5,12.4-26,16.4-24.7S387.7,876.1,382.7,890.9Z" fill="#ad5c49"/>
    <path d="M383.7,882.6c-2.2,11.4-8.7,20.5-12.6,19s-3.9-11,0-21.8a56,56,0,0,0,7.8-27C377.9,844.1,391.6,839.7,383.7,882.6Z" fill="#e9d6b8"/>
    <path d="M612.5,117.2c-1.6,5.3,0,10.2,3.7,11.7h0c3.7,1.1,7.9-2.4,9.5-7.8l1.9-6.8c1.6-5.3,0-10.2-3.7-11.7h0c-3.7-1-7.9,2.4-9.5,7.8Z" fill="#e9d6b8"/>
    <path d="M576.2,166.6c0,9.7,5.2,18.4,10.2,19.1l15.8.6c5.5,0,11.2-8.4,12.4-18.1,2-16.1,4-32.1,6-48.1,1.2-9.6-1.6-29.2-10.2-35.3a20.59,20.59,0,0,0-24.1-1c-8.6,5.3-13.2,24.6-12.8,34.3C575.1,134.2,575.6,150.4,576.2,166.6Z" fill="#e2c59c"/>
    <path d="M569.1,141.3c2,9.2,5.7,11.6,12.4,12.9s7.8,1.5,14.1,2.5,13.9-8,15.8-16c3.2-13.3,11-24,14-37.3a19.31,19.31,0,0,0-11.1-21.5c-8.8-5.6-18.9-16.7-28.6-13.7a30.65,30.65,0,0,0-16.5,27.1C569.3,109.1,569.1,127.6,569.1,141.3Z" fill="#e9d6b8"/>
    <path d="M630.8,93.2l-5.3,10.2s-10.2-12.2-16.8-22c-2.2-3.2-25.8-4.5-31.7-3.7-4.3.6-5,6-6.1,9.2-4,11.2,2.4-19.1,2.4-19.1a32.09,32.09,0,0,1,23.8-14.5c8.4,0,12,4.7,14.8,11.1.7,1.5-9-2.8-7.3-2.9a115.77,115.77,0,0,1,10.2,9.6,53.8,53.8,0,0,0,4.8,9.6C626.8,92.2,630.8,93.2,630.8,93.2Z" fill="#163f59"/>
    <polygon points="595.1 97.8 588.6 98.5 590.1 102.5 584.9 104.2 578.9 124.1 587.5 125 589.3 112.8 594.7 106.9 607.9 106.3 595.1 97.8" fill="#e2c59c"/>
    <path d="M481.3,834.3v21.2l-2.4,17.8-6.7,5.3-5.2,2-1.2,3.1-17.3,13.8a33,33,0,0,1-20.5,3c-2.9,0,0-8.6,1.3-10.2a153.08,153.08,0,0,1,13.4-15.6l12.8-18.8,14.2-23.6Z" fill="#161711"/>
    <path d="M648.3,856.2l-3.8,8.8-1.7,10.2,1.7,15.1h8.2l6.1-1.8L663,891a316.61,316.61,0,0,0,32.4,2.2c14.4-.7,22.2-2.9,24.8-5.9s-5.5-4.1-7.8-4.3a82.89,82.89,0,0,1-27.1-7.9L673.7,864l-2.8-8.3Z" fill="#161711"/>
    <path d="M528.6,189.6l49.9-21.4,17,10.2,30.7-7.9a394.51,394.51,0,0,0,39.4,21.4c3.6,0-1.2,199.7-1.2,199.7l-90.9,28.2L539,397.2Z" fill="#d1dbea"/>
    <polygon points="543.6 388.5 451.4 857.1 484.7 856.1 535.8 705 547.4 659.8 601.3 481 614.9 385.1 543.6 388.5" fill="#163f59"/>
    <polygon points="640.5 859.2 633.3 669.7 617.6 584 597.2 466.2 605.4 385.4 677.8 380.8 674.9 516.6 682.3 638.3 683.8 684.2 679.9 866 640.5 859.2" fill="#163f59"/>
    <polygon points="564.2 404.2 570.2 214.4 577.3 169.5 523.8 184.4 520.3 415.4 564.2 404.2" fill="#194866"/>
    <polygon points="616.6 168.2 630.4 194.8 639.1 391.8 640.3 406.7 699.7 400.5 679.5 216.9 668.9 179.6 616.6 168.2" fill="#194866"/>
    <polygon points="559.5 314.4 544.1 237.2 553.6 222.9 545.2 186.1 553.6 174.2 578.5 165.8 570.2 252.6 565.5 366.7 559.5 314.4" fill="#163f59"/>
    <path d="M616.7,167.5c-1.2,3.6,12.6,28.8,12.6,28.8l7.5,143.4,17.8-105.8-4.7-18.8,4.7-11.9-14.7-30Z" fill="#163f59"/>
    <polyline points="593.9 177.5 591.2 186.1 593.6 188 598.7 187.6 601.1 185.7 598.5 177.4 594.3 177.4" fill="#ad5c49"/>
    <polygon points="593.9 177.4 581.8 191 572.3 167.9 575.4 161.9 593.9 177.4" fill="#b0bfde"/>
    <polygon points="616.4 161.5 598.5 177.4 610.4 191.6 620.3 168.6 616.4 161.5" fill="#b0bfde"/>
    <path d="M595.7,180.1a20.06,20.06,0,0,1,4.8,9.1,332.85,332.85,0,0,1-5,163.8,20.67,20.67,0,0,1-10.2,10.2l-8.2-11.7a1555.52,1555.52,0,0,0,16-162.7C593.2,185.9,595.7,183,595.7,180.1Z" fill="#ad5c49"/>
  </g>
</svg>
