<svg xmlns="http://www.w3.org/2000/svg" width="1024" height="1024" viewBox="0 0 1024 1024">
  <title>scalable</title>
  <rect width="1024" height="1024" fill="none"/>
  <path d="M209.7,548.6a26.67,26.67,0,0,1-6.2-15.3c0-3.1,2.4-8.5,5.5-8.6s5.9,3.8,6,8.3A26,26,0,0,1,209.7,548.6Z" fill="#d1dbea"/>
  <path d="M211.1,563.2a23.53,23.53,0,0,1,6.1-12.9c1.9-1.8,6.9-3.3,8.8-1.2a6.7,6.7,0,0,1-1.7,8.8A22.72,22.72,0,0,1,211.1,563.2Z" fill="#d1dbea"/>
  <path d="M209.6,579.3a22.06,22.06,0,0,1,10.9-9.3c2.5-.8,7.6,0,8.6,2.5s-1.5,6-5.2,7.4A24.9,24.9,0,0,1,209.6,579.3Z" fill="#d1dbea"/>
  <path d="M210.9,563.2a24.47,24.47,0,0,1-13.4-4c-2.2-1.4-4.9-5.6-3.6-7.6s5.1-1.5,8.4.6A25.11,25.11,0,0,1,210.9,563.2Z" fill="#d1dbea"/>
  <path d="M210.6,579.4a25.48,25.48,0,0,1-13.5-3.8c-2.3-1.5-4.9-5.7-3.5-7.8s5.3-1.8,8.5,0A24.64,24.64,0,0,1,210.6,579.4Z" fill="#d1dbea"/>
  <path d="M206.1,601.3a16.65,16.65,0,0,1-10.9-2c-1.7-1.1-3.5-4.7-2.2-6.8a5.38,5.38,0,0,1,7.2-.6A16.05,16.05,0,0,1,206.1,601.3Z" fill="#d1dbea"/>
  <path d="M207.1,601.4a19.75,19.75,0,0,1,7.8-8.4c1.9-1,6-1.2,7,.5s-.6,4.6-3.5,6A19.45,19.45,0,0,1,207.1,601.4Z" fill="#d1dbea"/>
  <path d="M207.8,691.6a8.08,8.08,0,0,0,3.1,0v-1.4a8.77,8.77,0,0,1-6.8-3.6,35.75,35.75,0,0,1-6.1-22.4,233.1,233.1,0,0,1,8.4-58.7,146.24,146.24,0,0,0,4.4-54.7c0-2.8-.5-5-.5-7.1h-1.4a58.07,58.07,0,0,0,.5,7.2,144.3,144.3,0,0,1-4.4,54.3c-13.4,54.4-8.5,74.9-1.9,82.4A10.87,10.87,0,0,0,207.8,691.6Z" fill="#d1dbea"/>
  <path d="M787.5,578.7a114,114,0,0,0,15.6,105,113.63,113.63,0,0,0,62.5-177A113.75,113.75,0,0,0,787.5,578.7Z" fill="#e4efff"/>
  <rect x="749.48" y="597.61" width="165.7" height="1.8" transform="translate(-8.88 1184.47) rotate(-70.58)" fill="#fff"/>
  <rect x="847.94" y="546.59" width="28.2" height="1.8" transform="translate(-140.33 352.29) rotate(-21.4)" fill="#fff"/>
  <rect x="838.26" y="572.12" width="34.7" height="1.8" transform="translate(-150.09 351.7) rotate(-21.4)" fill="#fff"/>
  <rect x="828.05" y="594.49" width="58" height="1.8" transform="translate(-158.16 353.77) rotate(-21.4)" fill="#fff"/>
  <rect x="818.63" y="621.43" width="56.3" height="1.8" transform="translate(-168.7 351.88) rotate(-21.4)" fill="#fff"/>
  <rect x="810.03" y="652.54" width="31.4" height="1.8" transform="translate(-181.5 346.35) rotate(-21.4)" fill="#fff"/>
  <rect x="841.54" y="523.01" width="1.8" height="28.2" transform="translate(-155.39 486.89) rotate(-29.64)" fill="#fff"/>
  <rect x="828.24" y="535.14" width="1.8" height="43.8" transform="translate(-166.99 482.92) rotate(-29.64)" fill="#fff"/>
  <rect x="816.06" y="551.34" width="1.8" height="54.9" transform="translate(-179.34 479.74) rotate(-29.64)" fill="#fff"/>
  <rect x="806.31" y="576.64" width="1.8" height="56.3" transform="translate(-193.47 478.33) rotate(-29.64)" fill="#fff"/>
  <rect x="798.82" y="610.73" width="1.8" height="48.4" transform="translate(-209.36 478.57) rotate(-29.64)" fill="#fff"/>
  <path d="M875.4,639.5a105.91,105.91,0,0,0-68.7,71,105.76,105.76,0,0,0,166.1-54.1A105.8,105.8,0,0,0,875.4,639.5Z" fill="#d1dbea"/>
  <rect x="809.1" y="683.08" width="154.3" height="1.7" transform="translate(-168.04 307.54) rotate(-18.01)" fill="#fff"/>
  <polygon points="951.3 684.3 928.9 670.8 929.8 669.4 952.2 682.9 951.3 684.3" fill="#fff"/>
  <polygon points="931.5 695.6 903.9 679 904.8 677.5 932.5 694.2 931.5 695.6" fill="#fff"/>
  <polygon points="925.1 715 878.9 687.1 879.7 685.7 925.9 713.5 925.1 715" fill="#fff"/>
  <polygon points="898.8 722.3 853.9 695.3 854.7 693.8 899.7 720.9 898.8 722.3" fill="#fff"/>
  <polygon points="853.9 718.5 828.8 703.4 829.7 702 854.7 717 853.9 718.5" fill="#fff"/>
  <polygon points="933 669 931.4 668.4 941.6 644.2 943.2 644.9 933 669" fill="#fff"/>
  <polygon points="908 677.2 906.4 676.6 922.2 638.9 923.9 639.6 908 677.2" fill="#fff"/>
  <polygon points="883 685.3 881.4 684.6 901.2 637.5 902.9 638.3 883 685.3" fill="#fff"/>
  <polygon points="858 693.5 856.4 692.8 876.7 644.4 878.4 645.1 858 693.5" fill="#fff"/>
  <polygon points="832.9 701.6 831.4 700.9 848.9 659.4 850.4 660.1 832.9 701.6" fill="#fff"/>
  <path d="M878.5,558.9a22.86,22.86,0,0,0,12.4-7.7c1.6-2.2,2.6-7.3,0-8.9s-6,0-8.4,2.9A23.64,23.64,0,0,0,878.5,558.9Z" fill="#194866"/>
  <path d="M870.4,568.3a21,21,0,0,0,2.2-12.3c0-2.3-3.3-5.7-5.6-5.2a5.6,5.6,0,0,0-3.2,7.1A19.29,19.29,0,0,0,870.4,568.3Z" fill="#194866"/>
  <path d="M863.3,580.8a20.4,20.4,0,0,0-3.1-12c-1.3-1.8-5.3-4-7.4-2.6s-1.9,5,0,7.8A20.27,20.27,0,0,0,863.3,580.8Z" fill="#194866"/>
  <path d="M870.4,568.7a22.5,22.5,0,0,0,11.5,3.8c2.4,0,6.3-1.5,6.5-3.6s-3-3.7-6.3-3.8A22.69,22.69,0,0,0,870.4,568.7Z" fill="#194866"/>
  <path d="M862.5,580.4a21.55,21.55,0,0,0,11.5,4c2.4,0,6.3-1.6,6.5-3.8s-3-3.9-6.2-4A23.25,23.25,0,0,0,862.5,580.4Z" fill="#194866"/>
  <path d="M854.8,598.2a14.35,14.35,0,0,0,8.7,4c1.8,0,4.9-1.6,4.9-3.8a4.6,4.6,0,0,0-4.8-4A14.63,14.63,0,0,0,854.8,598.2Z" fill="#194866"/>
  <path d="M854.1,597.8a17,17,0,0,0-1.4-10.2c-.8-1.6-3.6-3.9-5.2-3.1s-1.7,3.6-.5,6A16.17,16.17,0,0,0,854.1,597.8Z" fill="#194866"/>
  <path d="M809,661.6a11.18,11.18,0,0,1-2.5-1.1l.8-1h0a7.55,7.55,0,0,0,6.7.8,31.6,31.6,0,0,0,15.5-12.9,196,196,0,0,0,23.2-45.9,125.94,125.94,0,0,1,24.2-41l3.8-4.7,1,.7c-1,1.4-2.4,3-3.9,4.8a125.15,125.15,0,0,0-23.9,41c-17.6,45.4-30.7,57.4-39.6,59.5A10.55,10.55,0,0,1,809,661.6Z" fill="#194866"/>
  <path d="M809,639.8A116.31,116.31,0,0,0,769.8,732,120.89,120.89,0,0,0,904.1,626.3a123.1,123.1,0,0,0,.8-17.2A116.58,116.58,0,0,0,809,639.8Z" fill="#3bb6d5"/>
  <polygon points="775.1 727.9 774.1 726.8 893.4 617.9 894.4 618.9 775.1 727.9" fill="#0c1153"/>
  <polygon points="894.8 642.9 869.4 641.6 869.5 640.2 894.9 641.3 894.8 642.9" fill="#0c1153"/>
  <rect x="863.95" y="644.67" width="1.4" height="31.3" transform="translate(165.93 1494.25) rotate(-87.41)" fill="#0c1153"/>
  <polygon points="880.9 681.2 828.7 678.8 828.7 677.4 881 679.7 880.9 681.2" fill="#0c1153"/>
  <polygon points="859.2 699.7 808.3 697.4 808.4 696 859.2 698.3 859.2 699.7" fill="#0c1153"/>
  <rect x="801.58" y="701.69" width="1.4" height="28.4" transform="translate(50.86 1485.01) rotate(-87.41)" fill="#0c1153"/>
  <polygon points="872.3 638.5 870.9 638.4 872 613 873.5 613.1 872.3 638.5" fill="#0c1153"/>
  <polygon points="852 657 850.5 657 852.3 617.4 853.8 617.5 852 657" fill="#0c1153"/>
  <polygon points="831.6 675.6 830.2 675.5 832.4 626.1 833.8 626.1 831.6 675.6" fill="#0c1153"/>
  <polygon points="811.3 694.2 809.8 694.1 812.1 643.3 813.6 643.4 811.3 694.2" fill="#0c1153"/>
  <polygon points="790.9 712.8 789.5 712.7 791.4 669 792.9 669.1 790.9 712.8" fill="#0c1153"/>
  <path d="M428.9,748.1c4.2-6.1-.7-11.6-20.5-15.1a161.54,161.54,0,0,0-58,1c39.7-17.7,86.2-42.9,44.6-47.3a134.59,134.59,0,0,0-55.7,13.4c25.5-19.5,39.6-35.5,24.7-39.1s-42.8,12.2-73.7,33.1c17.8-17.7,28.3-33.4,20.5-41s-19.9,0-35.7,12.9c1-11.5-3.6-18.5-14.6-17.5s-19.1,13.9-25.7,29.7a52.51,52.51,0,0,0-61.4-34.3c-31.3,7.9-8.3,67.9,4.7,96.5Z" fill="#d1dbea"/>
  <path d="M221.6,802.3c-.9-4.2-16.6-36.9-1.6-58.3,11.8-17,2.2-21.3-7.1-21.7s-18.3,3.3-18.3-8.3c-1-38.3-26.5-66.8-36.7-42.8-5.5,13-20.5,4.3-20.5-5.3-1-20.5-11.1-33.9-20.5-22.3S97.4,657.5,94,649.1,92.6,623,75.7,627.5c-6.7,1.8-13.1,17.9-7.7,30.7,3.1,7.5,18.9,27.9-1.6,26.3s-16,15.1-4.9,20c4,1.8,39.2,21.6,26.5,25.9-15,5-11.6,18.2,8,23.1,8.8,2.2,29.6,1.1,27.1,8.6s-3.6,18.6,10.2,21.8C156.4,789.4,219.6,793.5,221.6,802.3Z" fill="#0c1153"/>
  <path d="M240.1,824c-19.3-24.9-38.2-39.3-69.6-63.3-8.9-6.8-19.1-14.5-30.7-23.6a209.35,209.35,0,0,1-68.1-97l1.7-.5a206.64,206.64,0,0,0,67.4,96.1c11.5,9,21.6,16.8,30.7,23.6,31.4,24.1,50.5,38.5,69.9,63.7Z" fill="#fff"/>
  <path d="M113.7,712.5c-8.2-20.5,2.9-49.7,3.4-51.2l1.6.7s-11.3,29.4-3.3,49.6Z" fill="#fff"/>
  <path d="M117.6,716.8a114.05,114.05,0,0,0-53.5-20.5v-1.7a115.27,115.27,0,0,1,54.3,20.5Z" fill="#fff"/>
  <path d="M161.2,751.8h-1.7c11.3-55.2,7.8-70.3,7.7-70.6h1.7C169.1,681.1,172.6,696.3,161.2,751.8Z" fill="#fff"/>
  <path d="M85.6,742.1v-1.7c1.9,0,48.1-4.6,59.4-1.4l-.5,1.7C133.1,737.3,86.1,742.1,85.6,742.1Z" fill="#fff"/>
  <path d="M191.1,776.7c-22.1-10.2-60.2-2.2-60.5-2.2v-1.7c1.6,0,39-8.2,61.4,2.3Z" fill="#fff"/>
  <path d="M157.7,714.6a240.75,240.75,0,0,0-47.5-168.7l-1.5,1.2a238.36,238.36,0,0,1,47.1,167.3Z" fill="#0c1153"/>
  <path d="M111.3,548.5a21.79,21.79,0,0,0-4.9-10.8c-1.6-1.6-5.5-3.4-7.1-1.9s-.7,4.7,1.5,7.1A21.92,21.92,0,0,0,111.3,548.5Z" fill="#0c1153"/>
  <path d="M117.4,557.4a20.23,20.23,0,0,0-9.3-5.3c-1.9,0-5.7,0-6.1,1.9s1.8,3.8,4.7,4.4A19.7,19.7,0,0,0,117.4,557.4Z" fill="#0c1153"/>
  <path d="M126.3,573.4a15.87,15.87,0,0,0-8.5-3.9c-1.7,0-4.8,1.3-4.9,3.3s2,3.5,4.5,3.6A14.48,14.48,0,0,0,126.3,573.4Z" fill="#0c1153"/>
  <path d="M116.4,557.2a15.35,15.35,0,0,0,6.8-6.3c.7-1.5.5-4.9-1.1-5.7s-4,.6-5.1,2.9A14.13,14.13,0,0,0,116.4,557.2Z" fill="#0c1153"/>
  <path d="M156.6,664.8a17,17,0,0,0,9.1-3.9c1.4-1.2,3-4.4,1.7-5.7s-3.9-.8-5.9,1A16.25,16.25,0,0,0,156.6,664.8Z" fill="#0c1153"/>
  <path d="M127.2,572.8a19.39,19.39,0,0,0,7.7-8.1c.8-1.8.9-5.8-.8-6.7s-4.4.9-5.6,3.7A18.56,18.56,0,0,0,127.2,572.8Z" fill="#0c1153"/>
  <path d="M136.5,590.1a15.26,15.26,0,0,0,7.7-6.7c.7-1.7,0-5.3-1.7-6.3a4.59,4.59,0,0,0-5.8,2.9A14.08,14.08,0,0,0,136.5,590.1Z" fill="#0c1153"/>
  <path d="M135.1,590.4a15.18,15.18,0,0,0-8.4-5.9c-1.8,0-5.4.7-5.9,2.9s1.5,4.3,4.2,4.9A15.64,15.64,0,0,0,135.1,590.4Z" fill="#0c1153"/>
  <path d="M156.1,665.6a16.11,16.11,0,0,0-5.4-8.3c-1.6-1.2-5.5-2.6-7-1.4s0,3.6,1.8,5.4A25.31,25.31,0,0,0,156.1,665.6Z" fill="#0c1153"/>
  <path d="M148.9,625.9a13.13,13.13,0,0,0-7.9-2.6c-1.7,0-5.4,1-5.9,2.4s1.1,2.4,3.8,2.5A31.63,31.63,0,0,0,148.9,625.9Z" fill="#0c1153"/>
  <path d="M144.1,608.8a11.18,11.18,0,0,0,4.6-5.9,7.31,7.31,0,0,0,0-5.8c-1-.9-2.6,0-3.4,2.6A19.76,19.76,0,0,0,144.1,608.8Z" fill="#0c1153"/>
  <path d="M153.6,646.7a23.06,23.06,0,0,0-5-8.9c-1.1-1.1-3.8-1.5-4.4,0a7.23,7.23,0,0,0,2.2,6.5A8.25,8.25,0,0,0,153.6,646.7Z" fill="#0c1153"/>
  <path d="M148.7,626.7a28.81,28.81,0,0,0,10.2-7.4c1.2-1.6,1.8-4.9,0-5.3a8.59,8.59,0,0,0-7.2,3.5A12.25,12.25,0,0,0,148.7,626.7Z" fill="#0c1153"/>
  <path d="M153.6,647.4a25.45,25.45,0,0,0,9.3-6.9c1.1-1.5,1.4-4.5-.6-5a8,8,0,0,0-6.9,3.4A10.27,10.27,0,0,0,153.6,647.4Z" fill="#0c1153"/>
  <path d="M65.7,588a18,18,0,0,0,9.1-3.8c1.4-1.3,2.9-4.5,1.7-5.8s-3.9-.8-5.9,1A17.68,17.68,0,0,0,65.7,588Z" fill="#0c1153"/>
  <path d="M157.2,700.9a16.11,16.11,0,0,0-5.4-8.3c-1.6-1.2-5.5-2.6-7-1.4s-.5,3.6,1.7,5.4A25,25,0,0,0,157.2,700.9Z" fill="#0c1153"/>
  <path d="M157.6,683.4a13.07,13.07,0,0,0-5.4-6.2c-1.5-.9-5.2-1.8-6.5-1s0,2.7,2,4A26.79,26.79,0,0,0,157.6,683.4Z" fill="#0c1153"/>
  <path d="M121.8,613a21.88,21.88,0,0,0-7.6-6.2c-1.5-.7-4.1,0-4,1.3a6.45,6.45,0,0,0,4.1,4.8A9.32,9.32,0,0,0,121.8,613Z" fill="#0c1153"/>
  <path d="M157.5,701.6a31.3,31.3,0,0,0,11.1-5.9c1.5-1.5,2.6-4.6.6-5.4a9,9,0,0,0-7.7,2.7A12.24,12.24,0,0,0,157.5,701.6Z" fill="#0c1153"/>
  <path d="M157.8,683.7a22.89,22.89,0,0,0,9.5-5.3c1.2-1.3,1.6-4.1,0-4.7a7.35,7.35,0,0,0-6.9,2.4A9.29,9.29,0,0,0,157.8,683.7Z" fill="#0c1153"/>
  <path d="M143.9,610.1a20.36,20.36,0,0,0-8.5-6c-2-.7-6.5-1.1-7.4,0s.8,3.2,3.9,4.3A32.35,32.35,0,0,0,143.9,610.1Z" fill="#0c1153"/>
  <path d="M201.6,705.2a16.92,16.92,0,0,0,5.5,0A53.05,53.05,0,0,1,190.2,695a63.58,63.58,0,0,1-8-8.4l1.8-3a62.34,62.34,0,0,0,4.1-7.1,27.57,27.57,0,0,0,12.2,10.2,34,34,0,0,1-10.2-14.1c5.4-10.2,11.8-25.1,16.6-34.5a24.61,24.61,0,0,0,17.6,10.2h1.8a30.64,30.64,0,0,1-16.8-16v-.6c2.3-4,5-9.4,8-15.3a27.2,27.2,0,0,1,4.9,1.3,43.77,43.77,0,0,0-4.2-2.8c2.3-4.5,4.7-9.2,7.1-13.4a27.83,27.83,0,0,0,19.1,14.6,36.9,36.9,0,0,1-13.8-22.4c1.2-1.7,2.4-3.2,3.4-4.4a64.87,64.87,0,0,1,32.4-14.1c.8,4.8,6.1,6.6,14.4,27.2a83.7,83.7,0,0,1,4.2,14,32.3,32.3,0,0,1-21,6.6,36.1,36.1,0,0,0,10.2,2.4,34.65,34.65,0,0,0,12-.9,110.32,110.32,0,0,1,0,21.5,27.74,27.74,0,0,1-14.7,2.6h-2.6a28.9,28.9,0,0,0,13.3,4.5h3.4c-.6,4.8-1.3,9.5-2.3,14.3a72.87,72.87,0,0,1-4.5,14.4h-.8c-1.6-.9-3.3-1.8-4.9-2.6a41.33,41.33,0,0,1,4.7,5.5c-1.8,4.4-4.1,9.1-6.6,14a45.7,45.7,0,0,1-15.2-5.2A76.3,76.3,0,0,0,269,703.7c-3.2,5.8-6.6,12-10.2,18.1a63.92,63.92,0,0,1-10.2-8.5,30,30,0,0,0,8.5,12c-5.2,8.9-10.8,17.7-15.9,25.8A49.31,49.31,0,0,1,231,740.9a19.92,19.92,0,0,0,8,14.3l-2.8,4.3c-18.4,28.5-47.3,8.6-47.3,8.6a204.49,204.49,0,0,1-19.8-41.4,99,99,0,0,1,11.6-37.9A27.37,27.37,0,0,0,201.6,705.2Z" fill="#b0bfde"/>
  <path d="M188.2,768a198,198,0,0,1-18.9-41,99,99,0,0,1,11.6-37.9,27.13,27.13,0,0,0,20.5,15.8,16.92,16.92,0,0,0,5.5,0A53.05,53.05,0,0,1,190,694.7a63.58,63.58,0,0,1-8-8.4l1.8-3a62.34,62.34,0,0,0,4.1-7.1,27.57,27.57,0,0,0,12.2,10.2,34,34,0,0,1-10.2-14.1c5.4-10.2,11.8-25.1,16.6-34.5A24.61,24.61,0,0,0,224.1,648h1.8a30.64,30.64,0,0,1-16.8-16v-.6c2.3-4,5-9.4,8-15.3a27.2,27.2,0,0,1,4.9,1.3,43.77,43.77,0,0,0-4.2-2.8c2.3-4.5,4.7-9.2,7.1-13.4A27.83,27.83,0,0,0,244,615.8a37.27,37.27,0,0,1-13.5-22.1c1.2-1.7,2.4-3.2,3.4-4.4A69.32,69.32,0,0,1,266.3,575c-14.8,80.2-42.6,148.2-77.4,192.8h-.7Z" fill="#d1dbea"/>
  <path d="M165.1,713.2a100.83,100.83,0,0,0,55.6,67,104.28,104.28,0,0,0-41-152.8A100.58,100.58,0,0,0,165.1,713.2Z" fill="#3d7aa8"/>
  <polygon points="218.1 774.7 181.7 639.7 182.9 639.4 219.2 774.3 218.1 774.7" fill="#0c1153"/>
  <rect x="184.35" y="657.16" width="22" height="1.2" transform="translate(-472.34 499.66) rotate(-60.14)" fill="#0c1153"/>
  <rect x="189.33" y="678.05" width="27" height="1.2" transform="translate(-486.71 516.64) rotate(-60.14)" fill="#0c1153"/>
  <rect x="190.99" y="693.18" width="45.3" height="1.2" transform="translate(-494.4 533.61) rotate(-60.14)" fill="#0c1153"/>
  <rect x="197.54" y="716.64" width="44" height="1.2" transform="translate(-511.78 550.5) rotate(-60.14)" fill="#0c1153"/>
  <rect x="208.6" y="748.23" width="24.5" height="1.2" transform="translate(-538.52 567.51) rotate(-60.14)" fill="#0c1153"/>
  <rect x="178.73" y="648.08" width="1.2" height="22" transform="translate(-481.39 485.9) rotate(-60.09)" fill="#0c1153"/>
  <rect x="179.59" y="661.99" width="1.2" height="34.3" transform="translate(-498.37 496.8) rotate(-60.1)" fill="#0c1153"/>
  <rect x="181.99" y="678.55" width="1.2" height="42.9" transform="translate(-515.25 509.34) rotate(-60.1)" fill="#0c1153"/>
  <rect x="187.77" y="700.66" width="1.2" height="44" transform="translate(-532.05 525.88) rotate(-60.11)" fill="#0c1153"/>
  <rect x="196.59" y="728.44" width="1.2" height="37.9" transform="translate(-548.98 545.66) rotate(-60.09)" fill="#0c1153"/>
  <path d="M125.8,760.8a100.57,100.57,0,0,0,83,26.2A101,101,0,0,0,174,707a100.57,100.57,0,0,0-83-26.2A101,101,0,0,0,125.8,760.8Z" fill="#3bb6d5"/>
  <polygon points="203.7 783.8 100 690 100.9 689 204.5 782.8 203.7 783.8" fill="#0c1153"/>
  <polygon points="121.3 708.8 120.2 686.9 121.4 686.8 122.6 708.7 121.3 708.8" fill="#0c1153"/>
  <polygon points="139 724.8 137.6 697.8 138.9 697.7 140.2 724.8 139 724.8" fill="#0c1153"/>
  <polygon points="156.7 740.8 154.4 695.6 155.6 695.5 157.9 740.8 156.7 740.8" fill="#0c1153"/>
  <polygon points="174.3 756.8 172.1 712.8 173.4 712.8 175.6 756.7 174.3 756.8" fill="#0c1153"/>
  <polygon points="192 772.8 190.8 748.3 192 748.2 193.2 772.7 192 772.8" fill="#0c1153"/>
  <polygon points="97.7 708.8 97.6 707.6 119.5 706.5 119.6 707.7 97.7 708.8" fill="#0c1153"/>
  <polygon points="103 725.4 103 724.2 137.2 722.5 137.2 723.8 103 725.4" fill="#0c1153"/>
  <polygon points="112.1 741.9 112 740.7 154.8 738.5 154.9 739.7 112.1 741.9" fill="#0c1153"/>
  <polygon points="128.6 758 128.5 756.6 172.5 754.5 172.6 755.7 128.6 758" fill="#0c1153"/>
  <polygon points="152.5 773.6 152.5 772.4 190.3 770.5 190.3 771.7 152.5 773.6" fill="#0c1153"/>
  <path d="M116.8,819.2l.8,10.2a113,113,0,0,1-21.9,7.4,86.58,86.58,0,0,1-5.6-20.5c-4.8-35.6,42.2-68,83.4-44.6a87.22,87.22,0,0,1-34.7,45.8,104.42,104.42,0,0,1-15,9.3Z" fill="#3bb6d5"/>
  <path d="M96.4,836.2H95.2c0-.6,13.9-62.5,78.3-65.9v1.2C110.1,774.7,96.6,835.6,96.4,836.2Z" fill="#fff"/>
  <rect x="90.81" y="818.48" width="12" height="1.3" transform="translate(-182.62 43.07) rotate(-13.06)" fill="#fff"/>
  <polygon points="90.1 809.3 89.9 807.9 109.3 805.5 109.5 806.7 90.1 809.3" fill="#fff"/>
  <polygon points="92.4 797.5 92.4 796.2 117.7 794.9 117.8 796.2 92.4 797.5" fill="#fff"/>
  <rect x="112.65" y="771.64" width="1.2" height="28" transform="translate(-680.08 812.02) rotate(-83.7)" fill="#fff"/>
  <rect x="121.74" y="764.13" width="1.2" height="27.6" transform="translate(-663.01 719.84) rotate(-76.83)" fill="#fff"/>
  <rect x="135.15" y="757.46" width="1.2" height="27.2" transform="translate(-639.06 658.66) rotate(-71.76)" fill="#fff"/>
  <polygon points="161.4 772.6 138.6 763.5 139.2 762.4 161.9 771.4 161.4 772.6" fill="#fff"/>
  <rect x="104.53" y="817.5" width="1.2" height="15.7" transform="translate(-290.85 93.61) rotate(-21.16)" fill="#fff"/>
  <polygon points="116 829.4 108.7 806.3 110 805.9 117.2 829 116 829.4" fill="#fff"/>
  <polygon points="127.9 823.2 117.1 795.8 118.3 795.3 129 822.7 127.9 823.2" fill="#fff"/>
  <rect x="132.84" y="785.68" width="1.2" height="31.1" transform="translate(-320.93 127.94) rotate(-24.56)" fill="#fff"/>
  <rect x="141.9" y="779.5" width="1.2" height="29.8" transform="translate(-339.7 147.21) rotate(-26.52)" fill="#fff"/>
  <rect x="153.23" y="774.2" width="1.2" height="24.5" transform="translate(-312.42 134.7) rotate(-24.51)" fill="#fff"/>
  <rect x="163.64" y="771.59" width="1.3" height="15.3" transform="translate(-245.85 96.61) rotate(-19.09)" fill="#fff"/>
  <path d="M904.8,751.3l5.2,14.3a156.48,156.48,0,0,0,34.8-3.7,131.65,131.65,0,0,0-5.5-32.3c-16-52.2-101.1-66.9-143.4-8.7a132.05,132.05,0,0,0,76.7,41,184.54,184.54,0,0,0,26.6,3.5Z" fill="#0c1153"/>
  <path d="M944,762.5c-.6-.7-58-76-147.3-41l-.7-1.7c90.7-36,148.9,41,149.5,41Z" fill="#3bb6d5"/>
  <rect x="923.43" y="738.3" width="18.2" height="1.9" transform="translate(-129.61 202.63) rotate(-11.6)" fill="#3bb6d5"/>
  <polygon points="907.4 730.2 906.9 728.4 935 719.6 935.5 721.4 907.4 730.2" fill="#3bb6d5"/>
  <rect x="887.55" y="712.09" width="38.5" height="1.9" transform="translate(-199.96 387.78) rotate(-21.8)" fill="#3bb6d5"/>
  <rect x="867.76" y="702.45" width="42.3" height="1.9" transform="translate(-235.5 559.7) rotate(-31.07)" fill="#3bb6d5"/>
  <rect x="850.38" y="697.97" width="41.9" height="1.9" transform="translate(-245.55 682.1) rotate(-37.87)" fill="#3bb6d5"/>
  <rect x="827.79" y="696.93" width="41.4" height="1.9" transform="translate(-248.12 764.41) rotate(-42.91)" fill="#3bb6d5"/>
  <polygon points="814.3 716.2 812.9 714.9 838.5 688 839.9 689.4 814.3 716.2" fill="#3bb6d5"/>
  <rect x="924.04" y="741.23" width="1.9" height="23.7" transform="translate(-45.1 59.06) rotate(-3.57)" fill="#3bb6d5"/>
  <polygon points="910.8 765.8 906.1 729.4 908.1 729.1 912.8 765.5 910.8 765.8" fill="#3bb6d5"/>
  <rect x="889.2" y="720.01" width="1.9" height="44.5" transform="translate(-40.65 51.66) rotate(-3.25)" fill="#3bb6d5"/>
  <polygon points="869.9 761.7 869.8 714.4 871.7 714.4 871.8 761.7 869.9 761.7" fill="#3bb6d5"/>
  <rect x="831.42" y="733.26" width="45.2" height="1.9" transform="translate(93.78 1565.14) rotate(-88.23)" fill="#3bb6d5"/>
  <rect x="832.61" y="712.01" width="1.9" height="37.2" transform="translate(-3.05 3.5) rotate(-0.24)" fill="#3bb6d5"/>
  <rect x="813.63" y="715.53" width="1.9" height="23.1" transform="translate(-67.51 83.57) rotate(-5.64)" fill="#3bb6d5"/>
  <polygon points="838.1 493.6 836.3 754.7 669.9 772.7 671.7 511.7 838.1 493.6" fill="#d1dbea"/>
  <polygon points="669.9 772.7 621.1 735.4 622.9 474.3 671.7 511.7 669.9 772.7" fill="#aebddc"/>
  <polygon points="671.7 511.7 622.9 474.3 789.3 456.3 838.1 493.6 671.7 511.7" fill="#e4efff"/>
  <path d="M756.6,778.2c3.7-5.3,0-10.2-17.2-13.1a138.92,138.92,0,0,0-50.2.9c34.4-15.4,74.6-37.2,38.6-41a116.84,116.84,0,0,0-48.1,12.2c22-16.8,34.2-30.7,21.3-33.8s-37.1,10.2-63.8,28.6c15.4-15.3,24.5-29.2,18.1-35.7s-17.2,0-30.7,11.1c.9-10.2-3.1-16.1-12.6-15.2s-16.6,12.2-22.2,25.8a45.22,45.22,0,0,0-53.2-29.7c-27.1,6.8-7.2,58.7,4.1,83.5Z" fill="#3bb6d5"/>
  <path d="M624.6,757l-1.1-.5c42.1-97.2,92.1-131.9,92.6-131.9l.7,1C716.8,625.7,666.1,660.3,624.6,757Z" fill="#3bb6d5"/>
  <path d="M619.2,745H618a298,298,0,0,1,49-108.7l1,.7A298.53,298.53,0,0,0,619.2,745Z" fill="#3bb6d5"/>
  <path d="M641.3,753.4h-1.2a87,87,0,0,1,54.5-68.1v1.3A85.49,85.49,0,0,0,641.3,753.4Z" fill="#3bb6d5"/>
  <path d="M723,617.6c7.6,6.9,11.6,14.8,8.8,18s-11.3,0-18.8-6.9-11.6-14.3-8.8-17.9S715.4,610.7,723,617.6Z" fill="#3bb6d5"/>
  <path d="M719.6,621.4c2.5,2.3,3.7,4.8,2.8,5.7s-3.5,0-5.9-2.2-3.7-4.7-2.8-5.7S716.8,619.2,719.6,621.4Z" fill="#0c1153"/>
  <path d="M670.3,633.3c3.2,2.8,4.8,6.1,3.6,7.5s-4.6,0-7.8-2.9-4.8-6.1-3.7-7.5S667.1,630.5,670.3,633.3Z" fill="#3bb6d5"/>
  <path d="M668.9,634.9c.9.9,1.5,1.9,1.1,2.4s-1.4,0-2.5-.8-1.5-2-1.2-2.5S667.9,634,668.9,634.9Z" fill="#0c1153"/>
  <path d="M698.2,683.5c3,4.6,3.9,9.3,2,10.2s-5.8-1.5-8.8-6.1-3.9-9.3-2-10.2S695.2,678.9,698.2,683.5Z" fill="#3bb6d5"/>
  <path d="M696.3,685.1c1,1.4,1.2,3,.7,3.3s-1.8,0-2.9-1.9-1.2-3-.6-3.3S694.9,683.5,696.3,685.1Z" fill="#0c1153"/>
  <path d="M657.1,738.9h0c-2-.8-3.3-2.4-2.9-3.4s2.5-1.1,4.4,0h.5c0-2.2,0-4,1.5-4.2s2.3,1.5,2.5,3.7v.5h0c1.7-1.3,3.7-1.6,4.3-.7s0,2.7-1.8,4h0c2,.8,3.3,2.4,2.9,3.4s-2.5,1.2-4.4,0h0c0,2.2,0,4-1.5,4.2s-2.3-1.5-2.5-3.7h0c-1.7,1.3-3.7,1.6-4.3.7S655.4,740.2,657.1,738.9Zm4.8,1.7a2.16,2.16,0,1,0-2.4-1.9v.1A2.28,2.28,0,0,0,661.9,740.6Z" fill="#fff"/>
  <polygon points="607.4 620.6 607 787.1 440.6 805.2 441 638.7 607.4 620.6" fill="#d1dbea"/>
  <polygon points="440.6 805.2 391.8 767.9 392.2 601.4 441 638.7 440.6 805.2" fill="#aebddc"/>
  <polygon points="441 638.7 392.2 601.4 558.6 583.4 607.4 620.6 441 638.7" fill="#e4efff"/>
  <polygon points="377.5 736.8 378.6 815.6 212.2 833.6 211.1 754.8 377.5 736.8" fill="#d1dbea"/>
  <polygon points="212.2 833.6 163.3 796.4 162.3 717.5 211.1 754.8 212.2 833.6" fill="#aebddc"/>
  <polygon points="211.1 754.8 162.3 717.5 328.7 699.4 377.5 736.8 211.1 754.8" fill="#e4efff"/>
  <path d="M805.2,468.8v7.3l.7,6.1,2.3,1.8,1.8.7v1l5.8,4.8a11.24,11.24,0,0,0,7,1.1c1,0,0-3,0-3.4a58.52,58.52,0,0,0-4.5-5.4l-4.3-6.5-4.8-8.2Z" fill="#161711"/>
  <path d="M748,475.6l1.2,3V482l-.6,5.1h-2.9l-2-.7-1.4.8a103.2,103.2,0,0,1-11.1.6c-4.9,0-7.6-1-8.5-2.2s1.9-1.3,2.7-1.4a27.48,27.48,0,0,0,9.3-2.6l4-3.8,1-2.8Z" fill="#161711"/>
  <path d="M743.6,215l3-36.2s10.2,25.5,6.7,36.6S743.6,215,743.6,215Z" fill="#e9d6b8"/>
  <polygon points="773.6 247.2 756.9 225.3 755.9 217.9 757.8 218.1 755.8 210.9 741.8 210.8 740.6 222.2 742.5 222.6 742.8 229.4 745.4 231 754.9 263.8 773.6 247.2" fill="#b0bfde"/>
  <path d="M805.6,250.7,770,243s-30.7,4.5-31.4,67c0,0,46.9,15.4,47.1,3.6A153.69,153.69,0,0,1,805.6,250.7Z" fill="#d1dbea"/>
  <path d="M834.5,237.8l29.7-16.7a137,137,0,0,1-23.7,26.7C833.2,251.7,834.5,237.8,834.5,237.8Z" fill="#e9d6b8"/>
  <polygon points="795.4 251.9 828.3 236.6 827.6 235.3 835.8 233.4 845.8 247.4 836.8 253.2 835.6 250.8 833.2 247.2 835.2 251.5 826.6 259.3 819.3 260.1 792.2 279 795.4 251.9" fill="#d1dbea"/>
  <polygon points="785.8 312.8 816 476.5 804.5 476 787.3 423.1 783.4 407.2 763 344.8 761 311.3 785.8 312.8" fill="#163f59"/>
  <polygon points="750.1 476.4 753.5 410.4 759.3 380.6 766.9 339.7 764.3 311.5 738.9 309.8 739.5 356.9 736.5 399.3 735.7 415.2 736.4 478.5 750.1 476.4" fill="#163f59"/>
  <path d="M858.4,225.3s-1.8-5.9-.8-7.4l5-6.6,1.1-1.1s2,.5-.7,3.9,0,2.5,0,2.5l3.7-2.2,4.7-2.3,1.9-1.3s1-.8,1.4-.8.7,1,.7,1l-7.2,5.5,8.1-3.4h1.4c.4,0,0,.6,0,.6l-8.2,5.9,4.3-1.2h1.4v.6l-16,7.2Z" fill="#e9d6b8"/>
  <path d="M869,217.3l5.8-2a4.49,4.49,0,0,1,1.9-.5.79.79,0,0,1,.8.8h0l-8.4,3.9Z" fill="#e9d6b8"/>
  <path d="M747.5,186.7s5.1-3.5,5.2-5.2,0-8.3,0-8.3v-1.6s-1.9-.8-1.8,3.5-1.1,2.3-1.1,2.3l-1.5-4-2.4-4.6-.7-2.3a3.48,3.48,0,0,0-.7-1.5c-.9-.6-1.1,0-1.1,0l2.3,8.8-4.3-7.6s-.7-.8-1.2-.7,0,.5,0,.5l2.8,9.7-2.6-3.7s-.7-.9-1.3-.7h-.7l8.1,15.5Z" fill="#e9d6b8"/>
  <path d="M744,174.1l-3.3-5.2a4.81,4.81,0,0,0-1.2-1.6.91.91,0,0,0-1.2,0l4.2,8.3Z" fill="#e9d6b8"/>
  <path d="M781.1,234.6a61.53,61.53,0,0,0-2.9,12.7c.9,3.9,11.7,3.1,11.8.8a57.39,57.39,0,0,1,5.1-12.6C796,234.3,782.2,229.9,781.1,234.6Z" fill="#e9d6b8"/>
  <path d="M788.5,232.7a27.22,27.22,0,0,1,6.3,2l-3.6,5.8a13.25,13.25,0,0,1-10.2,4.3,6.69,6.69,0,0,1-2,0,84.18,84.18,0,0,1,2.4-10.2C781.6,232.4,784.8,232.2,788.5,232.7Z" fill="#e2c59c"/>
  <path d="M786.3,213.1l-11.1,19.1s-2.7,4.5-1.3,6.2a13.14,13.14,0,0,0,9,3.6,12.73,12.73,0,0,0,10.2-4.4c2.8-3.8,8.1-13.9,8.1-13.9s0-4-6.8-5.6C787.8,216.5,786.3,213.1,786.3,213.1Z" fill="#e9d6b8"/>
  <path d="M789.7,208.9a3.74,3.74,0,0,0-3.9.8,4.21,4.21,0,0,0,0,5.2A53,53,0,0,0,796,221a7.45,7.45,0,0,0,5.1,0c1.1-.7-.7-4.7-2.9-5.2C793.1,214.4,793.3,209.8,789.7,208.9Z" fill="#194866"/>
  <path d="M799.2,219.9l-4.8,8.2-1.8,4.8.9.5,1.8,1s9.4-9.6,7.5-12.5S799.7,219.2,799.2,219.9Z" fill="#194866"/>
  <path d="M793.2,234.3a1.43,1.43,0,0,0,.4,2,.1.1,0,0,1,.1.1h.7a1.46,1.46,0,0,0,2-.5l1.7-3.1a1.52,1.52,0,0,0,0-2h-.7a1.52,1.52,0,0,0-2,0Z" fill="#e9d6b8"/>
  <path d="M779.7,249.1a114.25,114.25,0,0,0-26.9,51.8,7.37,7.37,0,0,0,1.2,4.8l4.2-2.3A434.6,434.6,0,0,1,779.7,249.1Z" fill="#3bb6d5"/>
  <polygon points="780 249 779.1 254.2 790.6 249.1 790.4 247.7 780 249" fill="#b0bfde"/>
  <polygon points="778.4 245.8 775.2 250.9 779.9 248.9 778.4 245.8" fill="#b0bfde"/>
  <polygon points="317.6 820.3 321.3 798.8 330.6 800.8 325.1 825.1 317.6 820.3" fill="#e9d6b8"/>
  <path d="M331.7,843.5c0,1.2-2.3,2.8-2.3,2.8a93.06,93.06,0,0,1-14.3-12.2,33.77,33.77,0,0,1-2.2-5.2v-1.8c0-.3-.8,0-1-.9a13.1,13.1,0,0,1-.6-2.7c3.5-5.6,6.5-6.5,6.5-6.5s1.9,6,2.6,4.4c1.1-3.5,7.3,0,6.8,2.3C325.1,831.9,332.3,839.7,331.7,843.5Z" fill="#f0ca67"/>
  <path d="M331.1,844.8a123,123,0,0,1-12.3-9.2,28.85,28.85,0,0,1-5.6-14.6l-1.7,2.5a26.14,26.14,0,0,0,.6,2.7,1.07,1.07,0,0,1,1,.9,5.1,5.1,0,0,1,0,1.8,19.84,19.84,0,0,0,2.2,5.2,103.62,103.62,0,0,0,14.3,12.2C330.1,845.8,330.6,845.4,331.1,844.8Z" fill="#fff"/>
  <path d="M329,834.8a1.56,1.56,0,0,1-1.1-.6,27.62,27.62,0,0,0-3.7-3.1c-.6,0-1-.9-.9-1.1s.8,0,1.5,0a26.73,26.73,0,0,1,3.6,3.1C328.9,833.8,329.2,834.5,329,834.8Z" fill="#fff"/>
  <path d="M328.3,831.6H327a32.82,32.82,0,0,0-3.8-2.7c-.7,0-1.1-.8-1-1s.9,0,1.5,0a32.82,32.82,0,0,1,3.8,2.7C327.7,830.8,328.4,831.4,328.3,831.6Z" fill="#fff"/>
  <path d="M327.7,828.7h-1.4a26.48,26.48,0,0,0-4-2.4c-.7,0-1.2-.8-1-1a1.53,1.53,0,0,1,1.6,0,24.18,24.18,0,0,1,4,2.5A.81.81,0,0,1,327.7,828.7Z" fill="#fff"/>
  <path d="M210.8,831.9c0-3.9,4.6-6.2,4.6-6.2l8.9-9,5,2.7-10.9,18.3C218.5,837.6,211,835.9,210.8,831.9Z" fill="#e9d6b8"/>
  <path d="M215.8,825.7a12.19,12.19,0,0,0-2.7,0,4.38,4.38,0,0,0-3.3,2.3c-1.5,3.6-1.2,6.3-4,15.1s-1.7,11.5,2,14.5,7.3.8,8.1-3.5c1.2-6.2.9-10.2,1.8-13.1a10,10,0,0,1,3.2-5.3c1.3-1.7-5.3-4.3-7.2-2.7C212,834.6,213,826.7,215.8,825.7Z" fill="#f0ca67"/>
  <path d="M211.6,827.1c-1.5,3.6-1.3,6.3-4,15.1s-1.8,11.5,2,14.5a4.53,4.53,0,0,0,4.8,1.1,4.39,4.39,0,0,1-6.1.5l-.5-.5c-3.8-3.1-4.8-5.8-2-14.5s2.5-11.5,4-15.1a3.24,3.24,0,0,1,2-1.8Z" fill="#fff"/>
  <path d="M215.6,825.7Z" fill="#e9d6b8"/>
  <path d="M210.3,844.5s0,.6,1.1.8a17.61,17.61,0,0,1,4.4,1.5h1.5c.1,0,0-.9-1.1-1.2a22.53,22.53,0,0,0-4.4-1.4C211.1,844.1,210.4,844.2,210.3,844.5Z" fill="#fff"/>
  <path d="M211.1,841.8s0,.6,1,.8a20.72,20.72,0,0,1,4.2,1.4h1.4a1.67,1.67,0,0,0-1.1-1.2,19.85,19.85,0,0,0-4.1-1.4A1.5,1.5,0,0,0,211.1,841.8Z" fill="#fff"/>
  <path d="M211.6,839s0,.6,1.2.8a22.63,22.63,0,0,1,4.3,1.7h1.3c.1,0,0-.9-1.1-1.3a22.26,22.26,0,0,0-4.3-1.6C212.3,838.5,211.7,838.7,211.6,839Z" fill="#fff"/>
  <path d="M271.4,684l73.8,35.8L342,738.6a99.64,99.64,0,0,1-43.9-6.9C276.5,722.7,271.4,684,271.4,684Z" fill="#163f59"/>
  <path d="M342.1,720.2,271.4,684a93.22,93.22,0,0,0,1.7,9.2,56.57,56.57,0,0,0,30.7,23.9,111.69,111.69,0,0,0,34.5,4Z" fill="#194866"/>
  <path d="M317.4,815.8c-.9-18.1-.9-36.3,0-54.5a136.25,136.25,0,0,1,7.9-30.1l19-3.2-16.7,89.7Z" fill="#163f59"/>
  <path d="M283.1,667.5l12.2,30.7-10.8,58.4L256,768s3.9-28.2,5.4-52.6A101.71,101.71,0,0,1,283.1,667.5Z" fill="#194866"/>
  <path d="M213,824.7c9.3-16.8,25.5-48.7,33-58.4,13.8-17.8,17.5-16.4,17.5-16.4l21,7L223,832.6Z" fill="#194866"/>
  <path d="M372.9,556.5l-1.9-5.4a20.38,20.38,0,0,0-2.9-5.2,5.79,5.79,0,0,0-7.8-1.2,8.21,8.21,0,0,0-3.8,3.1s0,4.1,3.6,4.8,9.2,6.5,10.2,5.4A7.64,7.64,0,0,1,372.9,556.5Z" fill="#e9d6b8"/>
  <polygon points="356.7 549.5 353.7 543.7 351.2 538.2 352.6 538.1 354.8 541.8 361.1 545.6 359.6 546.8 356.7 549.5" fill="#e9d6b8"/>
  <polygon points="357.1 541 356.4 535.8 357.6 535.2 359.2 540.4 362.7 544.9 359.6 546.8 357.1 541" fill="#e9d6b8"/>
  <polygon points="359.9 535.1 360.1 539.3 360 542.2 361.7 544.9 364.6 544.1 362.7 541.3 361.4 535.8 359.9 535.1" fill="#e9d6b8"/>
  <polygon points="364.1 535.8 363.3 543.4 364.6 545.2 366.7 544.8 365.8 541.2 365.1 536.7 364.1 535.8" fill="#e9d6b8"/>
  <path d="M371.3,560.7a7.56,7.56,0,0,0-5-3.9s-8.8-2-10.2-3.8a14.54,14.54,0,0,0-4.3-3.9s-.9-1.5,2.7-.8a19.44,19.44,0,0,1,4.2,1.7,20.57,20.57,0,0,1,7,0c3,1.5,6.3,9,6.3,9S371.5,561,371.3,560.7Z" fill="#e9d6b8"/>
  <path d="M358.4,584.5a23.85,23.85,0,0,0,8.8-32.2c-3.3-6.1,1.9-1.3,6.6,3.7a36.25,36.25,0,0,1,4.3,35.1c-6.6,12.3-10.2,16.4-15.9,16.1S358.4,584.5,358.4,584.5Z" fill="#e9d6b8"/>
  <path d="M324,623s3.8,6.9,32.3-4.8c17.8-7.4,19.1-16.4,19.1-16.4l4-8.3-20.5-11.6-6.5,8.5.8,1.3a4.5,4.5,0,0,1-2.7,2.7,109.29,109.29,0,0,0-26,12.5C307.2,617.5,323.2,621.5,324,623Z" fill="#f0ca67"/>
  <path d="M357.2,600.6l-3.9-4.5-1.4-2.2a4.58,4.58,0,0,0,1.9-2.6l2.3,3.9,3.5,4.1,6.3,3.8Z" fill="#f4da80"/>
  <path d="M301.2,703.6l-41-4.2,23.6-59.1s12.2-26.8,29.8-29.7a22.3,22.3,0,0,1,18.5,7.3s11.6,14-21.4,61.4C306.3,686.1,307.7,696.3,301.2,703.6Z" fill="#f4da80"/>
  <path d="M413,623c1.5-1.3,1.8-8,1.8-8l-6-3.3-4.3,2.7.9,3.6,3.8,5.4S412,623.9,413,623Z" fill="#e9d6b8"/>
  <path d="M332.4,628.3l37.1,13.4,1,2.8,2.5-1.4,2.5,15.5L363,665l-50.3-19.3A31.76,31.76,0,0,1,300.8,623C299.8,611.7,329.3,627.4,332.4,628.3Z" fill="#f0ca67"/>
  <path d="M372,644.1l39.6-25.7a6.6,6.6,0,0,1,0,5.5,105.37,105.37,0,0,1-20.5,23.7,121.2,121.2,0,0,1-18.4,11.6Z" fill="#e9d6b8"/>
  <path d="M366.7,659.3s2.4-10.2,3.3-16v1.2l2.5-1.4.8,5.3v7.8l-3,1.1-.1-1.9Z" fill="#f4da80"/>
  <path d="M328.6,600.3a29.09,29.09,0,0,1,2.4,17.9c-1.3,0-11.5-1.7-11.7-4.1a53.29,53.29,0,0,0-5-12.7C313.3,600.1,326.5,595.8,328.6,600.3Z" fill="#e9d6b8"/>
  <path d="M321.6,598.3a30.11,30.11,0,0,0-6.6,2.2,57.93,57.93,0,0,0,3.8,5.8,12.87,12.87,0,0,0,10.2,4.4,8.09,8.09,0,0,0,2.2,0c0-1.5-1-4.5-2.6-10.2C327.7,598,324.8,597.8,321.6,598.3Z" fill="#e9d6b8"/>
  <path d="M323,578.4l11.6,19.4s2.8,4.7,1.4,6.3a13.84,13.84,0,0,1-9.2,3.8,12.65,12.65,0,0,1-10.2-4.3,156.68,156.68,0,0,1-8.5-14.2s-.5-4.1,6.9-5.7C322.3,581.9,323,578.4,323,578.4Z" fill="#e9d6b8"/>
  <path d="M319.6,574a4.41,4.41,0,0,1,4,.8,4.5,4.5,0,0,1,0,5.4,54,54,0,0,1-10.2,6.3,7.74,7.74,0,0,1-5.2,0c-1.2-.7.6-4.8,2.9-5.3C316.1,579.7,315.9,575,319.6,574Z" fill="#194866"/>
  <path d="M309.9,585.3l5,8.4,2,4.8-1,.6-1.8,1s-10.2-10.2-7.8-12.7S309.4,584.7,309.9,585.3Z" fill="#194866"/>
  <path d="M311.6,596.9l.8-.5a1.58,1.58,0,0,1,2.1.5l1.8,3.1a1.58,1.58,0,0,1-.5,2.1l-.8.5a1.58,1.58,0,0,1-2.1-.5l-1.8-3.1A1.58,1.58,0,0,1,311.6,596.9Z" fill="#e9d6b8"/>
  <polygon points="330.4 617.9 328 622.9 315.1 612.1 317.8 609.1 330.4 617.9" fill="#f0ca67"/>
  <polygon points="333.5 615.1 334.4 613.8 334.5 618.1 332.6 622.8 330.4 617.9 333.5 615.1" fill="#f0ca67"/>
  <path d="M471,397l19.8-41,13.7-1.4L482.3,404s-2.4,12.8-4.3,13.5C462.2,423.4,471,397,471,397Z" fill="#163f59"/>
  <path d="M571.3,355.3l32.9-31.9s9.2-.6-25.9,38.5C571.2,370.2,571.3,355.3,571.3,355.3Z" fill="#e9d6b8"/>
  <path d="M598.2,331.7s-1.7-7.2,0-8.8,6.6-7.5,6.6-7.5l1.4-1.3s2.5.8-1.1,4.6-.8,2.9-.8,2.9l4.6-2.2,5.5-1.9,2.5-1.3s1.3-.9,1.8-.8.7,1.1.7,1.1l-9,6,10.2-3.3h1.6c.3,0,0,.8,0,.8L612,326.3l5.2-1.1h1.7l.5.8-19.8,7.3Z" fill="#e9d6b8"/>
  <path d="M612.1,321.8l7.1-1.9a5.28,5.28,0,0,1,2.5,0c1,0,.8,1,.8,1l-10.2,4Z" fill="#e9d6b8"/>
  <polygon points="536.3 356.8 533.8 379 580 369.3 589.6 355.8 600.4 338.5 595.3 329.9 572 355.5 536.3 356.8" fill="#194866"/>
  <path d="M510.9,333.8c0,1.8,0,3.8-1.3,4.1h0a3.51,3.51,0,0,1-3.4-2.8l-.7-2.4c-.6-1.9,0-3.8,1.3-4.2h0a3.58,3.58,0,0,1,3.4,2.8Z" fill="#e9d6b8"/>
  <path d="M523.8,351.4c0,3.5-1.8,6.6-3.8,6.8h-5.6c-2,0-4-3.1-4.5-6.5-.7-5.7-1.3-11.5-2-17.2a16.29,16.29,0,0,1,3.5-12.7,7.52,7.52,0,0,1,8.6,0,16.31,16.31,0,0,1,4.5,12.2Z" fill="#e2c59c"/>
  <path d="M526.3,342.4c-.8,3.3-2,4.1-4.4,4.5l-5.1.9c-2.4,0-4.9-2.9-5.6-5.7-1.1-4.7-3.9-8.5-5-13.3a7.11,7.11,0,0,1,3.9-7.7c3.1-1.9,6.7-5.9,10.2-4.9a10.88,10.88,0,0,1,6,9.7C526.2,330.9,526.3,337.9,526.3,342.4Z" fill="#e9d6b8"/>
  <path d="M504.3,325.2l1.8,3.6s3.6-4.3,6-7.9a28.74,28.74,0,0,1,11.3-1.2c1.5,0,1.8,2.2,2.3,3.3,1.4,4-.8-6.9-.8-6.9a11.41,11.41,0,0,0-8.5-5.2c-3,0-4.3,1.7-5.3,4,0,.5,3.3-1,2.7-1a29,29,0,0,0-3.6,3.4,22.61,22.61,0,0,1-1.7,3.5C505.8,324.7,504.3,325.2,504.3,325.2Z" fill="#163f59"/>
  <polygon points="517 326.9 519.4 327.1 518.8 328.5 520.7 329.1 522.9 336.2 519.8 336.6 519.1 332.2 517.1 330.1 512.4 329.8 517 326.9" fill="#e2c59c"/>
  <path d="M557.7,589.8v7.6l.8,6.3,2.4,1.8,1.8.7v1.1l6.2,4.9a12.18,12.18,0,0,0,7.3,1.1c1,0,0-3.1-.5-3.6a51.11,51.11,0,0,0-4.8-5.5l-4.5-6.8-5.1-8.4Z" fill="#161711"/>
  <path d="M498.1,597.6l1.3,3.2.6,3.5-.6,5.3h-3l-2.2-.6-1.5.8s-8.4.9-11.5.8c-5.2,0-8-1-8.9-2.2s1.9-1.5,2.8-1.5a29.9,29.9,0,0,0,10.2-2.9l4.1-3.9,1-3Z" fill="#161711"/>
  <path d="M540.8,359.6,523,351.9l-6,3.7-11-2.8a143.69,143.69,0,0,1-13.9,7.6c-1.3,0,0,71.7,0,71.7l32.3,10.2,12.3-8.1Z" fill="#d1dbea"/>
  <polygon points="535.4 430.6 568.3 597.9 556.4 597.6 538.2 543.6 534.1 527.5 514.9 463.7 510 429.5 535.4 430.6" fill="#163f59"/>
  <polygon points="500.8 598.7 503.4 531 509 500.4 516.3 458.3 513.3 429.6 487.5 427.9 488.6 476.4 485.9 519.8 485.4 536.3 486.7 601.1 500.8 598.7" fill="#163f59"/>
  <polygon points="528.1 436.2 525.9 368.4 523.4 352.5 542.5 357.8 543.7 440.2 528.1 436.2" fill="#194866"/>
  <polygon points="509.3 351.9 504.4 361.5 501.4 431.8 500.9 437.1 479.6 434.9 486.9 369.4 490.7 356 509.3 351.9" fill="#194866"/>
  <polygon points="529.7 404.2 535.2 376.6 531.9 371.5 534.8 358.3 531.9 354.1 523 351.1 525.9 382.1 527.7 422.8 529.7 404.2" fill="#163f59"/>
  <path d="M509.3,351.7a46.54,46.54,0,0,1-4.5,10.2l-2.7,51.2-6.3-37.8,1.6-6.8-1.6-4.3,5.3-10.2Z" fill="#163f59"/>
  <polyline points="517.4 355.3 518.5 358.3 517.6 359 515.8 358.9 514.9 358.2 515.8 355.2 517.3 355.2" fill="#3bb6d5"/>
  <polygon points="517.4 355.2 521.8 360.1 525.2 351.8 524.1 349.7 517.4 355.2" fill="#b0bfde"/>
  <polygon points="509.4 349.6 515.8 355.2 511.6 360.3 508 352.2 509.4 349.6" fill="#b0bfde"/>
  <path d="M516.8,356.2a6.81,6.81,0,0,0-1.6,3.3,119.06,119.06,0,0,0,1.7,58.4,7.61,7.61,0,0,0,3.6,3.7l3-4.1a516.44,516.44,0,0,1-5.7-58.2C517.7,358.4,516.8,357.3,516.8,356.2Z" fill="#3bb6d5"/>
  <path d="M516.5,396.7s-1.5-6,0-7.5l5.2-6.3,1.1-1.1s2,.6-.8,3.9,0,2.5,0,2.5l3.7-2,4.7-2.2,2-1.1s1-.8,1.4-.8.7,1,.7,1l-7.4,5.3,8.2-3.1h1.4c.3,0,0,.6,0,.6l-8.3,5.6,4.4-1.1h1.3v.6l-16.2,6.7Z" fill="#e9d6b8"/>
  <path d="M527.4,389.1l5.8-1.8a6.05,6.05,0,0,1,1.9,0,.79.79,0,0,1,.8.8v.1l-8.5,3.6Z" fill="#e9d6b8"/>
  <polygon points="474.8 401.3 515.1 387.2 521.2 401 477.4 417.6 474.8 401.3" fill="#163f59"/>
  <path d="M694,246.3c0,8.4-17,120.8-71.7,64.9-28.4-28.8,36.6-25.3,39.1-50.4.8-8.4,6-38.7,16.4-15.3C680.9,253.8,694,237.9,694,246.3Z" fill="#ad5c49"/>
  <path d="M655.4,248.1s2.5-1.2-4.4-13.7a278.32,278.32,0,0,0-19.9-29.6l13.1,30.7S649.7,246.4,655.4,248.1Z" fill="#e9d6b8"/>
  <path d="M667.4,264l-18.9-35-.8-2-10.2,4.7s15,26.8,16,28.1a136.33,136.33,0,0,1,7.8,14.6c.7,2.2,5.6,12.5,12.5,8.7S667.4,264,667.4,264Z" fill="#f0ca67"/>
  <path d="M637.7,214.2a23,23,0,0,1-2.4-12.6,56.1,56.1,0,0,1,0-5.8c-1.7,2.6-.7,4.5-.9,5.8s0,.9-1.3-1.1,0-4.3,0-6.3a6.15,6.15,0,0,0,0-2.7,20.48,20.48,0,0,0-1.7,5.3,34.65,34.65,0,0,0-.6,7.9,32.12,32.12,0,0,0,4.3,8.2C637.1,215.9,640.1,218.5,637.7,214.2Z" fill="#e9d6b8"/>
  <path d="M708.1,246.5s-2.4-1.3,4.4-13.8a274,274,0,0,1,19.7-29.4l-13,30.1S713.6,244.6,708.1,246.5Z" fill="#e9d6b8"/>
  <path d="M696.3,262.2l18.4-34.9.8-2.2,10.8,4.7s-15,26.8-16,28.1-6.6,12.7-7.8,14.6c-4,6.6-4,10.2-4.9,9.3C692.1,276.5,696.3,262.2,696.3,262.2Z" fill="#f0ca67"/>
  <path d="M725.5,212.5a23,23,0,0,0,2.4-12.6,27.15,27.15,0,0,0,0-5.7c1.7,2.5.7,4.4,1,5.7s0,.9,1.2-1.1,0-4.2,0-6.2a6.15,6.15,0,0,1,0-2.7,24.88,24.88,0,0,1,1.6,5.3,34.65,34.65,0,0,1,.6,7.9,27.43,27.43,0,0,1-4.3,8.1C726.2,214.1,723.1,216.8,725.5,212.5Z" fill="#e9d6b8"/>
  <path d="M672.1,465.6l-.6,18.7a73.74,73.74,0,0,1-10.2,9.2c-2.7,1.2-2.3,0-2-.6a41.74,41.74,0,0,0,5.4-7.8c.8-2.6,0-18.5,0-19.4S672.1,465.6,672.1,465.6Z" fill="#e9d6b8"/>
  <path d="M702.8,467.3a135,135,0,0,1,3.2,14c0,3.6,0,4.7.7,5.8s8.4,10.2,10.2,10.2a1.58,1.58,0,0,0,1.6-1.6v-.1a56.1,56.1,0,0,1-6.8-9.2,142.62,142.62,0,0,1-1.5-18.4C710.1,466,702.8,467.3,702.8,467.3Z" fill="#e9d6b8"/>
  <path d="M683.5,335l-4.4,67.6-5.9,65.3H663s1.1-66,0-71.7-6.2-51.2,0-62.8S683.5,335,683.5,335Z" fill="#3bb6d5"/>
  <path d="M679.5,347.4s-9.1-11.7-15.1-6.9c-.6,2.8-1.1,6-1.6,9.6,3.9,36.2,7.2,39,14.1,43l2.4-20.5Z" fill="#35a3bf"/>
  <path d="M698.1,327.7a431.87,431.87,0,0,1,7.8,55.4c.6,19.5,4.3,76.3,4.3,76.3v10.2h-7.7l-14.2-72.3-13.5-66.6Z" fill="#3bb6d5"/>
  <path d="M693.9,244.2a14.4,14.4,0,1,1,0-.2Z" fill="#ad5c49"/>
  <path d="M677.1,248.5a29.12,29.12,0,0,1,0,10.2c-1.1,2.2-8.9,7.2-10.2,8.7A11.4,11.4,0,0,0,678,279.1a8.58,8.58,0,0,0,2.3-.2c11.2-1.7,15.8-7.2,15.8-8.9s5.2-4.7,1.5-6-9.5-2.2-11.2-3.9a12.51,12.51,0,0,1-2.5-10.2C685.5,244.6,677.1,248.5,677.1,248.5Z" fill="#e9d6b8"/>
  <path d="M683.1,233.1h-.7a14.78,14.78,0,0,1-6.2,8.3l-2.6,1.6v2.8a7.29,7.29,0,0,0,7.5,6.8,7.05,7.05,0,0,0,7.4-6.7h0v-6.1A16.58,16.58,0,0,1,683.1,233.1Z" fill="#e9d6b8"/>
  <path d="M695.7,328.4l-33.9,9.5,5.3-29.6-1.5-34.8a50.62,50.62,0,0,0,12.8,2.9,40.15,40.15,0,0,0,12.3-2.9Z" fill="#194866"/>
  <path d="M661.2,271.6s2.8,19.4,3.2,27.1c.8,14-12.2,28.2-12.9,32.7s4.1,8.8,4.1,8.8a17.9,17.9,0,0,0,4.5,1.9c1.6,0,4.6-1.2,5.7-6.5s5.3-28.9,6.1-32.9c1.1-5.7,0-22.5,1.1-24.7a38.17,38.17,0,0,0,3.8-10.9,20.14,20.14,0,0,0-3.8-4.9C673.1,262.3,663,267.4,661.2,271.6Z" fill="#f0ca67"/>
  <path d="M692.7,261.7a58.52,58.52,0,0,0-5.8,2.5c-1.3.8-.7,7.8,0,8.7s1.8,22.8,2,28.1.8,25.6,1.7,29.4,0,8.1,4.4,9.5,11.5-5.4,11.5-5.4a116.15,116.15,0,0,1-6.7-15.3,78,78,0,0,1-3.6-16.6,90.48,90.48,0,0,1,2.4-22c1.4-5.9,2-14,2.5-15S694.1,262.2,692.7,261.7Z" fill="#f0ca67"/>
  <path d="M671.6,483.3a4.88,4.88,0,0,1,0,2.4,17.07,17.07,0,0,1-1.2,3.8l-1.9.8V489a41,41,0,0,1-5.3,4.9c-1.7,1.1-5.4,3.9-7.5,3.1-.3-.2-.6-.5-.6-.8l3.9-3.8a5.68,5.68,0,0,0,3.1,0,67.62,67.62,0,0,0,6.6-5.4A26.29,26.29,0,0,0,671.6,483.3Z" fill="#3bb6d5"/>
  <path d="M705.9,484.7a9.64,9.64,0,0,0,0,2.4,13.89,13.89,0,0,0,1,2.6l1.7.8a31.73,31.73,0,0,0,4.9,4.8c1.6,1.1,5,3.9,7,3.1s.6-.8.6-.8l-3.7-3.8h-2.9a50.39,50.39,0,0,1-5.9-5.4C707.7,487.1,706.8,485.9,705.9,484.7Z" fill="#3bb6d5"/>
  <polygon points="440.3 589.8 443 611.6 429.2 615 421.8 615.1 436.1 608.3 432.5 589.6 440.3 589.8" fill="#e9d6b8"/>
  <path d="M448.4,483.1s-28.6,51.2-28.6,54.7,11.8,54.7,11.8,54.7l10.2,1.4c-2.4-16.4-4-33-4.8-49.6,1.5-6,37.1-47.4,31.9-60.2C463.9,471.3,448.4,483.1,448.4,483.1Z" fill="#854638"/>
  <path d="M443.2,615.2h-3l-1.5-2-12.3,3.5h-7.8a6.45,6.45,0,0,1,1.1-1.6,45.33,45.33,0,0,1,7.1-3.2s0,1.7.7,2a66.48,66.48,0,0,0,11.5-2.8,23.84,23.84,0,0,0,4.5-2.3A22.77,22.77,0,0,1,443.2,615.2Z" fill="#163f59"/>
  <path d="M371.1,527.1a.73.73,0,0,0-1.1,0,10.16,10.16,0,0,0-1.6,3.7,41.66,41.66,0,0,0-.8,4.9,5.17,5.17,0,0,0,1.1-3.2A17.5,17.5,0,0,1,371.1,527.1Z" fill="#e2c59c"/>
  <path d="M370.9,527.6a6,6,0,0,0-.7,5.2,3.39,3.39,0,0,1,0,3.1,18.16,18.16,0,0,1-.6-4.6,6.6,6.6,0,0,1,0-2.8C370,525.8,373.6,524.5,370.9,527.6Z" fill="#e2c59c"/>
  <path d="M402.4,490.7c-2.3,8.5-23.1,27-23.1,27s-9.6,4.7,13.3-24.5C399.4,484.6,402.9,488.7,402.4,490.7Z" fill="#e9d6b8"/>
  <path d="M370.5,529.2h0v-2.8a30.66,30.66,0,0,1,3.8-5.6,69.76,69.76,0,0,0,5.5-8.6c.6-.7,4.8,0,4.8,0s-5,5.8-6.9,8.4a59.13,59.13,0,0,0-3.9,8l-1.6,2.7s-.8-.7.8-3.6a.76.76,0,0,0-.6-.8Z" fill="#e9d6b8"/>
  <path d="M371.2,525.9a8.3,8.3,0,0,0-1.3,3.4c0,.8,1,4.9,1,4.9a5.11,5.11,0,0,0,0-3A15.94,15.94,0,0,1,371.2,525.9Z" fill="#e9d6b8"/>
  <path d="M383.8,501.8l8.1-12.6s8.7-31.6,12.4-33.5a50,50,0,0,1,12-2.9l-11.1,38.3-7.1,15.5Z" fill="#b0bfde"/>
  <polygon points="489.4 598.4 494.9 621.7 481.1 625 473.7 625.3 488 618.3 480.9 597 489.4 598.4" fill="#e9d6b8"/>
  <path d="M495.1,625.3h-2.9l-1.5-2-11.2,3h-9.4a1.7,1.7,0,0,1,0-1,39.62,39.62,0,0,1,8.3-3.2s0,2.2.6,2.4a77.83,77.83,0,0,0,11.5-3c3.5-1.3,4.3-2.4,4.5-2.2A17.19,17.19,0,0,1,495.1,625.3Z" fill="#163f59"/>
  <path d="M476.6,484.5C482.1,500,472,550,472,550a153.17,153.17,0,0,1,9.6,21.5c3.5,12.5,10.2,28.7,10.2,28.7H480.2s-25.1-45.7-26.1-51.8-5.2-57,1.8-69.2S474.3,478.2,476.6,484.5Z" fill="#ad5c49"/>
  <path d="M396.6,452.9a15.37,15.37,0,1,0-3.8-21.4l-.6.9A15.13,15.13,0,0,0,396.6,452.9Z" fill="#163f59"/>
  <path d="M414.1,464.4a16.9,16.9,0,0,0,19.5-27.3,15.76,15.76,0,0,0-22.2,2.4,16.65,16.65,0,0,0-1.8,2.8A16,16,0,0,0,414.1,464.4Z" fill="#163f59"/>
  <path d="M380.7,457a11.65,11.65,0,0,0,16-3.6h0l-3.1-5.3a11.65,11.65,0,0,0-3.6-16h0l-3.6-2a11.71,11.71,0,0,0-16,3.5l-1.5,2.5a11.62,11.62,0,0,0,3.5,16Z" fill="#163f59"/>
  <path d="M368.6,443.9a14,14,0,0,0,3,1.5,15.4,15.4,0,0,0,17.5-1.5,31.1,31.1,0,0,0,8.4,3.5,18.44,18.44,0,0,0,7.4,0c4.8,2,1.7,21,1.2,20.5a49.71,49.71,0,0,0-7.2-11.9,11.34,11.34,0,0,0-8.8-3.6,9,9,0,0,0-6.3,4,1.46,1.46,0,0,1-.9.6,22.88,22.88,0,0,1-2.3-1l-8-5.1A8.55,8.55,0,0,1,368.6,443.9Z" fill="#e9d6b8"/>
  <path d="M454.8,503.1s-11.6,4.4-14.7,2.5-3.3-10.2-10.2-16.7a40.9,40.9,0,0,0-12.2-8.8c-2.7-1.1-6.2-1.7-7.9-5a35.16,35.16,0,0,1-4.3-10.2,12.59,12.59,0,0,0,0-6.1C405.5,458,454.8,503.1,454.8,503.1Z" fill="#7dccd0"/>
  <path d="M456.4,507.6s-16.1-15.3-24.9-22.7-23.7-23-25.7-24.9a11.77,11.77,0,0,1-2.8-4.5s-1.7-7.2,1.8-8.5a20.06,20.06,0,0,1,15-1.7c23,4.3,57.7,32.9,57.1,38.8a50.9,50.9,0,0,1-6,2.5C470.9,486.5,456.2,495.9,456.4,507.6Z" fill="#d1dbea"/>
  <polygon points="402.8 446.5 402.5 450.4 402.4 455.9 406.8 458.1 405.7 446.6 402.8 446.5" fill="#b0bfde"/>
  <path d="M411.8,522.2a26.57,26.57,0,0,1-7.4,11.6,44.52,44.52,0,0,1-3.8,4.8c3.1-.8,3.7-3.1,4.8-4s.7-.6,0,1.8-3.1,3.3-4.8,4.7a4.81,4.81,0,0,0-1.7,2.3,33,33,0,0,0,5.1-3.1,30,30,0,0,0,6-5.8,29.55,29.55,0,0,0,2.7-9.2C413.4,522.2,413,517.6,411.8,522.2Z" fill="#e9d6b8"/>
  <path d="M422,481.3s-2.7-.5-5.9,14.1a301.09,301.09,0,0,0-4.8,36.8l10.2-33.1S425.1,485.9,422,481.3Z" fill="#e9d6b8"/>
  <path d="M413.9,490.2s3.1-13.6,10.2-11.5c4.1,1.2,5,4.6,4,8.7-1.8,7.6-4.3,16.2-4.3,16.2l-12.2,2Z" fill="#b0bfde"/>
  <path d="M414.5,482.5l-7.8-29.1s0-3.9,3-4.9,6.2-.8,7.7,1.1c2.8,4.1,2,1.7,6.9,18.3s6.5,21.5-.7,24S414.5,482.5,414.5,482.5Z" fill="#b0bfde"/>
  <path d="M408.5,536.7a40.69,40.69,0,0,1-3.7,5.5l-4,2.3a6.43,6.43,0,0,1,2.2-2.7C404.9,540.2,406.7,538.5,408.5,536.7Z" fill="#e2c59c"/>
</svg>
