<svg xmlns="http://www.w3.org/2000/svg" width="1024" height="1024" viewBox="0 0 1024 1024">
  <title>tokens</title>
  <rect width="1024" height="1024" fill="none"/>
  <polygon points="913.7 792.5 906.8 795.6 900.4 793.7 896.8 773.8 909 773.6 913.7 792.5" fill="#593446"/>
  <polygon points="966.2 787.6 968.5 801.2 953 803 951.6 784.5 966.2 787.6" fill="#593446"/>
  <path d="M913.2,801.9H903v-3.2l-4.5,3.3H872s0-4.3,18.1-5.3c4.6,0,7.7-6.6,7.7-6.6s2.3-2.2,5.7,2.6c.9,1.2,10.2-1.3,10.2-1.3A22,22,0,0,1,913.2,801.9Z" fill="#081832"/>
  <path d="M968.4,810H958.2v-3.2l-4.5,3.4-26.5,1.2s0-4.4,18.1-5.9c4.6,0,7.6-6.9,7.6-6.9s2.2-2.2,5.7,2.6c.9,1.2,10.2-1.6,10.2-1.6A22.88,22.88,0,0,1,968.4,810Z" fill="#081832"/>
  <path d="M960.3,530.4a245.7,245.7,0,0,0-31.3-9.6,123.69,123.69,0,0,0-35.3-4.2c-6,2.3-5.8,33.4-3.3,59.4a167,167,0,0,1,0,30s48.5,26.3,52.1,26a20.41,20.41,0,0,0,12.8-17.6c-.9-8,4.6-55.7,11-62.9a12.52,12.52,0,0,0-.1-17.8A13.85,13.85,0,0,0,960.3,530.4Z" fill="#d1dbea"/>
  <path d="M899,787.3l16,.5-3.6-175.1-28.9-8.5S882.6,716.2,899,787.3Z" fill="#163f59"/>
  <polygon points="942.8 612.9 949.8 703 972.8 796.2 950.1 796.8 899 609.7 921 612.9 942.8 612.9" fill="#194866"/>
  <path d="M925.4,616s-6.1-2-8.2-2.6a101.45,101.45,0,0,1-30-16.2s-1.4,11.6-3.1,29.6l35.6,26.5Z" fill="#194866"/>
  <path d="M945.3,496.7a29.78,29.78,0,0,0-.7,22.7c4.8,11.6-27.9.6-27.9.6s11.1-9.4-5.3-18.3C902.7,497.4,942.9,491.5,945.3,496.7Z" fill="#e9d6b8"/>
  <path d="M904,607.1c-1.9-.7-3.5-2.5-5.5-3.2-3.5-41,11.8-58.4,27.4-86.1l4.6,2.2C917.4,544.2,901.1,565.6,904,607.1Z" fill="#b0bfde"/>
  <path d="M944.1,486c0-8.4-13-21.6-17.3-18.9a16.65,16.65,0,0,0-4.5,3.9c-1.1,1.8-2.4,3.6-3.5,5.2a7.46,7.46,0,0,0-.7,1.2h0L907.9,499a1.29,1.29,0,0,0,.6,1.7l14.2,6.6a79.7,79.7,0,0,0,13.5-3.8,24.06,24.06,0,0,0,5.9-2.6C944.2,499.7,944.3,493.6,944.1,486Z" fill="#e9d6b8"/>
  <polygon points="926.7 474.5 927.7 485.8 928.8 496.9 918.5 492.2 909.7 485.6 917.5 481 926.7 474.5" fill="#e9d6b8"/>
  <path d="M943.4,502.3l8.2-16.9a26.24,26.24,0,0,0-11.4-13.6,27.63,27.63,0,0,0-13.6-6.1l-5.5.6v5.9l12.1,4.4-5.6,6.6-1.3,9.4L929,494h0s1.4-5,5.1-6,4.8,3,2.4,5.5-2.6,3.7-2.6,3.7l2.5,4.9Z" fill="#194866"/>
  <polygon points="928.2 516 925.9 521 918.4 526.1 914.7 517.8 920.1 511.8 928.2 516" fill="#b0bfde"/>
  <polygon points="946 518.8 946.8 525.6 932.2 530 925.9 521 928.2 516 946 518.8" fill="#b0bfde"/>
  <path d="M968.5,530.9l-22-7.1s-24.9,45.8-14.6,67.8a57.46,57.46,0,0,1,4.3,43.2,69.06,69.06,0,0,0,1.4,25.6l28.1-26.7a20.12,20.12,0,0,0,2-14.8,85.25,85.25,0,0,1-8.4-41.9A162.06,162.06,0,0,1,968.5,530.9Z" fill="#163f59"/>
  <path d="M886.9,640.9s7.6-72.5,10.2-83a287.47,287.47,0,0,1,18-40L893,514.6s-14.1,34.8-12.4,44.1c.5,2.9,1.3,24.1,2.7,32.6.7,4.7-10.2,32.3-6.3,35.9A63.78,63.78,0,0,1,886.9,640.9Z" fill="#163f59"/>
  <path d="M893.8,568.5a166.6,166.6,0,0,1,7.3-20.5c5.1-12.2,13.6-30.7,13.6-30.7l-13.6-.9-7.2,13.3,4.8,3.8-7.8,8A242.21,242.21,0,0,0,893.8,568.5Z" fill="#194866"/>
  <path d="M960.1,528.6l-7,18-9.4,6.5,3.5,9.6s-8.4,9.5-10.2,42.9a75.39,75.39,0,0,1,0-59.3c5.1-11.7,9.4-22.4,9.4-22.4Z" fill="#194866"/>
  <path d="M836.8,499.9l-5.1-10.2-6.7-2.8-4.2,7.6-2,5.9,1.9,4.2a22.53,22.53,0,0,0,13.2,2.9C839,505.3,836.8,499.9,836.8,499.9Z" fill="#e9d6b8"/>
  <path d="M906,522.2s-16.6,31.9-27.6,30.7-5.5-7.8-3.3-14a160.56,160.56,0,0,1,15.2-23C892.1,513.4,896.6,515.7,906,522.2Z" fill="#163f59"/>
  <path d="M879.7,539.5s4.4,8.9,0,13.9-17.2-2.8-29.3-17.4a264,264,0,0,1-20.5-28.5l7.1-8.4C837,499.2,879.4,534.1,879.7,539.5Z" fill="#194866"/>
  <path d="M869.6,511.3a53.5,53.5,0,0,1-24.4,70.9A52,52,0,0,1,778.1,552c-.1-.2-.1-.3-.2-.5a53.46,53.46,0,0,1,24.3-70.9,52.24,52.24,0,0,1,67.3,30.5A.31.31,0,0,0,869.6,511.3Z" fill="#f4901e"/>
  <path d="M872.8,507.2a53.5,53.5,0,0,1-24.4,70.9,52.2,52.2,0,0,1-67.2-30.4c0-.1-.1-.2-.1-.3a53.5,53.5,0,0,1,24.4-70.9,52.22,52.22,0,0,1,67.2,30.6Z" fill="#ffc400"/>
  <path d="M797,543.2a41,41,0,0,1,18.6-54.1,35.32,35.32,0,0,1,25-1.1,35.85,35.85,0,0,0-27.3,0,40.94,40.94,0,0,0-18.6,54.7,43.74,43.74,0,0,0,26.4,24.8A43.89,43.89,0,0,1,797,543.2Z" fill="#f4901e"/>
  <path d="M855,577a29.46,29.46,0,0,1-5.1-3.6c-1.7-1.4-3.6.7-3.6.7l-2.7,1.2v-4.2l1.3-10.2,7.8-5.7a6,6,0,0,1,3.1,1.5,73.63,73.63,0,0,1,3.4,9.3Z" fill="#e9d6b8"/>
  <path d="M971.8,533.9a37.75,37.75,0,0,1-7.8,30.7c-4,4.5-36.7,28.8-47.8,29.9s-10.9-7.9-8.7-13.3,10.2-9.5,21.1-19.7,18.6-18.3,23.8-22.2C959.5,533.7,967.3,525.6,971.8,533.9Z" fill="#194866"/>
  <path d="M922.7,589.3s0,5.6-8.8,5.7a57.53,57.53,0,0,1-10.2-2c-15.8-4.4-50.3-15-50.3-15l7.4-14.2s33.2,6.3,40.3,8S924.5,572.6,922.7,589.3Z" fill="#194866"/>
  <path d="M661,439.2l-4.2-5.6a22.49,22.49,0,0,0-5-5.2,6.9,6.9,0,0,0-9.5,1.2,11.72,11.72,0,0,0-3.4,4.8s1.7,4.7,5.8,4.4,12.9,4.4,13.7,2.9A6.92,6.92,0,0,1,661,439.2Z" fill="#e9d6b8"/>
  <polygon points="639.6 436.3 634.3 430.7 629.5 425.2 631 424.7 634.9 428 643.4 430.3 642.2 432.3 639.6 436.3" fill="#e9d6b8"/>
  <polygon points="637.1 426.4 634.6 420.5 635.9 419.5 639.5 424.9 645 429 642.2 432.3 637.1 426.4" fill="#e9d6b8"/>
  <polygon points="638.6 418.6 640.3 423.4 641 426.8 643.9 429.3 647.1 427.4 643.9 424.9 640.5 418.8 638.6 418.6" fill="#e9d6b8"/>
  <polygon points="643.7 417.9 645.3 427 647.5 428.6 649.7 427.5 647.5 423.7 645.1 418.7 643.7 417.9" fill="#e9d6b8"/>
  <path d="M660.5,444.5a9.64,9.64,0,0,0-7.2-2.8s-11.1,0-12.7-1.2a21.75,21.75,0,0,0-6.3-3.1s-1.6-1.4,2.9-1.7a16.31,16.31,0,0,1,5.4.6,32.6,32.6,0,0,1,8.1-2.3c4,.7,10.2,8.4,10.2,8.4S660.9,444.9,660.5,444.5Z" fill="#e9d6b8"/>
  <path d="M602.2,516s2.5,12.5,40.1,5.2,34.5-15.4,34.5-15.4l.6-9.6-19.6-21-10.2,8.7.5,2.2a5.49,5.49,0,0,1-4.1,2.4,259,259,0,0,1-35.1,4.4C598.7,493.3,601.7,513.5,602.2,516Z" fill="#d1dbea"/>
  <path d="M608.7,492.9H610a50.07,50.07,0,0,0-1.5,14.4s.8,12.8,39.1,10.2c5.7-.4,11.4-1,17-1.9a131.84,131.84,0,0,1-22.2,5.8c-37.7,7.3-40.1-5.2-40.1-5.2C601.7,513.5,598.7,493.3,608.7,492.9Z" fill="#b0bfde"/>
  <path d="M657.9,477.9a28.72,28.72,0,0,0-5.5-40c-6.6-5.3,1.4-2.4,9,.9A44.72,44.72,0,0,1,683,476c-1.5,16.9-3.6,23.1-10.2,25.5S657.9,477.9,657.9,477.9Z" fill="#e9d6b8"/>
  <path d="M648.9,497.6l-3.1-6.6-.7-2.7a6.18,6.18,0,0,0,3.2-2.3l1.3,5.2,2.8,5.9,6.1,6.5Z" fill="#b0bfde"/>
  <path d="M614.4,593.9l-44.6-.9-18.5-62.2s-12.1-37.7,11-38.1,49.8-.5,49.8-.5S627.8,505.9,614.4,593.9Z" fill="#d1dbea"/>
  <path d="M574.1,445.6s23.6,21.9,20.5,29.5a16.63,16.63,0,0,0-4.2,7.4,19.89,19.89,0,0,0,1.2,6.8s1.1,3.4,1.2,4.2c.6,3.9-1.4,7.1-3.1,6.8a124.39,124.39,0,0,1-12-4.7c-1,0-1.9-.6-2.3-2.3a27.58,27.58,0,0,0-4-11c-5.1-4.8-19.4-9.5-15.4-23.6A38.31,38.31,0,0,1,574.1,445.6Z" fill="#e9d6b8"/>
  <path d="M589.9,501a126.69,126.69,0,0,1,14.2,73.5,8.39,8.39,0,0,1-4,5.2l-5-4.3A464.6,464.6,0,0,0,589.9,501Z" fill="#163f59"/>
  <polygon points="589.2 500.1 588.1 507.8 574 496.1 575.6 493.2 589.2 500.1" fill="#b0bfde"/>
  <polygon points="593.3 495.2 593 492.5 595.6 497 595.7 505.2 590 500.3 593.3 495.2" fill="#b0bfde"/>
  <path d="M593.9,474.7h-3.2a15.25,15.25,0,0,0-3.7.8,38.47,38.47,0,0,1-6.6,2.8,70.26,70.26,0,0,1-10.2.9L575,481a9.37,9.37,0,0,0,6.6,0c7.6-2.6,7.6-1.8,8.3-2.5C591.2,477.2,592.5,475.9,593.9,474.7Z" fill="#e2c59c"/>
  <path d="M582.5,455.8l6.1,3.4c.9.5,2.2.9,2.3,1.3a8.84,8.84,0,0,1,0,2.3c0,.6,0,2.8-2.3,1.1A78,78,0,0,1,582.5,455.8Z" fill="#e9d6b8"/>
  <path d="M554.9,458.1a21.38,21.38,0,0,1,22.4-13.9,5.52,5.52,0,0,1,0,4.7,14.29,14.29,0,0,0-12.8,4.3c-5.4,5.9,1.3,5.2,1.2,8s0,4.3,0,4.3l2,4.2-1.4,1.5s-4.1-2.9-3.9-1.1,3,4.5,3.4,4.9.9.9.8,1.2a53.71,53.71,0,0,1,4.9,5.8c-.8.6-2.6,0-5-1.4A26.48,26.48,0,0,1,554.9,458.1Z" fill="#163f59"/>
  <path d="M562.2,469.6a3.32,3.32,0,0,0,0,4.7,3.2,3.2,0,0,0,4.6,0" fill="#e9d6b8"/>
  <path d="M586.3,464.3a29.72,29.72,0,0,1,2.7-3.5s1.1-.7,1.4,0,.5,1.4,0,3.5S589.6,463.5,586.3,464.3Z" fill="#e2c59c"/>
  <rect x="602" y="786" width="11.5" height="17.5" fill="#593446"/>
  <rect x="520.4" y="786" width="9.3" height="17.5" fill="#593446"/>
  <path d="M602.6,809H611v-2.6l3.4,2.6h21.2s0-3.5-14.5-4c-3.7,0-6.2-5.1-6.2-5.1s-1.8-1.6-4.6,2.2c-.7,1-8.4-.9-8.4-.9A17.45,17.45,0,0,0,602.6,809Z" fill="#081832"/>
  <path d="M613.2,592.6l1,95-20.5,11.1a136,136,0,0,1-13.5-51.2C579.1,618.2,613.2,592.6,613.2,592.6Z" fill="#163f59"/>
  <path d="M613.2,592.6,569,696.3l-8,11.1-30.7,86.5-11.5-3.3s-4.2-47.5,7.8-67.8,18.1-31.3,18.1-31.3l26.6-102.4Z" fill="#194866"/>
  <path d="M601,796c-3.6-18.6-11.6-51.2-11.9-63.1a163.78,163.78,0,0,1,3.1-37.6l22.2-7.7V796Z" fill="#163f59"/>
  <path d="M530.9,811.8h-5.6l-1.8-1.7-.7-4.4-1.8,1.8-5.9-5.9a17.06,17.06,0,0,1,5.1-5.9s4.1,6.8,5.3,6.6c4.7-.8,4.8,1.6,4.8,1.6S528.5,809,530.9,811.8Z" fill="#081832"/>
  <path d="M525.1,805.4a6.7,6.7,0,0,0,4.3,2.6c14.3,0,14.6,4,14.6,4H525.1v-6.6Z" fill="#081832"/>
  <path d="M589.5,557.2a52.45,52.45,0,0,1-23.9,69.5,51.18,51.18,0,0,1-65.9-30c-.1-.2-.2-.5-.3-.7a52.37,52.37,0,0,1,24-69.5,51.09,51.09,0,0,1,65.8,30.1C589.4,556.8,589.4,557,589.5,557.2Z" fill="#f4901e"/>
  <path d="M592.7,553a52.37,52.37,0,0,1-24,69.5,51.09,51.09,0,0,1-65.8-30.1c-.1-.2-.1-.4-.2-.6a52.45,52.45,0,0,1,23.9-69.5,51.18,51.18,0,0,1,65.9,30A2.54,2.54,0,0,0,592.7,553Z" fill="#ffc400"/>
  <path d="M518.3,588.5a40.11,40.11,0,0,1,18.2-53.1,35,35,0,0,1,24.5-1.1,35.51,35.51,0,0,0-26.8,0A40.11,40.11,0,0,0,516,587.4a42.8,42.8,0,0,0,25.9,24.4A43.45,43.45,0,0,1,518.3,588.5Z" fill="#f4901e"/>
  <path d="M538.4,625.6c1.2,2.3,9,4.4,9,4.4l5.4-6.1h-3.5l-2.5-5.6-7.6,2.9C539.3,621.1,537.7,624.6,538.4,625.6Z" fill="#e9d6b8"/>
  <path d="M554.5,529l-26.1,39.9h-3.5l1,3.4L507,570.9l-4.2-16.4,36.7-54a38.74,38.74,0,0,1,30.1-7.8C583.1,495.2,556.5,525.6,554.5,529Z" fill="#d1dbea"/>
  <path d="M524.9,571.4l19.4,53.9a7.91,7.91,0,0,1-6.7-.6A124.68,124.68,0,0,1,515.4,594a148.71,148.71,0,0,1-8.6-25.1Z" fill="#e9d6b8"/>
  <path d="M508.5,560.9s11.7,5.6,17.9,8.3h-1.5l1,3.4h-6.6l-9.2-2.2v-3.9H513Z" fill="#b0bfde"/>
  <path d="M686.1,424.8c-22.2,19.9-53.2,22.2-69.3,5.2s-10.9-47,11.4-66.9,53.2-22.2,69.2-5.2S708.1,404.9,686.1,424.8Z" fill="#f4901e"/>
  <path d="M682.8,419.1c-22.2,19.9-53.2,22.2-69.2,5.1s-11-46.9,11.1-66.9,53.2-22.2,69.3-5.1S705,399.4,682.8,419.1Z" fill="#ffc400"/>
  <path d="M631.3,366.6c17-15.2,41-17,52.8-4a27.58,27.58,0,0,1,7.2,20.5,27.89,27.89,0,0,0-7-22.6c-12.2-13-35.8-11.3-52.8,4a44.46,44.46,0,0,0-15.8,30.7A46.39,46.39,0,0,1,631.3,366.6Z" fill="#f4901e"/>
  <polygon points="301.1 644.1 297.3 672.6 315.3 677.3 324.9 677.6 306.3 668.3 311.2 644 301.1 644.1" fill="#e9d6b8"/>
  <path d="M292.1,504.5s36.1,67.4,36.1,71.7-16.3,71.7-16.3,71.7L298,649.6s8.5-58.7,7.1-64.7c-2-7.9-47.8-62.5-41-79.2S292.1,504.5,292.1,504.5Z" fill="#163f59"/>
  <path d="M297,677.3h3.8l2-2.7,16,4.7,10.2.8a6,6,0,0,0-1.4-2,51.39,51.39,0,0,0-9.2-4.3s0,2.3-1,2.6a82.42,82.42,0,0,1-14.8-3.8c-4.5-1.7-5.5-3.2-5.8-2.9C296.3,670,297,677.3,297,677.3Z" fill="#161711"/>
  <path d="M391.5,550.2a1,1,0,0,1,1.5,0,18.28,18.28,0,0,1,2.4,4.6c0,1.1,1.3,6.5,1.3,6.5a5.79,5.79,0,0,1-1.9-3.5A25.79,25.79,0,0,0,391.5,550.2Z" fill="#e9d6b8"/>
  <path d="M391.8,550.8a8.15,8.15,0,0,1,1.3,6.8,5.17,5.17,0,0,0,.8,4,30.53,30.53,0,0,0,.6-6,11.48,11.48,0,0,0,0-3.7C393,548.5,388.2,547,391.8,550.8Z" fill="#e9d6b8"/>
  <path d="M348.2,504.8c3.4,10.9,31.8,33.8,31.8,33.8s13,5.5-18.8-30.7C351.8,496.4,347.4,501.8,348.2,504.8Z" fill="#e9d6b8"/>
  <path d="M392.5,553l.6-.7v-3.6a45.21,45.21,0,0,0-5.3-7.1,121.36,121.36,0,0,1-7.8-11c-.9-.9-6.2.8-6.2.8s7,7.4,9.5,10.2a83.77,83.77,0,0,1,5.5,10.2l2.4,3.4s1-1-1.3-4.6c-.6-.9.7-1.1.7-1.1Z" fill="#e9d6b8"/>
  <path d="M391.4,548.7a8.64,8.64,0,0,1,1.8,4.3c0,1.2-.9,6.6-.9,6.6a6.59,6.59,0,0,1-.6-3.9A27,27,0,0,0,391.4,548.7Z" fill="#e9d6b8"/>
  <path d="M373.4,517.7l-11.5-16s-13.3-41-18.2-43a57.8,57.8,0,0,0-16-2.8l17,49.2L354.9,525Z" fill="#b0bfde"/>
  <path d="M441.7,606.3a60.93,60.93,0,1,1-63.9-57.8h0A61.65,61.65,0,0,1,441.7,606.3Z" fill="#f4901e"/>
  <path d="M437.6,605.8A60.93,60.93,0,1,1,373.7,548h0A61.52,61.52,0,0,1,437.6,605.8Z" fill="#ffc400"/>
  <path d="M332,612.9a46.51,46.51,0,0,1,73.2-40.4,47.08,47.08,0,0,0-31.4-10.2,46.51,46.51,0,0,0-24.5,84.5A46.3,46.3,0,0,1,332,612.9Z" fill="#f4901e"/>
  <path d="M380.3,452.2a23.91,23.91,0,0,1-32.3,2.4,20.52,20.52,0,0,1-7.3-28,22.63,22.63,0,0,1,1.3-2,24.12,24.12,0,0,1,32.3-2.4,20.52,20.52,0,0,1,7.3,28A13.73,13.73,0,0,1,380.3,452.2Z" fill="#163f59"/>
  <path d="M355.9,449.9a14.61,14.61,0,0,1-20.5,0,13,13,0,1,1,12.1-23.1,12.31,12.31,0,0,1,3.4,2.6,14.59,14.59,0,0,1,5.3,20A2.19,2.19,0,0,1,355.9,449.9Z" fill="#163f59"/>
  <path d="M363,464.4a19,19,0,0,1-25.2,2.3,15.75,15.75,0,0,1-5.1-21.7,14.63,14.63,0,0,1,.9-1.3,19,19,0,0,1,24.8-2.3A15.8,15.8,0,0,1,364,463C363.7,463.4,363.4,463.9,363,464.4Z" fill="#163f59"/>
  <path d="M342.3,447.9a16.23,16.23,0,0,1-22.7-1.8,16.06,16.06,0,0,1-2.2-17.4,16.23,16.23,0,0,1,22.7,1.8A16,16,0,0,1,342.3,447.9Z" fill="#163f59"/>
  <path d="M378.9,434.6a26.06,26.06,0,0,1-3.1,2.7,19.13,19.13,0,0,1-21.4,2.6,47.65,47.65,0,0,1-9.4,6.5,21.73,21.73,0,0,1-9.1,1.4c-5.3,3.8,3.4,26,3.8,24.9a63.61,63.61,0,0,1,5.6-16.4,14.65,14.65,0,0,1,10.2-6.7,12,12,0,0,1,8.8,3.2,2.44,2.44,0,0,0,1.2,0,10.77,10.77,0,0,0,2.4-1.8l8.5-8.3A10.94,10.94,0,0,0,378.9,434.6Z" fill="#e9d6b8"/>
  <path d="M344.8,420.7c-2,7.1,5.5,15.6,17,18.8s22.3,0,24.4-7-5.5-15.6-16.9-18.8S346.9,413.5,344.8,420.7Z" fill="#194866"/>
  <path d="M347.1,416.9a13.37,13.37,0,0,1,9.1,16.6,15.33,15.33,0,0,1-1.1,2.7,9.88,9.88,0,0,0-3.3-1.5,13.35,13.35,0,0,0-15.5,6.7A13.53,13.53,0,0,1,346.5,417Z" fill="#194866"/>
  <path d="M323.9,421.2a13.24,13.24,0,0,0,12.1-2.5,13.38,13.38,0,1,1-19.4,7.8,14.81,14.81,0,0,1,4.5-6.8A15.09,15.09,0,0,0,323.9,421.2Z" fill="#194866"/>
  <polygon points="236.9 654.6 229.2 685 247.2 689.6 256.8 689.9 238.2 680.6 247.9 652.9 236.9 654.6" fill="#e9d6b8"/>
  <path d="M228.9,689.6h3.8l2-2.7,14.5,4.1,12.3.6a2.39,2.39,0,0,0-.5-1.4,59.56,59.56,0,0,0-10.9-4.1s0,2.8-.8,3.1a87.7,87.7,0,0,1-15-4.1c-4.5-1.7-5.5-3.2-5.8-2.9S228.9,689.6,228.9,689.6Z" fill="#161711"/>
  <path d="M255.4,505.9c-7.6,20.5,4.9,85.8,4.9,85.8a201.59,201.59,0,0,0-12.9,27.9c-4.7,16.3-13.6,37.4-13.6,37.4l15.1.6s33.6-59.3,34.9-67.3,7.7-74.4-1.2-90.4S258.5,497.8,255.4,505.9Z" fill="#194866"/>
  <path d="M284.6,528.3s15.9,3.2,19.6,0,1.9-14.1,9.6-23.7a55.24,55.24,0,0,1,13.9-13.8c3.3-2,7.7-3.6,9.2-8.2a51.92,51.92,0,0,0,3.5-13.4,19.69,19.69,0,0,1-1.7-7.9C338.7,459.9,284.6,528.3,284.6,528.3Z" fill="#c458ad"/>
  <path d="M283.4,534.4s18-23.1,27.3-34.6,25.7-34.6,27.9-37.4A42.48,42.48,0,0,0,343,455s1.3-6.9-2.6-10.2-6.2-3.3-22.4,1.1c-29.7,8-67.7,54.4-65.7,62a58.7,58.7,0,0,0,8.3,1.9S281.2,519.2,283.4,534.4Z" fill="#d1dbea"/>
  <polygon points="342.1 442.8 342.9 447.7 343.9 455 338.3 458.4 338.3 443.2 342.1 442.8" fill="#b0bfde"/>
  <path d="M344.2,544.4A33.92,33.92,0,0,0,356,557.8c1.9,1.9,3.9,3.7,5.9,5.4-4.1,0-5.4-3.2-7.1-4.1s-1-.7,0,2.4,4.7,3.6,7.2,5.1a8.3,8.3,0,0,1,2.8,2.5,37,37,0,0,1-7.2-2.8,40.44,40.44,0,0,1-9-6.3,39.79,39.79,0,0,1-5.4-11.4C341.8,543.6,341.5,538.2,344.2,544.4Z" fill="#e9d6b8"/>
  <path d="M322.2,492.7s3.5-1.2,10.2,16.9a376,376,0,0,1,13.8,46.5l-20.5-41C325.7,515.2,319.3,499.8,322.2,492.7Z" fill="#e9d6b8"/>
  <path d="M334.6,503.1s-7-16.9-15.8-12.6c-5,2.4-5.5,7-3.4,12,4,9.4,9,20.5,9,20.5h16.1Z" fill="#b0bfde"/>
  <path d="M332.3,493.4l3.9-39.2s-1.1-4.9-4.9-5.7c-5.3-1.1-8.2,0-9.5,3.1-2.9,5.8-2.5,2.7-5.1,25.1-2.6,20.5-3.8,29.1,5.8,30.7S332.3,493.4,332.3,493.4Z" fill="#b0bfde"/>
  <path d="M351.2,561.9a50.52,50.52,0,0,0,5.9,6.3c.9,0,5.6,2.2,5.6,2.2a11,11,0,0,0-3.4-3C356.6,565.7,353.8,563.9,351.2,561.9Z" fill="#e9d6b8"/>
  <path d="M179.4,316.3a14.3,14.3,0,0,1-14.3,14.3h0l-3.6-6.9c-8,0-14.4-11.9-14.4-19.9v-5.4a14.45,14.45,0,0,1,14.4-14.3h3.6a14.3,14.3,0,0,1,14.3,14.3Z" fill="#c458ad"/>
  <path d="M149.4,298.3H147a14.05,14.05,0,0,1,0,2.9,18.8,18.8,0,0,1-16.8,18.5A19,19,0,1,0,149,298.1Z" fill="#c458ad"/>
  <path d="M174.1,289.6a28.05,28.05,0,0,1,0,4.1,19.14,19.14,0,0,1-13.2,17.1,47.92,47.92,0,0,1-2,11.2,23.55,23.55,0,0,1-5.4,7.5c-1,6.5,20.5,15.9,20.5,14.8a59.69,59.69,0,0,1-7.7-15.6,14.41,14.41,0,0,1,1.4-11.3,12.19,12.19,0,0,1,8.4-4,1.66,1.66,0,0,0,1.2-.5,15,15,0,0,0,0-3V297.6A10.48,10.48,0,0,0,174.1,289.6Z" fill="#e9d6b8"/>
  <path d="M165.2,384.4c-2.5,5.9-16.6,5.8-19,0l-13-42.9c-.5-4.5,0-11,5.3-11h15.2l6.9,3.4,6.1-3.4h3.7c5.6,0,8.3,4.9,5.9,10.9Z" fill="#dbdac6"/>
  <path d="M131.4,395.5s-2.8,1.7-11-9.1a155,155,0,0,1-10.2-15.2c-3.8-6.7,3.7-1.6,3.7-1.6l10.9,11.1C124.7,380.6,133.1,389.8,131.4,395.5Z" fill="#dbdac6"/>
  <path d="M133.9,332.6c-5.8,13.1-5,61.4-5,61.4s4.6,17.6,10.2-46.1C141.2,328.7,135.4,329.4,133.9,332.6Z" fill="#dbdac6"/>
  <path d="M176.5,334.5l13.7,41s1,2.9-1.9.9a76.21,76.21,0,0,1-21.2-31.5C161.2,331.3,172.9,333.7,176.5,334.5Z" fill="#dbdac6"/>
  <path d="M96.9,345.6l-.7,3.9v3.2l2.5,4.6a33.49,33.49,0,0,0,4.9,5.7c1.8,1.3,6.7,8,7.5,8.7s3.5-.8,3.5-.8-4.7-5.8-7.1-8.5a62.19,62.19,0,0,1-5.3-8.4,13.23,13.23,0,0,0-3.3-2.9,42.55,42.55,0,0,0,2.5,4c.7.8-.6,1-.6,1a30.84,30.84,0,0,1-3.3-5.5,6.61,6.61,0,0,1,0-2.8Z" fill="#e9d6b8"/>
  <path d="M179.6,492.1c-.6-2.4-1-4.7-1.6-7-2.3-3.5-4.3-5.5-5.9-5.5-6.3,0-10.2,21.6,3.2,62.7.7,2.4,12.1,43.6,12.1,42A593.41,593.41,0,0,0,179.6,492.1Z" fill="#e9d6b8"/>
  <path d="M141,492.5c.5-2.4,1.2-4.6,1.7-6.9,0-4.2-1.2-6.9-2.7-7.7-5.6-3-18.6,14.5-26.4,56.9,0,2.4-9.7,44.2-8.9,42.8A565.38,565.38,0,0,0,141,492.5Z" fill="#e9d6b8"/>
  <polygon points="161.3 333.4 158.4 337.3 150.9 330.8 153.6 328 161.3 333.4" fill="#c9c8b6"/>
  <polygon points="166.6 328.2 162.9 332.5 167.2 336.9 169 330.3 166.6 328.2" fill="#c9c8b6"/>
  <path d="M159,385.5l2.5-.7a105.3,105.3,0,0,0,1.6-52.3,7,7,0,0,1-2.5.5A102.67,102.67,0,0,1,159,385.5Z" fill="#c9c8b6"/>
  <path d="M182.6,504.1a24.16,24.16,0,0,0,.5-4.7c0-9.6,0-19.4-1.5-37.7a490.5,490.5,0,0,0-12.5-74.3,36.85,36.85,0,0,0-2.7-7.9c-6.9-1-13.7,3.7-20.5,5.6a69.86,69.86,0,0,0-6.3,17.6A654.19,654.19,0,0,0,126,467.5c-2,14.7-2.3,26.6-3.4,34.5C141.7,534.5,161.9,474.1,182.6,504.1Z" fill="#6855c1"/>
  <path d="M188.5,374.9s-2.9-.8,1.3-16.3a334.89,334.89,0,0,1,13.7-37.4l-6.6,36.6C197,357.8,193.8,371.7,188.5,374.9Z" fill="#e9d6b8"/>
  <path d="M199.3,333.2a30.15,30.15,0,0,0-1.2-14.6,49.42,49.42,0,0,0-1.2-6.5c2.5,2.4,2,4.7,2.7,6.1s0,1,1-1.6-1.3-4.6-2.2-6.9a5.09,5.09,0,0,1-.6-3,37.73,37.73,0,0,1,3.4,5.4,42.63,42.63,0,0,1,2.9,8.5,32.09,32.09,0,0,1-2.2,10.2C200.4,334.7,197.9,338.5,199.3,333.2Z" fill="#e9d6b8"/>
  <path d="M203.7,321.1a43.28,43.28,0,0,0,0-7.2c0-.8-2.5-4.3-2.5-4.3a7.81,7.81,0,0,0,.6,3.7A73.76,73.76,0,0,1,203.7,321.1Z" fill="#e9d6b8"/>
  <path d="M199.8,340.7a96.79,96.79,0,0,1-7.2,31.9l-1.7,4.3c-.9,2.2-4.6-.8-4.5-4.7a101.63,101.63,0,0,1,8.2-27.9c.7-1.9,1.5-3.9,2.3-5.7C197.8,339.3,198.8,339.9,199.8,340.7Z" fill="#dbdac6"/>
  <path d="M207.2,583.7a56.56,56.56,0,0,0-8.1,1.2c-3.4.7-5.7,1.7-7.4,1s-4.7-12.9-5-21.4c0-.9-5.8-3.2-5.6-2.2a143.91,143.91,0,0,1,4,24.5c.6,3.2,2,6.1,3.7,6.2a87.63,87.63,0,0,0,18.7-7C208.6,585.9,207.5,583.7,207.2,583.7Z" fill="#e9d6b8"/>
  <path d="M98.2,586.5c-1.3,8.3-.7,15.3,1.5,15.7s5-6,6.5-14.3.6-15.3-1.5-15.7S99.6,578.3,98.2,586.5Z" fill="#6855c1"/>
  <path d="M99.9,582.2c-1.9,5.9-1.1,11.8,1,12.1s4.6-4.2,5.3-10.2a35.59,35.59,0,0,1,3-15.4,13.38,13.38,0,0,0,2.4-9.3c-.5-.7-3.5,1-3.9,3.3a22.59,22.59,0,0,1-2.5,7A60.21,60.21,0,0,0,99.9,582.2Z" fill="#e9d6b8"/>
  <path d="M203.8,584.5c2.3,3.1-9,6.2-12.2,6.5a39.67,39.67,0,0,0-4.8.7h0c.8,1.8,1,4.8,4.1,3.5l19.3-8.1C225.3,580.9,203.7,584.4,203.8,584.5Z" fill="#6855c1"/>
  <path d="M87.9,434.7c-28.6-13.4-43.5-42.6-33.6-65.2s41-30,69.6-16.5,43.5,42.6,33.6,65.1S116.3,448.1,87.9,434.7Z" fill="#f4901e"/>
  <path d="M92.2,429.4C63.7,416,48.7,386.8,58.7,364.2s41-29.9,69.6-16.5,43.4,42.6,33.5,65.1S120.6,442.8,92.2,429.4Z" fill="#ffc400"/>
  <path d="M121.9,357.7c21.8,10.2,33.3,32.6,25.6,49.8a29.41,29.41,0,0,1-16.8,15.3,28.82,28.82,0,0,0,19.1-16.1c7.6-17.2-3.9-39.5-25.6-49.8a47.47,47.47,0,0,0-36.4-2.6A48,48,0,0,1,121.9,357.7Z" fill="#f4901e"/>
  <path d="M282.6,252.4a55.51,55.51,0,0,1-25.3,73.4,54,54,0,0,1-69.6-31.7c-.1-.1-.1-.3-.2-.4a55.41,55.41,0,0,1,25.2-73.4,54.19,54.19,0,0,1,69.7,31.8C282.5,252.2,282.6,252.3,282.6,252.4Z" fill="#f4901e"/>
  <path d="M285.9,248.1a55.33,55.33,0,0,1-25.3,73.4A54,54,0,0,1,191,289.8c-.1-.1-.1-.3-.2-.4A55.41,55.41,0,0,1,216,216a54,54,0,0,1,69.6,31.6C285.8,247.7,285.8,247.9,285.9,248.1Z" fill="#ffc400"/>
  <path d="M207.4,285.5a42.3,42.3,0,0,1,19.3-56,36.18,36.18,0,0,1,25.9-1.2,37.72,37.72,0,0,0-28.4,0,42.31,42.31,0,0,0-19.4,56.3,45.48,45.48,0,0,0,27.3,25.8A46,46,0,0,1,207.4,285.5Z" fill="#f4901e"/>
</svg>
