<svg xmlns="http://www.w3.org/2000/svg" viewBox="0 0 100 100"><title>acoustic-guitar</title><rect width="100" height="100" style="fill:none"/><path d="M36.06,75.91l-12-12a1.51,1.51,0,0,0-2.12,0l-4.5,4.5a1.51,1.51,0,0,0,0,2.12l12,12a1.49,1.49,0,0,0,2.12,0l4.5-4.5A1.49,1.49,0,0,0,36.06,75.91ZM30.5,79.35l-9.88-9.88L23,67.1,32.88,77Z"/><path d="M93.5,17.6a5.12,5.12,0,0,0,0-7.24L89.62,6.48a5.25,5.25,0,0,0-7.24,0l-.88.88L79.56,5.42,77.44,7.54l1.94,1.94L77,11.86,75.06,9.92,72.94,12l2,2A5.07,5.07,0,0,0,74,17a5.42,5.42,0,0,0,.08.8l-20,20-1.23-1.23a10.47,10.47,0,0,0-14.81,0h0l-4.22,4.22A19.42,19.42,0,0,1,24.45,46l-2.06.47A22.44,22.44,0,0,0,11.57,84.15l4.26,4.25A22.44,22.44,0,0,0,53.55,77.59L54,75.53a19.44,19.44,0,0,1,5.19-9.37l4.22-4.22a10.47,10.47,0,0,0,0-14.81L62.2,45.9l20-20A7,7,0,0,0,83,26,5.09,5.09,0,0,0,85.94,25l2,2,2.12-2.12L88.12,23,90.5,20.6l1.94,1.94,2.12-2.12-1.94-1.94ZM61.31,59.82,57.09,64a22.48,22.48,0,0,0-6,10.82l-.47,2A19.42,19.42,0,0,1,18,86.28L13.7,82a19.44,19.44,0,0,1,9.37-32.68l2.05-.47a22.32,22.32,0,0,0,10.82-6l4.22-4.22a7.47,7.47,0,0,1,10.57,0h0L52,39.89,44.84,47,44,47a9,9,0,1,0,9,9,7.56,7.56,0,0,0,0-.83L60.08,48l1.23,1.23A7.47,7.47,0,0,1,61.31,59.82ZM48.24,51.73a6,6,0,0,1,0,8.49h0a6.15,6.15,0,0,1-8.48,0,6,6,0,1,1,8.48-8.49Zm3.76.12A8.9,8.9,0,0,0,48.12,48L75.5,20.6l3.88,3.88ZM91.38,15.48,84.5,22.35a2.17,2.17,0,0,1-3,0l-3.88-3.88a2.12,2.12,0,0,1,0-3L84.5,8.6a2.12,2.12,0,0,1,3,0h0l3.88,3.88A2.12,2.12,0,0,1,91.38,15.48Z"/></svg>