<svg xmlns="http://www.w3.org/2000/svg" viewBox="0 0 100 100"><title>camera</title><rect width="100" height="100" style="fill:none"/><path d="M87.5,27.5v-3A1.5,1.5,0,0,0,86,23H77a1.5,1.5,0,0,0-1.5,1.5v3H70.43L64.85,16.33a1.51,1.51,0,0,0-1.35-.83h-27a1.49,1.49,0,0,0-1.34.83L29.57,27.5H24.5v-3A1.5,1.5,0,0,0,23,23H14a1.5,1.5,0,0,0-1.5,1.5v3A7.5,7.5,0,0,0,5,35V77a7.5,7.5,0,0,0,7.5,7.5h75A7.5,7.5,0,0,0,95,77V35A7.5,7.5,0,0,0,87.5,27.5Zm-9-1.5h6v1.5h-6ZM37.43,18.5H62.57l4.5,9H32.93ZM15.5,26h6v1.5h-6ZM8,42.5H32a22.35,22.35,0,0,0,0,27H8Zm42-6A19.5,19.5,0,1,1,30.5,56,19.5,19.5,0,0,1,50,36.5ZM92,77a4.49,4.49,0,0,1-4.5,4.5h-75A4.49,4.49,0,0,1,8,77V72.5H34.75a22.38,22.38,0,0,0,30.5,0H92Zm0-7.5H68a22.35,22.35,0,0,0,0-27H92Zm0-30H65.25a22.38,22.38,0,0,0-30.5,0H8V35a4.49,4.49,0,0,1,4.5-4.5h75A4.49,4.49,0,0,1,92,35Z"/><path d="M50,41.9A14.12,14.12,0,0,0,35.9,56a1.5,1.5,0,0,0,3,0A11.11,11.11,0,0,1,50,44.9a1.5,1.5,0,0,0,0-3Z"/><path d="M23,33.5H14a1.5,1.5,0,0,0,0,3h9a1.5,1.5,0,0,0,0-3Z"/></svg>