<?xml version="1.0" encoding="utf-8"?>
<!-- Generator: Adobe Illustrator 22.0.1, SVG Export Plug-In . SVG Version: 6.00 Build 0)  -->
<svg version="1.1" id="Layer_1" xmlns="http://www.w3.org/2000/svg" xmlns:xlink="http://www.w3.org/1999/xlink" x="0px" y="0px"
	 viewBox="0 0 100 100" style="enable-background:new 0 0 100 100;" xml:space="preserve">
<style type="text/css">
	.st0{fill:none;}
</style>
<title>gamepad</title>
<rect class="st0" width="100" height="100"/>
<path d="M95,61.3c-0.3-5.5-1.1-10.9-2.5-16.3c-1.1-4.7-2.8-9.3-5-13.7c-7.8-13.8-16.4-11.6-26.6-9c-3.4,0.9-6.8,1.6-10.3,2h-1.2
	c-3.5-0.4-6.9-1.1-10.3-2c-10.2-2.6-18.7-4.8-26.6,9.1c-2.3,4.3-4,8.9-5,13.7C6.2,50.5,5.3,56,5.1,61.4c-0.2,5.7,0.3,9.9,1.6,12.8
	c0.9,2.4,2.9,4.2,5.4,5c2.4,0.6,4.9,0.3,7.2-0.8c4.4-1.8,9.4-5.6,14.4-10.2c3.5-3.4,10-5,16.5-5s13,1.7,16.5,5
	c4.9,4.6,10,8.4,14.3,10.2c2.2,1,4.8,1.3,7.2,0.8c2.5-0.8,4.5-2.7,5.4-5.2C94.6,71.3,95.2,67.2,95,61.3z M89.6,72.5
	c-0.4,1.3-1.4,2.3-2.7,2.8c-1.6,0.3-3.2,0.1-4.6-0.6c-3.9-1.6-8.5-5-13-9.3C65,61.2,57.5,59.1,50,59.1s-15,2.1-19.4,6.2
	c-4.6,4.3-9.2,7.8-13,9.3c-1.8,0.7-3.4,1-4.6,0.6c-1.3-0.5-2.3-1.5-2.7-2.8C9.4,70.2,9,66.7,9.2,61.5c0.3-5.2,1-10.4,2.3-15.5
	c1-4.4,2.6-8.7,4.7-12.7c6.2-11.1,13.3-9.3,21.9-7.1c3.6,1,7.3,1.7,11,2.1h1.7c3.8-0.4,7.5-1.1,11.1-2.1c8.5-2.1,15.7-4,21.9,7.1
	c2.1,4,3.7,8.3,4.7,12.7c1.3,5.1,2,10.3,2.3,15.5C91,66.7,90.6,70.2,89.6,72.5z"/>
<path d="M39.7,39.5c-1.1-1.1-2.5-1.7-4-1.9c-0.1-1.5-0.8-2.9-1.8-3.9l-0.1-0.1c-1.2-1.2-2.9-1.9-4.6-1.9c-1.7,0-3.4,0.7-4.6,1.9
	c-1.1,1.1-1.8,2.5-1.9,4c-1.5,0.1-2.9,0.8-4,1.8l-0.1,0.1c-1.2,1.2-1.9,2.9-1.9,4.6c0,1.7,0.7,3.4,1.9,4.6c1.1,1.1,2.6,1.8,4.1,1.9
	c0.1,1.5,0.8,3,1.9,4c1.2,1.2,2.9,1.9,4.6,1.9c1.7,0,3.4-0.7,4.6-1.9c1.1-1.1,1.7-2.5,1.9-4c1.5-0.1,3-0.8,4-1.9
	c1.2-1.2,1.9-2.9,1.9-4.6C41.6,42.3,40.9,40.7,39.7,39.5z M36.9,45.7c-0.4,0.5-1,0.7-1.7,0.7h-1.6c-1.2,0-2.1,0.9-2.1,2.1
	c0,0,0,0,0,0V50c0,0.6-0.2,1.2-0.7,1.7c-0.9,0.9-2.4,0.9-3.4,0c-0.4-0.4-0.7-1.1-0.7-1.7v-1.6c0-1.2-1-2.1-2.1-2.1h0h-1.6
	c-0.6,0-1.2-0.2-1.7-0.7c-0.9-0.9-0.9-2.4,0-3.3l0.1-0.1c0.4-0.4,1-0.5,1.6-0.6h1.6c1.2,0,2.1-1,2.1-2.1V38c0-0.6,0.2-1.2,0.7-1.7
	c0.9-0.9,2.4-0.9,3.4,0l0.1,0.1c0.4,0.4,0.5,1,0.6,1.6v1.6c0,1.2,1,2.1,2.1,2.1l0,0h1.6c0.6,0,1.2,0.2,1.7,0.7
	C37.8,43.3,37.8,44.8,36.9,45.7L36.9,45.7z"/>
<circle cx="69.5" cy="36.1" r="3.9"/>
<circle cx="69.5" cy="52" r="3.9"/>
<circle cx="61.5" cy="44.1" r="3.9"/>
<circle cx="77.5" cy="44.1" r="3.9"/>
</svg>
