<?xml version="1.0" standalone="no"?>
<!DOCTYPE svg PUBLIC "-//W3C//DTD SVG 20010904//EN"
 "http://www.w3.org/TR/2001/REC-SVG-20010904/DTD/svg10.dtd">
<svg version="1.0" xmlns="http://www.w3.org/2000/svg"
 width="512.000000pt" height="512.000000pt" viewBox="0 0 512.000000 512.000000"
 preserveAspectRatio="xMidYMid meet">
<metadata>
Created by potrace 1.11, written by Peter Selinger 2001-2013
</metadata>
<g transform="translate(0.000000,512.000000) scale(0.100000,-0.100000)"
fill="#000000" stroke="none">
<path d="M2538 3869 c-16 -4 -28 -5 -28 -3 0 14 -60 -67 -63 -85 -2 -11 -12
-28 -23 -37 -10 -8 -13 -12 -5 -8 8 4 12 3 9 -2 -2 -5 -13 -26 -22 -48 -14
-29 -20 -35 -27 -25 -6 9 -7 4 -3 -15 5 -20 4 -27 -4 -22 -8 4 -10 2 -6 -7 3
-8 1 -18 -5 -22 -6 -3 -11 -15 -11 -26 0 -11 -6 -22 -13 -25 -8 -3 -14 -10
-14 -17 0 -7 -15 -43 -33 -82 -18 -38 -32 -74 -31 -79 1 -5 -4 -6 -12 -3 -7 3
-14 -1 -14 -9 0 -7 5 -11 10 -7 5 3 4 -4 -2 -16 -7 -11 -16 -21 -22 -21 -6 0
-8 -4 -5 -9 9 -14 -5 -42 -17 -34 -5 3 -7 1 -4 -4 4 -6 -2 -31 -13 -57 -12
-25 -20 -49 -20 -52 1 -4 -2 -10 -7 -13 -5 -3 -22 -36 -38 -73 -16 -37 -32
-65 -36 -62 -4 2 -11 -1 -15 -7 -4 -8 -3 -9 4 -5 7 4 12 1 12 -8 0 -9 -4 -16
-10 -16 -5 0 -10 -9 -10 -19 0 -11 -5 -21 -12 -23 -6 -2 -12 -15 -13 -29 -1
-13 -8 -23 -14 -21 -7 1 -10 -1 -7 -6 3 -5 -5 -31 -18 -58 -13 -27 -34 -73
-48 -101 -14 -29 -29 -49 -33 -45 -5 4 -5 2 -2 -4 9 -16 -53 -155 -66 -147 -6
3 -7 1 -3 -5 7 -12 -74 -193 -84 -187 -3 2 -7 -6 -7 -18 -3 -32 -34 -97 -44
-91 -5 3 -6 -3 -2 -12 5 -13 3 -15 -7 -9 -8 5 -11 4 -7 -2 9 -15 -44 -134 -56
-126 -6 3 -7 1 -3 -5 6 -11 -22 -82 -37 -93 -5 -3 -9 -10 -10 -15 -1 -5 -6 -8
-11 -6 -5 2 -3 -5 5 -14 13 -16 12 -17 -5 -11 -15 6 -17 5 -7 -6 9 -11 8 -17
-2 -26 -8 -6 -17 -9 -21 -6 -3 3 -2 0 3 -6 10 -13 -3 -44 -29 -67 -8 -7 -9
-11 -2 -7 10 5 10 1 1 -19 -7 -14 -15 -23 -20 -21 -4 3 -11 0 -15 -6 -5 -8 -3
-9 6 -4 10 6 12 4 6 -11 -4 -10 -8 -23 -9 -29 -1 -5 -4 -12 -7 -15 -3 -3 -11
-18 -18 -33 -8 -18 -16 -25 -25 -21 -9 6 -9 4 1 -8 11 -14 10 -18 -5 -27 -10
-6 -14 -11 -9 -11 5 0 3 -7 -4 -15 -7 -8 -10 -15 -6 -15 8 0 -44 -103 -56
-111 -5 -3 -9 -8 -8 -10 5 -13 -14 -58 -23 -52 -6 4 -7 1 -2 -7 4 -7 2 -16 -6
-21 -10 -6 -11 -9 -1 -9 6 0 12 -5 12 -11 0 -5 -5 -7 -12 -3 -7 4 -2 -6 9 -22
15 -21 19 -35 12 -45 -15 -24 -10 -34 7 -13 13 16 15 16 10 2 -4 -14 0 -17 17
-15 16 1 22 -3 21 -18 0 -15 6 -21 22 -21 13 0 20 4 18 8 -3 4 0 8 5 8 6 0 11
-4 11 -10 0 -5 5 -10 10 -10 6 0 9 5 8 12 -2 7 6 12 17 13 14 0 20 7 20 21 0
12 8 30 18 41 9 11 15 22 12 25 -9 8 23 30 34 24 6 -4 8 -14 5 -24 -5 -14 -4
-14 4 -3 7 10 6 21 -4 36 -12 18 -11 26 7 60 11 21 28 45 38 54 9 9 11 12 4 7
-8 -5 -16 -6 -20 -2 -3 3 -2 6 4 6 11 0 38 50 34 64 -1 5 5 6 14 2 12 -4 14
-2 6 11 -7 13 -4 22 11 35 13 11 16 18 8 18 -10 0 -9 5 3 18 10 10 14 22 10
25 -12 13 13 7 27 -5 9 -8 8 -5 -1 7 -17 21 -15 50 4 38 6 -4 8 0 4 10 -8 21
12 67 29 67 7 0 13 8 13 18 -1 36 9 57 25 56 12 -2 14 1 6 10 -5 7 -6 16 -2
20 4 4 8 12 8 17 1 5 2 13 3 19 0 5 9 6 19 3 15 -6 15 -5 3 10 -9 12 -10 17
-2 17 7 0 9 5 5 13 -5 7 0 6 11 -3 17 -14 18 -14 5 9 -10 20 -10 23 2 18 8 -3
21 -1 29 5 11 8 11 9 -3 4 -10 -3 -20 -1 -23 4 -4 6 -1 10 5 10 6 0 10 6 9 13
-2 20 12 57 23 57 5 0 6 -4 3 -10 -4 -6 1 -7 11 -3 13 5 15 3 9 -7 -6 -9 -4
-11 5 -5 10 6 7 12 -11 26 -13 10 -18 19 -11 19 7 0 10 4 7 10 -3 6 1 7 9 4 9
-3 16 -1 16 5 0 6 -5 11 -11 11 -5 0 -7 5 -4 10 4 6 12 7 18 3 7 -4 5 2 -3 12
-8 10 -10 16 -3 12 6 -4 14 -3 18 3 3 5 0 10 -7 10 -10 0 -10 2 0 9 8 4 13 12
11 17 -1 5 5 10 14 12 9 2 17 -1 17 -7 0 -6 -8 -8 -17 -5 -14 5 -15 4 -4 -4
11 -8 11 -10 0 -15 -11 -4 -11 -6 -1 -6 8 -1 10 -6 5 -13 -9 -16 -16 -54 -7
-46 3 3 7 14 9 25 2 10 4 19 5 21 3 2 6 15 9 30 1 4 5 3 9 -3 17 -23 40 -36
47 -25 4 6 1 9 -6 8 -6 -2 -14 3 -17 11 -3 8 0 11 7 7 6 -4 9 -2 6 6 -4 9 7
14 35 15 22 2 40 -1 40 -6 0 -5 -13 -7 -30 -6 -27 2 -28 1 -18 -19 15 -30 22
-34 14 -10 -5 18 -2 20 28 19 19 0 38 -4 42 -8 4 -4 13 -2 21 4 9 9 13 8 14 0
3 -26 4 -30 11 -36 4 -4 5 4 3 17 -3 17 0 25 10 25 8 0 15 -5 15 -11 0 -6 5
-4 10 4 9 13 10 13 10 0 0 -12 2 -12 9 -2 11 17 21 17 33 0 8 -10 9 -10 5 2
-2 8 -10 14 -16 12 -6 -1 -11 2 -11 6 0 4 20 8 45 9 25 1 45 -2 45 -6 0 -5
-13 -7 -30 -6 -24 2 -28 0 -21 -14 5 -9 10 -20 11 -26 1 -5 3 -12 5 -14 2 -2
2 8 0 22 -5 25 6 30 32 14 6 -4 15 -3 18 3 5 8 11 8 19 1 7 -6 17 -7 21 -3 5
4 5 -2 1 -13 -6 -16 -5 -17 5 -8 10 10 9 15 -1 27 -7 9 -16 13 -21 10 -5 -3
-9 0 -9 6 0 17 33 7 50 -15 8 -11 14 -23 12 -27 -4 -13 15 -9 27 6 9 10 8 16
-3 26 -9 6 -20 9 -26 5 -5 -3 -10 -1 -10 5 0 5 13 9 28 8 15 -1 33 1 39 5 6 4
15 2 19 -4 4 -7 3 -9 -2 -6 -6 3 -16 1 -24 -4 -11 -7 -8 -8 10 -5 17 2 24 9
22 21 -2 10 1 14 7 10 6 -3 11 1 11 9 0 10 9 16 23 16 18 0 19 2 7 10 -9 6
-11 10 -3 10 7 0 10 7 6 17 -4 10 -2 14 5 9 6 -3 14 -2 17 4 4 6 1 9 -6 8 -8
-2 -13 7 -13 22 -1 14 -9 33 -19 43 -10 10 -15 23 -11 29 4 6 3 9 -2 6 -5 -3
-20 -1 -34 4 -14 6 -118 10 -232 10 -169 1 -208 3 -208 14 0 8 5 14 11 14 5 0
8 -4 5 -8 -2 -4 4 -9 15 -9 10 -1 19 3 19 8 0 6 -4 8 -9 5 -5 -3 -14 1 -20 8
-8 10 -9 16 -1 21 6 3 8 10 5 15 -3 4 2 13 10 20 8 7 12 16 9 21 -3 5 5 10 18
10 18 1 19 2 5 6 -18 5 -18 5 0 20 10 8 12 12 6 8 -9 -4 -10 -1 -5 12 4 10 16
37 26 61 13 31 23 41 34 37 12 -4 13 -3 2 10 -14 17 0 21 17 4 8 -8 13 -8 18
0 4 7 1 10 -7 9 -7 -2 -12 3 -10 10 1 8 -2 11 -9 7 -7 -5 -6 1 2 16 7 13 12
27 11 32 -1 4 3 7 9 7 5 0 7 5 4 10 -3 6 4 14 17 19 13 6 17 10 11 10 -7 1
-13 6 -13 12 0 5 5 7 12 3 8 -5 9 -2 5 10 -5 14 -3 17 8 13 8 -4 17 -1 21 5 4
6 3 8 -4 4 -6 -3 -13 -2 -17 4 -3 5 -1 10 5 10 6 0 9 4 5 10 -5 8 12 48 26 60
4 3 9 15 13 28 4 12 12 22 17 22 6 0 7 -6 3 -12 -4 -7 -3 -9 1 -5 12 10 15 38
4 31 -5 -3 -9 -1 -9 5 0 5 4 12 9 16 5 3 12 18 16 34 3 16 13 35 21 41 7 7 11
16 8 21 -3 5 5 9 18 10 22 0 22 1 3 9 -18 7 -19 8 -2 15 9 4 17 11 17 17 0 5
-6 6 -12 2 -9 -5 -9 -2 1 9 15 18 26 23 16 7 -10 -16 1 -11 16 7 8 10 9 14 2
10 -6 -4 -14 -3 -18 3 -6 9 7 14 30 11 6 -1 1 6 -9 14 -11 8 -14 15 -8 15 7 0
12 7 12 15 0 8 5 15 11 15 5 0 7 5 4 10 -3 6 -1 10 5 10 6 0 8 5 5 10 -3 6 -1
10 5 10 6 0 10 6 9 13 -2 20 12 57 23 57 5 0 6 5 3 10 -3 6 -1 10 5 10 6 0 8
5 4 11 -4 7 3 6 17 -2 13 -7 28 -12 33 -11 5 2 6 -4 3 -13 -4 -8 -2 -15 3 -15
13 0 13 16 -1 42 -8 15 -8 19 1 16 6 -2 11 -8 11 -13 0 -6 8 -18 16 -27 9 -10
13 -18 9 -18 -4 0 0 -10 8 -21 15 -23 11 -53 -7 -42 -6 3 -7 1 -3 -6 6 -9 11
-9 22 0 11 9 14 7 14 -10 0 -11 5 -21 11 -21 8 0 7 -6 -2 -17 -7 -10 -10 -15
-5 -11 17 14 43 -26 45 -70 1 -8 6 -10 14 -6 6 4 9 4 5 -1 -4 -4 2 -24 14 -43
12 -20 16 -32 10 -28 -7 4 -12 3 -12 -2 0 -6 7 -13 16 -16 13 -5 14 -9 4 -21
-11 -13 -10 -14 2 -10 9 4 19 -4 26 -20 7 -15 8 -24 2 -20 -5 3 -10 1 -10 -4
0 -6 8 -11 18 -11 15 -1 15 -2 -3 -16 -20 -16 -20 -16 1 -10 14 4 24 2 27 -8
4 -11 1 -13 -10 -9 -11 4 -14 2 -9 -5 4 -7 14 -12 21 -12 9 0 12 -6 8 -17 -4
-9 -2 -14 3 -10 5 3 15 -6 21 -21 13 -34 22 -61 22 -67 0 -3 7 -12 15 -21 8
-8 13 -21 10 -29 -4 -9 0 -15 7 -15 11 0 11 -3 -1 -10 -13 -8 -13 -10 2 -10
23 0 34 -20 17 -31 -11 -7 -10 -9 5 -9 11 0 17 -3 13 -6 -3 -4 0 -13 8 -21 8
-8 18 -26 21 -41 4 -15 12 -34 19 -42 7 -8 11 -28 9 -43 -2 -25 -1 -27 13 -15
15 11 16 11 10 -4 -4 -11 -2 -18 5 -18 6 0 8 -3 5 -7 -4 -3 -2 -12 5 -20 9
-11 7 -12 -7 -7 -13 5 -16 4 -11 -4 4 -7 13 -12 20 -12 7 0 18 -12 24 -26 7
-14 8 -23 2 -19 -5 3 -10 1 -10 -4 0 -6 8 -11 18 -11 15 -1 15 -2 -3 -16 -20
-16 -20 -16 1 -10 25 8 39 -15 21 -33 -9 -9 -8 -10 7 -5 13 5 17 4 12 -4 -3
-6 -2 -13 3 -16 5 -3 7 -15 4 -26 -3 -11 -10 -17 -15 -14 -5 3 -8 0 -7 -7 5
-23 -11 -58 -24 -55 -7 1 -9 1 -4 -1 4 -3 7 -11 7 -19 0 -9 -5 -12 -12 -8 -6
4 -8 3 -4 -4 7 -11 -13 -62 -24 -62 -5 0 -7 -8 -6 -17 0 -10 -5 -17 -12 -15
-8 1 -11 -2 -7 -8 4 -6 2 -16 -3 -23 -6 -7 -10 -14 -9 -17 4 -12 -55 -130 -63
-125 -5 3 -12 0 -16 -6 -4 -8 -3 -9 4 -5 21 13 13 -23 -10 -45 -13 -12 -17
-19 -11 -15 9 5 11 2 5 -11 -21 -50 -47 -93 -54 -93 -5 0 -7 -4 -3 -9 5 -9
-13 -61 -26 -71 -3 -3 -12 -22 -18 -42 -7 -21 -17 -38 -22 -38 -6 0 -8 -4 -4
-9 3 -5 -2 -16 -10 -25 -9 -8 -16 -18 -15 -21 1 -21 -1 -25 -12 -19 -7 4 -8 3
-4 -5 4 -6 -4 -35 -19 -65 -14 -29 -27 -63 -28 -75 -1 -11 -5 -21 -9 -21 -4 0
3 -18 14 -40 12 -22 25 -40 28 -40 3 0 15 -7 26 -16 10 -8 12 -12 4 -8 -13 6
-13 5 -1 -7 10 -11 15 -11 18 -1 3 6 9 12 14 12 6 0 7 -4 4 -10 -3 -5 -2 -10
4 -10 5 0 13 5 16 10 3 5 11 10 18 10 8 0 8 -3 -1 -12 -15 -15 -16 -28 -2 -28
6 0 9 4 8 9 -5 14 41 71 57 71 8 0 15 5 15 11 0 5 -5 7 -10 4 -6 -3 -1 10 11
29 12 20 25 34 29 31 5 -3 12 0 16 6 4 7 3 9 -3 6 -6 -4 -14 0 -17 9 -4 12 -2
15 9 11 8 -4 17 -1 21 5 5 7 2 8 -6 3 -10 -6 -12 -4 -7 9 4 10 7 23 7 29 0 7
5 6 11 -3 9 -12 10 -11 6 7 -3 12 1 30 9 40 7 10 14 26 14 36 0 9 5 17 11 17
5 0 7 5 3 12 -5 8 -2 9 11 4 15 -5 16 -4 6 8 -9 11 -8 17 4 30 9 8 16 18 15
21 -1 17 1 18 10 5 7 -11 8 -6 4 18 -4 21 -3 32 5 32 7 0 9 -5 5 -12 -4 -6 -3
-8 3 -5 6 4 8 19 5 33 -4 23 -2 26 13 20 15 -5 16 -4 6 8 -10 11 -9 19 1 35 7
12 16 21 21 21 4 0 5 6 1 13 -5 7 0 6 11 -3 17 -14 17 -14 7 5 -12 24 12 85
44 111 15 13 16 15 2 10 -12 -3 -15 -1 -11 9 3 8 9 12 15 9 5 -3 8 0 7 7 -4
20 11 59 22 59 5 0 3 -10 -6 -23 -13 -20 -13 -24 -1 -24 8 0 12 6 9 13 -3 8 5
11 26 10 26 -2 28 0 19 17 -5 10 -7 21 -4 24 3 3 10 -7 16 -23 6 -16 10 -30 8
-32 -2 -2 5 -8 15 -13 9 -6 17 -15 17 -22 0 -7 -4 -6 -10 3 -6 9 -12 11 -17 5
-5 -6 -7 -9 -5 -8 7 3 49 -42 46 -48 -2 -4 3 -12 11 -19 7 -6 11 -18 8 -26 -3
-8 0 -14 6 -14 9 0 9 -6 0 -22 -11 -21 -11 -22 4 -9 15 12 17 11 17 -7 0 -11
-5 -22 -12 -24 -7 -3 -5 -7 6 -11 10 -4 15 -3 11 3 -3 6 -2 10 3 10 5 0 12 -9
15 -19 3 -14 0 -18 -12 -15 -9 3 -6 -1 6 -7 20 -10 48 -62 44 -81 0 -5 3 -8 9
-8 5 0 10 -4 10 -10 0 -5 -7 -7 -15 -4 -8 4 -15 1 -15 -5 0 -6 3 -10 8 -10 19
3 33 -2 27 -11 -3 -5 -2 -10 3 -10 6 0 13 -7 16 -16 5 -14 4 -15 -9 -4 -13 11
-14 10 -9 -4 3 -9 13 -16 21 -16 13 0 13 -3 3 -15 -11 -13 -10 -14 5 -9 13 5
16 4 11 -4 -4 -7 -3 -12 3 -12 11 0 26 -39 22 -59 -1 -8 2 -10 10 -5 9 5 10 2
6 -9 -3 -10 -2 -17 4 -17 6 0 6 -7 -1 -19 -13 -26 -12 -41 1 -18 10 17 12 17
25 -9 8 -15 12 -29 9 -32 -2 -3 3 -11 13 -19 10 -9 11 -12 2 -7 -8 4 -1 -6 15
-22 20 -19 40 -29 58 -28 19 1 25 -2 17 -10 -5 -5 -10 -14 -10 -20 0 -5 9 1
20 14 11 13 20 18 20 12 0 -7 5 -12 11 -12 5 0 8 4 5 9 -3 5 1 14 8 20 11 9
16 9 22 0 5 -8 3 -9 -6 -4 -9 6 -11 4 -5 -5 6 -9 4 -11 -5 -5 -9 5 -11 4 -6
-4 6 -9 11 -9 22 0 8 6 12 14 10 17 -3 2 -1 13 5 24 9 16 13 17 27 6 16 -12
16 -11 0 7 -11 13 -14 25 -8 34 4 8 6 26 3 40 -3 14 -6 34 -7 43 0 9 -5 16
-11 15 -5 -1 -10 8 -9 20 0 12 -3 20 -7 18 -10 -7 -20 25 -12 37 3 7 1 8 -5 4
-11 -6 -16 6 -13 27 0 4 -3 7 -9 7 -5 0 -10 9 -10 20 0 11 -4 20 -10 20 -5 0
-10 7 -10 16 0 14 2 15 17 3 15 -13 15 -12 2 8 -9 15 -16 19 -21 10 -5 -8 -9
-5 -14 8 -3 11 -17 44 -31 72 -13 29 -21 58 -17 64 4 7 3 9 -3 6 -11 -7 -53
78 -53 106 0 9 -4 17 -9 17 -12 0 -63 118 -56 130 4 6 1 9 -7 8 -7 -2 -13 4
-13 12 0 8 -6 21 -13 29 -7 7 -11 20 -8 28 3 8 1 11 -4 8 -9 -6 -14 8 -11 28
0 4 -2 7 -7 7 -4 0 -13 14 -21 31 -12 27 -12 33 0 41 11 8 11 9 -2 5 -11 -4
-21 3 -28 20 -10 22 -9 25 4 20 8 -4 15 -2 15 3 0 6 -9 10 -19 10 -25 0 -32
44 -14 83 17 34 23 35 17 2 -2 -14 0 -25 4 -25 10 0 10 46 0 55 -11 11 3 35
21 35 14 0 14 2 1 10 -14 9 -13 11 9 14 5 0 13 5 18 10 5 5 3 6 -4 2 -17 -9
-17 16 -1 32 7 7 8 12 3 12 -4 0 -1 8 8 18 15 17 17 21 17 43 0 8 6 7 17 -2
15 -13 15 -12 4 9 -10 18 -9 22 4 22 8 0 15 5 15 11 0 5 -5 7 -11 3 -7 -4 -6
3 2 17 7 13 14 30 15 38 2 7 8 19 15 25 9 8 10 8 5 -1 -4 -7 -3 -13 2 -13 5 0
12 9 15 20 3 11 1 18 -4 14 -15 -9 -10 13 6 29 8 8 11 18 7 22 -4 5 2 5 12 1
17 -6 17 -5 5 11 -12 15 -12 16 5 10 17 -7 17 -6 5 10 -12 15 -12 16 5 10 17
-7 17 -6 5 10 -13 15 -12 16 6 9 15 -5 17 -4 9 4 -13 13 3 70 19 70 4 0 5 -4
2 -10 -3 -5 -1 -10 4 -10 14 0 14 17 1 25 -7 4 -6 14 2 28 7 12 11 25 10 29
-1 3 6 12 15 20 14 11 16 11 8 -1 -6 -10 -4 -12 4 -6 9 5 9 11 3 17 -14 14 -4
38 17 38 14 0 14 2 1 10 -14 9 -13 11 9 14 5 0 13 5 18 9 4 5 3 8 -2 7 -20 -4
-30 1 -17 9 7 4 14 21 16 37 1 16 6 35 10 43 6 9 5 12 -1 8 -5 -3 -18 10 -28
29 -10 19 -29 37 -42 40 -13 4 -23 11 -23 18 0 7 -3 7 -8 1 -4 -5 -16 -11 -27
-13 -11 -1 -28 -3 -37 -4 -9 -1 -15 -5 -13 -8 2 -4 -5 -13 -16 -20 -10 -8 -19
-19 -19 -25 0 -18 -68 -147 -82 -156 -8 -6 -9 -9 -1 -9 7 0 2 -18 -14 -45 -13
-25 -22 -45 -18 -45 3 0 -3 -13 -14 -29 -11 -15 -18 -31 -14 -35 3 -3 -1 -6
-11 -6 -9 0 -15 -4 -12 -9 9 -14 -5 -42 -17 -34 -6 3 -7 1 -3 -5 9 -15 -28
-95 -39 -85 -4 5 -5 2 -1 -5 9 -16 -3 -54 -15 -47 -5 3 -6 -1 -3 -9 3 -9 1
-16 -5 -16 -6 0 -10 -6 -8 -12 1 -8 -6 -12 -18 -10 -12 2 -16 0 -9 -5 11 -8
15 -43 5 -43 -6 0 -23 37 -29 62 -1 5 -11 24 -22 44 -11 19 -17 41 -14 47 4 7
3 9 -1 4 -11 -10 -56 84 -49 103 3 8 2 11 -2 7 -4 -4 -16 10 -25 30 -21 45
-23 57 -7 47 7 -4 8 -3 4 5 -4 6 -11 9 -15 6 -9 -5 -74 130 -74 153 0 6 -3 12
-7 12 -12 0 -30 49 -24 67 4 13 3 14 -3 6 -7 -9 -14 -1 -27 30 -9 23 -24 54
-32 70 -8 15 -12 27 -7 27 4 0 2 4 -5 9 -7 4 -14 14 -15 22 -2 8 -6 20 -10 27
-5 6 -5 17 -1 24 4 7 3 8 -4 4 -11 -6 -16 6 -13 27 0 4 -3 7 -7 7 -5 0 -22 30
-37 68 -16 37 -33 69 -37 70 -4 2 -8 10 -8 18 0 8 -11 37 -25 65 -14 27 -23
55 -19 61 4 7 3 8 -4 4 -7 -4 -12 -1 -12 8 0 9 -4 16 -10 16 -5 0 -10 5 -10
11 0 5 6 7 13 4 6 -4 4 0 -7 9 -10 8 -15 19 -12 24 3 6 -1 13 -10 16 -8 3 -13
10 -9 15 7 13 -42 58 -75 69 -14 5 -37 5 -52 1z m37 -385 c9 -15 13 -24 9 -21
-5 3 -14 -1 -21 -8 -10 -11 -10 -14 0 -18 7 -2 9 -7 6 -11 -3 -3 -13 2 -23 13
-14 16 -15 21 -3 32 7 8 12 20 9 27 -6 20 5 13 23 -14z m-565 -1284 c0 -5 -4
-10 -10 -10 -5 0 -10 5 -10 10 0 6 5 10 10 10 6 0 10 -4 10 -10z m210 1 c0 -5
-14 -7 -30 -6 -17 1 -33 -1 -36 -6 -3 -5 -10 -7 -15 -4 -20 13 -7 21 36 22 25
1 45 -2 45 -6z m131 -14 c-10 -9 -11 -8 -5 6 3 10 9 15 12 12 3 -3 0 -11 -7
-18z m104 -7 c3 -5 2 -10 -4 -10 -5 0 -13 5 -16 10 -3 6 -2 10 4 10 5 0 13 -4
16 -10z m800 -160 c-4 -6 -10 -8 -15 -5 -5 3 -12 0 -16 -6 -4 -7 -3 -9 3 -6 6
4 13 1 16 -7 3 -8 -1 -17 -9 -20 -8 -3 -12 -2 -9 3 3 5 1 12 -4 16 -16 9 -1
35 21 35 10 0 16 -5 13 -10z m-1759 -772 c5 -8 2 -9 -9 -5 -9 3 -19 2 -22 -4
-4 -5 -11 -7 -16 -3 -5 3 -16 0 -24 -6 -12 -10 -15 -9 -15 3 0 10 8 14 25 12
14 -1 28 2 31 6 7 13 22 11 30 -3z"/>
<path d="M2549 3463 c-13 -16 -12 -17 4 -4 9 7 17 15 17 17 0 8 -8 3 -21 -13z"/>
<path d="M2835 3471 c-3 -5 -2 -12 3 -15 5 -3 9 1 9 9 0 17 -3 19 -12 6z"/>
<path d="M2530 3400 c0 -5 5 -10 10 -10 6 0 10 5 10 10 0 6 -4 10 -10 10 -5 0
-10 -4 -10 -10z"/>
<path d="M2515 3383 c3 -3 -3 -11 -12 -18 -13 -9 -13 -14 -3 -20 9 -6 11 -4 5
5 -6 10 -4 12 7 7 16 -6 20 17 5 28 -4 3 -5 2 -2 -2z"/>
<path d="M2599 3353 c-13 -16 -12 -17 4 -4 16 13 21 21 13 21 -2 0 -10 -8 -17
-17z"/>
<path d="M2465 3269 c-4 -6 -5 -12 -2 -15 2 -3 7 2 10 11 7 17 1 20 -8 4z"/>
<path d="M2668 3233 c6 -2 9 -10 6 -15 -4 -7 -2 -8 5 -4 13 9 5 26 -12 25 -9
0 -8 -2 1 -6z"/>
<path d="M2696 3157 c3 -10 9 -15 12 -12 3 3 0 11 -7 18 -10 9 -11 8 -5 -6z"/>
<path d="M2379 3105 c-1 -3 -2 -8 -3 -12 -1 -5 -5 -15 -11 -23 -8 -13 -7 -13
8 -1 9 7 14 18 10 24 -4 6 0 8 11 4 10 -4 15 -3 11 3 -6 10 -24 14 -26 5z"/>
<path d="M2355 3040 c-3 -5 -1 -10 4 -10 6 0 11 5 11 10 0 6 -2 10 -4 10 -3 0
-8 -4 -11 -10z"/>
<path d="M2746 3038 c3 -5 10 -6 15 -3 13 9 11 12 -6 12 -8 0 -12 -4 -9 -9z"/>
<path d="M3690 3000 c0 -5 5 -10 10 -10 6 0 10 5 10 10 0 6 -4 10 -10 10 -5 0
-10 -4 -10 -10z"/>
<path d="M3653 2915 c0 -8 4 -12 9 -9 5 3 6 10 3 15 -9 13 -12 11 -12 -6z"/>
<path d="M2285 2910 c-3 -6 1 -7 9 -4 18 7 21 14 7 14 -6 0 -13 -4 -16 -10z"/>
<path d="M2820 2902 c0 -7 5 -12 11 -12 5 0 8 -4 4 -9 -3 -5 -1 -12 4 -15 13
-8 7 22 -7 36 -9 9 -12 9 -12 0z"/>
<path d="M2279 2833 c-13 -16 -12 -17 4 -4 9 7 17 15 17 17 0 8 -8 3 -21 -13z"/>
<path d="M2853 2835 c0 -8 4 -12 9 -9 5 3 6 10 3 15 -9 13 -12 11 -12 -6z"/>
<path d="M2860 2806 c0 -2 7 -7 16 -10 8 -3 12 -2 9 4 -6 10 -25 14 -25 6z"/>
<path d="M2222 2760 c-9 -14 -9 -21 0 -26 6 -4 8 -3 4 4 -3 6 1 15 10 20 9 5
12 12 7 15 -5 3 -14 -3 -21 -13z"/>
<path d="M2876 2722 c-3 -5 1 -9 9 -9 8 0 12 4 9 9 -3 4 -7 8 -9 8 -2 0 -6 -4
-9 -8z"/>
<path d="M3566 2715 c4 -8 8 -15 10 -15 2 0 4 7 4 15 0 8 -4 15 -10 15 -5 0
-7 -7 -4 -15z"/>
<path d="M2936 2661 c-3 -5 1 -14 9 -21 10 -9 15 -9 15 -1 0 6 -5 11 -11 11
-5 0 -7 5 -4 10 3 6 4 10 1 10 -3 0 -7 -4 -10 -9z"/>
<path d="M2160 2640 c0 -4 7 -7 15 -6 23 3 26 12 5 13 -11 1 -20 -2 -20 -7z"/>
<path d="M2144 2609 c-3 -6 1 -17 10 -25 9 -8 11 -9 6 -2 -14 16 -13 31 2 22
7 -4 8 -3 4 4 -9 15 -13 15 -22 1z"/>
<path d="M2910 2599 c0 -5 5 -7 10 -4 6 3 10 8 10 11 0 2 -4 4 -10 4 -5 0 -10
-5 -10 -11z"/>
<path d="M2970 2590 c0 -5 5 -10 11 -10 5 0 7 5 4 10 -3 6 -8 10 -11 10 -2 0
-4 -4 -4 -10z"/>
<path d="M3464 2515 c-18 -15 -18 -15 0 -8 15 5 17 3 11 -8 -5 -8 -4 -11 0 -6
8 7 17 37 11 37 -1 0 -11 -7 -22 -15z"/>
<path d="M2095 2501 c-3 -5 -2 -12 3 -15 5 -3 9 1 9 9 0 17 -3 19 -12 6z"/>
<path d="M2130 2506 c0 -2 7 -7 16 -10 8 -3 12 -2 9 4 -6 10 -25 14 -25 6z"/>
<path d="M3445 2480 c-3 -5 -1 -10 4 -10 6 0 11 5 11 10 0 6 -2 10 -4 10 -3 0
-8 -4 -11 -10z"/>
<path d="M3410 2400 c0 -5 5 -10 10 -10 6 0 10 5 10 10 0 6 -4 10 -10 10 -5 0
-10 -4 -10 -10z"/>
<path d="M3060 2360 c-8 -5 -10 -10 -5 -10 6 0 17 5 25 10 8 5 11 10 5 10 -5
0 -17 -5 -25 -10z"/>
<path d="M3086 2322 c-3 -5 1 -9 9 -9 8 0 12 4 9 9 -3 4 -7 8 -9 8 -2 0 -6 -4
-9 -8z"/>
<path d="M2555 2210 c-4 -6 -11 -7 -17 -4 -7 4 -8 2 -4 -5 6 -9 11 -9 22 0 14
11 18 19 10 19 -3 0 -8 -5 -11 -10z"/>
<path d="M2090 2159 c0 -5 5 -7 10 -4 6 3 10 8 10 11 0 2 -4 4 -10 4 -5 0 -10
-5 -10 -11z"/>
<path d="M2956 2018 c3 -5 10 -6 15 -3 13 9 11 12 -6 12 -8 0 -12 -4 -9 -9z"/>
<path d="M2933 1969 c-2 -23 3 -25 10 -4 4 8 3 16 -1 19 -4 3 -9 -4 -9 -15z"/>
<path d="M3230 1940 c0 -5 9 -8 20 -7 21 1 18 10 -5 13 -8 1 -15 -2 -15 -6z"/>
<path d="M1815 1890 c3 -4 14 -10 25 -13 11 -3 18 -2 15 3 -3 4 -14 10 -25 13
-11 3 -18 2 -15 -3z"/>
<path d="M3276 1887 c3 -10 9 -15 12 -12 3 3 0 11 -7 18 -10 9 -11 8 -5 -6z"/>
<path d="M3180 1880 c-9 -6 -10 -10 -3 -10 6 0 15 5 18 10 8 12 4 12 -15 0z"/>
<path d="M3154 1849 c-3 -6 -2 -15 3 -20 5 -5 9 -1 9 11 0 23 -2 24 -12 9z"/>
<path d="M2870 1840 c0 -5 5 -10 11 -10 5 0 7 5 4 10 -3 6 -8 10 -11 10 -2 0
-4 -4 -4 -10z"/>
<path d="M3314 1827 c2 -15 6 -29 9 -32 4 -3 5 -2 2 1 -2 4 0 16 6 27 7 12 7
17 1 13 -6 -3 -12 0 -15 6 -3 7 -4 1 -3 -15z"/>
<path d="M1794 1816 c-10 -8 -17 -16 -14 -19 3 -2 14 4 24 14 23 22 18 25 -10
5z"/>
<path d="M1740 1739 c-7 -11 -9 -23 -7 -26 3 -2 8 5 12 16 3 12 11 18 17 15 7
-4 8 -2 4 4 -10 16 -14 15 -26 -9z"/>
<path d="M3100 1745 c-7 -8 -9 -15 -6 -15 4 0 14 7 22 15 9 8 11 15 6 15 -5 0
-15 -7 -22 -15z"/>
<path d="M3371 1687 c2 -1 13 -9 24 -17 19 -14 19 -14 6 3 -7 9 -18 17 -24 17
-6 0 -8 -1 -6 -3z"/>
<path d="M3413 1635 c0 -8 4 -12 9 -9 5 3 6 10 3 15 -9 13 -12 11 -12 -6z"/>
<path d="M3075 1631 c-3 -5 -2 -12 3 -15 5 -3 9 1 9 9 0 17 -3 19 -12 6z"/>
<path d="M1696 1618 c3 -4 11 -5 19 -1 21 7 19 12 -4 10 -11 0 -18 -5 -15 -9z"/>
<path d="M1676 1558 c3 -5 10 -6 15 -3 13 9 11 12 -6 12 -8 0 -12 -4 -9 -9z"/>
<path d="M1370 1540 c0 -5 5 -10 11 -10 5 0 7 5 4 10 -3 6 -8 10 -11 10 -2 0
-4 -4 -4 -10z"/>
<path d="M3011 1531 c-8 -5 -9 -11 -3 -15 5 -3 12 1 16 9 6 17 6 18 -13 6z"/>
<path d="M1655 1519 c-4 -6 -5 -12 -2 -15 2 -3 7 2 10 11 7 17 1 20 -8 4z"/>
<path d="M2990 1479 c0 -5 5 -7 10 -4 6 3 10 8 10 11 0 2 -4 4 -10 4 -5 0 -10
-5 -10 -11z"/>
<path d="M3495 1459 c5 -27 11 -33 20 -20 3 6 1 11 -5 11 -6 0 -9 4 -5 9 3 5
1 12 -4 16 -6 3 -8 -4 -6 -16z"/>
<path d="M1596 1423 c-14 -19 -15 -27 -7 -36 9 -9 10 -7 5 7 -6 15 -4 17 7 11
8 -4 11 -5 7 0 -4 4 -3 14 4 22 6 7 9 15 7 17 -2 2 -12 -7 -23 -21z"/>
<path d="M1633 1435 c0 -8 4 -12 9 -9 5 3 6 10 3 15 -9 13 -12 11 -12 -6z"/>
<path d="M2971 1404 c0 -11 3 -14 6 -6 3 7 2 16 -1 19 -3 4 -6 -2 -5 -13z"/>
<path d="M2915 1329 c-4 -12 -3 -25 2 -29 4 -5 8 4 9 21 1 34 -2 37 -11 8z"/>
<path d="M3550 1340 c0 -5 5 -10 11 -10 5 0 7 5 4 10 -3 6 -8 10 -11 10 -2 0
-4 -4 -4 -10z"/>
<path d="M1310 1316 c0 -2 8 -10 18 -17 15 -13 16 -12 3 4 -13 16 -21 21 -21
13z"/>
<path d="M1553 1289 c-2 -23 3 -25 10 -4 4 8 3 16 -1 19 -4 3 -9 -4 -9 -15z"/>
<path d="M1521 1287 c-8 -10 -7 -14 2 -14 8 0 14 6 14 14 0 7 -1 13 -2 13 -2
0 -8 -6 -14 -13z"/>
<path d="M2859 1263 c-8 -9 -9 -14 -2 -10 6 4 13 1 16 -5 3 -7 4 -3 4 10 -1
26 -1 26 -18 5z"/>
<path d="M3574 1258 c-4 -7 -3 -8 4 -4 7 4 12 3 12 -2 0 -6 7 -12 14 -15 10
-4 13 -1 10 8 -7 18 -32 27 -40 13z"/>
<path d="M1526 1243 c-6 -14 -5 -15 5 -6 7 7 10 15 7 18 -3 3 -9 -2 -12 -12z"/>
<path d="M2707 1246 c-4 -10 -1 -13 9 -9 15 6 19 23 5 23 -5 0 -11 -7 -14 -14z"/>
<path d="M1375 1240 c-3 -5 -1 -10 4 -10 6 0 11 5 11 10 0 6 -2 10 -4 10 -3 0
-8 -4 -11 -10z"/>
<path d="M3641 1231 c-8 -5 -9 -11 -3 -15 5 -3 12 1 16 9 6 17 6 18 -13 6z"/>
<path d="M2771 1204 c0 -11 3 -14 6 -6 3 7 2 16 -1 19 -3 4 -6 -2 -5 -13z"/>
</g>
</svg>
